M48
; DRILL file {KiCad 7.0.7} date Thu Feb 22 20:29:34 2024
; FORMAT={-:-/ absolute / metric / decimal}
; #@! TF.CreationDate,2024-02-22T20:29:34+08:00
; #@! TF.GenerationSoftware,Kicad,Pcbnew,7.0.7
; #@! TF.FileFunction,Plated,1,4,PTH
FMAT,2
METRIC
; #@! TA.AperFunction,Plated,PTH,ViaDrill
T1C0.300
; #@! TA.AperFunction,Plated,PTH,ViaDrill
T2C0.400
; #@! TA.AperFunction,Plated,PTH,ComponentDrill
T3C0.500
; #@! TA.AperFunction,Plated,PTH,ComponentDrill
T4C1.000
; #@! TA.AperFunction,Plated,PTH,ComponentDrill
T5C1.400
; #@! TA.AperFunction,Plated,PTH,ComponentDrill
T6C3.200
%
G90
G05
T1
X128.525Y-74.675
X131.3Y-103.025
X131.35Y-120.3
X132.2Y-112.05
X132.35Y-120.95
X133.675Y-109.05
X134.3Y-120.95
X134.575Y-72.95
X135.2Y-122.4
X136.0Y-111.275
X137.25Y-107.95
X137.25Y-108.65
X137.25Y-109.35
X137.475Y-118.275
X137.5Y-124.275
X137.55Y-122.2
X138.2Y-112.5
X138.2Y-121.5
X139.95Y-110.05
X144.7Y-114.8
X145.55Y-126.4
X146.275Y-126.35
X146.3Y-114.8
X147.0Y-74.55
X147.025Y-77.575
X148.275Y-74.575
X148.35Y-114.8
X148.475Y-104.075
X149.55Y-129.9
X151.875Y-74.425
X152.4Y-110.65
X153.625Y-122.85
X154.825Y-122.9
X154.85Y-113.25
X158.2Y-126.5
X164.35Y-121.65
X165.15Y-74.65
X165.3Y-121.725
X166.0Y-104.075
X166.0Y-111.7
X167.1Y-123.5
T2
X118.5Y-110.625
X118.525Y-109.275
X118.55Y-108.0
X118.975Y-85.875
X118.975Y-87.175
X118.975Y-88.475
X118.975Y-89.775
X118.975Y-91.075
X118.975Y-92.375
X119.25Y-97.45
X119.25Y-99.3
X119.25Y-101.05
X119.25Y-102.8
X119.25Y-104.65
X120.275Y-85.875
X120.275Y-87.175
X120.275Y-88.475
X120.275Y-89.775
X120.275Y-91.075
X120.275Y-92.375
X120.45Y-97.45
X120.45Y-99.3
X120.45Y-101.05
X120.45Y-102.8
X120.45Y-104.65
X121.65Y-97.45
X121.65Y-99.3
X121.65Y-101.05
X121.65Y-102.8
X121.65Y-104.65
X122.85Y-97.45
X122.85Y-99.3
X122.85Y-101.05
X122.85Y-102.8
X122.85Y-104.65
X123.7Y-127.825
X123.7Y-130.2
X123.7Y-132.4
X123.7Y-134.7
X123.7Y-136.925
X124.05Y-97.45
X124.05Y-99.3
X124.05Y-101.05
X124.05Y-102.8
X124.05Y-104.65
X125.0Y-127.825
X125.0Y-130.2
X125.0Y-132.4
X125.0Y-134.7
X125.0Y-136.925
X125.25Y-97.45
X125.25Y-99.3
X125.25Y-101.05
X125.25Y-102.8
X125.25Y-104.65
X126.3Y-127.825
X126.3Y-130.2
X126.3Y-132.4
X126.3Y-134.7
X126.3Y-136.925
X127.6Y-127.825
X127.6Y-130.2
X127.6Y-132.4
X127.6Y-134.7
X127.6Y-136.925
X131.5Y-108.425
X131.5Y-109.375
X131.55Y-110.45
X137.525Y-85.925
X137.525Y-87.225
X137.525Y-88.525
X137.525Y-89.825
X137.525Y-91.125
X137.525Y-92.425
X137.8Y-97.5
X137.8Y-99.35
X137.8Y-101.1
X137.8Y-102.85
X137.8Y-104.7
X138.825Y-85.925
X138.825Y-87.225
X138.825Y-88.525
X138.825Y-89.825
X138.825Y-91.125
X138.825Y-92.425
X138.9Y-132.45
X139.0Y-97.5
X139.0Y-99.35
X139.0Y-101.1
X139.0Y-102.85
X139.0Y-104.7
X140.2Y-97.5
X140.2Y-99.35
X140.2Y-101.1
X140.2Y-102.85
X140.2Y-104.7
X141.4Y-97.5
X141.4Y-99.35
X141.4Y-101.1
X141.4Y-102.85
X141.4Y-104.7
X142.6Y-97.5
X142.6Y-99.35
X142.6Y-101.1
X142.6Y-102.85
X142.6Y-104.7
X143.8Y-97.5
X143.8Y-99.35
X143.8Y-101.1
X143.8Y-102.85
X143.8Y-104.7
X148.95Y-108.4
X148.95Y-109.525
X150.05Y-108.375
X150.05Y-109.5
X151.8Y-72.95
X152.25Y-127.35
X152.3Y-122.825
X153.525Y-72.95
X153.525Y-79.45
X155.7Y-108.3
X155.7Y-109.5
X155.775Y-86.1
X155.775Y-87.4
X155.775Y-88.7
X155.775Y-90.0
X155.775Y-91.3
X155.775Y-92.6
X156.1Y-97.5
X156.1Y-99.35
X156.1Y-101.1
X156.1Y-102.85
X156.1Y-104.7
X157.075Y-86.1
X157.075Y-87.4
X157.075Y-88.7
X157.075Y-90.0
X157.075Y-91.3
X157.075Y-92.6
X157.3Y-97.5
X157.3Y-99.35
X157.3Y-101.1
X157.3Y-102.85
X157.3Y-104.7
X158.5Y-97.5
X158.5Y-99.35
X158.5Y-101.1
X158.5Y-102.85
X158.5Y-104.7
X159.7Y-97.5
X159.7Y-99.35
X159.7Y-101.1
X159.7Y-102.85
X159.7Y-104.7
X160.9Y-97.5
X160.9Y-99.35
X160.9Y-101.1
X160.9Y-102.85
X160.9Y-104.7
X162.1Y-97.5
X162.1Y-99.35
X162.1Y-101.1
X162.1Y-102.85
X162.1Y-104.7
X167.525Y-107.375
X167.525Y-108.525
X167.525Y-109.775
X170.0Y-72.95
T3
X115.8Y-66.9
X115.8Y-136.9
X116.503Y-65.203
X116.503Y-68.597
X116.503Y-135.203
X116.503Y-138.597
X118.2Y-64.5
X118.2Y-69.3
X118.2Y-134.5
X118.2Y-139.3
X119.897Y-65.203
X119.897Y-68.597
X119.897Y-135.203
X119.897Y-138.597
X120.6Y-66.9
X120.6Y-136.9
X165.8Y-66.9
X165.8Y-136.9
X166.503Y-65.203
X166.503Y-68.597
X166.503Y-135.203
X166.503Y-138.597
X168.2Y-64.5
X168.2Y-69.3
X168.2Y-134.5
X168.2Y-139.3
X169.897Y-65.203
X169.897Y-68.597
X169.897Y-135.203
X169.897Y-138.597
X170.6Y-66.9
X170.6Y-136.9
T4
X135.6Y-137.56
X135.6Y-140.1
X138.14Y-137.56
X138.14Y-140.1
X140.68Y-137.56
X140.68Y-140.1
X143.22Y-137.56
X143.22Y-140.1
X145.76Y-137.56
X145.76Y-140.1
X148.3Y-137.56
X148.3Y-140.1
X150.84Y-137.56
X150.84Y-140.1
T5
X118.65Y-123.843
X118.65Y-128.843
X138.2Y-66.05
X143.2Y-66.05
X148.2Y-66.05
T6
X118.2Y-66.9
X118.2Y-136.9
X168.2Y-66.9
X168.2Y-136.9
T0
M30
