%TF.GenerationSoftware,KiCad,Pcbnew,7.0.7*%
%TF.CreationDate,2024-02-22T20:28:59+08:00*%
%TF.ProjectId,hardware,68617264-7761-4726-952e-6b696361645f,rev?*%
%TF.SameCoordinates,Original*%
%TF.FileFunction,Legend,Top*%
%TF.FilePolarity,Positive*%
%FSLAX46Y46*%
G04 Gerber Fmt 4.6, Leading zero omitted, Abs format (unit mm)*
G04 Created by KiCad (PCBNEW 7.0.7) date 2024-02-22 20:28:59*
%MOMM*%
%LPD*%
G01*
G04 APERTURE LIST*
%ADD10C,0.150000*%
%ADD11C,0.300000*%
%ADD12C,0.120000*%
%ADD13C,0.254000*%
G04 APERTURE END LIST*
D10*
X171396009Y-130969887D02*
X171396009Y-131303220D01*
X171919819Y-131303220D02*
X170919819Y-131303220D01*
X170919819Y-131303220D02*
X170919819Y-130827030D01*
X170919819Y-130255601D02*
X170919819Y-130065125D01*
X170919819Y-130065125D02*
X170967438Y-129969887D01*
X170967438Y-129969887D02*
X171062676Y-129874649D01*
X171062676Y-129874649D02*
X171253152Y-129827030D01*
X171253152Y-129827030D02*
X171586485Y-129827030D01*
X171586485Y-129827030D02*
X171776961Y-129874649D01*
X171776961Y-129874649D02*
X171872200Y-129969887D01*
X171872200Y-129969887D02*
X171919819Y-130065125D01*
X171919819Y-130065125D02*
X171919819Y-130255601D01*
X171919819Y-130255601D02*
X171872200Y-130350839D01*
X171872200Y-130350839D02*
X171776961Y-130446077D01*
X171776961Y-130446077D02*
X171586485Y-130493696D01*
X171586485Y-130493696D02*
X171253152Y-130493696D01*
X171253152Y-130493696D02*
X171062676Y-130446077D01*
X171062676Y-130446077D02*
X170967438Y-130350839D01*
X170967438Y-130350839D02*
X170919819Y-130255601D01*
X171824580Y-128827030D02*
X171872200Y-128874649D01*
X171872200Y-128874649D02*
X171919819Y-129017506D01*
X171919819Y-129017506D02*
X171919819Y-129112744D01*
X171919819Y-129112744D02*
X171872200Y-129255601D01*
X171872200Y-129255601D02*
X171776961Y-129350839D01*
X171776961Y-129350839D02*
X171681723Y-129398458D01*
X171681723Y-129398458D02*
X171491247Y-129446077D01*
X171491247Y-129446077D02*
X171348390Y-129446077D01*
X171348390Y-129446077D02*
X171157914Y-129398458D01*
X171157914Y-129398458D02*
X171062676Y-129350839D01*
X171062676Y-129350839D02*
X170967438Y-129255601D01*
X170967438Y-129255601D02*
X170919819Y-129112744D01*
X170919819Y-129112744D02*
X170919819Y-129017506D01*
X170919819Y-129017506D02*
X170967438Y-128874649D01*
X170967438Y-128874649D02*
X171015057Y-128827030D01*
X171872200Y-127207982D02*
X171919819Y-127303220D01*
X171919819Y-127303220D02*
X171919819Y-127493696D01*
X171919819Y-127493696D02*
X171872200Y-127588934D01*
X171872200Y-127588934D02*
X171824580Y-127636553D01*
X171824580Y-127636553D02*
X171729342Y-127684172D01*
X171729342Y-127684172D02*
X171443628Y-127684172D01*
X171443628Y-127684172D02*
X171348390Y-127636553D01*
X171348390Y-127636553D02*
X171300771Y-127588934D01*
X171300771Y-127588934D02*
X171253152Y-127493696D01*
X171253152Y-127493696D02*
X171253152Y-127303220D01*
X171253152Y-127303220D02*
X171300771Y-127207982D01*
X171919819Y-126636553D02*
X171872200Y-126731791D01*
X171872200Y-126731791D02*
X171824580Y-126779410D01*
X171824580Y-126779410D02*
X171729342Y-126827029D01*
X171729342Y-126827029D02*
X171443628Y-126827029D01*
X171443628Y-126827029D02*
X171348390Y-126779410D01*
X171348390Y-126779410D02*
X171300771Y-126731791D01*
X171300771Y-126731791D02*
X171253152Y-126636553D01*
X171253152Y-126636553D02*
X171253152Y-126493696D01*
X171253152Y-126493696D02*
X171300771Y-126398458D01*
X171300771Y-126398458D02*
X171348390Y-126350839D01*
X171348390Y-126350839D02*
X171443628Y-126303220D01*
X171443628Y-126303220D02*
X171729342Y-126303220D01*
X171729342Y-126303220D02*
X171824580Y-126350839D01*
X171824580Y-126350839D02*
X171872200Y-126398458D01*
X171872200Y-126398458D02*
X171919819Y-126493696D01*
X171919819Y-126493696D02*
X171919819Y-126636553D01*
X171253152Y-125874648D02*
X171919819Y-125874648D01*
X171348390Y-125874648D02*
X171300771Y-125827029D01*
X171300771Y-125827029D02*
X171253152Y-125731791D01*
X171253152Y-125731791D02*
X171253152Y-125588934D01*
X171253152Y-125588934D02*
X171300771Y-125493696D01*
X171300771Y-125493696D02*
X171396009Y-125446077D01*
X171396009Y-125446077D02*
X171919819Y-125446077D01*
X171253152Y-125112743D02*
X171253152Y-124731791D01*
X170919819Y-124969886D02*
X171776961Y-124969886D01*
X171776961Y-124969886D02*
X171872200Y-124922267D01*
X171872200Y-124922267D02*
X171919819Y-124827029D01*
X171919819Y-124827029D02*
X171919819Y-124731791D01*
X171919819Y-124398457D02*
X171253152Y-124398457D01*
X171443628Y-124398457D02*
X171348390Y-124350838D01*
X171348390Y-124350838D02*
X171300771Y-124303219D01*
X171300771Y-124303219D02*
X171253152Y-124207981D01*
X171253152Y-124207981D02*
X171253152Y-124112743D01*
X171919819Y-123636552D02*
X171872200Y-123731790D01*
X171872200Y-123731790D02*
X171824580Y-123779409D01*
X171824580Y-123779409D02*
X171729342Y-123827028D01*
X171729342Y-123827028D02*
X171443628Y-123827028D01*
X171443628Y-123827028D02*
X171348390Y-123779409D01*
X171348390Y-123779409D02*
X171300771Y-123731790D01*
X171300771Y-123731790D02*
X171253152Y-123636552D01*
X171253152Y-123636552D02*
X171253152Y-123493695D01*
X171253152Y-123493695D02*
X171300771Y-123398457D01*
X171300771Y-123398457D02*
X171348390Y-123350838D01*
X171348390Y-123350838D02*
X171443628Y-123303219D01*
X171443628Y-123303219D02*
X171729342Y-123303219D01*
X171729342Y-123303219D02*
X171824580Y-123350838D01*
X171824580Y-123350838D02*
X171872200Y-123398457D01*
X171872200Y-123398457D02*
X171919819Y-123493695D01*
X171919819Y-123493695D02*
X171919819Y-123636552D01*
X171919819Y-122731790D02*
X171872200Y-122827028D01*
X171872200Y-122827028D02*
X171776961Y-122874647D01*
X171776961Y-122874647D02*
X170919819Y-122874647D01*
X171919819Y-122207980D02*
X171872200Y-122303218D01*
X171872200Y-122303218D02*
X171776961Y-122350837D01*
X171776961Y-122350837D02*
X170919819Y-122350837D01*
X171872200Y-121446075D02*
X171919819Y-121541313D01*
X171919819Y-121541313D02*
X171919819Y-121731789D01*
X171919819Y-121731789D02*
X171872200Y-121827027D01*
X171872200Y-121827027D02*
X171776961Y-121874646D01*
X171776961Y-121874646D02*
X171396009Y-121874646D01*
X171396009Y-121874646D02*
X171300771Y-121827027D01*
X171300771Y-121827027D02*
X171253152Y-121731789D01*
X171253152Y-121731789D02*
X171253152Y-121541313D01*
X171253152Y-121541313D02*
X171300771Y-121446075D01*
X171300771Y-121446075D02*
X171396009Y-121398456D01*
X171396009Y-121398456D02*
X171491247Y-121398456D01*
X171491247Y-121398456D02*
X171586485Y-121874646D01*
X171919819Y-120969884D02*
X171253152Y-120969884D01*
X171443628Y-120969884D02*
X171348390Y-120922265D01*
X171348390Y-120922265D02*
X171300771Y-120874646D01*
X171300771Y-120874646D02*
X171253152Y-120779408D01*
X171253152Y-120779408D02*
X171253152Y-120684170D01*
X170919819Y-119731788D02*
X171919819Y-119398455D01*
X171919819Y-119398455D02*
X170919819Y-119065122D01*
X171919819Y-118207979D02*
X171919819Y-118779407D01*
X171919819Y-118493693D02*
X170919819Y-118493693D01*
X170919819Y-118493693D02*
X171062676Y-118588931D01*
X171062676Y-118588931D02*
X171157914Y-118684169D01*
X171157914Y-118684169D02*
X171205533Y-118779407D01*
X171824580Y-117779407D02*
X171872200Y-117731788D01*
X171872200Y-117731788D02*
X171919819Y-117779407D01*
X171919819Y-117779407D02*
X171872200Y-117827026D01*
X171872200Y-117827026D02*
X171824580Y-117779407D01*
X171824580Y-117779407D02*
X171919819Y-117779407D01*
X170919819Y-117112741D02*
X170919819Y-117017503D01*
X170919819Y-117017503D02*
X170967438Y-116922265D01*
X170967438Y-116922265D02*
X171015057Y-116874646D01*
X171015057Y-116874646D02*
X171110295Y-116827027D01*
X171110295Y-116827027D02*
X171300771Y-116779408D01*
X171300771Y-116779408D02*
X171538866Y-116779408D01*
X171538866Y-116779408D02*
X171729342Y-116827027D01*
X171729342Y-116827027D02*
X171824580Y-116874646D01*
X171824580Y-116874646D02*
X171872200Y-116922265D01*
X171872200Y-116922265D02*
X171919819Y-117017503D01*
X171919819Y-117017503D02*
X171919819Y-117112741D01*
X171919819Y-117112741D02*
X171872200Y-117207979D01*
X171872200Y-117207979D02*
X171824580Y-117255598D01*
X171824580Y-117255598D02*
X171729342Y-117303217D01*
X171729342Y-117303217D02*
X171538866Y-117350836D01*
X171538866Y-117350836D02*
X171300771Y-117350836D01*
X171300771Y-117350836D02*
X171110295Y-117303217D01*
X171110295Y-117303217D02*
X171015057Y-117255598D01*
X171015057Y-117255598D02*
X170967438Y-117207979D01*
X170967438Y-117207979D02*
X170919819Y-117112741D01*
X138932493Y-62439819D02*
X138932493Y-63154104D01*
X138932493Y-63154104D02*
X138884874Y-63296961D01*
X138884874Y-63296961D02*
X138789636Y-63392200D01*
X138789636Y-63392200D02*
X138646779Y-63439819D01*
X138646779Y-63439819D02*
X138551541Y-63439819D01*
X139884874Y-63439819D02*
X139408684Y-63439819D01*
X139408684Y-63439819D02*
X139408684Y-62439819D01*
X140789636Y-63344580D02*
X140742017Y-63392200D01*
X140742017Y-63392200D02*
X140599160Y-63439819D01*
X140599160Y-63439819D02*
X140503922Y-63439819D01*
X140503922Y-63439819D02*
X140361065Y-63392200D01*
X140361065Y-63392200D02*
X140265827Y-63296961D01*
X140265827Y-63296961D02*
X140218208Y-63201723D01*
X140218208Y-63201723D02*
X140170589Y-63011247D01*
X140170589Y-63011247D02*
X140170589Y-62868390D01*
X140170589Y-62868390D02*
X140218208Y-62677914D01*
X140218208Y-62677914D02*
X140265827Y-62582676D01*
X140265827Y-62582676D02*
X140361065Y-62487438D01*
X140361065Y-62487438D02*
X140503922Y-62439819D01*
X140503922Y-62439819D02*
X140599160Y-62439819D01*
X140599160Y-62439819D02*
X140742017Y-62487438D01*
X140742017Y-62487438D02*
X140789636Y-62535057D01*
X141503922Y-62439819D02*
X141503922Y-63154104D01*
X141503922Y-63154104D02*
X141456303Y-63296961D01*
X141456303Y-63296961D02*
X141361065Y-63392200D01*
X141361065Y-63392200D02*
X141218208Y-63439819D01*
X141218208Y-63439819D02*
X141122970Y-63439819D01*
X142456303Y-63439819D02*
X141980113Y-63439819D01*
X141980113Y-63439819D02*
X141980113Y-62439819D01*
X143361065Y-63344580D02*
X143313446Y-63392200D01*
X143313446Y-63392200D02*
X143170589Y-63439819D01*
X143170589Y-63439819D02*
X143075351Y-63439819D01*
X143075351Y-63439819D02*
X142932494Y-63392200D01*
X142932494Y-63392200D02*
X142837256Y-63296961D01*
X142837256Y-63296961D02*
X142789637Y-63201723D01*
X142789637Y-63201723D02*
X142742018Y-63011247D01*
X142742018Y-63011247D02*
X142742018Y-62868390D01*
X142742018Y-62868390D02*
X142789637Y-62677914D01*
X142789637Y-62677914D02*
X142837256Y-62582676D01*
X142837256Y-62582676D02*
X142932494Y-62487438D01*
X142932494Y-62487438D02*
X143075351Y-62439819D01*
X143075351Y-62439819D02*
X143170589Y-62439819D01*
X143170589Y-62439819D02*
X143313446Y-62487438D01*
X143313446Y-62487438D02*
X143361065Y-62535057D01*
X144075351Y-62439819D02*
X144075351Y-63154104D01*
X144075351Y-63154104D02*
X144027732Y-63296961D01*
X144027732Y-63296961D02*
X143932494Y-63392200D01*
X143932494Y-63392200D02*
X143789637Y-63439819D01*
X143789637Y-63439819D02*
X143694399Y-63439819D01*
X145027732Y-63439819D02*
X144551542Y-63439819D01*
X144551542Y-63439819D02*
X144551542Y-62439819D01*
X145932494Y-63344580D02*
X145884875Y-63392200D01*
X145884875Y-63392200D02*
X145742018Y-63439819D01*
X145742018Y-63439819D02*
X145646780Y-63439819D01*
X145646780Y-63439819D02*
X145503923Y-63392200D01*
X145503923Y-63392200D02*
X145408685Y-63296961D01*
X145408685Y-63296961D02*
X145361066Y-63201723D01*
X145361066Y-63201723D02*
X145313447Y-63011247D01*
X145313447Y-63011247D02*
X145313447Y-62868390D01*
X145313447Y-62868390D02*
X145361066Y-62677914D01*
X145361066Y-62677914D02*
X145408685Y-62582676D01*
X145408685Y-62582676D02*
X145503923Y-62487438D01*
X145503923Y-62487438D02*
X145646780Y-62439819D01*
X145646780Y-62439819D02*
X145742018Y-62439819D01*
X145742018Y-62439819D02*
X145884875Y-62487438D01*
X145884875Y-62487438D02*
X145932494Y-62535057D01*
X146646780Y-62439819D02*
X146646780Y-63154104D01*
X146646780Y-63154104D02*
X146599161Y-63296961D01*
X146599161Y-63296961D02*
X146503923Y-63392200D01*
X146503923Y-63392200D02*
X146361066Y-63439819D01*
X146361066Y-63439819D02*
X146265828Y-63439819D01*
X147599161Y-63439819D02*
X147122971Y-63439819D01*
X147122971Y-63439819D02*
X147122971Y-62439819D01*
X148503923Y-63344580D02*
X148456304Y-63392200D01*
X148456304Y-63392200D02*
X148313447Y-63439819D01*
X148313447Y-63439819D02*
X148218209Y-63439819D01*
X148218209Y-63439819D02*
X148075352Y-63392200D01*
X148075352Y-63392200D02*
X147980114Y-63296961D01*
X147980114Y-63296961D02*
X147932495Y-63201723D01*
X147932495Y-63201723D02*
X147884876Y-63011247D01*
X147884876Y-63011247D02*
X147884876Y-62868390D01*
X147884876Y-62868390D02*
X147932495Y-62677914D01*
X147932495Y-62677914D02*
X147980114Y-62582676D01*
X147980114Y-62582676D02*
X148075352Y-62487438D01*
X148075352Y-62487438D02*
X148218209Y-62439819D01*
X148218209Y-62439819D02*
X148313447Y-62439819D01*
X148313447Y-62439819D02*
X148456304Y-62487438D01*
X148456304Y-62487438D02*
X148503923Y-62535057D01*
X139400000Y-132500000D02*
X139400000Y-129600000D01*
X147000000Y-132500000D02*
X147000000Y-129600000D01*
X149600000Y-132500000D02*
X149600000Y-129600000D01*
X136800000Y-132500000D02*
X136800000Y-129600000D01*
X144500000Y-135400000D02*
X144500000Y-129600000D01*
X144500000Y-132500000D02*
X152618750Y-132500000D01*
X133831250Y-132521875D02*
X142000000Y-132521875D01*
X142000000Y-135400000D02*
X142000000Y-129600000D01*
X133831250Y-129600000D02*
X152618750Y-129600000D01*
X152618750Y-135443750D01*
X133831250Y-135443750D01*
X133831250Y-129600000D01*
X145336779Y-131569819D02*
X145336779Y-130569819D01*
X145765350Y-131284104D02*
X146241540Y-131284104D01*
X145670112Y-131569819D02*
X146003445Y-130569819D01*
X146003445Y-130569819D02*
X146336778Y-131569819D01*
D11*
X129665600Y-122711653D02*
X129665600Y-124997368D01*
X128522742Y-123854510D02*
X130808457Y-123854510D01*
X129665600Y-128711653D02*
X129665600Y-130997368D01*
D10*
X147836779Y-131569819D02*
X147836779Y-130569819D01*
X148646302Y-131046009D02*
X148789159Y-131093628D01*
X148789159Y-131093628D02*
X148836778Y-131141247D01*
X148836778Y-131141247D02*
X148884397Y-131236485D01*
X148884397Y-131236485D02*
X148884397Y-131379342D01*
X148884397Y-131379342D02*
X148836778Y-131474580D01*
X148836778Y-131474580D02*
X148789159Y-131522200D01*
X148789159Y-131522200D02*
X148693921Y-131569819D01*
X148693921Y-131569819D02*
X148312969Y-131569819D01*
X148312969Y-131569819D02*
X148312969Y-130569819D01*
X148312969Y-130569819D02*
X148646302Y-130569819D01*
X148646302Y-130569819D02*
X148741540Y-130617438D01*
X148741540Y-130617438D02*
X148789159Y-130665057D01*
X148789159Y-130665057D02*
X148836778Y-130760295D01*
X148836778Y-130760295D02*
X148836778Y-130855533D01*
X148836778Y-130855533D02*
X148789159Y-130950771D01*
X148789159Y-130950771D02*
X148741540Y-130998390D01*
X148741540Y-130998390D02*
X148646302Y-131046009D01*
X148646302Y-131046009D02*
X148312969Y-131046009D01*
X137260588Y-133517438D02*
X137165350Y-133469819D01*
X137165350Y-133469819D02*
X137022493Y-133469819D01*
X137022493Y-133469819D02*
X136879636Y-133517438D01*
X136879636Y-133517438D02*
X136784398Y-133612676D01*
X136784398Y-133612676D02*
X136736779Y-133707914D01*
X136736779Y-133707914D02*
X136689160Y-133898390D01*
X136689160Y-133898390D02*
X136689160Y-134041247D01*
X136689160Y-134041247D02*
X136736779Y-134231723D01*
X136736779Y-134231723D02*
X136784398Y-134326961D01*
X136784398Y-134326961D02*
X136879636Y-134422200D01*
X136879636Y-134422200D02*
X137022493Y-134469819D01*
X137022493Y-134469819D02*
X137117731Y-134469819D01*
X137117731Y-134469819D02*
X137260588Y-134422200D01*
X137260588Y-134422200D02*
X137308207Y-134374580D01*
X137308207Y-134374580D02*
X137308207Y-134041247D01*
X137308207Y-134041247D02*
X137117731Y-134041247D01*
X137736779Y-134469819D02*
X137736779Y-133469819D01*
X137736779Y-133469819D02*
X138308207Y-134469819D01*
X138308207Y-134469819D02*
X138308207Y-133469819D01*
X138784398Y-134469819D02*
X138784398Y-133469819D01*
X138784398Y-133469819D02*
X139022493Y-133469819D01*
X139022493Y-133469819D02*
X139165350Y-133517438D01*
X139165350Y-133517438D02*
X139260588Y-133612676D01*
X139260588Y-133612676D02*
X139308207Y-133707914D01*
X139308207Y-133707914D02*
X139355826Y-133898390D01*
X139355826Y-133898390D02*
X139355826Y-134041247D01*
X139355826Y-134041247D02*
X139308207Y-134231723D01*
X139308207Y-134231723D02*
X139260588Y-134326961D01*
X139260588Y-134326961D02*
X139165350Y-134422200D01*
X139165350Y-134422200D02*
X139022493Y-134469819D01*
X139022493Y-134469819D02*
X138784398Y-134469819D01*
X146936779Y-134088866D02*
X147698684Y-134088866D01*
X147317731Y-134469819D02*
X147317731Y-133707914D01*
X148651064Y-133469819D02*
X148174874Y-133469819D01*
X148174874Y-133469819D02*
X148127255Y-133946009D01*
X148127255Y-133946009D02*
X148174874Y-133898390D01*
X148174874Y-133898390D02*
X148270112Y-133850771D01*
X148270112Y-133850771D02*
X148508207Y-133850771D01*
X148508207Y-133850771D02*
X148603445Y-133898390D01*
X148603445Y-133898390D02*
X148651064Y-133946009D01*
X148651064Y-133946009D02*
X148698683Y-134041247D01*
X148698683Y-134041247D02*
X148698683Y-134279342D01*
X148698683Y-134279342D02*
X148651064Y-134374580D01*
X148651064Y-134374580D02*
X148603445Y-134422200D01*
X148603445Y-134422200D02*
X148508207Y-134469819D01*
X148508207Y-134469819D02*
X148270112Y-134469819D01*
X148270112Y-134469819D02*
X148174874Y-134422200D01*
X148174874Y-134422200D02*
X148127255Y-134374580D01*
X148984398Y-133469819D02*
X149317731Y-134469819D01*
X149317731Y-134469819D02*
X149651064Y-133469819D01*
X142541541Y-70258628D02*
X143041541Y-71758628D01*
X143041541Y-71758628D02*
X143541541Y-70258628D01*
X137136779Y-131569819D02*
X137136779Y-130569819D01*
X137612969Y-131569819D02*
X137612969Y-130569819D01*
X137612969Y-130569819D02*
X138184397Y-131569819D01*
X138184397Y-131569819D02*
X138184397Y-130569819D01*
X138612969Y-130665057D02*
X138660588Y-130617438D01*
X138660588Y-130617438D02*
X138755826Y-130569819D01*
X138755826Y-130569819D02*
X138993921Y-130569819D01*
X138993921Y-130569819D02*
X139089159Y-130617438D01*
X139089159Y-130617438D02*
X139136778Y-130665057D01*
X139136778Y-130665057D02*
X139184397Y-130760295D01*
X139184397Y-130760295D02*
X139184397Y-130855533D01*
X139184397Y-130855533D02*
X139136778Y-130998390D01*
X139136778Y-130998390D02*
X138565350Y-131569819D01*
X138565350Y-131569819D02*
X139184397Y-131569819D01*
X150636779Y-131569819D02*
X150636779Y-130569819D01*
X151684397Y-131474580D02*
X151636778Y-131522200D01*
X151636778Y-131522200D02*
X151493921Y-131569819D01*
X151493921Y-131569819D02*
X151398683Y-131569819D01*
X151398683Y-131569819D02*
X151255826Y-131522200D01*
X151255826Y-131522200D02*
X151160588Y-131426961D01*
X151160588Y-131426961D02*
X151112969Y-131331723D01*
X151112969Y-131331723D02*
X151065350Y-131141247D01*
X151065350Y-131141247D02*
X151065350Y-130998390D01*
X151065350Y-130998390D02*
X151112969Y-130807914D01*
X151112969Y-130807914D02*
X151160588Y-130712676D01*
X151160588Y-130712676D02*
X151255826Y-130617438D01*
X151255826Y-130617438D02*
X151398683Y-130569819D01*
X151398683Y-130569819D02*
X151493921Y-130569819D01*
X151493921Y-130569819D02*
X151636778Y-130617438D01*
X151636778Y-130617438D02*
X151684397Y-130665057D01*
X134436779Y-131569819D02*
X134436779Y-130569819D01*
X134912969Y-131569819D02*
X134912969Y-130569819D01*
X134912969Y-130569819D02*
X135484397Y-131569819D01*
X135484397Y-131569819D02*
X135484397Y-130569819D01*
X136484397Y-131569819D02*
X135912969Y-131569819D01*
X136198683Y-131569819D02*
X136198683Y-130569819D01*
X136198683Y-130569819D02*
X136103445Y-130712676D01*
X136103445Y-130712676D02*
X136008207Y-130807914D01*
X136008207Y-130807914D02*
X135912969Y-130855533D01*
X147662969Y-70308628D02*
X148020112Y-71808628D01*
X148020112Y-71808628D02*
X148305826Y-70737200D01*
X148305826Y-70737200D02*
X148591541Y-71808628D01*
X148591541Y-71808628D02*
X148948684Y-70308628D01*
X137955826Y-70208628D02*
X137955826Y-71422914D01*
X137955826Y-71422914D02*
X138027255Y-71565771D01*
X138027255Y-71565771D02*
X138098684Y-71637200D01*
X138098684Y-71637200D02*
X138241541Y-71708628D01*
X138241541Y-71708628D02*
X138527255Y-71708628D01*
X138527255Y-71708628D02*
X138670112Y-71637200D01*
X138670112Y-71637200D02*
X138741541Y-71565771D01*
X138741541Y-71565771D02*
X138812969Y-71422914D01*
X138812969Y-71422914D02*
X138812969Y-70208628D01*
X139736779Y-131569819D02*
X139736779Y-130569819D01*
X140212969Y-131569819D02*
X140212969Y-130569819D01*
X140212969Y-130569819D02*
X140784397Y-131569819D01*
X140784397Y-131569819D02*
X140784397Y-130569819D01*
X141165350Y-130569819D02*
X141784397Y-130569819D01*
X141784397Y-130569819D02*
X141451064Y-130950771D01*
X141451064Y-130950771D02*
X141593921Y-130950771D01*
X141593921Y-130950771D02*
X141689159Y-130998390D01*
X141689159Y-130998390D02*
X141736778Y-131046009D01*
X141736778Y-131046009D02*
X141784397Y-131141247D01*
X141784397Y-131141247D02*
X141784397Y-131379342D01*
X141784397Y-131379342D02*
X141736778Y-131474580D01*
X141736778Y-131474580D02*
X141689159Y-131522200D01*
X141689159Y-131522200D02*
X141593921Y-131569819D01*
X141593921Y-131569819D02*
X141308207Y-131569819D01*
X141308207Y-131569819D02*
X141212969Y-131522200D01*
X141212969Y-131522200D02*
X141165350Y-131474580D01*
X123311905Y-119654819D02*
X123311905Y-118654819D01*
X123311905Y-118654819D02*
X123550000Y-118654819D01*
X123550000Y-118654819D02*
X123692857Y-118702438D01*
X123692857Y-118702438D02*
X123788095Y-118797676D01*
X123788095Y-118797676D02*
X123835714Y-118892914D01*
X123835714Y-118892914D02*
X123883333Y-119083390D01*
X123883333Y-119083390D02*
X123883333Y-119226247D01*
X123883333Y-119226247D02*
X123835714Y-119416723D01*
X123835714Y-119416723D02*
X123788095Y-119511961D01*
X123788095Y-119511961D02*
X123692857Y-119607200D01*
X123692857Y-119607200D02*
X123550000Y-119654819D01*
X123550000Y-119654819D02*
X123311905Y-119654819D01*
X124740476Y-118654819D02*
X124550000Y-118654819D01*
X124550000Y-118654819D02*
X124454762Y-118702438D01*
X124454762Y-118702438D02*
X124407143Y-118750057D01*
X124407143Y-118750057D02*
X124311905Y-118892914D01*
X124311905Y-118892914D02*
X124264286Y-119083390D01*
X124264286Y-119083390D02*
X124264286Y-119464342D01*
X124264286Y-119464342D02*
X124311905Y-119559580D01*
X124311905Y-119559580D02*
X124359524Y-119607200D01*
X124359524Y-119607200D02*
X124454762Y-119654819D01*
X124454762Y-119654819D02*
X124645238Y-119654819D01*
X124645238Y-119654819D02*
X124740476Y-119607200D01*
X124740476Y-119607200D02*
X124788095Y-119559580D01*
X124788095Y-119559580D02*
X124835714Y-119464342D01*
X124835714Y-119464342D02*
X124835714Y-119226247D01*
X124835714Y-119226247D02*
X124788095Y-119131009D01*
X124788095Y-119131009D02*
X124740476Y-119083390D01*
X124740476Y-119083390D02*
X124645238Y-119035771D01*
X124645238Y-119035771D02*
X124454762Y-119035771D01*
X124454762Y-119035771D02*
X124359524Y-119083390D01*
X124359524Y-119083390D02*
X124311905Y-119131009D01*
X124311905Y-119131009D02*
X124264286Y-119226247D01*
X139932142Y-110809580D02*
X139884523Y-110857200D01*
X139884523Y-110857200D02*
X139741666Y-110904819D01*
X139741666Y-110904819D02*
X139646428Y-110904819D01*
X139646428Y-110904819D02*
X139503571Y-110857200D01*
X139503571Y-110857200D02*
X139408333Y-110761961D01*
X139408333Y-110761961D02*
X139360714Y-110666723D01*
X139360714Y-110666723D02*
X139313095Y-110476247D01*
X139313095Y-110476247D02*
X139313095Y-110333390D01*
X139313095Y-110333390D02*
X139360714Y-110142914D01*
X139360714Y-110142914D02*
X139408333Y-110047676D01*
X139408333Y-110047676D02*
X139503571Y-109952438D01*
X139503571Y-109952438D02*
X139646428Y-109904819D01*
X139646428Y-109904819D02*
X139741666Y-109904819D01*
X139741666Y-109904819D02*
X139884523Y-109952438D01*
X139884523Y-109952438D02*
X139932142Y-110000057D01*
X140884523Y-110904819D02*
X140313095Y-110904819D01*
X140598809Y-110904819D02*
X140598809Y-109904819D01*
X140598809Y-109904819D02*
X140503571Y-110047676D01*
X140503571Y-110047676D02*
X140408333Y-110142914D01*
X140408333Y-110142914D02*
X140313095Y-110190533D01*
X141789285Y-109904819D02*
X141313095Y-109904819D01*
X141313095Y-109904819D02*
X141265476Y-110381009D01*
X141265476Y-110381009D02*
X141313095Y-110333390D01*
X141313095Y-110333390D02*
X141408333Y-110285771D01*
X141408333Y-110285771D02*
X141646428Y-110285771D01*
X141646428Y-110285771D02*
X141741666Y-110333390D01*
X141741666Y-110333390D02*
X141789285Y-110381009D01*
X141789285Y-110381009D02*
X141836904Y-110476247D01*
X141836904Y-110476247D02*
X141836904Y-110714342D01*
X141836904Y-110714342D02*
X141789285Y-110809580D01*
X141789285Y-110809580D02*
X141741666Y-110857200D01*
X141741666Y-110857200D02*
X141646428Y-110904819D01*
X141646428Y-110904819D02*
X141408333Y-110904819D01*
X141408333Y-110904819D02*
X141313095Y-110857200D01*
X141313095Y-110857200D02*
X141265476Y-110809580D01*
X162654819Y-76680357D02*
X162178628Y-77013690D01*
X162654819Y-77251785D02*
X161654819Y-77251785D01*
X161654819Y-77251785D02*
X161654819Y-76870833D01*
X161654819Y-76870833D02*
X161702438Y-76775595D01*
X161702438Y-76775595D02*
X161750057Y-76727976D01*
X161750057Y-76727976D02*
X161845295Y-76680357D01*
X161845295Y-76680357D02*
X161988152Y-76680357D01*
X161988152Y-76680357D02*
X162083390Y-76727976D01*
X162083390Y-76727976D02*
X162131009Y-76775595D01*
X162131009Y-76775595D02*
X162178628Y-76870833D01*
X162178628Y-76870833D02*
X162178628Y-77251785D01*
X162654819Y-75727976D02*
X162654819Y-76299404D01*
X162654819Y-76013690D02*
X161654819Y-76013690D01*
X161654819Y-76013690D02*
X161797676Y-76108928D01*
X161797676Y-76108928D02*
X161892914Y-76204166D01*
X161892914Y-76204166D02*
X161940533Y-76299404D01*
X161654819Y-74823214D02*
X161654819Y-75299404D01*
X161654819Y-75299404D02*
X162131009Y-75347023D01*
X162131009Y-75347023D02*
X162083390Y-75299404D01*
X162083390Y-75299404D02*
X162035771Y-75204166D01*
X162035771Y-75204166D02*
X162035771Y-74966071D01*
X162035771Y-74966071D02*
X162083390Y-74870833D01*
X162083390Y-74870833D02*
X162131009Y-74823214D01*
X162131009Y-74823214D02*
X162226247Y-74775595D01*
X162226247Y-74775595D02*
X162464342Y-74775595D01*
X162464342Y-74775595D02*
X162559580Y-74823214D01*
X162559580Y-74823214D02*
X162607200Y-74870833D01*
X162607200Y-74870833D02*
X162654819Y-74966071D01*
X162654819Y-74966071D02*
X162654819Y-75204166D01*
X162654819Y-75204166D02*
X162607200Y-75299404D01*
X162607200Y-75299404D02*
X162559580Y-75347023D01*
X125904819Y-76680357D02*
X125428628Y-77013690D01*
X125904819Y-77251785D02*
X124904819Y-77251785D01*
X124904819Y-77251785D02*
X124904819Y-76870833D01*
X124904819Y-76870833D02*
X124952438Y-76775595D01*
X124952438Y-76775595D02*
X125000057Y-76727976D01*
X125000057Y-76727976D02*
X125095295Y-76680357D01*
X125095295Y-76680357D02*
X125238152Y-76680357D01*
X125238152Y-76680357D02*
X125333390Y-76727976D01*
X125333390Y-76727976D02*
X125381009Y-76775595D01*
X125381009Y-76775595D02*
X125428628Y-76870833D01*
X125428628Y-76870833D02*
X125428628Y-77251785D01*
X125904819Y-75727976D02*
X125904819Y-76299404D01*
X125904819Y-76013690D02*
X124904819Y-76013690D01*
X124904819Y-76013690D02*
X125047676Y-76108928D01*
X125047676Y-76108928D02*
X125142914Y-76204166D01*
X125142914Y-76204166D02*
X125190533Y-76299404D01*
X124904819Y-75394642D02*
X124904819Y-74775595D01*
X124904819Y-74775595D02*
X125285771Y-75108928D01*
X125285771Y-75108928D02*
X125285771Y-74966071D01*
X125285771Y-74966071D02*
X125333390Y-74870833D01*
X125333390Y-74870833D02*
X125381009Y-74823214D01*
X125381009Y-74823214D02*
X125476247Y-74775595D01*
X125476247Y-74775595D02*
X125714342Y-74775595D01*
X125714342Y-74775595D02*
X125809580Y-74823214D01*
X125809580Y-74823214D02*
X125857200Y-74870833D01*
X125857200Y-74870833D02*
X125904819Y-74966071D01*
X125904819Y-74966071D02*
X125904819Y-75251785D01*
X125904819Y-75251785D02*
X125857200Y-75347023D01*
X125857200Y-75347023D02*
X125809580Y-75394642D01*
X158507142Y-110659580D02*
X158459523Y-110707200D01*
X158459523Y-110707200D02*
X158316666Y-110754819D01*
X158316666Y-110754819D02*
X158221428Y-110754819D01*
X158221428Y-110754819D02*
X158078571Y-110707200D01*
X158078571Y-110707200D02*
X157983333Y-110611961D01*
X157983333Y-110611961D02*
X157935714Y-110516723D01*
X157935714Y-110516723D02*
X157888095Y-110326247D01*
X157888095Y-110326247D02*
X157888095Y-110183390D01*
X157888095Y-110183390D02*
X157935714Y-109992914D01*
X157935714Y-109992914D02*
X157983333Y-109897676D01*
X157983333Y-109897676D02*
X158078571Y-109802438D01*
X158078571Y-109802438D02*
X158221428Y-109754819D01*
X158221428Y-109754819D02*
X158316666Y-109754819D01*
X158316666Y-109754819D02*
X158459523Y-109802438D01*
X158459523Y-109802438D02*
X158507142Y-109850057D01*
X159459523Y-110754819D02*
X158888095Y-110754819D01*
X159173809Y-110754819D02*
X159173809Y-109754819D01*
X159173809Y-109754819D02*
X159078571Y-109897676D01*
X159078571Y-109897676D02*
X158983333Y-109992914D01*
X158983333Y-109992914D02*
X158888095Y-110040533D01*
X159792857Y-109754819D02*
X160459523Y-109754819D01*
X160459523Y-109754819D02*
X160030952Y-110754819D01*
X144304819Y-76680357D02*
X143828628Y-77013690D01*
X144304819Y-77251785D02*
X143304819Y-77251785D01*
X143304819Y-77251785D02*
X143304819Y-76870833D01*
X143304819Y-76870833D02*
X143352438Y-76775595D01*
X143352438Y-76775595D02*
X143400057Y-76727976D01*
X143400057Y-76727976D02*
X143495295Y-76680357D01*
X143495295Y-76680357D02*
X143638152Y-76680357D01*
X143638152Y-76680357D02*
X143733390Y-76727976D01*
X143733390Y-76727976D02*
X143781009Y-76775595D01*
X143781009Y-76775595D02*
X143828628Y-76870833D01*
X143828628Y-76870833D02*
X143828628Y-77251785D01*
X144304819Y-75727976D02*
X144304819Y-76299404D01*
X144304819Y-76013690D02*
X143304819Y-76013690D01*
X143304819Y-76013690D02*
X143447676Y-76108928D01*
X143447676Y-76108928D02*
X143542914Y-76204166D01*
X143542914Y-76204166D02*
X143590533Y-76299404D01*
X143638152Y-74870833D02*
X144304819Y-74870833D01*
X143257200Y-75108928D02*
X143971485Y-75347023D01*
X143971485Y-75347023D02*
X143971485Y-74727976D01*
X121607142Y-110859580D02*
X121559523Y-110907200D01*
X121559523Y-110907200D02*
X121416666Y-110954819D01*
X121416666Y-110954819D02*
X121321428Y-110954819D01*
X121321428Y-110954819D02*
X121178571Y-110907200D01*
X121178571Y-110907200D02*
X121083333Y-110811961D01*
X121083333Y-110811961D02*
X121035714Y-110716723D01*
X121035714Y-110716723D02*
X120988095Y-110526247D01*
X120988095Y-110526247D02*
X120988095Y-110383390D01*
X120988095Y-110383390D02*
X121035714Y-110192914D01*
X121035714Y-110192914D02*
X121083333Y-110097676D01*
X121083333Y-110097676D02*
X121178571Y-110002438D01*
X121178571Y-110002438D02*
X121321428Y-109954819D01*
X121321428Y-109954819D02*
X121416666Y-109954819D01*
X121416666Y-109954819D02*
X121559523Y-110002438D01*
X121559523Y-110002438D02*
X121607142Y-110050057D01*
X122559523Y-110954819D02*
X121988095Y-110954819D01*
X122273809Y-110954819D02*
X122273809Y-109954819D01*
X122273809Y-109954819D02*
X122178571Y-110097676D01*
X122178571Y-110097676D02*
X122083333Y-110192914D01*
X122083333Y-110192914D02*
X121988095Y-110240533D01*
X122892857Y-109954819D02*
X123511904Y-109954819D01*
X123511904Y-109954819D02*
X123178571Y-110335771D01*
X123178571Y-110335771D02*
X123321428Y-110335771D01*
X123321428Y-110335771D02*
X123416666Y-110383390D01*
X123416666Y-110383390D02*
X123464285Y-110431009D01*
X123464285Y-110431009D02*
X123511904Y-110526247D01*
X123511904Y-110526247D02*
X123511904Y-110764342D01*
X123511904Y-110764342D02*
X123464285Y-110859580D01*
X123464285Y-110859580D02*
X123416666Y-110907200D01*
X123416666Y-110907200D02*
X123321428Y-110954819D01*
X123321428Y-110954819D02*
X123035714Y-110954819D01*
X123035714Y-110954819D02*
X122940476Y-110907200D01*
X122940476Y-110907200D02*
X122892857Y-110859580D01*
X134954819Y-117411904D02*
X135764342Y-117411904D01*
X135764342Y-117411904D02*
X135859580Y-117364285D01*
X135859580Y-117364285D02*
X135907200Y-117316666D01*
X135907200Y-117316666D02*
X135954819Y-117221428D01*
X135954819Y-117221428D02*
X135954819Y-117030952D01*
X135954819Y-117030952D02*
X135907200Y-116935714D01*
X135907200Y-116935714D02*
X135859580Y-116888095D01*
X135859580Y-116888095D02*
X135764342Y-116840476D01*
X135764342Y-116840476D02*
X134954819Y-116840476D01*
X134954819Y-115888095D02*
X134954819Y-116364285D01*
X134954819Y-116364285D02*
X135431009Y-116411904D01*
X135431009Y-116411904D02*
X135383390Y-116364285D01*
X135383390Y-116364285D02*
X135335771Y-116269047D01*
X135335771Y-116269047D02*
X135335771Y-116030952D01*
X135335771Y-116030952D02*
X135383390Y-115935714D01*
X135383390Y-115935714D02*
X135431009Y-115888095D01*
X135431009Y-115888095D02*
X135526247Y-115840476D01*
X135526247Y-115840476D02*
X135764342Y-115840476D01*
X135764342Y-115840476D02*
X135859580Y-115888095D01*
X135859580Y-115888095D02*
X135907200Y-115935714D01*
X135907200Y-115935714D02*
X135954819Y-116030952D01*
X135954819Y-116030952D02*
X135954819Y-116269047D01*
X135954819Y-116269047D02*
X135907200Y-116364285D01*
X135907200Y-116364285D02*
X135859580Y-116411904D01*
X123361905Y-117254819D02*
X123361905Y-116254819D01*
X123361905Y-116254819D02*
X123600000Y-116254819D01*
X123600000Y-116254819D02*
X123742857Y-116302438D01*
X123742857Y-116302438D02*
X123838095Y-116397676D01*
X123838095Y-116397676D02*
X123885714Y-116492914D01*
X123885714Y-116492914D02*
X123933333Y-116683390D01*
X123933333Y-116683390D02*
X123933333Y-116826247D01*
X123933333Y-116826247D02*
X123885714Y-117016723D01*
X123885714Y-117016723D02*
X123838095Y-117111961D01*
X123838095Y-117111961D02*
X123742857Y-117207200D01*
X123742857Y-117207200D02*
X123600000Y-117254819D01*
X123600000Y-117254819D02*
X123361905Y-117254819D01*
X124838095Y-116254819D02*
X124361905Y-116254819D01*
X124361905Y-116254819D02*
X124314286Y-116731009D01*
X124314286Y-116731009D02*
X124361905Y-116683390D01*
X124361905Y-116683390D02*
X124457143Y-116635771D01*
X124457143Y-116635771D02*
X124695238Y-116635771D01*
X124695238Y-116635771D02*
X124790476Y-116683390D01*
X124790476Y-116683390D02*
X124838095Y-116731009D01*
X124838095Y-116731009D02*
X124885714Y-116826247D01*
X124885714Y-116826247D02*
X124885714Y-117064342D01*
X124885714Y-117064342D02*
X124838095Y-117159580D01*
X124838095Y-117159580D02*
X124790476Y-117207200D01*
X124790476Y-117207200D02*
X124695238Y-117254819D01*
X124695238Y-117254819D02*
X124457143Y-117254819D01*
X124457143Y-117254819D02*
X124361905Y-117207200D01*
X124361905Y-117207200D02*
X124314286Y-117159580D01*
X165654819Y-76799404D02*
X166464342Y-76799404D01*
X166464342Y-76799404D02*
X166559580Y-76751785D01*
X166559580Y-76751785D02*
X166607200Y-76704166D01*
X166607200Y-76704166D02*
X166654819Y-76608928D01*
X166654819Y-76608928D02*
X166654819Y-76418452D01*
X166654819Y-76418452D02*
X166607200Y-76323214D01*
X166607200Y-76323214D02*
X166559580Y-76275595D01*
X166559580Y-76275595D02*
X166464342Y-76227976D01*
X166464342Y-76227976D02*
X165654819Y-76227976D01*
X166654819Y-75704166D02*
X166654819Y-75513690D01*
X166654819Y-75513690D02*
X166607200Y-75418452D01*
X166607200Y-75418452D02*
X166559580Y-75370833D01*
X166559580Y-75370833D02*
X166416723Y-75275595D01*
X166416723Y-75275595D02*
X166226247Y-75227976D01*
X166226247Y-75227976D02*
X165845295Y-75227976D01*
X165845295Y-75227976D02*
X165750057Y-75275595D01*
X165750057Y-75275595D02*
X165702438Y-75323214D01*
X165702438Y-75323214D02*
X165654819Y-75418452D01*
X165654819Y-75418452D02*
X165654819Y-75608928D01*
X165654819Y-75608928D02*
X165702438Y-75704166D01*
X165702438Y-75704166D02*
X165750057Y-75751785D01*
X165750057Y-75751785D02*
X165845295Y-75799404D01*
X165845295Y-75799404D02*
X166083390Y-75799404D01*
X166083390Y-75799404D02*
X166178628Y-75751785D01*
X166178628Y-75751785D02*
X166226247Y-75704166D01*
X166226247Y-75704166D02*
X166273866Y-75608928D01*
X166273866Y-75608928D02*
X166273866Y-75418452D01*
X166273866Y-75418452D02*
X166226247Y-75323214D01*
X166226247Y-75323214D02*
X166178628Y-75275595D01*
X166178628Y-75275595D02*
X166083390Y-75227976D01*
X147504819Y-76799404D02*
X148314342Y-76799404D01*
X148314342Y-76799404D02*
X148409580Y-76751785D01*
X148409580Y-76751785D02*
X148457200Y-76704166D01*
X148457200Y-76704166D02*
X148504819Y-76608928D01*
X148504819Y-76608928D02*
X148504819Y-76418452D01*
X148504819Y-76418452D02*
X148457200Y-76323214D01*
X148457200Y-76323214D02*
X148409580Y-76275595D01*
X148409580Y-76275595D02*
X148314342Y-76227976D01*
X148314342Y-76227976D02*
X147504819Y-76227976D01*
X147933390Y-75608928D02*
X147885771Y-75704166D01*
X147885771Y-75704166D02*
X147838152Y-75751785D01*
X147838152Y-75751785D02*
X147742914Y-75799404D01*
X147742914Y-75799404D02*
X147695295Y-75799404D01*
X147695295Y-75799404D02*
X147600057Y-75751785D01*
X147600057Y-75751785D02*
X147552438Y-75704166D01*
X147552438Y-75704166D02*
X147504819Y-75608928D01*
X147504819Y-75608928D02*
X147504819Y-75418452D01*
X147504819Y-75418452D02*
X147552438Y-75323214D01*
X147552438Y-75323214D02*
X147600057Y-75275595D01*
X147600057Y-75275595D02*
X147695295Y-75227976D01*
X147695295Y-75227976D02*
X147742914Y-75227976D01*
X147742914Y-75227976D02*
X147838152Y-75275595D01*
X147838152Y-75275595D02*
X147885771Y-75323214D01*
X147885771Y-75323214D02*
X147933390Y-75418452D01*
X147933390Y-75418452D02*
X147933390Y-75608928D01*
X147933390Y-75608928D02*
X147981009Y-75704166D01*
X147981009Y-75704166D02*
X148028628Y-75751785D01*
X148028628Y-75751785D02*
X148123866Y-75799404D01*
X148123866Y-75799404D02*
X148314342Y-75799404D01*
X148314342Y-75799404D02*
X148409580Y-75751785D01*
X148409580Y-75751785D02*
X148457200Y-75704166D01*
X148457200Y-75704166D02*
X148504819Y-75608928D01*
X148504819Y-75608928D02*
X148504819Y-75418452D01*
X148504819Y-75418452D02*
X148457200Y-75323214D01*
X148457200Y-75323214D02*
X148409580Y-75275595D01*
X148409580Y-75275595D02*
X148314342Y-75227976D01*
X148314342Y-75227976D02*
X148123866Y-75227976D01*
X148123866Y-75227976D02*
X148028628Y-75275595D01*
X148028628Y-75275595D02*
X147981009Y-75323214D01*
X147981009Y-75323214D02*
X147933390Y-75418452D01*
X170539580Y-74292857D02*
X170587200Y-74340476D01*
X170587200Y-74340476D02*
X170634819Y-74483333D01*
X170634819Y-74483333D02*
X170634819Y-74578571D01*
X170634819Y-74578571D02*
X170587200Y-74721428D01*
X170587200Y-74721428D02*
X170491961Y-74816666D01*
X170491961Y-74816666D02*
X170396723Y-74864285D01*
X170396723Y-74864285D02*
X170206247Y-74911904D01*
X170206247Y-74911904D02*
X170063390Y-74911904D01*
X170063390Y-74911904D02*
X169872914Y-74864285D01*
X169872914Y-74864285D02*
X169777676Y-74816666D01*
X169777676Y-74816666D02*
X169682438Y-74721428D01*
X169682438Y-74721428D02*
X169634819Y-74578571D01*
X169634819Y-74578571D02*
X169634819Y-74483333D01*
X169634819Y-74483333D02*
X169682438Y-74340476D01*
X169682438Y-74340476D02*
X169730057Y-74292857D01*
X169730057Y-73911904D02*
X169682438Y-73864285D01*
X169682438Y-73864285D02*
X169634819Y-73769047D01*
X169634819Y-73769047D02*
X169634819Y-73530952D01*
X169634819Y-73530952D02*
X169682438Y-73435714D01*
X169682438Y-73435714D02*
X169730057Y-73388095D01*
X169730057Y-73388095D02*
X169825295Y-73340476D01*
X169825295Y-73340476D02*
X169920533Y-73340476D01*
X169920533Y-73340476D02*
X170063390Y-73388095D01*
X170063390Y-73388095D02*
X170634819Y-73959523D01*
X170634819Y-73959523D02*
X170634819Y-73340476D01*
X169634819Y-73007142D02*
X169634819Y-72340476D01*
X169634819Y-72340476D02*
X170634819Y-72769047D01*
X152389580Y-74292857D02*
X152437200Y-74340476D01*
X152437200Y-74340476D02*
X152484819Y-74483333D01*
X152484819Y-74483333D02*
X152484819Y-74578571D01*
X152484819Y-74578571D02*
X152437200Y-74721428D01*
X152437200Y-74721428D02*
X152341961Y-74816666D01*
X152341961Y-74816666D02*
X152246723Y-74864285D01*
X152246723Y-74864285D02*
X152056247Y-74911904D01*
X152056247Y-74911904D02*
X151913390Y-74911904D01*
X151913390Y-74911904D02*
X151722914Y-74864285D01*
X151722914Y-74864285D02*
X151627676Y-74816666D01*
X151627676Y-74816666D02*
X151532438Y-74721428D01*
X151532438Y-74721428D02*
X151484819Y-74578571D01*
X151484819Y-74578571D02*
X151484819Y-74483333D01*
X151484819Y-74483333D02*
X151532438Y-74340476D01*
X151532438Y-74340476D02*
X151580057Y-74292857D01*
X151580057Y-73911904D02*
X151532438Y-73864285D01*
X151532438Y-73864285D02*
X151484819Y-73769047D01*
X151484819Y-73769047D02*
X151484819Y-73530952D01*
X151484819Y-73530952D02*
X151532438Y-73435714D01*
X151532438Y-73435714D02*
X151580057Y-73388095D01*
X151580057Y-73388095D02*
X151675295Y-73340476D01*
X151675295Y-73340476D02*
X151770533Y-73340476D01*
X151770533Y-73340476D02*
X151913390Y-73388095D01*
X151913390Y-73388095D02*
X152484819Y-73959523D01*
X152484819Y-73959523D02*
X152484819Y-73340476D01*
X151484819Y-72483333D02*
X151484819Y-72673809D01*
X151484819Y-72673809D02*
X151532438Y-72769047D01*
X151532438Y-72769047D02*
X151580057Y-72816666D01*
X151580057Y-72816666D02*
X151722914Y-72911904D01*
X151722914Y-72911904D02*
X151913390Y-72959523D01*
X151913390Y-72959523D02*
X152294342Y-72959523D01*
X152294342Y-72959523D02*
X152389580Y-72911904D01*
X152389580Y-72911904D02*
X152437200Y-72864285D01*
X152437200Y-72864285D02*
X152484819Y-72769047D01*
X152484819Y-72769047D02*
X152484819Y-72578571D01*
X152484819Y-72578571D02*
X152437200Y-72483333D01*
X152437200Y-72483333D02*
X152389580Y-72435714D01*
X152389580Y-72435714D02*
X152294342Y-72388095D01*
X152294342Y-72388095D02*
X152056247Y-72388095D01*
X152056247Y-72388095D02*
X151961009Y-72435714D01*
X151961009Y-72435714D02*
X151913390Y-72483333D01*
X151913390Y-72483333D02*
X151865771Y-72578571D01*
X151865771Y-72578571D02*
X151865771Y-72769047D01*
X151865771Y-72769047D02*
X151913390Y-72864285D01*
X151913390Y-72864285D02*
X151961009Y-72911904D01*
X151961009Y-72911904D02*
X152056247Y-72959523D01*
X163357142Y-110659580D02*
X163309523Y-110707200D01*
X163309523Y-110707200D02*
X163166666Y-110754819D01*
X163166666Y-110754819D02*
X163071428Y-110754819D01*
X163071428Y-110754819D02*
X162928571Y-110707200D01*
X162928571Y-110707200D02*
X162833333Y-110611961D01*
X162833333Y-110611961D02*
X162785714Y-110516723D01*
X162785714Y-110516723D02*
X162738095Y-110326247D01*
X162738095Y-110326247D02*
X162738095Y-110183390D01*
X162738095Y-110183390D02*
X162785714Y-109992914D01*
X162785714Y-109992914D02*
X162833333Y-109897676D01*
X162833333Y-109897676D02*
X162928571Y-109802438D01*
X162928571Y-109802438D02*
X163071428Y-109754819D01*
X163071428Y-109754819D02*
X163166666Y-109754819D01*
X163166666Y-109754819D02*
X163309523Y-109802438D01*
X163309523Y-109802438D02*
X163357142Y-109850057D01*
X164309523Y-110754819D02*
X163738095Y-110754819D01*
X164023809Y-110754819D02*
X164023809Y-109754819D01*
X164023809Y-109754819D02*
X163928571Y-109897676D01*
X163928571Y-109897676D02*
X163833333Y-109992914D01*
X163833333Y-109992914D02*
X163738095Y-110040533D01*
X164880952Y-110183390D02*
X164785714Y-110135771D01*
X164785714Y-110135771D02*
X164738095Y-110088152D01*
X164738095Y-110088152D02*
X164690476Y-109992914D01*
X164690476Y-109992914D02*
X164690476Y-109945295D01*
X164690476Y-109945295D02*
X164738095Y-109850057D01*
X164738095Y-109850057D02*
X164785714Y-109802438D01*
X164785714Y-109802438D02*
X164880952Y-109754819D01*
X164880952Y-109754819D02*
X165071428Y-109754819D01*
X165071428Y-109754819D02*
X165166666Y-109802438D01*
X165166666Y-109802438D02*
X165214285Y-109850057D01*
X165214285Y-109850057D02*
X165261904Y-109945295D01*
X165261904Y-109945295D02*
X165261904Y-109992914D01*
X165261904Y-109992914D02*
X165214285Y-110088152D01*
X165214285Y-110088152D02*
X165166666Y-110135771D01*
X165166666Y-110135771D02*
X165071428Y-110183390D01*
X165071428Y-110183390D02*
X164880952Y-110183390D01*
X164880952Y-110183390D02*
X164785714Y-110231009D01*
X164785714Y-110231009D02*
X164738095Y-110278628D01*
X164738095Y-110278628D02*
X164690476Y-110373866D01*
X164690476Y-110373866D02*
X164690476Y-110564342D01*
X164690476Y-110564342D02*
X164738095Y-110659580D01*
X164738095Y-110659580D02*
X164785714Y-110707200D01*
X164785714Y-110707200D02*
X164880952Y-110754819D01*
X164880952Y-110754819D02*
X165071428Y-110754819D01*
X165071428Y-110754819D02*
X165166666Y-110707200D01*
X165166666Y-110707200D02*
X165214285Y-110659580D01*
X165214285Y-110659580D02*
X165261904Y-110564342D01*
X165261904Y-110564342D02*
X165261904Y-110373866D01*
X165261904Y-110373866D02*
X165214285Y-110278628D01*
X165214285Y-110278628D02*
X165166666Y-110231009D01*
X165166666Y-110231009D02*
X165071428Y-110183390D01*
X144832142Y-110759580D02*
X144784523Y-110807200D01*
X144784523Y-110807200D02*
X144641666Y-110854819D01*
X144641666Y-110854819D02*
X144546428Y-110854819D01*
X144546428Y-110854819D02*
X144403571Y-110807200D01*
X144403571Y-110807200D02*
X144308333Y-110711961D01*
X144308333Y-110711961D02*
X144260714Y-110616723D01*
X144260714Y-110616723D02*
X144213095Y-110426247D01*
X144213095Y-110426247D02*
X144213095Y-110283390D01*
X144213095Y-110283390D02*
X144260714Y-110092914D01*
X144260714Y-110092914D02*
X144308333Y-109997676D01*
X144308333Y-109997676D02*
X144403571Y-109902438D01*
X144403571Y-109902438D02*
X144546428Y-109854819D01*
X144546428Y-109854819D02*
X144641666Y-109854819D01*
X144641666Y-109854819D02*
X144784523Y-109902438D01*
X144784523Y-109902438D02*
X144832142Y-109950057D01*
X145784523Y-110854819D02*
X145213095Y-110854819D01*
X145498809Y-110854819D02*
X145498809Y-109854819D01*
X145498809Y-109854819D02*
X145403571Y-109997676D01*
X145403571Y-109997676D02*
X145308333Y-110092914D01*
X145308333Y-110092914D02*
X145213095Y-110140533D01*
X146641666Y-109854819D02*
X146451190Y-109854819D01*
X146451190Y-109854819D02*
X146355952Y-109902438D01*
X146355952Y-109902438D02*
X146308333Y-109950057D01*
X146308333Y-109950057D02*
X146213095Y-110092914D01*
X146213095Y-110092914D02*
X146165476Y-110283390D01*
X146165476Y-110283390D02*
X146165476Y-110664342D01*
X146165476Y-110664342D02*
X146213095Y-110759580D01*
X146213095Y-110759580D02*
X146260714Y-110807200D01*
X146260714Y-110807200D02*
X146355952Y-110854819D01*
X146355952Y-110854819D02*
X146546428Y-110854819D01*
X146546428Y-110854819D02*
X146641666Y-110807200D01*
X146641666Y-110807200D02*
X146689285Y-110759580D01*
X146689285Y-110759580D02*
X146736904Y-110664342D01*
X146736904Y-110664342D02*
X146736904Y-110426247D01*
X146736904Y-110426247D02*
X146689285Y-110331009D01*
X146689285Y-110331009D02*
X146641666Y-110283390D01*
X146641666Y-110283390D02*
X146546428Y-110235771D01*
X146546428Y-110235771D02*
X146355952Y-110235771D01*
X146355952Y-110235771D02*
X146260714Y-110283390D01*
X146260714Y-110283390D02*
X146213095Y-110331009D01*
X146213095Y-110331009D02*
X146165476Y-110426247D01*
X123311905Y-114804819D02*
X123311905Y-113804819D01*
X123311905Y-113804819D02*
X123550000Y-113804819D01*
X123550000Y-113804819D02*
X123692857Y-113852438D01*
X123692857Y-113852438D02*
X123788095Y-113947676D01*
X123788095Y-113947676D02*
X123835714Y-114042914D01*
X123835714Y-114042914D02*
X123883333Y-114233390D01*
X123883333Y-114233390D02*
X123883333Y-114376247D01*
X123883333Y-114376247D02*
X123835714Y-114566723D01*
X123835714Y-114566723D02*
X123788095Y-114661961D01*
X123788095Y-114661961D02*
X123692857Y-114757200D01*
X123692857Y-114757200D02*
X123550000Y-114804819D01*
X123550000Y-114804819D02*
X123311905Y-114804819D01*
X124740476Y-114138152D02*
X124740476Y-114804819D01*
X124502381Y-113757200D02*
X124264286Y-114471485D01*
X124264286Y-114471485D02*
X124883333Y-114471485D01*
X138039580Y-123892857D02*
X138087200Y-123940476D01*
X138087200Y-123940476D02*
X138134819Y-124083333D01*
X138134819Y-124083333D02*
X138134819Y-124178571D01*
X138134819Y-124178571D02*
X138087200Y-124321428D01*
X138087200Y-124321428D02*
X137991961Y-124416666D01*
X137991961Y-124416666D02*
X137896723Y-124464285D01*
X137896723Y-124464285D02*
X137706247Y-124511904D01*
X137706247Y-124511904D02*
X137563390Y-124511904D01*
X137563390Y-124511904D02*
X137372914Y-124464285D01*
X137372914Y-124464285D02*
X137277676Y-124416666D01*
X137277676Y-124416666D02*
X137182438Y-124321428D01*
X137182438Y-124321428D02*
X137134819Y-124178571D01*
X137134819Y-124178571D02*
X137134819Y-124083333D01*
X137134819Y-124083333D02*
X137182438Y-123940476D01*
X137182438Y-123940476D02*
X137230057Y-123892857D01*
X137230057Y-123511904D02*
X137182438Y-123464285D01*
X137182438Y-123464285D02*
X137134819Y-123369047D01*
X137134819Y-123369047D02*
X137134819Y-123130952D01*
X137134819Y-123130952D02*
X137182438Y-123035714D01*
X137182438Y-123035714D02*
X137230057Y-122988095D01*
X137230057Y-122988095D02*
X137325295Y-122940476D01*
X137325295Y-122940476D02*
X137420533Y-122940476D01*
X137420533Y-122940476D02*
X137563390Y-122988095D01*
X137563390Y-122988095D02*
X138134819Y-123559523D01*
X138134819Y-123559523D02*
X138134819Y-122940476D01*
X137468152Y-122083333D02*
X138134819Y-122083333D01*
X137087200Y-122321428D02*
X137801485Y-122559523D01*
X137801485Y-122559523D02*
X137801485Y-121940476D01*
X126432142Y-110659580D02*
X126384523Y-110707200D01*
X126384523Y-110707200D02*
X126241666Y-110754819D01*
X126241666Y-110754819D02*
X126146428Y-110754819D01*
X126146428Y-110754819D02*
X126003571Y-110707200D01*
X126003571Y-110707200D02*
X125908333Y-110611961D01*
X125908333Y-110611961D02*
X125860714Y-110516723D01*
X125860714Y-110516723D02*
X125813095Y-110326247D01*
X125813095Y-110326247D02*
X125813095Y-110183390D01*
X125813095Y-110183390D02*
X125860714Y-109992914D01*
X125860714Y-109992914D02*
X125908333Y-109897676D01*
X125908333Y-109897676D02*
X126003571Y-109802438D01*
X126003571Y-109802438D02*
X126146428Y-109754819D01*
X126146428Y-109754819D02*
X126241666Y-109754819D01*
X126241666Y-109754819D02*
X126384523Y-109802438D01*
X126384523Y-109802438D02*
X126432142Y-109850057D01*
X127384523Y-110754819D02*
X126813095Y-110754819D01*
X127098809Y-110754819D02*
X127098809Y-109754819D01*
X127098809Y-109754819D02*
X127003571Y-109897676D01*
X127003571Y-109897676D02*
X126908333Y-109992914D01*
X126908333Y-109992914D02*
X126813095Y-110040533D01*
X128241666Y-110088152D02*
X128241666Y-110754819D01*
X128003571Y-109707200D02*
X127765476Y-110421485D01*
X127765476Y-110421485D02*
X128384523Y-110421485D01*
X133939580Y-74342857D02*
X133987200Y-74390476D01*
X133987200Y-74390476D02*
X134034819Y-74533333D01*
X134034819Y-74533333D02*
X134034819Y-74628571D01*
X134034819Y-74628571D02*
X133987200Y-74771428D01*
X133987200Y-74771428D02*
X133891961Y-74866666D01*
X133891961Y-74866666D02*
X133796723Y-74914285D01*
X133796723Y-74914285D02*
X133606247Y-74961904D01*
X133606247Y-74961904D02*
X133463390Y-74961904D01*
X133463390Y-74961904D02*
X133272914Y-74914285D01*
X133272914Y-74914285D02*
X133177676Y-74866666D01*
X133177676Y-74866666D02*
X133082438Y-74771428D01*
X133082438Y-74771428D02*
X133034819Y-74628571D01*
X133034819Y-74628571D02*
X133034819Y-74533333D01*
X133034819Y-74533333D02*
X133082438Y-74390476D01*
X133082438Y-74390476D02*
X133130057Y-74342857D01*
X133130057Y-73961904D02*
X133082438Y-73914285D01*
X133082438Y-73914285D02*
X133034819Y-73819047D01*
X133034819Y-73819047D02*
X133034819Y-73580952D01*
X133034819Y-73580952D02*
X133082438Y-73485714D01*
X133082438Y-73485714D02*
X133130057Y-73438095D01*
X133130057Y-73438095D02*
X133225295Y-73390476D01*
X133225295Y-73390476D02*
X133320533Y-73390476D01*
X133320533Y-73390476D02*
X133463390Y-73438095D01*
X133463390Y-73438095D02*
X134034819Y-74009523D01*
X134034819Y-74009523D02*
X134034819Y-73390476D01*
X133034819Y-72485714D02*
X133034819Y-72961904D01*
X133034819Y-72961904D02*
X133511009Y-73009523D01*
X133511009Y-73009523D02*
X133463390Y-72961904D01*
X133463390Y-72961904D02*
X133415771Y-72866666D01*
X133415771Y-72866666D02*
X133415771Y-72628571D01*
X133415771Y-72628571D02*
X133463390Y-72533333D01*
X133463390Y-72533333D02*
X133511009Y-72485714D01*
X133511009Y-72485714D02*
X133606247Y-72438095D01*
X133606247Y-72438095D02*
X133844342Y-72438095D01*
X133844342Y-72438095D02*
X133939580Y-72485714D01*
X133939580Y-72485714D02*
X133987200Y-72533333D01*
X133987200Y-72533333D02*
X134034819Y-72628571D01*
X134034819Y-72628571D02*
X134034819Y-72866666D01*
X134034819Y-72866666D02*
X133987200Y-72961904D01*
X133987200Y-72961904D02*
X133939580Y-73009523D01*
X129104819Y-76661904D02*
X129914342Y-76661904D01*
X129914342Y-76661904D02*
X130009580Y-76614285D01*
X130009580Y-76614285D02*
X130057200Y-76566666D01*
X130057200Y-76566666D02*
X130104819Y-76471428D01*
X130104819Y-76471428D02*
X130104819Y-76280952D01*
X130104819Y-76280952D02*
X130057200Y-76185714D01*
X130057200Y-76185714D02*
X130009580Y-76138095D01*
X130009580Y-76138095D02*
X129914342Y-76090476D01*
X129914342Y-76090476D02*
X129104819Y-76090476D01*
X129104819Y-75709523D02*
X129104819Y-75042857D01*
X129104819Y-75042857D02*
X130104819Y-75471428D01*
D12*
%TO.C,D6*%
X126285000Y-120200000D02*
X126285000Y-118200000D01*
X126285000Y-120200000D02*
X122425000Y-120200000D01*
X126285000Y-118200000D02*
X122425000Y-118200000D01*
%TO.C,Q2*%
X119730000Y-93660000D02*
X130000000Y-93660000D01*
X130000000Y-83540000D02*
X118330000Y-83540000D01*
%TO.C,C20*%
X145222500Y-113909420D02*
X145222500Y-114190580D01*
X144202500Y-113909420D02*
X144202500Y-114190580D01*
%TO.C,R4*%
X158762258Y-129697500D02*
X158287742Y-129697500D01*
X158762258Y-128652500D02*
X158287742Y-128652500D01*
%TO.C,C15*%
X139863748Y-107490000D02*
X141286252Y-107490000D01*
X139863748Y-109310000D02*
X141286252Y-109310000D01*
%TO.C,U3*%
X158525000Y-124915000D02*
X156725000Y-124915000D01*
X158525000Y-124915000D02*
X159325000Y-124915000D01*
X158525000Y-128035000D02*
X157725000Y-128035000D01*
X158525000Y-128035000D02*
X159325000Y-128035000D01*
%TO.C,R10*%
X115412742Y-83877500D02*
X115887258Y-83877500D01*
X115412742Y-84922500D02*
X115887258Y-84922500D01*
%TO.C,R15*%
X160490000Y-78214564D02*
X160490000Y-73860436D01*
X163910000Y-78214564D02*
X163910000Y-73860436D01*
%TO.C,R12*%
X152562742Y-83877500D02*
X153037258Y-83877500D01*
X152562742Y-84922500D02*
X153037258Y-84922500D01*
%TO.C,R13*%
X123690000Y-78214564D02*
X123690000Y-73860436D01*
X127110000Y-78214564D02*
X127110000Y-73860436D01*
%TO.C,C8*%
X152822500Y-113909420D02*
X152822500Y-114190580D01*
X151802500Y-113909420D02*
X151802500Y-114190580D01*
%TO.C,C4*%
X155960000Y-124734420D02*
X155960000Y-125015580D01*
X154940000Y-124734420D02*
X154940000Y-125015580D01*
%TO.C,C6*%
X154360000Y-124734420D02*
X154360000Y-125015580D01*
X153340000Y-124734420D02*
X153340000Y-125015580D01*
%TO.C,C17*%
X158413748Y-107540000D02*
X159836252Y-107540000D01*
X158413748Y-109360000D02*
X159836252Y-109360000D01*
D13*
%TO.C,U6*%
X135700000Y-62050000D02*
X135700000Y-69750000D01*
X135700000Y-62050000D02*
X150700000Y-62050000D01*
X135700000Y-63849000D02*
X150700000Y-63849000D01*
X135700000Y-67895000D02*
X150700000Y-67895000D01*
X135700000Y-69750000D02*
X150700000Y-69750000D01*
X150700000Y-62050000D02*
X150700000Y-69750000D01*
X150700000Y-63358000D02*
X151328000Y-63358000D01*
X151328000Y-63358000D02*
X151328000Y-64399000D01*
X151328000Y-64399000D02*
X150700000Y-64399000D01*
D12*
%TO.C,C1*%
X158384420Y-123215000D02*
X158665580Y-123215000D01*
X158384420Y-124235000D02*
X158665580Y-124235000D01*
%TO.C,R14*%
X142140000Y-78214564D02*
X142140000Y-73860436D01*
X145560000Y-78214564D02*
X145560000Y-73860436D01*
%TO.C,C5*%
X152760000Y-124734420D02*
X152760000Y-125015580D01*
X151740000Y-124734420D02*
X151740000Y-125015580D01*
%TO.C,C13*%
X121563748Y-107540000D02*
X122986252Y-107540000D01*
X121563748Y-109360000D02*
X122986252Y-109360000D01*
%TO.C,Q6*%
X156550000Y-93660000D02*
X166820000Y-93660000D01*
X166820000Y-83540000D02*
X155150000Y-83540000D01*
%TO.C,U5*%
X131890000Y-116750000D02*
X131890000Y-120350000D01*
X131890000Y-116750000D02*
X131890000Y-114550000D01*
X138660000Y-116750000D02*
X138660000Y-118950000D01*
X138660000Y-116750000D02*
X138660000Y-114550000D01*
%TO.C,Q3*%
X148580000Y-96090000D02*
X138310000Y-96090000D01*
X138310000Y-106210000D02*
X149980000Y-106210000D01*
%TO.C,C11*%
X166110000Y-124263748D02*
X166110000Y-125686252D01*
X164290000Y-124263748D02*
X164290000Y-125686252D01*
%TO.C,C21*%
X128465580Y-114810000D02*
X128184420Y-114810000D01*
X128465580Y-113790000D02*
X128184420Y-113790000D01*
%TO.C,C12*%
X145640580Y-123960000D02*
X145359420Y-123960000D01*
X145640580Y-122940000D02*
X145359420Y-122940000D01*
%TO.C,D5*%
X126285000Y-117750000D02*
X126285000Y-115750000D01*
X126285000Y-117750000D02*
X122425000Y-117750000D01*
X126285000Y-115750000D02*
X122425000Y-115750000D01*
%TO.C,R11*%
X134162742Y-83877500D02*
X134637258Y-83877500D01*
X134162742Y-84922500D02*
X134637258Y-84922500D01*
%TO.C,U9*%
X164490000Y-76037500D02*
X164490000Y-79637500D01*
X164490000Y-76037500D02*
X164490000Y-73837500D01*
X167710000Y-76037500D02*
X167710000Y-78237500D01*
X167710000Y-76037500D02*
X167710000Y-73837500D01*
%TO.C,U1*%
X149312500Y-115610000D02*
X151112500Y-115610000D01*
X149312500Y-115610000D02*
X148512500Y-115610000D01*
X149312500Y-112490000D02*
X150112500Y-112490000D01*
X149312500Y-112490000D02*
X148512500Y-112490000D01*
%TO.C,R8*%
X151327500Y-107137258D02*
X151327500Y-106662742D01*
X152372500Y-107137258D02*
X152372500Y-106662742D01*
%TO.C,C3*%
X152740000Y-121140580D02*
X152740000Y-120859420D01*
X153760000Y-121140580D02*
X153760000Y-120859420D01*
%TO.C,D1*%
X144150000Y-122535000D02*
X146150000Y-122535000D01*
X144150000Y-122535000D02*
X144150000Y-118525000D01*
X146150000Y-122535000D02*
X146150000Y-118525000D01*
%TO.C,R5*%
X150072500Y-127737742D02*
X150072500Y-128212258D01*
X149027500Y-127737742D02*
X149027500Y-128212258D01*
%TO.C,C7*%
X154422500Y-113909420D02*
X154422500Y-114190580D01*
X153402500Y-113909420D02*
X153402500Y-114190580D01*
%TO.C,D2*%
X157190000Y-115535000D02*
X158660000Y-115535000D01*
X158660000Y-115535000D02*
X158660000Y-113250000D01*
X157190000Y-113250000D02*
X157190000Y-115535000D01*
%TO.C,Q5*%
X166930000Y-96090000D02*
X156660000Y-96090000D01*
X156660000Y-106210000D02*
X168330000Y-106210000D01*
%TO.C,R3*%
X155972500Y-127737742D02*
X155972500Y-128212258D01*
X154927500Y-127737742D02*
X154927500Y-128212258D01*
%TO.C,R1*%
X156872500Y-113812742D02*
X156872500Y-114287258D01*
X155827500Y-113812742D02*
X155827500Y-114287258D01*
%TO.C,L1*%
X146740000Y-117815000D02*
X146740000Y-118615000D01*
X146740000Y-117815000D02*
X151860000Y-117815000D01*
X146740000Y-122435000D02*
X146740000Y-121635000D01*
X146740000Y-122435000D02*
X151860000Y-122435000D01*
X151860000Y-117815000D02*
X151860000Y-118615000D01*
X151860000Y-122435000D02*
X151860000Y-121635000D01*
%TO.C,U8*%
X146340000Y-76037500D02*
X146340000Y-79637500D01*
X146340000Y-76037500D02*
X146340000Y-73837500D01*
X149560000Y-76037500D02*
X149560000Y-78237500D01*
X149560000Y-76037500D02*
X149560000Y-73837500D01*
%TO.C,Q4*%
X138200000Y-93660000D02*
X148470000Y-93660000D01*
X148470000Y-83540000D02*
X136800000Y-83540000D01*
%TO.C,C27*%
X169260000Y-73509420D02*
X169260000Y-73790580D01*
X168240000Y-73509420D02*
X168240000Y-73790580D01*
%TO.C,C10*%
X163660000Y-124263748D02*
X163660000Y-125686252D01*
X161840000Y-124263748D02*
X161840000Y-125686252D01*
D13*
%TO.C,U4*%
X121150000Y-121342500D02*
X113450000Y-121342500D01*
X121150000Y-121342500D02*
X121150000Y-131342500D01*
X116194000Y-121342500D02*
X116194000Y-131342500D01*
X113450000Y-121342500D02*
X113450000Y-131342500D01*
X121150000Y-131342500D02*
X113450000Y-131342500D01*
X121150000Y-131342500D02*
X121150000Y-132057500D01*
X121150000Y-132057500D02*
X116237000Y-132057500D01*
X116237000Y-132057500D02*
X116237000Y-131295500D01*
D12*
%TO.C,C26*%
X151110000Y-73509420D02*
X151110000Y-73790580D01*
X150090000Y-73509420D02*
X150090000Y-73790580D01*
%TO.C,L2*%
X161085000Y-122535000D02*
X161085000Y-121735000D01*
X161085000Y-122535000D02*
X155965000Y-122535000D01*
X161085000Y-117915000D02*
X161085000Y-118715000D01*
X161085000Y-117915000D02*
X155965000Y-117915000D01*
X155965000Y-122535000D02*
X155965000Y-121735000D01*
X155965000Y-117915000D02*
X155965000Y-118715000D01*
%TO.C,C23*%
X128465580Y-119710000D02*
X128184420Y-119710000D01*
X128465580Y-118690000D02*
X128184420Y-118690000D01*
%TO.C,R6*%
X153327500Y-128212258D02*
X153327500Y-127737742D01*
X154372500Y-128212258D02*
X154372500Y-127737742D01*
%TO.C,C18*%
X164711252Y-109360000D02*
X163288748Y-109360000D01*
X164711252Y-107540000D02*
X163288748Y-107540000D01*
%TO.C,C16*%
X146186252Y-109310000D02*
X144763748Y-109310000D01*
X146186252Y-107490000D02*
X144763748Y-107490000D01*
%TO.C,U2*%
X149300000Y-123165000D02*
X147500000Y-123165000D01*
X149300000Y-123165000D02*
X150100000Y-123165000D01*
X149300000Y-126285000D02*
X148500000Y-126285000D01*
X149300000Y-126285000D02*
X150100000Y-126285000D01*
%TO.C,C28*%
X145640580Y-125560000D02*
X145359420Y-125560000D01*
X145640580Y-124540000D02*
X145359420Y-124540000D01*
%TO.C,J2*%
X134270000Y-141430000D02*
X134270000Y-140100000D01*
X135600000Y-141430000D02*
X134270000Y-141430000D01*
X136870000Y-141430000D02*
X152170000Y-141430000D01*
X136870000Y-141430000D02*
X136870000Y-138830000D01*
X152170000Y-141430000D02*
X152170000Y-136230000D01*
X134270000Y-138830000D02*
X134270000Y-136230000D01*
X136870000Y-138830000D02*
X134270000Y-138830000D01*
X134270000Y-136230000D02*
X152170000Y-136230000D01*
%TO.C,D4*%
X126285000Y-115300000D02*
X126285000Y-113300000D01*
X126285000Y-115300000D02*
X122425000Y-115300000D01*
X126285000Y-113300000D02*
X122425000Y-113300000D01*
%TO.C,R2*%
X147477500Y-128212258D02*
X147477500Y-127737742D01*
X148522500Y-128212258D02*
X148522500Y-127737742D01*
%TO.C,C2*%
X154290000Y-121140580D02*
X154290000Y-120859420D01*
X155310000Y-121140580D02*
X155310000Y-120859420D01*
%TO.C,C19*%
X146822500Y-113909420D02*
X146822500Y-114190580D01*
X145802500Y-113909420D02*
X145802500Y-114190580D01*
%TO.C,C24*%
X136760000Y-123109420D02*
X136760000Y-123390580D01*
X135740000Y-123109420D02*
X135740000Y-123390580D01*
%TO.C,R7*%
X132827500Y-107137258D02*
X132827500Y-106662742D01*
X133872500Y-107137258D02*
X133872500Y-106662742D01*
%TO.C,R9*%
X169777500Y-107137258D02*
X169777500Y-106662742D01*
X170822500Y-107137258D02*
X170822500Y-106662742D01*
%TO.C,C22*%
X128465580Y-117260000D02*
X128184420Y-117260000D01*
X128465580Y-116240000D02*
X128184420Y-116240000D01*
%TO.C,Q1*%
X130105000Y-96090000D02*
X119835000Y-96090000D01*
X119835000Y-106210000D02*
X131505000Y-106210000D01*
%TO.C,C14*%
X127786252Y-109360000D02*
X126363748Y-109360000D01*
X127786252Y-107540000D02*
X126363748Y-107540000D01*
%TO.C,C25*%
X132660000Y-73559420D02*
X132660000Y-73840580D01*
X131640000Y-73559420D02*
X131640000Y-73840580D01*
%TO.C,U7*%
X127890000Y-76037500D02*
X127890000Y-79637500D01*
X127890000Y-76037500D02*
X127890000Y-73837500D01*
X131110000Y-76037500D02*
X131110000Y-78237500D01*
X131110000Y-76037500D02*
X131110000Y-73837500D01*
%TO.C,D3*%
X163725000Y-118115000D02*
X161725000Y-118115000D01*
X163725000Y-118115000D02*
X163725000Y-121975000D01*
X161725000Y-118115000D02*
X161725000Y-121975000D01*
D13*
%TO.C,F1*%
X128140000Y-121800000D02*
X128140000Y-131530000D01*
X123110000Y-121800000D02*
X128140000Y-121800000D01*
X128140000Y-131530000D02*
X123110000Y-131530000D01*
X123110000Y-131530000D02*
X123110000Y-121800000D01*
%TD*%
M02*
