%TF.GenerationSoftware,KiCad,Pcbnew,7.0.7*%
%TF.CreationDate,2024-02-22T20:28:59+08:00*%
%TF.ProjectId,hardware,68617264-7761-4726-952e-6b696361645f,rev?*%
%TF.SameCoordinates,Original*%
%TF.FileFunction,Paste,Top*%
%TF.FilePolarity,Positive*%
%FSLAX46Y46*%
G04 Gerber Fmt 4.6, Leading zero omitted, Abs format (unit mm)*
G04 Created by KiCad (PCBNEW 7.0.7) date 2024-02-22 20:28:59*
%MOMM*%
%LPD*%
G01*
G04 APERTURE LIST*
G04 Aperture macros list*
%AMRoundRect*
0 Rectangle with rounded corners*
0 $1 Rounding radius*
0 $2 $3 $4 $5 $6 $7 $8 $9 X,Y pos of 4 corners*
0 Add a 4 corners polygon primitive as box body*
4,1,4,$2,$3,$4,$5,$6,$7,$8,$9,$2,$3,0*
0 Add four circle primitives for the rounded corners*
1,1,$1+$1,$2,$3*
1,1,$1+$1,$4,$5*
1,1,$1+$1,$6,$7*
1,1,$1+$1,$8,$9*
0 Add four rect primitives between the rounded corners*
20,1,$1+$1,$2,$3,$4,$5,0*
20,1,$1+$1,$4,$5,$6,$7,0*
20,1,$1+$1,$6,$7,$8,$9,0*
20,1,$1+$1,$8,$9,$2,$3,0*%
G04 Aperture macros list end*
%ADD10RoundRect,0.250000X0.300000X0.300000X-0.300000X0.300000X-0.300000X-0.300000X0.300000X-0.300000X0*%
%ADD11R,2.600000X0.700000*%
%ADD12C,1.000000*%
%ADD13RoundRect,0.225000X-0.250000X0.225000X-0.250000X-0.225000X0.250000X-0.225000X0.250000X0.225000X0*%
%ADD14RoundRect,0.200000X0.200000X0.275000X-0.200000X0.275000X-0.200000X-0.275000X0.200000X-0.275000X0*%
%ADD15RoundRect,0.250000X-0.325000X-0.650000X0.325000X-0.650000X0.325000X0.650000X-0.325000X0.650000X0*%
%ADD16RoundRect,0.150000X-0.512500X-0.150000X0.512500X-0.150000X0.512500X0.150000X-0.512500X0.150000X0*%
%ADD17RoundRect,0.200000X-0.200000X-0.275000X0.200000X-0.275000X0.200000X0.275000X-0.200000X0.275000X0*%
%ADD18RoundRect,0.250000X1.425000X-0.362500X1.425000X0.362500X-1.425000X0.362500X-1.425000X-0.362500X0*%
%ADD19RoundRect,0.225000X-0.225000X-0.250000X0.225000X-0.250000X0.225000X0.250000X-0.225000X0.250000X0*%
%ADD20RoundRect,0.100000X0.100000X-0.637500X0.100000X0.637500X-0.100000X0.637500X-0.100000X-0.637500X0*%
%ADD21RoundRect,0.250000X-0.650000X0.325000X-0.650000X-0.325000X0.650000X-0.325000X0.650000X0.325000X0*%
%ADD22RoundRect,0.225000X0.225000X0.250000X-0.225000X0.250000X-0.225000X-0.250000X0.225000X-0.250000X0*%
%ADD23RoundRect,0.150000X0.512500X0.150000X-0.512500X0.150000X-0.512500X-0.150000X0.512500X-0.150000X0*%
%ADD24RoundRect,0.200000X0.275000X-0.200000X0.275000X0.200000X-0.275000X0.200000X-0.275000X-0.200000X0*%
%ADD25RoundRect,0.225000X0.250000X-0.225000X0.250000X0.225000X-0.250000X0.225000X-0.250000X-0.225000X0*%
%ADD26RoundRect,0.225000X0.375000X-0.225000X0.375000X0.225000X-0.375000X0.225000X-0.375000X-0.225000X0*%
%ADD27RoundRect,0.200000X-0.275000X0.200000X-0.275000X-0.200000X0.275000X-0.200000X0.275000X0.200000X0*%
%ADD28RoundRect,0.218750X0.256250X-0.218750X0.256250X0.218750X-0.256250X0.218750X-0.256250X-0.218750X0*%
%ADD29R,1.500000X2.500000*%
%ADD30RoundRect,0.250000X0.325000X0.650000X-0.325000X0.650000X-0.325000X-0.650000X0.325000X-0.650000X0*%
%ADD31RoundRect,0.250000X-0.300000X0.300000X-0.300000X-0.300000X0.300000X-0.300000X0.300000X0.300000X0*%
%ADD32R,3.810000X4.240000*%
G04 APERTURE END LIST*
D10*
%TO.C,D6*%
X125475000Y-119200000D03*
X122675000Y-119200000D03*
%TD*%
D11*
%TO.C,Q2*%
X119680000Y-84400000D03*
X119680000Y-85600000D03*
X119680000Y-86800000D03*
X119680000Y-88000000D03*
X119680000Y-89200000D03*
X119680000Y-90400000D03*
X119680000Y-91600000D03*
X119680000Y-92800000D03*
D12*
X124860000Y-84400000D03*
X124860000Y-85600000D03*
X124860000Y-86800000D03*
X124860000Y-88000000D03*
X124860000Y-89200000D03*
X124860000Y-90400000D03*
X124860000Y-91600000D03*
X124860000Y-92800000D03*
X126060000Y-84400000D03*
X126060000Y-85600000D03*
X126060000Y-86800000D03*
X126060000Y-88000000D03*
X126060000Y-89200000D03*
X126060000Y-90400000D03*
X126060000Y-91600000D03*
X126060000Y-92800000D03*
X127260000Y-85600000D03*
X127260000Y-86800000D03*
X127260000Y-88000000D03*
X127260000Y-89200000D03*
X127260000Y-90400000D03*
X127260000Y-91600000D03*
X128460000Y-85600000D03*
X128460000Y-86800000D03*
X128460000Y-88000000D03*
X128460000Y-89200000D03*
X128460000Y-90400000D03*
X128460000Y-91600000D03*
X129660000Y-85600000D03*
X129660000Y-86800000D03*
X129660000Y-88000000D03*
X129660000Y-89200000D03*
X129660000Y-90400000D03*
X129660000Y-91600000D03*
X130860000Y-84400000D03*
X130860000Y-85600000D03*
X130860000Y-86800000D03*
X130860000Y-88000000D03*
X130860000Y-89200000D03*
X130860000Y-90400000D03*
X130860000Y-91600000D03*
X130860000Y-92800000D03*
%TD*%
D13*
%TO.C,C20*%
X144712500Y-113275000D03*
X144712500Y-114825000D03*
%TD*%
D14*
%TO.C,R4*%
X159350000Y-129175000D03*
X157700000Y-129175000D03*
%TD*%
D15*
%TO.C,C15*%
X139100000Y-108400000D03*
X142050000Y-108400000D03*
%TD*%
D16*
%TO.C,U3*%
X157387500Y-125525000D03*
X157387500Y-126475000D03*
X157387500Y-127425000D03*
X159662500Y-127425000D03*
X159662500Y-126475000D03*
X159662500Y-125525000D03*
%TD*%
D17*
%TO.C,R10*%
X114825000Y-84400000D03*
X116475000Y-84400000D03*
%TD*%
D18*
%TO.C,R15*%
X162200000Y-79000000D03*
X162200000Y-73075000D03*
%TD*%
D17*
%TO.C,R12*%
X151975000Y-84400000D03*
X153625000Y-84400000D03*
%TD*%
D18*
%TO.C,R13*%
X125400000Y-79000000D03*
X125400000Y-73075000D03*
%TD*%
D13*
%TO.C,C8*%
X152312500Y-113275000D03*
X152312500Y-114825000D03*
%TD*%
%TO.C,C4*%
X155450000Y-124100000D03*
X155450000Y-125650000D03*
%TD*%
%TO.C,C6*%
X153850000Y-124100000D03*
X153850000Y-125650000D03*
%TD*%
D15*
%TO.C,C17*%
X157650000Y-108450000D03*
X160600000Y-108450000D03*
%TD*%
D19*
%TO.C,C1*%
X157750000Y-123725000D03*
X159300000Y-123725000D03*
%TD*%
D18*
%TO.C,R14*%
X143850000Y-79000000D03*
X143850000Y-73075000D03*
%TD*%
D13*
%TO.C,C5*%
X152250000Y-124100000D03*
X152250000Y-125650000D03*
%TD*%
D15*
%TO.C,C13*%
X120800000Y-108450000D03*
X123750000Y-108450000D03*
%TD*%
D11*
%TO.C,Q6*%
X156500000Y-84400000D03*
X156500000Y-85600000D03*
X156500000Y-86800000D03*
X156500000Y-88000000D03*
X156500000Y-89200000D03*
X156500000Y-90400000D03*
X156500000Y-91600000D03*
X156500000Y-92800000D03*
D12*
X161680000Y-84400000D03*
X161680000Y-85600000D03*
X161680000Y-86800000D03*
X161680000Y-88000000D03*
X161680000Y-89200000D03*
X161680000Y-90400000D03*
X161680000Y-91600000D03*
X161680000Y-92800000D03*
X162880000Y-84400000D03*
X162880000Y-85600000D03*
X162880000Y-86800000D03*
X162880000Y-88000000D03*
X162880000Y-89200000D03*
X162880000Y-90400000D03*
X162880000Y-91600000D03*
X162880000Y-92800000D03*
X164080000Y-85600000D03*
X164080000Y-86800000D03*
X164080000Y-88000000D03*
X164080000Y-89200000D03*
X164080000Y-90400000D03*
X164080000Y-91600000D03*
X165280000Y-85600000D03*
X165280000Y-86800000D03*
X165280000Y-88000000D03*
X165280000Y-89200000D03*
X165280000Y-90400000D03*
X165280000Y-91600000D03*
X166480000Y-85600000D03*
X166480000Y-86800000D03*
X166480000Y-88000000D03*
X166480000Y-89200000D03*
X166480000Y-90400000D03*
X166480000Y-91600000D03*
X167680000Y-84400000D03*
X167680000Y-85600000D03*
X167680000Y-86800000D03*
X167680000Y-88000000D03*
X167680000Y-89200000D03*
X167680000Y-90400000D03*
X167680000Y-91600000D03*
X167680000Y-92800000D03*
%TD*%
D20*
%TO.C,U5*%
X132350000Y-119612500D03*
X133000000Y-119612500D03*
X133650000Y-119612500D03*
X134300000Y-119612500D03*
X134950000Y-119612500D03*
X135600000Y-119612500D03*
X136250000Y-119612500D03*
X136900000Y-119612500D03*
X137550000Y-119612500D03*
X138200000Y-119612500D03*
X138200000Y-113887500D03*
X137550000Y-113887500D03*
X136900000Y-113887500D03*
X136250000Y-113887500D03*
X135600000Y-113887500D03*
X134950000Y-113887500D03*
X134300000Y-113887500D03*
X133650000Y-113887500D03*
X133000000Y-113887500D03*
X132350000Y-113887500D03*
%TD*%
D11*
%TO.C,Q3*%
X148630000Y-105350000D03*
X148630000Y-104150000D03*
X148630000Y-102950000D03*
X148630000Y-101750000D03*
X148630000Y-100550000D03*
X148630000Y-99350000D03*
X148630000Y-98150000D03*
X148630000Y-96950000D03*
D12*
X143450000Y-105350000D03*
X143450000Y-104150000D03*
X143450000Y-102950000D03*
X143450000Y-101750000D03*
X143450000Y-100550000D03*
X143450000Y-99350000D03*
X143450000Y-98150000D03*
X143450000Y-96950000D03*
X142250000Y-105350000D03*
X142250000Y-104150000D03*
X142250000Y-102950000D03*
X142250000Y-101750000D03*
X142250000Y-100550000D03*
X142250000Y-99350000D03*
X142250000Y-98150000D03*
X142250000Y-96950000D03*
X141050000Y-104150000D03*
X141050000Y-102950000D03*
X141050000Y-101750000D03*
X141050000Y-100550000D03*
X141050000Y-99350000D03*
X141050000Y-98150000D03*
X139850000Y-104150000D03*
X139850000Y-102950000D03*
X139850000Y-101750000D03*
X139850000Y-100550000D03*
X139850000Y-99350000D03*
X139850000Y-98150000D03*
X138650000Y-104150000D03*
X138650000Y-102950000D03*
X138650000Y-101750000D03*
X138650000Y-100550000D03*
X138650000Y-99350000D03*
X138650000Y-98150000D03*
X137450000Y-105350000D03*
X137450000Y-104150000D03*
X137450000Y-102950000D03*
X137450000Y-101750000D03*
X137450000Y-100550000D03*
X137450000Y-99350000D03*
X137450000Y-98150000D03*
X137450000Y-96950000D03*
%TD*%
D21*
%TO.C,C11*%
X165200000Y-123500000D03*
X165200000Y-126450000D03*
%TD*%
D22*
%TO.C,C21*%
X129100000Y-114300000D03*
X127550000Y-114300000D03*
%TD*%
%TO.C,C12*%
X146275000Y-123450000D03*
X144725000Y-123450000D03*
%TD*%
D10*
%TO.C,D5*%
X125475000Y-116750000D03*
X122675000Y-116750000D03*
%TD*%
D17*
%TO.C,R11*%
X133575000Y-84400000D03*
X135225000Y-84400000D03*
%TD*%
D20*
%TO.C,U9*%
X165125000Y-78900000D03*
X165775000Y-78900000D03*
X166425000Y-78900000D03*
X167075000Y-78900000D03*
X167075000Y-73175000D03*
X166425000Y-73175000D03*
X165775000Y-73175000D03*
X165125000Y-73175000D03*
%TD*%
D23*
%TO.C,U1*%
X150450000Y-115000000D03*
X150450000Y-114050000D03*
X150450000Y-113100000D03*
X148175000Y-113100000D03*
X148175000Y-115000000D03*
%TD*%
D24*
%TO.C,R8*%
X151850000Y-107725000D03*
X151850000Y-106075000D03*
%TD*%
D25*
%TO.C,C3*%
X153250000Y-121775000D03*
X153250000Y-120225000D03*
%TD*%
D26*
%TO.C,D1*%
X145150000Y-121825000D03*
X145150000Y-118525000D03*
%TD*%
D27*
%TO.C,R5*%
X149550000Y-127150000D03*
X149550000Y-128800000D03*
%TD*%
D13*
%TO.C,C7*%
X153912500Y-113275000D03*
X153912500Y-114825000D03*
%TD*%
D28*
%TO.C,D2*%
X157925000Y-114837500D03*
X157925000Y-113262500D03*
%TD*%
D11*
%TO.C,Q5*%
X166980000Y-105350000D03*
X166980000Y-104150000D03*
X166980000Y-102950000D03*
X166980000Y-101750000D03*
X166980000Y-100550000D03*
X166980000Y-99350000D03*
X166980000Y-98150000D03*
X166980000Y-96950000D03*
D12*
X161800000Y-105350000D03*
X161800000Y-104150000D03*
X161800000Y-102950000D03*
X161800000Y-101750000D03*
X161800000Y-100550000D03*
X161800000Y-99350000D03*
X161800000Y-98150000D03*
X161800000Y-96950000D03*
X160600000Y-105350000D03*
X160600000Y-104150000D03*
X160600000Y-102950000D03*
X160600000Y-101750000D03*
X160600000Y-100550000D03*
X160600000Y-99350000D03*
X160600000Y-98150000D03*
X160600000Y-96950000D03*
X159400000Y-104150000D03*
X159400000Y-102950000D03*
X159400000Y-101750000D03*
X159400000Y-100550000D03*
X159400000Y-99350000D03*
X159400000Y-98150000D03*
X158200000Y-104150000D03*
X158200000Y-102950000D03*
X158200000Y-101750000D03*
X158200000Y-100550000D03*
X158200000Y-99350000D03*
X158200000Y-98150000D03*
X157000000Y-104150000D03*
X157000000Y-102950000D03*
X157000000Y-101750000D03*
X157000000Y-100550000D03*
X157000000Y-99350000D03*
X157000000Y-98150000D03*
X155800000Y-105350000D03*
X155800000Y-104150000D03*
X155800000Y-102950000D03*
X155800000Y-101750000D03*
X155800000Y-100550000D03*
X155800000Y-99350000D03*
X155800000Y-98150000D03*
X155800000Y-96950000D03*
%TD*%
D27*
%TO.C,R3*%
X155450000Y-127150000D03*
X155450000Y-128800000D03*
%TD*%
%TO.C,R1*%
X156350000Y-113225000D03*
X156350000Y-114875000D03*
%TD*%
D29*
%TO.C,L1*%
X147450000Y-120125000D03*
X151150000Y-120125000D03*
%TD*%
D20*
%TO.C,U8*%
X146975000Y-78900000D03*
X147625000Y-78900000D03*
X148275000Y-78900000D03*
X148925000Y-78900000D03*
X148925000Y-73175000D03*
X148275000Y-73175000D03*
X147625000Y-73175000D03*
X146975000Y-73175000D03*
%TD*%
D11*
%TO.C,Q4*%
X138150000Y-84400000D03*
X138150000Y-85600000D03*
X138150000Y-86800000D03*
X138150000Y-88000000D03*
X138150000Y-89200000D03*
X138150000Y-90400000D03*
X138150000Y-91600000D03*
X138150000Y-92800000D03*
D12*
X143330000Y-84400000D03*
X143330000Y-85600000D03*
X143330000Y-86800000D03*
X143330000Y-88000000D03*
X143330000Y-89200000D03*
X143330000Y-90400000D03*
X143330000Y-91600000D03*
X143330000Y-92800000D03*
X144530000Y-84400000D03*
X144530000Y-85600000D03*
X144530000Y-86800000D03*
X144530000Y-88000000D03*
X144530000Y-89200000D03*
X144530000Y-90400000D03*
X144530000Y-91600000D03*
X144530000Y-92800000D03*
X145730000Y-85600000D03*
X145730000Y-86800000D03*
X145730000Y-88000000D03*
X145730000Y-89200000D03*
X145730000Y-90400000D03*
X145730000Y-91600000D03*
X146930000Y-85600000D03*
X146930000Y-86800000D03*
X146930000Y-88000000D03*
X146930000Y-89200000D03*
X146930000Y-90400000D03*
X146930000Y-91600000D03*
X148130000Y-85600000D03*
X148130000Y-86800000D03*
X148130000Y-88000000D03*
X148130000Y-89200000D03*
X148130000Y-90400000D03*
X148130000Y-91600000D03*
X149330000Y-84400000D03*
X149330000Y-85600000D03*
X149330000Y-86800000D03*
X149330000Y-88000000D03*
X149330000Y-89200000D03*
X149330000Y-90400000D03*
X149330000Y-91600000D03*
X149330000Y-92800000D03*
%TD*%
D13*
%TO.C,C27*%
X168750000Y-72875000D03*
X168750000Y-74425000D03*
%TD*%
D21*
%TO.C,C10*%
X162750000Y-123500000D03*
X162750000Y-126450000D03*
%TD*%
D13*
%TO.C,C26*%
X150600000Y-72875000D03*
X150600000Y-74425000D03*
%TD*%
D29*
%TO.C,L2*%
X160375000Y-120225000D03*
X156675000Y-120225000D03*
%TD*%
D22*
%TO.C,C23*%
X129100000Y-119200000D03*
X127550000Y-119200000D03*
%TD*%
D24*
%TO.C,R6*%
X153850000Y-128800000D03*
X153850000Y-127150000D03*
%TD*%
D30*
%TO.C,C18*%
X165475000Y-108450000D03*
X162525000Y-108450000D03*
%TD*%
%TO.C,C16*%
X146950000Y-108400000D03*
X144000000Y-108400000D03*
%TD*%
D16*
%TO.C,U2*%
X148162500Y-123775000D03*
X148162500Y-124725000D03*
X148162500Y-125675000D03*
X150437500Y-125675000D03*
X150437500Y-124725000D03*
X150437500Y-123775000D03*
%TD*%
D22*
%TO.C,C28*%
X146275000Y-125050000D03*
X144725000Y-125050000D03*
%TD*%
D10*
%TO.C,D4*%
X125475000Y-114300000D03*
X122675000Y-114300000D03*
%TD*%
D24*
%TO.C,R2*%
X148000000Y-128800000D03*
X148000000Y-127150000D03*
%TD*%
D25*
%TO.C,C2*%
X154800000Y-121775000D03*
X154800000Y-120225000D03*
%TD*%
D13*
%TO.C,C19*%
X146312500Y-113275000D03*
X146312500Y-114825000D03*
%TD*%
%TO.C,C24*%
X136250000Y-122475000D03*
X136250000Y-124025000D03*
%TD*%
D24*
%TO.C,R7*%
X133350000Y-107725000D03*
X133350000Y-106075000D03*
%TD*%
%TO.C,R9*%
X170300000Y-107725000D03*
X170300000Y-106075000D03*
%TD*%
D22*
%TO.C,C22*%
X129100000Y-116750000D03*
X127550000Y-116750000D03*
%TD*%
D11*
%TO.C,Q1*%
X130155000Y-105350000D03*
X130155000Y-104150000D03*
X130155000Y-102950000D03*
X130155000Y-101750000D03*
X130155000Y-100550000D03*
X130155000Y-99350000D03*
X130155000Y-98150000D03*
X130155000Y-96950000D03*
D12*
X124975000Y-105350000D03*
X124975000Y-104150000D03*
X124975000Y-102950000D03*
X124975000Y-101750000D03*
X124975000Y-100550000D03*
X124975000Y-99350000D03*
X124975000Y-98150000D03*
X124975000Y-96950000D03*
X123775000Y-105350000D03*
X123775000Y-104150000D03*
X123775000Y-102950000D03*
X123775000Y-101750000D03*
X123775000Y-100550000D03*
X123775000Y-99350000D03*
X123775000Y-98150000D03*
X123775000Y-96950000D03*
X122575000Y-104150000D03*
X122575000Y-102950000D03*
X122575000Y-101750000D03*
X122575000Y-100550000D03*
X122575000Y-99350000D03*
X122575000Y-98150000D03*
X121375000Y-104150000D03*
X121375000Y-102950000D03*
X121375000Y-101750000D03*
X121375000Y-100550000D03*
X121375000Y-99350000D03*
X121375000Y-98150000D03*
X120175000Y-104150000D03*
X120175000Y-102950000D03*
X120175000Y-101750000D03*
X120175000Y-100550000D03*
X120175000Y-99350000D03*
X120175000Y-98150000D03*
X118975000Y-105350000D03*
X118975000Y-104150000D03*
X118975000Y-102950000D03*
X118975000Y-101750000D03*
X118975000Y-100550000D03*
X118975000Y-99350000D03*
X118975000Y-98150000D03*
X118975000Y-96950000D03*
%TD*%
D30*
%TO.C,C14*%
X128550000Y-108450000D03*
X125600000Y-108450000D03*
%TD*%
D13*
%TO.C,C25*%
X132150000Y-72925000D03*
X132150000Y-74475000D03*
%TD*%
D20*
%TO.C,U7*%
X128525000Y-78900000D03*
X129175000Y-78900000D03*
X129825000Y-78900000D03*
X130475000Y-78900000D03*
X130475000Y-73175000D03*
X129825000Y-73175000D03*
X129175000Y-73175000D03*
X128525000Y-73175000D03*
%TD*%
D31*
%TO.C,D3*%
X162725000Y-118925000D03*
X162725000Y-121725000D03*
%TD*%
D32*
%TO.C,F1*%
X125625000Y-123460000D03*
X125625000Y-129840000D03*
%TD*%
M02*
