%TF.GenerationSoftware,KiCad,Pcbnew,7.0.7*%
%TF.CreationDate,2024-02-22T20:28:59+08:00*%
%TF.ProjectId,hardware,68617264-7761-4726-952e-6b696361645f,rev?*%
%TF.SameCoordinates,Original*%
%TF.FileFunction,Copper,L3,Inr*%
%TF.FilePolarity,Positive*%
%FSLAX46Y46*%
G04 Gerber Fmt 4.6, Leading zero omitted, Abs format (unit mm)*
G04 Created by KiCad (PCBNEW 7.0.7) date 2024-02-22 20:28:59*
%MOMM*%
%LPD*%
G01*
G04 APERTURE LIST*
%TA.AperFunction,ComponentPad*%
%ADD10C,2.200000*%
%TD*%
%TA.AperFunction,ComponentPad*%
%ADD11C,0.800000*%
%TD*%
%TA.AperFunction,ComponentPad*%
%ADD12C,6.400000*%
%TD*%
%TA.AperFunction,ComponentPad*%
%ADD13R,1.700000X1.700000*%
%TD*%
%TA.AperFunction,ComponentPad*%
%ADD14O,1.700000X1.700000*%
%TD*%
%TA.AperFunction,ViaPad*%
%ADD15C,0.800000*%
%TD*%
%TA.AperFunction,ViaPad*%
%ADD16C,0.550000*%
%TD*%
G04 APERTURE END LIST*
D10*
%TO.N,/Bridge/IA_N*%
%TO.C,U6*%
X138200000Y-66050000D03*
%TO.N,/Bridge/IB_N*%
X143200000Y-66050000D03*
%TO.N,/Bridge/IC_N*%
X148200000Y-66050000D03*
%TD*%
D11*
%TO.N,unconnected-(H1-Pad1)*%
%TO.C,H1*%
X115800000Y-136900000D03*
X116502944Y-135202944D03*
X116502944Y-138597056D03*
X118200000Y-134500000D03*
D12*
X118200000Y-136900000D03*
D11*
X118200000Y-139300000D03*
X119897056Y-135202944D03*
X119897056Y-138597056D03*
X120600000Y-136900000D03*
%TD*%
%TO.N,unconnected-(H2-Pad1)*%
%TO.C,H2*%
X165800000Y-66900000D03*
X166502944Y-65202944D03*
X166502944Y-68597056D03*
X168200000Y-64500000D03*
D12*
X168200000Y-66900000D03*
D11*
X168200000Y-69300000D03*
X169897056Y-65202944D03*
X169897056Y-68597056D03*
X170600000Y-66900000D03*
%TD*%
%TO.N,unconnected-(H4-Pad1)*%
%TO.C,H4*%
X165800000Y-136900000D03*
X166502944Y-135202944D03*
X166502944Y-138597056D03*
X168200000Y-134500000D03*
D12*
X168200000Y-136900000D03*
D11*
X168200000Y-139300000D03*
X169897056Y-135202944D03*
X169897056Y-138597056D03*
X170600000Y-136900000D03*
%TD*%
D10*
%TO.N,/power/VIN*%
%TO.C,U4*%
X118650000Y-123842500D03*
%TO.N,GND*%
X118650000Y-128842500D03*
%TD*%
D11*
%TO.N,unconnected-(H3-Pad1)*%
%TO.C,H3*%
X115800000Y-66900000D03*
X116502944Y-65202944D03*
X116502944Y-68597056D03*
X118200000Y-64500000D03*
D12*
X118200000Y-66900000D03*
D11*
X118200000Y-69300000D03*
X119897056Y-65202944D03*
X119897056Y-68597056D03*
X120600000Y-66900000D03*
%TD*%
D13*
%TO.N,GND*%
%TO.C,J2*%
X135600000Y-140100000D03*
D14*
%TO.N,/Bridge/PWM1*%
X135600000Y-137560000D03*
%TO.N,GND*%
X138140000Y-140100000D03*
%TO.N,/Bridge/PWM2*%
X138140000Y-137560000D03*
%TO.N,GND*%
X140680000Y-140100000D03*
%TO.N,/Bridge/PWM3*%
X140680000Y-137560000D03*
%TO.N,unconnected-(J2-Pin_7-Pad7)*%
X143220000Y-140100000D03*
%TO.N,unconnected-(J2-Pin_8-Pad8)*%
X143220000Y-137560000D03*
%TO.N,+5V*%
X145760000Y-140100000D03*
%TO.N,/interface/IA_OUT*%
X145760000Y-137560000D03*
%TO.N,+5V*%
X148300000Y-140100000D03*
%TO.N,/interface/IB_OUT*%
X148300000Y-137560000D03*
%TO.N,+5V*%
X150840000Y-140100000D03*
%TO.N,/interface/IC_OUT*%
X150840000Y-137560000D03*
%TD*%
D15*
%TO.N,GND*%
X157075000Y-87400000D03*
D16*
X167100000Y-123500000D03*
D15*
X155700000Y-109500000D03*
D16*
X148275000Y-74575000D03*
X164350000Y-121650000D03*
D15*
X137525000Y-91125000D03*
D16*
X137250000Y-109350000D03*
D15*
X131550000Y-110450000D03*
X150050000Y-108375000D03*
D16*
X165300000Y-121725000D03*
X137475000Y-118275000D03*
D15*
X157075000Y-90000000D03*
X155775000Y-90000000D03*
X157075000Y-88700000D03*
X155775000Y-86100000D03*
X155775000Y-92600000D03*
X118500000Y-110625000D03*
X155700000Y-108300000D03*
X137525000Y-88525000D03*
X120275000Y-92375000D03*
X118975000Y-91075000D03*
X157075000Y-92600000D03*
D16*
X154850000Y-113250000D03*
D15*
X167525000Y-108525000D03*
X118975000Y-87175000D03*
D16*
X154825000Y-122900000D03*
D15*
X148950000Y-108400000D03*
X118975000Y-92375000D03*
X155775000Y-91300000D03*
X137525000Y-92425000D03*
X118525000Y-109275000D03*
X155775000Y-87400000D03*
D16*
X151875000Y-74425000D03*
D15*
X118550000Y-108000000D03*
X167525000Y-109775000D03*
X167525000Y-107375000D03*
X120275000Y-88475000D03*
X150050000Y-109500000D03*
X157075000Y-91300000D03*
X137525000Y-89825000D03*
X138825000Y-87225000D03*
X120275000Y-85875000D03*
X120275000Y-91075000D03*
D16*
X137500000Y-124275000D03*
X137250000Y-108650000D03*
D15*
X138825000Y-92425000D03*
D16*
X149550000Y-129900000D03*
D15*
X138825000Y-88525000D03*
X137525000Y-85925000D03*
D16*
X158200000Y-126500000D03*
D15*
X131500000Y-109375000D03*
D16*
X145550000Y-126400000D03*
D15*
X138825000Y-89825000D03*
D16*
X137250000Y-107950000D03*
D15*
X131500000Y-108425000D03*
D16*
X146275000Y-126350000D03*
D15*
X118975000Y-85875000D03*
X118975000Y-88475000D03*
X138825000Y-91125000D03*
D16*
X147025000Y-77575000D03*
D15*
X148950000Y-109525000D03*
X155775000Y-88700000D03*
X138825000Y-85925000D03*
X157075000Y-86100000D03*
X137525000Y-87225000D03*
X120275000Y-87175000D03*
X118975000Y-89775000D03*
X120275000Y-89775000D03*
D16*
X153625000Y-122850000D03*
D15*
%TO.N,+5V*%
X152300000Y-122825000D03*
X152250000Y-127350000D03*
%TO.N,VDC*%
X122850000Y-104650000D03*
X125000000Y-136925000D03*
X123700000Y-134700000D03*
X122850000Y-102800000D03*
X139000000Y-97500000D03*
X137800000Y-99350000D03*
X125000000Y-130200000D03*
X125000000Y-127825000D03*
X137800000Y-101100000D03*
X121650000Y-99300000D03*
X143800000Y-97500000D03*
X157300000Y-97500000D03*
X159700000Y-102850000D03*
X141400000Y-97500000D03*
X158500000Y-101100000D03*
X126300000Y-132400000D03*
X142600000Y-104700000D03*
X119250000Y-101050000D03*
X142600000Y-97500000D03*
X119250000Y-104650000D03*
X157300000Y-104700000D03*
X157300000Y-101100000D03*
X159700000Y-101100000D03*
X127600000Y-130200000D03*
X158500000Y-102850000D03*
X121650000Y-102800000D03*
X141400000Y-101100000D03*
X125000000Y-134700000D03*
X156100000Y-104700000D03*
X126300000Y-130200000D03*
X143800000Y-102850000D03*
X157300000Y-102850000D03*
X121650000Y-101050000D03*
X139000000Y-101100000D03*
X125000000Y-132400000D03*
X127600000Y-134700000D03*
X143800000Y-104700000D03*
X160900000Y-99350000D03*
X123700000Y-132400000D03*
X124050000Y-102800000D03*
X120450000Y-99300000D03*
X123700000Y-130200000D03*
X142600000Y-102850000D03*
X127600000Y-127825000D03*
X125250000Y-97450000D03*
X137800000Y-104700000D03*
X162100000Y-99350000D03*
X141400000Y-99350000D03*
X121650000Y-97450000D03*
X137800000Y-102850000D03*
X124050000Y-97450000D03*
X125250000Y-99300000D03*
X142600000Y-101100000D03*
X158500000Y-99350000D03*
X158500000Y-97500000D03*
X143800000Y-99350000D03*
X160900000Y-102850000D03*
X121650000Y-104650000D03*
X119250000Y-102800000D03*
X162100000Y-102850000D03*
X126300000Y-127825000D03*
X158500000Y-104700000D03*
X125250000Y-101050000D03*
X159700000Y-104700000D03*
X124050000Y-104650000D03*
X141400000Y-104700000D03*
X138900000Y-132450000D03*
X142600000Y-99350000D03*
X123700000Y-127825000D03*
X143800000Y-101100000D03*
X125250000Y-104650000D03*
X122850000Y-99300000D03*
X127600000Y-132400000D03*
X156100000Y-97500000D03*
X141400000Y-102850000D03*
X140200000Y-99350000D03*
X120450000Y-104650000D03*
X160900000Y-97500000D03*
X124050000Y-99300000D03*
X139000000Y-104700000D03*
X160900000Y-101100000D03*
X139000000Y-102850000D03*
X122850000Y-97450000D03*
X156100000Y-102850000D03*
X156100000Y-101100000D03*
X140200000Y-101100000D03*
X162100000Y-97500000D03*
X139000000Y-99350000D03*
X159700000Y-97500000D03*
X140200000Y-102850000D03*
X125250000Y-102800000D03*
X140200000Y-97500000D03*
X119250000Y-99300000D03*
X156100000Y-99350000D03*
X127600000Y-136925000D03*
X126300000Y-136925000D03*
X119250000Y-97450000D03*
X159700000Y-99350000D03*
X120450000Y-97450000D03*
X162100000Y-104700000D03*
X124050000Y-101050000D03*
X162100000Y-101100000D03*
X120450000Y-101050000D03*
X140200000Y-104700000D03*
X122850000Y-101050000D03*
X137800000Y-97500000D03*
X120450000Y-102800000D03*
X160900000Y-104700000D03*
X157300000Y-99350000D03*
X123700000Y-136925000D03*
X126300000Y-134700000D03*
%TO.N,+3.3V*%
X153525000Y-72950000D03*
D16*
X144700000Y-114800000D03*
D15*
X151800000Y-72950000D03*
D16*
X148350000Y-114800000D03*
D15*
X153525000Y-79450000D03*
D16*
X134575000Y-72950000D03*
D15*
X170000000Y-72950000D03*
D16*
X146300000Y-114800000D03*
%TO.N,/Bridge/UA*%
X131300000Y-103025000D03*
X133675000Y-109050000D03*
%TO.N,/Bridge/UB*%
X148475000Y-104075000D03*
X136000000Y-111275000D03*
%TO.N,/Bridge/UC*%
X166000000Y-104075000D03*
X166000000Y-111700000D03*
%TO.N,+12V*%
X135200000Y-122400000D03*
X131350000Y-120300000D03*
%TO.N,/interface/IA_OUT*%
X128525000Y-74675000D03*
%TO.N,/interface/IB_OUT*%
X147000000Y-74550000D03*
%TO.N,/interface/IC_OUT*%
X165150000Y-74650000D03*
%TO.N,/Bridge/LO1*%
X132200000Y-112050000D03*
X138200000Y-112500000D03*
%TO.N,/Bridge/LO2*%
X138200000Y-121500000D03*
X139950000Y-110050000D03*
%TO.N,/Bridge/LO3*%
X152400000Y-110650000D03*
X137550000Y-122200000D03*
%TO.N,/Bridge/PWM1*%
X134300000Y-120950000D03*
X132350000Y-120950000D03*
%TD*%
%TA.AperFunction,Conductor*%
%TO.N,GND*%
G36*
X137618240Y-139868907D02*
G01*
X137654204Y-139918407D01*
X137655039Y-139976891D01*
X137640000Y-140028107D01*
X137640000Y-140171892D01*
X137655039Y-140223109D01*
X137653292Y-140284269D01*
X137615929Y-140332722D01*
X137560049Y-140350000D01*
X136179951Y-140350000D01*
X136121760Y-140331093D01*
X136085796Y-140281593D01*
X136084961Y-140223109D01*
X136099999Y-140171892D01*
X136100000Y-140171888D01*
X136100000Y-140028111D01*
X136099999Y-140028107D01*
X136084961Y-139976891D01*
X136086708Y-139915731D01*
X136124071Y-139867278D01*
X136179951Y-139850000D01*
X137560049Y-139850000D01*
X137618240Y-139868907D01*
G37*
%TD.AperFunction*%
%TA.AperFunction,Conductor*%
G36*
X140158240Y-139868907D02*
G01*
X140194204Y-139918407D01*
X140195039Y-139976891D01*
X140180000Y-140028107D01*
X140180000Y-140171892D01*
X140195039Y-140223109D01*
X140193292Y-140284269D01*
X140155929Y-140332722D01*
X140100049Y-140350000D01*
X138719951Y-140350000D01*
X138661760Y-140331093D01*
X138625796Y-140281593D01*
X138624961Y-140223109D01*
X138639999Y-140171892D01*
X138640000Y-140171888D01*
X138640000Y-140028111D01*
X138639999Y-140028107D01*
X138624961Y-139976891D01*
X138626708Y-139915731D01*
X138664071Y-139867278D01*
X138719951Y-139850000D01*
X140100049Y-139850000D01*
X140158240Y-139868907D01*
G37*
%TD.AperFunction*%
%TA.AperFunction,Conductor*%
G36*
X170001294Y-62000567D02*
G01*
X170321410Y-62017344D01*
X170326533Y-62017882D01*
X170641877Y-62067828D01*
X170646912Y-62068899D01*
X170955300Y-62151530D01*
X170960226Y-62153132D01*
X171258252Y-62267534D01*
X171262988Y-62269642D01*
X171547450Y-62414582D01*
X171551923Y-62417165D01*
X171819673Y-62591044D01*
X171823846Y-62594076D01*
X172032439Y-62762992D01*
X172071946Y-62794984D01*
X172075799Y-62798453D01*
X172301546Y-63024200D01*
X172305015Y-63028053D01*
X172505920Y-63276150D01*
X172508957Y-63280330D01*
X172677179Y-63539368D01*
X172682828Y-63548066D01*
X172685421Y-63552556D01*
X172830357Y-63837011D01*
X172832465Y-63841747D01*
X172946867Y-64139773D01*
X172948470Y-64144704D01*
X173031097Y-64453074D01*
X173032173Y-64458137D01*
X173047998Y-64558048D01*
X173082115Y-64773451D01*
X173082657Y-64778608D01*
X173099432Y-65098698D01*
X173099500Y-65101289D01*
X173099500Y-138698710D01*
X173099432Y-138701294D01*
X173087635Y-138926398D01*
X173082657Y-139021391D01*
X173082115Y-139026548D01*
X173032175Y-139341854D01*
X173031097Y-139346925D01*
X172948470Y-139655295D01*
X172946867Y-139660226D01*
X172832465Y-139958252D01*
X172830357Y-139962988D01*
X172685421Y-140247443D01*
X172682828Y-140251933D01*
X172508963Y-140519661D01*
X172505916Y-140523855D01*
X172305015Y-140771946D01*
X172301546Y-140775799D01*
X172075799Y-141001546D01*
X172071946Y-141005015D01*
X171823855Y-141205916D01*
X171819661Y-141208963D01*
X171551933Y-141382828D01*
X171547443Y-141385421D01*
X171262988Y-141530357D01*
X171258252Y-141532465D01*
X170960226Y-141646867D01*
X170955295Y-141648470D01*
X170646925Y-141731097D01*
X170641858Y-141732173D01*
X170467645Y-141759767D01*
X170326548Y-141782115D01*
X170321391Y-141782656D01*
X170001294Y-141799432D01*
X169998710Y-141799500D01*
X116401290Y-141799500D01*
X116398705Y-141799432D01*
X116078606Y-141782656D01*
X116073451Y-141782115D01*
X116037928Y-141776488D01*
X115758137Y-141732173D01*
X115753074Y-141731097D01*
X115444704Y-141648470D01*
X115439773Y-141646867D01*
X115141747Y-141532465D01*
X115137011Y-141530357D01*
X114852556Y-141385421D01*
X114848066Y-141382828D01*
X114580330Y-141208957D01*
X114576150Y-141205920D01*
X114328053Y-141005015D01*
X114324200Y-141001546D01*
X114320478Y-140997824D01*
X134249999Y-140997824D01*
X134256401Y-141057370D01*
X134256403Y-141057381D01*
X134306646Y-141192088D01*
X134306647Y-141192090D01*
X134392807Y-141307184D01*
X134392815Y-141307192D01*
X134507909Y-141393352D01*
X134507911Y-141393353D01*
X134642618Y-141443596D01*
X134642629Y-141443598D01*
X134702176Y-141450000D01*
X135349999Y-141450000D01*
X135350000Y-141449999D01*
X135350000Y-140683449D01*
X135368907Y-140625258D01*
X135418407Y-140589294D01*
X135463089Y-140585457D01*
X135481565Y-140588113D01*
X135564233Y-140600000D01*
X135564237Y-140600000D01*
X135635767Y-140600000D01*
X135718434Y-140588113D01*
X135736910Y-140585457D01*
X135797199Y-140595890D01*
X135839842Y-140639767D01*
X135850000Y-140683449D01*
X135850000Y-141449999D01*
X135850001Y-141450000D01*
X136497824Y-141450000D01*
X136557370Y-141443598D01*
X136557381Y-141443596D01*
X136692088Y-141393353D01*
X136692090Y-141393352D01*
X136807184Y-141307192D01*
X136807192Y-141307184D01*
X136893352Y-141192090D01*
X136893353Y-141192088D01*
X136943596Y-141057381D01*
X136943598Y-141057370D01*
X136945222Y-141042269D01*
X136970241Y-140986432D01*
X137023301Y-140955965D01*
X137084136Y-140962504D01*
X137113659Y-140982846D01*
X137268926Y-141138113D01*
X137462422Y-141273600D01*
X137676509Y-141373430D01*
X137890000Y-141430634D01*
X137890000Y-140683449D01*
X137908907Y-140625258D01*
X137958407Y-140589294D01*
X138003089Y-140585457D01*
X138021565Y-140588113D01*
X138104233Y-140600000D01*
X138104237Y-140600000D01*
X138175767Y-140600000D01*
X138258434Y-140588113D01*
X138276910Y-140585457D01*
X138337199Y-140595890D01*
X138379842Y-140639767D01*
X138390000Y-140683449D01*
X138390000Y-141430633D01*
X138603490Y-141373430D01*
X138817577Y-141273600D01*
X139011073Y-141138113D01*
X139178113Y-140971073D01*
X139313601Y-140777576D01*
X139313602Y-140777574D01*
X139320275Y-140763265D01*
X139362003Y-140718516D01*
X139422064Y-140706841D01*
X139477517Y-140732698D01*
X139499725Y-140763265D01*
X139506397Y-140777574D01*
X139506398Y-140777576D01*
X139641886Y-140971073D01*
X139808926Y-141138113D01*
X140002422Y-141273600D01*
X140216509Y-141373430D01*
X140430000Y-141430634D01*
X140430000Y-140683449D01*
X140448907Y-140625258D01*
X140498407Y-140589294D01*
X140543089Y-140585457D01*
X140561565Y-140588113D01*
X140644233Y-140600000D01*
X140644237Y-140600000D01*
X140715767Y-140600000D01*
X140798434Y-140588113D01*
X140816910Y-140585457D01*
X140877199Y-140595890D01*
X140919842Y-140639767D01*
X140930000Y-140683449D01*
X140930000Y-141430633D01*
X141143490Y-141373430D01*
X141357577Y-141273600D01*
X141551073Y-141138113D01*
X141718113Y-140971073D01*
X141853600Y-140777577D01*
X141953430Y-140563490D01*
X142008816Y-140356786D01*
X142042140Y-140305472D01*
X142099261Y-140283545D01*
X142158362Y-140299380D01*
X142196867Y-140346930D01*
X142199180Y-140353671D01*
X142244768Y-140503954D01*
X142342316Y-140686452D01*
X142419025Y-140779922D01*
X142473590Y-140846410D01*
X142473595Y-140846414D01*
X142633547Y-140977683D01*
X142633548Y-140977683D01*
X142633550Y-140977685D01*
X142816046Y-141075232D01*
X142953997Y-141117078D01*
X143014065Y-141135300D01*
X143014070Y-141135301D01*
X143219997Y-141155583D01*
X143220000Y-141155583D01*
X143220003Y-141155583D01*
X143425929Y-141135301D01*
X143425934Y-141135300D01*
X143425934Y-141135299D01*
X143623954Y-141075232D01*
X143806450Y-140977685D01*
X143966410Y-140846410D01*
X144097685Y-140686450D01*
X144195232Y-140503954D01*
X144255300Y-140305934D01*
X144255301Y-140305929D01*
X144275583Y-140100003D01*
X144275583Y-140100000D01*
X144654785Y-140100000D01*
X144673603Y-140303083D01*
X144729418Y-140499250D01*
X144820327Y-140681821D01*
X144943236Y-140844579D01*
X145093959Y-140981981D01*
X145267363Y-141089348D01*
X145457544Y-141163024D01*
X145658024Y-141200500D01*
X145861976Y-141200500D01*
X146062456Y-141163024D01*
X146252637Y-141089348D01*
X146426041Y-140981981D01*
X146576764Y-140844579D01*
X146699673Y-140681821D01*
X146790582Y-140499250D01*
X146846397Y-140303083D01*
X146865215Y-140100000D01*
X147194785Y-140100000D01*
X147213603Y-140303083D01*
X147269418Y-140499250D01*
X147360327Y-140681821D01*
X147483236Y-140844579D01*
X147633959Y-140981981D01*
X147807363Y-141089348D01*
X147997544Y-141163024D01*
X148198024Y-141200500D01*
X148401976Y-141200500D01*
X148602456Y-141163024D01*
X148792637Y-141089348D01*
X148966041Y-140981981D01*
X149116764Y-140844579D01*
X149239673Y-140681821D01*
X149330582Y-140499250D01*
X149386397Y-140303083D01*
X149405215Y-140100000D01*
X149734785Y-140100000D01*
X149753603Y-140303083D01*
X149809418Y-140499250D01*
X149900327Y-140681821D01*
X150023236Y-140844579D01*
X150173959Y-140981981D01*
X150347363Y-141089348D01*
X150537544Y-141163024D01*
X150738024Y-141200500D01*
X150941976Y-141200500D01*
X151142456Y-141163024D01*
X151332637Y-141089348D01*
X151506041Y-140981981D01*
X151656764Y-140844579D01*
X151779673Y-140681821D01*
X151870582Y-140499250D01*
X151926397Y-140303083D01*
X151945215Y-140100000D01*
X151926397Y-139896917D01*
X151870582Y-139700750D01*
X151779673Y-139518179D01*
X151656764Y-139355421D01*
X151506041Y-139218019D01*
X151332637Y-139110652D01*
X151142456Y-139036976D01*
X151142455Y-139036975D01*
X151142453Y-139036975D01*
X150941976Y-138999500D01*
X150738024Y-138999500D01*
X150537546Y-139036975D01*
X150518336Y-139044417D01*
X150347363Y-139110652D01*
X150199548Y-139202175D01*
X150173959Y-139218019D01*
X150023237Y-139355420D01*
X149900328Y-139518177D01*
X149900323Y-139518186D01*
X149811760Y-139696046D01*
X149809418Y-139700750D01*
X149766952Y-139850000D01*
X149753603Y-139896917D01*
X149738156Y-140063625D01*
X149734785Y-140100000D01*
X149405215Y-140100000D01*
X149386397Y-139896917D01*
X149330582Y-139700750D01*
X149239673Y-139518179D01*
X149116764Y-139355421D01*
X148966041Y-139218019D01*
X148792637Y-139110652D01*
X148602456Y-139036976D01*
X148602455Y-139036975D01*
X148602453Y-139036975D01*
X148401976Y-138999500D01*
X148198024Y-138999500D01*
X147997546Y-139036975D01*
X147978336Y-139044417D01*
X147807363Y-139110652D01*
X147659548Y-139202175D01*
X147633959Y-139218019D01*
X147483237Y-139355420D01*
X147360328Y-139518177D01*
X147360323Y-139518186D01*
X147271760Y-139696046D01*
X147269418Y-139700750D01*
X147213603Y-139896917D01*
X147194785Y-140100000D01*
X146865215Y-140100000D01*
X146846397Y-139896917D01*
X146790582Y-139700750D01*
X146699673Y-139518179D01*
X146576764Y-139355421D01*
X146426041Y-139218019D01*
X146252637Y-139110652D01*
X146062456Y-139036976D01*
X146062455Y-139036975D01*
X146062453Y-139036975D01*
X145861976Y-138999500D01*
X145658024Y-138999500D01*
X145457546Y-139036975D01*
X145438336Y-139044417D01*
X145267363Y-139110652D01*
X145119548Y-139202175D01*
X145093959Y-139218019D01*
X144943237Y-139355420D01*
X144820328Y-139518177D01*
X144820323Y-139518186D01*
X144731760Y-139696046D01*
X144729418Y-139700750D01*
X144686952Y-139850000D01*
X144673603Y-139896917D01*
X144658156Y-140063625D01*
X144654785Y-140100000D01*
X144275583Y-140100000D01*
X144275583Y-140099996D01*
X144255301Y-139894070D01*
X144255300Y-139894065D01*
X144217423Y-139769202D01*
X144195232Y-139696046D01*
X144097685Y-139513550D01*
X143966410Y-139353590D01*
X143834007Y-139244930D01*
X143806452Y-139222316D01*
X143623954Y-139124768D01*
X143425934Y-139064699D01*
X143425929Y-139064698D01*
X143220003Y-139044417D01*
X143219997Y-139044417D01*
X143014070Y-139064698D01*
X143014065Y-139064699D01*
X142816045Y-139124768D01*
X142633547Y-139222316D01*
X142473595Y-139353585D01*
X142473585Y-139353595D01*
X142342316Y-139513547D01*
X142319943Y-139555404D01*
X142244768Y-139696046D01*
X142237899Y-139718690D01*
X142199180Y-139846329D01*
X142164195Y-139896525D01*
X142106386Y-139916571D01*
X142047836Y-139898810D01*
X142010907Y-139850025D01*
X142008816Y-139843213D01*
X141953429Y-139636504D01*
X141853605Y-139422432D01*
X141853601Y-139422424D01*
X141718113Y-139228926D01*
X141551073Y-139061886D01*
X141357577Y-138926399D01*
X141143489Y-138826569D01*
X140936786Y-138771183D01*
X140885472Y-138737859D01*
X140863545Y-138680737D01*
X140879381Y-138621637D01*
X140926931Y-138583132D01*
X140933663Y-138580821D01*
X141083954Y-138535232D01*
X141266450Y-138437685D01*
X141426410Y-138306410D01*
X141557685Y-138146450D01*
X141655232Y-137963954D01*
X141715300Y-137765934D01*
X141715301Y-137765929D01*
X141735583Y-137560003D01*
X142164417Y-137560003D01*
X142184698Y-137765929D01*
X142184699Y-137765934D01*
X142244768Y-137963954D01*
X142342316Y-138146452D01*
X142473585Y-138306404D01*
X142473590Y-138306410D01*
X142473595Y-138306414D01*
X142633547Y-138437683D01*
X142633548Y-138437683D01*
X142633550Y-138437685D01*
X142816046Y-138535232D01*
X142933652Y-138570907D01*
X143014065Y-138595300D01*
X143014070Y-138595301D01*
X143219997Y-138615583D01*
X143220000Y-138615583D01*
X143220003Y-138615583D01*
X143425929Y-138595301D01*
X143425934Y-138595300D01*
X143439292Y-138591248D01*
X143623954Y-138535232D01*
X143806450Y-138437685D01*
X143966410Y-138306410D01*
X144097685Y-138146450D01*
X144195232Y-137963954D01*
X144255300Y-137765934D01*
X144255301Y-137765929D01*
X144275583Y-137560003D01*
X144704417Y-137560003D01*
X144724698Y-137765929D01*
X144724699Y-137765934D01*
X144784768Y-137963954D01*
X144882316Y-138146452D01*
X145013585Y-138306404D01*
X145013590Y-138306410D01*
X145013595Y-138306414D01*
X145173547Y-138437683D01*
X145173548Y-138437683D01*
X145173550Y-138437685D01*
X145356046Y-138535232D01*
X145473652Y-138570907D01*
X145554065Y-138595300D01*
X145554070Y-138595301D01*
X145759997Y-138615583D01*
X145760000Y-138615583D01*
X145760003Y-138615583D01*
X145965929Y-138595301D01*
X145965934Y-138595300D01*
X145979292Y-138591248D01*
X146163954Y-138535232D01*
X146346450Y-138437685D01*
X146506410Y-138306410D01*
X146637685Y-138146450D01*
X146735232Y-137963954D01*
X146795300Y-137765934D01*
X146795301Y-137765929D01*
X146815583Y-137560003D01*
X147244417Y-137560003D01*
X147264698Y-137765929D01*
X147264699Y-137765934D01*
X147324768Y-137963954D01*
X147422316Y-138146452D01*
X147553585Y-138306404D01*
X147553590Y-138306410D01*
X147553595Y-138306414D01*
X147713547Y-138437683D01*
X147713548Y-138437683D01*
X147713550Y-138437685D01*
X147896046Y-138535232D01*
X148013652Y-138570907D01*
X148094065Y-138595300D01*
X148094070Y-138595301D01*
X148299997Y-138615583D01*
X148300000Y-138615583D01*
X148300003Y-138615583D01*
X148505929Y-138595301D01*
X148505934Y-138595300D01*
X148519292Y-138591248D01*
X148703954Y-138535232D01*
X148886450Y-138437685D01*
X149046410Y-138306410D01*
X149177685Y-138146450D01*
X149275232Y-137963954D01*
X149335300Y-137765934D01*
X149335301Y-137765929D01*
X149355583Y-137560003D01*
X149784417Y-137560003D01*
X149804698Y-137765929D01*
X149804699Y-137765934D01*
X149864768Y-137963954D01*
X149962316Y-138146452D01*
X150093585Y-138306404D01*
X150093590Y-138306410D01*
X150093595Y-138306414D01*
X150253547Y-138437683D01*
X150253548Y-138437683D01*
X150253550Y-138437685D01*
X150436046Y-138535232D01*
X150553652Y-138570907D01*
X150634065Y-138595300D01*
X150634070Y-138595301D01*
X150839997Y-138615583D01*
X150840000Y-138615583D01*
X150840003Y-138615583D01*
X151045929Y-138595301D01*
X151045934Y-138595300D01*
X151059292Y-138591248D01*
X151243954Y-138535232D01*
X151426450Y-138437685D01*
X151586410Y-138306410D01*
X151717685Y-138146450D01*
X151815232Y-137963954D01*
X151875300Y-137765934D01*
X151875301Y-137765929D01*
X151895583Y-137560003D01*
X151895583Y-137559996D01*
X151875301Y-137354070D01*
X151875300Y-137354065D01*
X151849252Y-137268197D01*
X151815232Y-137156046D01*
X151717685Y-136973550D01*
X151713514Y-136968468D01*
X151657324Y-136900000D01*
X164794506Y-136900000D01*
X164814468Y-137268197D01*
X164874126Y-137632087D01*
X164972768Y-137987365D01*
X164972772Y-137987376D01*
X165109255Y-138329927D01*
X165109257Y-138329930D01*
X165263910Y-138621637D01*
X165281981Y-138655721D01*
X165311129Y-138698710D01*
X165488910Y-138960917D01*
X165488914Y-138960922D01*
X165488915Y-138960923D01*
X165727622Y-139241951D01*
X165727632Y-139241961D01*
X165995326Y-139495535D01*
X165995330Y-139495538D01*
X166288881Y-139718690D01*
X166604838Y-139908795D01*
X166939497Y-140063625D01*
X167288934Y-140181364D01*
X167288939Y-140181365D01*
X167288942Y-140181366D01*
X167649047Y-140260631D01*
X167649048Y-140260631D01*
X167649052Y-140260632D01*
X168015630Y-140300500D01*
X168384370Y-140300500D01*
X168750948Y-140260632D01*
X168800386Y-140249750D01*
X168870987Y-140234209D01*
X169111057Y-140181366D01*
X169111058Y-140181366D01*
X169111060Y-140181365D01*
X169111066Y-140181364D01*
X169460503Y-140063625D01*
X169795162Y-139908795D01*
X170111119Y-139718690D01*
X170404670Y-139495538D01*
X170672373Y-139241956D01*
X170911090Y-138960917D01*
X171118022Y-138655716D01*
X171290743Y-138329930D01*
X171427227Y-137987379D01*
X171525875Y-137632081D01*
X171585531Y-137268199D01*
X171605494Y-136900000D01*
X171585531Y-136531801D01*
X171525875Y-136167919D01*
X171427227Y-135812621D01*
X171290743Y-135470070D01*
X171118022Y-135144284D01*
X170911090Y-134839083D01*
X170756029Y-134656531D01*
X170672377Y-134558048D01*
X170672367Y-134558038D01*
X170404673Y-134304464D01*
X170111123Y-134081313D01*
X170111122Y-134081312D01*
X170111119Y-134081310D01*
X169795162Y-133891205D01*
X169680226Y-133838029D01*
X169460508Y-133736377D01*
X169460505Y-133736376D01*
X169460503Y-133736375D01*
X169111066Y-133618636D01*
X169111065Y-133618635D01*
X169111057Y-133618633D01*
X168750952Y-133539368D01*
X168750953Y-133539368D01*
X168384370Y-133499500D01*
X168015630Y-133499500D01*
X167649046Y-133539368D01*
X167288943Y-133618633D01*
X167288941Y-133618633D01*
X166939491Y-133736377D01*
X166604846Y-133891201D01*
X166604840Y-133891204D01*
X166288881Y-134081310D01*
X166288876Y-134081313D01*
X165995326Y-134304464D01*
X165727632Y-134558038D01*
X165727622Y-134558048D01*
X165488915Y-134839076D01*
X165488908Y-134839086D01*
X165281981Y-135144278D01*
X165109255Y-135470072D01*
X164972772Y-135812623D01*
X164972768Y-135812634D01*
X164874126Y-136167912D01*
X164814468Y-136531802D01*
X164794506Y-136900000D01*
X151657324Y-136900000D01*
X151586414Y-136813595D01*
X151586410Y-136813590D01*
X151531080Y-136768182D01*
X151426452Y-136682316D01*
X151243954Y-136584768D01*
X151045934Y-136524699D01*
X151045929Y-136524698D01*
X150840003Y-136504417D01*
X150839997Y-136504417D01*
X150634070Y-136524698D01*
X150634065Y-136524699D01*
X150436045Y-136584768D01*
X150253547Y-136682316D01*
X150093595Y-136813585D01*
X150093585Y-136813595D01*
X149962316Y-136973547D01*
X149864768Y-137156045D01*
X149804699Y-137354065D01*
X149804698Y-137354070D01*
X149784417Y-137559996D01*
X149784417Y-137560003D01*
X149355583Y-137560003D01*
X149355583Y-137559996D01*
X149335301Y-137354070D01*
X149335300Y-137354065D01*
X149309252Y-137268197D01*
X149275232Y-137156046D01*
X149177685Y-136973550D01*
X149173514Y-136968468D01*
X149046414Y-136813595D01*
X149046410Y-136813590D01*
X148991080Y-136768182D01*
X148886452Y-136682316D01*
X148703954Y-136584768D01*
X148505934Y-136524699D01*
X148505929Y-136524698D01*
X148300003Y-136504417D01*
X148299997Y-136504417D01*
X148094070Y-136524698D01*
X148094065Y-136524699D01*
X147896045Y-136584768D01*
X147713547Y-136682316D01*
X147553595Y-136813585D01*
X147553585Y-136813595D01*
X147422316Y-136973547D01*
X147324768Y-137156045D01*
X147264699Y-137354065D01*
X147264698Y-137354070D01*
X147244417Y-137559996D01*
X147244417Y-137560003D01*
X146815583Y-137560003D01*
X146815583Y-137559996D01*
X146795301Y-137354070D01*
X146795300Y-137354065D01*
X146769252Y-137268197D01*
X146735232Y-137156046D01*
X146637685Y-136973550D01*
X146633514Y-136968468D01*
X146506414Y-136813595D01*
X146506410Y-136813590D01*
X146451080Y-136768182D01*
X146346452Y-136682316D01*
X146163954Y-136584768D01*
X145965934Y-136524699D01*
X145965929Y-136524698D01*
X145760003Y-136504417D01*
X145759997Y-136504417D01*
X145554070Y-136524698D01*
X145554065Y-136524699D01*
X145356045Y-136584768D01*
X145173547Y-136682316D01*
X145013595Y-136813585D01*
X145013585Y-136813595D01*
X144882316Y-136973547D01*
X144784768Y-137156045D01*
X144724699Y-137354065D01*
X144724698Y-137354070D01*
X144704417Y-137559996D01*
X144704417Y-137560003D01*
X144275583Y-137560003D01*
X144275583Y-137559996D01*
X144255301Y-137354070D01*
X144255300Y-137354065D01*
X144229252Y-137268197D01*
X144195232Y-137156046D01*
X144097685Y-136973550D01*
X144093514Y-136968468D01*
X143966414Y-136813595D01*
X143966410Y-136813590D01*
X143911080Y-136768182D01*
X143806452Y-136682316D01*
X143623954Y-136584768D01*
X143425934Y-136524699D01*
X143425929Y-136524698D01*
X143220003Y-136504417D01*
X143219997Y-136504417D01*
X143014070Y-136524698D01*
X143014065Y-136524699D01*
X142816045Y-136584768D01*
X142633547Y-136682316D01*
X142473595Y-136813585D01*
X142473585Y-136813595D01*
X142342316Y-136973547D01*
X142244768Y-137156045D01*
X142184699Y-137354065D01*
X142184698Y-137354070D01*
X142164417Y-137559996D01*
X142164417Y-137560003D01*
X141735583Y-137560003D01*
X141735583Y-137559996D01*
X141715301Y-137354070D01*
X141715300Y-137354065D01*
X141689252Y-137268197D01*
X141655232Y-137156046D01*
X141557685Y-136973550D01*
X141553514Y-136968468D01*
X141426414Y-136813595D01*
X141426410Y-136813590D01*
X141371080Y-136768182D01*
X141266452Y-136682316D01*
X141083954Y-136584768D01*
X140885934Y-136524699D01*
X140885929Y-136524698D01*
X140680003Y-136504417D01*
X140679997Y-136504417D01*
X140474070Y-136524698D01*
X140474065Y-136524699D01*
X140276045Y-136584768D01*
X140093547Y-136682316D01*
X139933595Y-136813585D01*
X139933585Y-136813595D01*
X139802316Y-136973547D01*
X139704768Y-137156045D01*
X139644699Y-137354065D01*
X139644698Y-137354070D01*
X139624417Y-137559996D01*
X139624417Y-137560003D01*
X139644698Y-137765929D01*
X139644699Y-137765934D01*
X139704768Y-137963954D01*
X139802316Y-138146452D01*
X139933585Y-138306404D01*
X139933590Y-138306410D01*
X139933595Y-138306414D01*
X140093547Y-138437683D01*
X140093548Y-138437683D01*
X140093550Y-138437685D01*
X140276046Y-138535232D01*
X140426328Y-138580819D01*
X140476525Y-138615804D01*
X140496571Y-138673612D01*
X140478810Y-138732163D01*
X140430026Y-138769092D01*
X140423213Y-138771183D01*
X140216505Y-138826570D01*
X140002432Y-138926394D01*
X140002424Y-138926398D01*
X139808926Y-139061886D01*
X139641886Y-139228926D01*
X139506398Y-139422424D01*
X139506396Y-139422428D01*
X139499724Y-139436737D01*
X139457995Y-139481485D01*
X139397934Y-139493159D01*
X139342481Y-139467300D01*
X139320276Y-139436737D01*
X139313603Y-139422428D01*
X139313601Y-139422424D01*
X139178113Y-139228926D01*
X139011073Y-139061886D01*
X138817577Y-138926399D01*
X138603489Y-138826569D01*
X138396786Y-138771183D01*
X138345472Y-138737859D01*
X138323545Y-138680737D01*
X138339381Y-138621637D01*
X138386931Y-138583132D01*
X138393663Y-138580821D01*
X138543954Y-138535232D01*
X138726450Y-138437685D01*
X138886410Y-138306410D01*
X139017685Y-138146450D01*
X139115232Y-137963954D01*
X139175300Y-137765934D01*
X139175301Y-137765929D01*
X139195583Y-137560003D01*
X139195583Y-137559996D01*
X139175301Y-137354070D01*
X139175300Y-137354065D01*
X139149252Y-137268197D01*
X139115232Y-137156046D01*
X139017685Y-136973550D01*
X139013514Y-136968468D01*
X138886414Y-136813595D01*
X138886410Y-136813590D01*
X138831080Y-136768182D01*
X138726452Y-136682316D01*
X138543954Y-136584768D01*
X138345934Y-136524699D01*
X138345929Y-136524698D01*
X138140003Y-136504417D01*
X138139997Y-136504417D01*
X137934070Y-136524698D01*
X137934065Y-136524699D01*
X137736045Y-136584768D01*
X137553547Y-136682316D01*
X137393595Y-136813585D01*
X137393585Y-136813595D01*
X137262316Y-136973547D01*
X137164768Y-137156045D01*
X137104699Y-137354065D01*
X137104698Y-137354070D01*
X137084417Y-137559996D01*
X137084417Y-137560003D01*
X137104698Y-137765929D01*
X137104699Y-137765934D01*
X137164768Y-137963954D01*
X137262316Y-138146452D01*
X137393585Y-138306404D01*
X137393590Y-138306410D01*
X137393595Y-138306414D01*
X137553547Y-138437683D01*
X137553548Y-138437683D01*
X137553550Y-138437685D01*
X137736046Y-138535232D01*
X137886328Y-138580819D01*
X137936525Y-138615804D01*
X137956571Y-138673612D01*
X137938810Y-138732163D01*
X137890026Y-138769092D01*
X137883213Y-138771183D01*
X137676505Y-138826570D01*
X137462432Y-138926394D01*
X137462424Y-138926398D01*
X137268925Y-139061887D01*
X137268921Y-139061890D01*
X137113658Y-139217153D01*
X137059142Y-139244930D01*
X136998710Y-139235359D01*
X136955445Y-139192094D01*
X136945222Y-139157731D01*
X136943598Y-139142629D01*
X136943596Y-139142618D01*
X136893353Y-139007911D01*
X136893352Y-139007909D01*
X136807192Y-138892815D01*
X136807184Y-138892807D01*
X136692090Y-138806647D01*
X136692088Y-138806646D01*
X136557381Y-138756403D01*
X136557370Y-138756401D01*
X136497824Y-138750000D01*
X135963361Y-138750000D01*
X135905170Y-138731093D01*
X135869206Y-138681593D01*
X135869206Y-138620407D01*
X135905170Y-138570907D01*
X135934623Y-138556263D01*
X136003954Y-138535232D01*
X136186450Y-138437685D01*
X136346410Y-138306410D01*
X136477685Y-138146450D01*
X136575232Y-137963954D01*
X136635300Y-137765934D01*
X136635301Y-137765929D01*
X136655583Y-137560003D01*
X136655583Y-137559996D01*
X136635301Y-137354070D01*
X136635300Y-137354065D01*
X136609252Y-137268197D01*
X136575232Y-137156046D01*
X136477685Y-136973550D01*
X136473514Y-136968468D01*
X136346414Y-136813595D01*
X136346410Y-136813590D01*
X136291080Y-136768182D01*
X136186452Y-136682316D01*
X136003954Y-136584768D01*
X135805934Y-136524699D01*
X135805929Y-136524698D01*
X135600003Y-136504417D01*
X135599997Y-136504417D01*
X135394070Y-136524698D01*
X135394065Y-136524699D01*
X135196045Y-136584768D01*
X135013547Y-136682316D01*
X134853595Y-136813585D01*
X134853585Y-136813595D01*
X134722316Y-136973547D01*
X134624768Y-137156045D01*
X134564699Y-137354065D01*
X134564698Y-137354070D01*
X134544417Y-137559996D01*
X134544417Y-137560003D01*
X134564698Y-137765929D01*
X134564699Y-137765934D01*
X134624768Y-137963954D01*
X134722316Y-138146452D01*
X134853585Y-138306404D01*
X134853590Y-138306410D01*
X134853595Y-138306414D01*
X135013547Y-138437683D01*
X135013548Y-138437683D01*
X135013550Y-138437685D01*
X135196046Y-138535232D01*
X135265377Y-138556263D01*
X135315574Y-138591248D01*
X135335620Y-138649056D01*
X135317859Y-138707607D01*
X135269075Y-138744536D01*
X135236639Y-138750000D01*
X134702176Y-138750000D01*
X134642629Y-138756401D01*
X134642618Y-138756403D01*
X134507911Y-138806646D01*
X134507909Y-138806647D01*
X134392815Y-138892807D01*
X134392807Y-138892815D01*
X134306647Y-139007909D01*
X134306646Y-139007911D01*
X134256403Y-139142618D01*
X134256401Y-139142629D01*
X134250000Y-139202175D01*
X134250000Y-139849999D01*
X134250001Y-139850000D01*
X135020049Y-139850000D01*
X135078240Y-139868907D01*
X135114204Y-139918407D01*
X135115039Y-139976891D01*
X135100000Y-140028107D01*
X135100000Y-140171892D01*
X135115039Y-140223109D01*
X135113292Y-140284269D01*
X135075929Y-140332722D01*
X135020049Y-140350000D01*
X134250001Y-140350000D01*
X134250000Y-140350001D01*
X134250000Y-140997824D01*
X134249999Y-140997824D01*
X114320478Y-140997824D01*
X114098453Y-140775799D01*
X114094984Y-140771946D01*
X114087954Y-140763265D01*
X113894076Y-140523846D01*
X113891044Y-140519673D01*
X113717165Y-140251923D01*
X113714582Y-140247450D01*
X113569642Y-139962988D01*
X113567534Y-139958252D01*
X113453132Y-139660226D01*
X113451529Y-139655295D01*
X113436713Y-139600000D01*
X113368899Y-139346912D01*
X113367828Y-139341877D01*
X113317882Y-139026533D01*
X113317344Y-139021410D01*
X113300565Y-138701256D01*
X113300500Y-138698745D01*
X113300500Y-138673071D01*
X113300500Y-136900000D01*
X114794506Y-136900000D01*
X114814468Y-137268197D01*
X114874126Y-137632087D01*
X114972768Y-137987365D01*
X114972772Y-137987376D01*
X115109255Y-138329927D01*
X115109257Y-138329930D01*
X115263910Y-138621637D01*
X115281981Y-138655721D01*
X115311129Y-138698710D01*
X115488910Y-138960917D01*
X115488914Y-138960922D01*
X115488915Y-138960923D01*
X115727622Y-139241951D01*
X115727632Y-139241961D01*
X115995326Y-139495535D01*
X115995330Y-139495538D01*
X116288881Y-139718690D01*
X116604838Y-139908795D01*
X116939497Y-140063625D01*
X117288934Y-140181364D01*
X117288939Y-140181365D01*
X117288942Y-140181366D01*
X117649047Y-140260631D01*
X117649048Y-140260631D01*
X117649052Y-140260632D01*
X118015630Y-140300500D01*
X118384370Y-140300500D01*
X118750948Y-140260632D01*
X118800386Y-140249750D01*
X118870987Y-140234209D01*
X119111057Y-140181366D01*
X119111058Y-140181366D01*
X119111060Y-140181365D01*
X119111066Y-140181364D01*
X119460503Y-140063625D01*
X119795162Y-139908795D01*
X120111119Y-139718690D01*
X120404670Y-139495538D01*
X120672373Y-139241956D01*
X120911090Y-138960917D01*
X121118022Y-138655716D01*
X121290743Y-138329930D01*
X121427227Y-137987379D01*
X121525875Y-137632081D01*
X121585531Y-137268199D01*
X121604138Y-136925001D01*
X123044722Y-136925001D01*
X123063762Y-137081816D01*
X123063763Y-137081817D01*
X123119780Y-137229523D01*
X123209515Y-137359528D01*
X123209516Y-137359529D01*
X123209517Y-137359530D01*
X123327760Y-137464283D01*
X123467635Y-137537696D01*
X123621015Y-137575500D01*
X123621018Y-137575500D01*
X123778982Y-137575500D01*
X123778985Y-137575500D01*
X123932365Y-137537696D01*
X124072240Y-137464283D01*
X124190483Y-137359530D01*
X124268524Y-137246466D01*
X124317141Y-137209317D01*
X124378308Y-137207839D01*
X124428663Y-137242595D01*
X124431476Y-137246467D01*
X124509515Y-137359528D01*
X124509516Y-137359529D01*
X124509517Y-137359530D01*
X124627760Y-137464283D01*
X124767635Y-137537696D01*
X124921015Y-137575500D01*
X124921018Y-137575500D01*
X125078982Y-137575500D01*
X125078985Y-137575500D01*
X125232365Y-137537696D01*
X125372240Y-137464283D01*
X125490483Y-137359530D01*
X125568524Y-137246466D01*
X125617141Y-137209317D01*
X125678308Y-137207839D01*
X125728663Y-137242595D01*
X125731476Y-137246467D01*
X125809515Y-137359528D01*
X125809516Y-137359529D01*
X125809517Y-137359530D01*
X125927760Y-137464283D01*
X126067635Y-137537696D01*
X126221015Y-137575500D01*
X126221018Y-137575500D01*
X126378982Y-137575500D01*
X126378985Y-137575500D01*
X126532365Y-137537696D01*
X126672240Y-137464283D01*
X126790483Y-137359530D01*
X126868524Y-137246466D01*
X126917141Y-137209317D01*
X126978308Y-137207839D01*
X127028663Y-137242595D01*
X127031476Y-137246467D01*
X127109515Y-137359528D01*
X127109516Y-137359529D01*
X127109517Y-137359530D01*
X127227760Y-137464283D01*
X127367635Y-137537696D01*
X127521015Y-137575500D01*
X127521018Y-137575500D01*
X127678982Y-137575500D01*
X127678985Y-137575500D01*
X127832365Y-137537696D01*
X127972240Y-137464283D01*
X128090483Y-137359530D01*
X128180220Y-137229523D01*
X128236237Y-137081818D01*
X128255278Y-136925000D01*
X128252242Y-136900000D01*
X128236237Y-136768183D01*
X128236237Y-136768182D01*
X128180220Y-136620477D01*
X128114110Y-136524700D01*
X128090484Y-136490471D01*
X127972241Y-136385718D01*
X127972240Y-136385717D01*
X127902302Y-136349010D01*
X127832364Y-136312303D01*
X127678987Y-136274500D01*
X127678985Y-136274500D01*
X127521015Y-136274500D01*
X127521012Y-136274500D01*
X127367635Y-136312303D01*
X127227758Y-136385718D01*
X127109515Y-136490471D01*
X127031476Y-136603532D01*
X126982859Y-136640682D01*
X126921692Y-136642160D01*
X126871337Y-136607403D01*
X126868524Y-136603532D01*
X126790484Y-136490471D01*
X126672241Y-136385718D01*
X126672240Y-136385717D01*
X126602302Y-136349010D01*
X126532364Y-136312303D01*
X126378987Y-136274500D01*
X126378985Y-136274500D01*
X126221015Y-136274500D01*
X126221012Y-136274500D01*
X126067635Y-136312303D01*
X125927758Y-136385718D01*
X125809515Y-136490471D01*
X125731476Y-136603532D01*
X125682859Y-136640682D01*
X125621692Y-136642160D01*
X125571337Y-136607403D01*
X125568524Y-136603532D01*
X125490484Y-136490471D01*
X125372241Y-136385718D01*
X125372240Y-136385717D01*
X125302302Y-136349010D01*
X125232364Y-136312303D01*
X125078987Y-136274500D01*
X125078985Y-136274500D01*
X124921015Y-136274500D01*
X124921012Y-136274500D01*
X124767635Y-136312303D01*
X124627758Y-136385718D01*
X124509515Y-136490471D01*
X124431476Y-136603532D01*
X124382859Y-136640682D01*
X124321692Y-136642160D01*
X124271337Y-136607403D01*
X124268524Y-136603532D01*
X124190484Y-136490471D01*
X124072241Y-136385718D01*
X124072240Y-136385717D01*
X124002302Y-136349010D01*
X123932364Y-136312303D01*
X123778987Y-136274500D01*
X123778985Y-136274500D01*
X123621015Y-136274500D01*
X123621012Y-136274500D01*
X123467635Y-136312303D01*
X123327758Y-136385718D01*
X123209515Y-136490471D01*
X123119780Y-136620476D01*
X123063763Y-136768182D01*
X123063762Y-136768183D01*
X123044722Y-136924998D01*
X123044722Y-136925001D01*
X121604138Y-136925001D01*
X121605494Y-136900000D01*
X121585531Y-136531801D01*
X121525875Y-136167919D01*
X121427227Y-135812621D01*
X121290743Y-135470070D01*
X121118022Y-135144284D01*
X120911090Y-134839083D01*
X120792953Y-134700001D01*
X123044722Y-134700001D01*
X123063762Y-134856816D01*
X123063763Y-134856817D01*
X123119780Y-135004523D01*
X123209515Y-135134528D01*
X123209516Y-135134529D01*
X123209517Y-135134530D01*
X123327760Y-135239283D01*
X123467635Y-135312696D01*
X123621015Y-135350500D01*
X123621018Y-135350500D01*
X123778982Y-135350500D01*
X123778985Y-135350500D01*
X123932365Y-135312696D01*
X124072240Y-135239283D01*
X124190483Y-135134530D01*
X124268524Y-135021466D01*
X124317141Y-134984317D01*
X124378308Y-134982839D01*
X124428663Y-135017595D01*
X124431476Y-135021467D01*
X124509515Y-135134528D01*
X124509516Y-135134529D01*
X124509517Y-135134530D01*
X124627760Y-135239283D01*
X124767635Y-135312696D01*
X124921015Y-135350500D01*
X124921018Y-135350500D01*
X125078982Y-135350500D01*
X125078985Y-135350500D01*
X125232365Y-135312696D01*
X125372240Y-135239283D01*
X125490483Y-135134530D01*
X125568524Y-135021466D01*
X125617141Y-134984317D01*
X125678308Y-134982839D01*
X125728663Y-135017595D01*
X125731476Y-135021467D01*
X125809515Y-135134528D01*
X125809516Y-135134529D01*
X125809517Y-135134530D01*
X125927760Y-135239283D01*
X126067635Y-135312696D01*
X126221015Y-135350500D01*
X126221018Y-135350500D01*
X126378982Y-135350500D01*
X126378985Y-135350500D01*
X126532365Y-135312696D01*
X126672240Y-135239283D01*
X126790483Y-135134530D01*
X126868524Y-135021466D01*
X126917141Y-134984317D01*
X126978308Y-134982839D01*
X127028663Y-135017595D01*
X127031476Y-135021467D01*
X127109515Y-135134528D01*
X127109516Y-135134529D01*
X127109517Y-135134530D01*
X127227760Y-135239283D01*
X127367635Y-135312696D01*
X127521015Y-135350500D01*
X127521018Y-135350500D01*
X127678982Y-135350500D01*
X127678985Y-135350500D01*
X127832365Y-135312696D01*
X127972240Y-135239283D01*
X128090483Y-135134530D01*
X128180220Y-135004523D01*
X128236237Y-134856818D01*
X128255278Y-134700000D01*
X128236237Y-134543182D01*
X128180220Y-134395477D01*
X128090483Y-134265470D01*
X127972240Y-134160717D01*
X127902302Y-134124010D01*
X127832364Y-134087303D01*
X127678987Y-134049500D01*
X127678985Y-134049500D01*
X127521015Y-134049500D01*
X127521012Y-134049500D01*
X127367635Y-134087303D01*
X127227758Y-134160718D01*
X127109515Y-134265471D01*
X127031476Y-134378532D01*
X126982859Y-134415682D01*
X126921692Y-134417160D01*
X126871337Y-134382403D01*
X126868524Y-134378532D01*
X126790484Y-134265471D01*
X126672241Y-134160718D01*
X126672240Y-134160717D01*
X126602302Y-134124010D01*
X126532364Y-134087303D01*
X126378987Y-134049500D01*
X126378985Y-134049500D01*
X126221015Y-134049500D01*
X126221012Y-134049500D01*
X126067635Y-134087303D01*
X125927758Y-134160718D01*
X125809515Y-134265471D01*
X125731476Y-134378532D01*
X125682859Y-134415682D01*
X125621692Y-134417160D01*
X125571337Y-134382403D01*
X125568524Y-134378532D01*
X125490484Y-134265471D01*
X125372241Y-134160718D01*
X125372240Y-134160717D01*
X125302302Y-134124010D01*
X125232364Y-134087303D01*
X125078987Y-134049500D01*
X125078985Y-134049500D01*
X124921015Y-134049500D01*
X124921012Y-134049500D01*
X124767635Y-134087303D01*
X124627758Y-134160718D01*
X124509515Y-134265471D01*
X124431476Y-134378532D01*
X124382859Y-134415682D01*
X124321692Y-134417160D01*
X124271337Y-134382403D01*
X124268524Y-134378532D01*
X124190484Y-134265471D01*
X124072241Y-134160718D01*
X124072240Y-134160717D01*
X124002302Y-134124010D01*
X123932364Y-134087303D01*
X123778987Y-134049500D01*
X123778985Y-134049500D01*
X123621015Y-134049500D01*
X123621012Y-134049500D01*
X123467635Y-134087303D01*
X123327758Y-134160718D01*
X123209515Y-134265471D01*
X123119780Y-134395476D01*
X123063763Y-134543182D01*
X123063762Y-134543183D01*
X123044722Y-134699998D01*
X123044722Y-134700001D01*
X120792953Y-134700001D01*
X120756029Y-134656531D01*
X120672377Y-134558048D01*
X120672367Y-134558038D01*
X120404673Y-134304464D01*
X120111123Y-134081313D01*
X120111122Y-134081312D01*
X120111119Y-134081310D01*
X119795162Y-133891205D01*
X119680226Y-133838029D01*
X119460508Y-133736377D01*
X119460505Y-133736376D01*
X119460503Y-133736375D01*
X119111066Y-133618636D01*
X119111065Y-133618635D01*
X119111057Y-133618633D01*
X118750952Y-133539368D01*
X118750953Y-133539368D01*
X118384370Y-133499500D01*
X118015630Y-133499500D01*
X117649046Y-133539368D01*
X117288943Y-133618633D01*
X117288941Y-133618633D01*
X116939491Y-133736377D01*
X116604846Y-133891201D01*
X116604840Y-133891204D01*
X116288881Y-134081310D01*
X116288876Y-134081313D01*
X115995326Y-134304464D01*
X115727632Y-134558038D01*
X115727622Y-134558048D01*
X115488915Y-134839076D01*
X115488908Y-134839086D01*
X115281981Y-135144278D01*
X115109255Y-135470072D01*
X114972772Y-135812623D01*
X114972768Y-135812634D01*
X114874126Y-136167912D01*
X114814468Y-136531802D01*
X114794506Y-136900000D01*
X113300500Y-136900000D01*
X113300500Y-132400001D01*
X123044722Y-132400001D01*
X123063762Y-132556816D01*
X123063763Y-132556818D01*
X123111556Y-132682839D01*
X123119780Y-132704523D01*
X123209515Y-132834528D01*
X123209516Y-132834529D01*
X123209517Y-132834530D01*
X123327760Y-132939283D01*
X123467635Y-133012696D01*
X123621015Y-133050500D01*
X123621018Y-133050500D01*
X123778982Y-133050500D01*
X123778985Y-133050500D01*
X123932365Y-133012696D01*
X124072240Y-132939283D01*
X124190483Y-132834530D01*
X124268524Y-132721466D01*
X124317141Y-132684317D01*
X124378308Y-132682839D01*
X124428663Y-132717595D01*
X124431467Y-132721454D01*
X124464194Y-132768868D01*
X124509515Y-132834528D01*
X124509516Y-132834529D01*
X124509517Y-132834530D01*
X124627760Y-132939283D01*
X124767635Y-133012696D01*
X124921015Y-133050500D01*
X124921018Y-133050500D01*
X125078982Y-133050500D01*
X125078985Y-133050500D01*
X125232365Y-133012696D01*
X125372240Y-132939283D01*
X125490483Y-132834530D01*
X125568524Y-132721466D01*
X125617141Y-132684317D01*
X125678308Y-132682839D01*
X125728663Y-132717595D01*
X125731467Y-132721454D01*
X125764194Y-132768868D01*
X125809515Y-132834528D01*
X125809516Y-132834529D01*
X125809517Y-132834530D01*
X125927760Y-132939283D01*
X126067635Y-133012696D01*
X126221015Y-133050500D01*
X126221018Y-133050500D01*
X126378982Y-133050500D01*
X126378985Y-133050500D01*
X126532365Y-133012696D01*
X126672240Y-132939283D01*
X126790483Y-132834530D01*
X126868524Y-132721466D01*
X126917141Y-132684317D01*
X126978308Y-132682839D01*
X127028663Y-132717595D01*
X127031467Y-132721454D01*
X127064194Y-132768868D01*
X127109515Y-132834528D01*
X127109516Y-132834529D01*
X127109517Y-132834530D01*
X127227760Y-132939283D01*
X127367635Y-133012696D01*
X127521015Y-133050500D01*
X127521018Y-133050500D01*
X127678982Y-133050500D01*
X127678985Y-133050500D01*
X127832365Y-133012696D01*
X127972240Y-132939283D01*
X128090483Y-132834530D01*
X128180220Y-132704523D01*
X128236237Y-132556818D01*
X128249207Y-132450001D01*
X138244722Y-132450001D01*
X138263762Y-132606816D01*
X138263763Y-132606818D01*
X138300818Y-132704523D01*
X138319780Y-132754523D01*
X138409515Y-132884528D01*
X138409516Y-132884529D01*
X138409517Y-132884530D01*
X138527760Y-132989283D01*
X138667635Y-133062696D01*
X138821015Y-133100500D01*
X138821018Y-133100500D01*
X138978982Y-133100500D01*
X138978985Y-133100500D01*
X139132365Y-133062696D01*
X139272240Y-132989283D01*
X139390483Y-132884530D01*
X139480220Y-132754523D01*
X139536237Y-132606818D01*
X139555278Y-132450000D01*
X139536237Y-132293182D01*
X139480220Y-132145477D01*
X139390483Y-132015470D01*
X139272240Y-131910717D01*
X139176976Y-131860718D01*
X139132364Y-131837303D01*
X138978987Y-131799500D01*
X138978985Y-131799500D01*
X138821015Y-131799500D01*
X138821012Y-131799500D01*
X138667635Y-131837303D01*
X138527758Y-131910718D01*
X138409515Y-132015471D01*
X138319780Y-132145476D01*
X138263763Y-132293182D01*
X138263762Y-132293183D01*
X138244722Y-132449998D01*
X138244722Y-132450001D01*
X128249207Y-132450001D01*
X128255278Y-132400000D01*
X128236237Y-132243182D01*
X128180220Y-132095477D01*
X128090483Y-131965470D01*
X127972240Y-131860717D01*
X127902302Y-131824010D01*
X127832364Y-131787303D01*
X127678987Y-131749500D01*
X127678985Y-131749500D01*
X127521015Y-131749500D01*
X127521012Y-131749500D01*
X127367635Y-131787303D01*
X127227758Y-131860718D01*
X127109515Y-131965471D01*
X127031476Y-132078532D01*
X126982859Y-132115682D01*
X126921692Y-132117160D01*
X126871337Y-132082403D01*
X126868524Y-132078532D01*
X126790484Y-131965471D01*
X126672241Y-131860718D01*
X126672240Y-131860717D01*
X126602302Y-131824010D01*
X126532364Y-131787303D01*
X126378987Y-131749500D01*
X126378985Y-131749500D01*
X126221015Y-131749500D01*
X126221012Y-131749500D01*
X126067635Y-131787303D01*
X125927758Y-131860718D01*
X125809515Y-131965471D01*
X125731476Y-132078532D01*
X125682859Y-132115682D01*
X125621692Y-132117160D01*
X125571337Y-132082403D01*
X125568524Y-132078532D01*
X125490484Y-131965471D01*
X125372241Y-131860718D01*
X125372240Y-131860717D01*
X125302302Y-131824010D01*
X125232364Y-131787303D01*
X125078987Y-131749500D01*
X125078985Y-131749500D01*
X124921015Y-131749500D01*
X124921012Y-131749500D01*
X124767635Y-131787303D01*
X124627758Y-131860718D01*
X124509515Y-131965471D01*
X124431476Y-132078532D01*
X124382859Y-132115682D01*
X124321692Y-132117160D01*
X124271337Y-132082403D01*
X124268524Y-132078532D01*
X124190484Y-131965471D01*
X124072241Y-131860718D01*
X124072240Y-131860717D01*
X124002302Y-131824010D01*
X123932364Y-131787303D01*
X123778987Y-131749500D01*
X123778985Y-131749500D01*
X123621015Y-131749500D01*
X123621012Y-131749500D01*
X123467635Y-131787303D01*
X123327758Y-131860718D01*
X123209515Y-131965471D01*
X123119780Y-132095476D01*
X123063763Y-132243182D01*
X123063762Y-132243183D01*
X123044722Y-132399998D01*
X123044722Y-132400001D01*
X113300500Y-132400001D01*
X113300500Y-128842499D01*
X117045052Y-128842499D01*
X117064811Y-129093567D01*
X117123604Y-129338457D01*
X117219979Y-129571128D01*
X117219985Y-129571140D01*
X117351561Y-129785853D01*
X117351572Y-129785867D01*
X117352265Y-129786678D01*
X117914721Y-129224223D01*
X117969238Y-129196446D01*
X118029670Y-129206017D01*
X118063848Y-129239820D01*
X118066281Y-129238142D01*
X118069681Y-129243069D01*
X118182399Y-129370300D01*
X118182401Y-129370302D01*
X118182405Y-129370306D01*
X118258191Y-129422617D01*
X118295340Y-129471231D01*
X118296819Y-129532399D01*
X118271956Y-129574094D01*
X117705819Y-130140232D01*
X117705820Y-130140233D01*
X117706636Y-130140932D01*
X117921359Y-130272514D01*
X117921371Y-130272520D01*
X118154042Y-130368895D01*
X118154041Y-130368895D01*
X118398932Y-130427688D01*
X118650000Y-130447447D01*
X118901067Y-130427688D01*
X119145957Y-130368895D01*
X119378628Y-130272520D01*
X119378640Y-130272514D01*
X119496971Y-130200001D01*
X123044722Y-130200001D01*
X123063762Y-130356816D01*
X123063763Y-130356818D01*
X123098134Y-130447447D01*
X123119780Y-130504523D01*
X123209515Y-130634528D01*
X123209516Y-130634529D01*
X123209517Y-130634530D01*
X123327760Y-130739283D01*
X123467635Y-130812696D01*
X123621015Y-130850500D01*
X123621018Y-130850500D01*
X123778982Y-130850500D01*
X123778985Y-130850500D01*
X123932365Y-130812696D01*
X124072240Y-130739283D01*
X124190483Y-130634530D01*
X124268524Y-130521466D01*
X124317141Y-130484317D01*
X124378308Y-130482839D01*
X124428663Y-130517595D01*
X124431476Y-130521467D01*
X124509515Y-130634528D01*
X124509516Y-130634529D01*
X124509517Y-130634530D01*
X124627760Y-130739283D01*
X124767635Y-130812696D01*
X124921015Y-130850500D01*
X124921018Y-130850500D01*
X125078982Y-130850500D01*
X125078985Y-130850500D01*
X125232365Y-130812696D01*
X125372240Y-130739283D01*
X125490483Y-130634530D01*
X125568524Y-130521466D01*
X125617141Y-130484317D01*
X125678308Y-130482839D01*
X125728663Y-130517595D01*
X125731476Y-130521467D01*
X125809515Y-130634528D01*
X125809516Y-130634529D01*
X125809517Y-130634530D01*
X125927760Y-130739283D01*
X126067635Y-130812696D01*
X126221015Y-130850500D01*
X126221018Y-130850500D01*
X126378982Y-130850500D01*
X126378985Y-130850500D01*
X126532365Y-130812696D01*
X126672240Y-130739283D01*
X126790483Y-130634530D01*
X126868524Y-130521466D01*
X126917141Y-130484317D01*
X126978308Y-130482839D01*
X127028663Y-130517595D01*
X127031476Y-130521467D01*
X127109515Y-130634528D01*
X127109516Y-130634529D01*
X127109517Y-130634530D01*
X127227760Y-130739283D01*
X127367635Y-130812696D01*
X127521015Y-130850500D01*
X127521018Y-130850500D01*
X127678982Y-130850500D01*
X127678985Y-130850500D01*
X127832365Y-130812696D01*
X127972240Y-130739283D01*
X128090483Y-130634530D01*
X128180220Y-130504523D01*
X128236237Y-130356818D01*
X128255278Y-130200000D01*
X128236237Y-130043182D01*
X128180220Y-129895477D01*
X128104562Y-129785867D01*
X128090484Y-129765471D01*
X127972241Y-129660718D01*
X127972240Y-129660717D01*
X127902302Y-129624010D01*
X127832364Y-129587303D01*
X127678987Y-129549500D01*
X127678985Y-129549500D01*
X127521015Y-129549500D01*
X127521012Y-129549500D01*
X127367635Y-129587303D01*
X127227758Y-129660718D01*
X127109515Y-129765471D01*
X127031476Y-129878532D01*
X126982859Y-129915682D01*
X126921692Y-129917160D01*
X126871337Y-129882403D01*
X126868524Y-129878532D01*
X126790484Y-129765471D01*
X126672241Y-129660718D01*
X126672240Y-129660717D01*
X126602302Y-129624010D01*
X126532364Y-129587303D01*
X126378987Y-129549500D01*
X126378985Y-129549500D01*
X126221015Y-129549500D01*
X126221012Y-129549500D01*
X126067635Y-129587303D01*
X125927758Y-129660718D01*
X125809515Y-129765471D01*
X125731476Y-129878532D01*
X125682859Y-129915682D01*
X125621692Y-129917160D01*
X125571337Y-129882403D01*
X125568524Y-129878532D01*
X125490484Y-129765471D01*
X125372241Y-129660718D01*
X125372240Y-129660717D01*
X125302302Y-129624010D01*
X125232364Y-129587303D01*
X125078987Y-129549500D01*
X125078985Y-129549500D01*
X124921015Y-129549500D01*
X124921012Y-129549500D01*
X124767635Y-129587303D01*
X124627758Y-129660718D01*
X124509515Y-129765471D01*
X124431476Y-129878532D01*
X124382859Y-129915682D01*
X124321692Y-129917160D01*
X124271337Y-129882403D01*
X124268524Y-129878532D01*
X124190484Y-129765471D01*
X124072241Y-129660718D01*
X124072240Y-129660717D01*
X124002302Y-129624010D01*
X123932364Y-129587303D01*
X123778987Y-129549500D01*
X123778985Y-129549500D01*
X123621015Y-129549500D01*
X123621012Y-129549500D01*
X123467635Y-129587303D01*
X123327758Y-129660718D01*
X123209515Y-129765471D01*
X123119780Y-129895476D01*
X123063763Y-130043182D01*
X123063762Y-130043183D01*
X123044722Y-130199998D01*
X123044722Y-130200001D01*
X119496971Y-130200001D01*
X119593350Y-130140940D01*
X119593368Y-130140926D01*
X119594178Y-130140233D01*
X119594179Y-130140232D01*
X119028043Y-129574095D01*
X119000266Y-129519579D01*
X119009837Y-129459147D01*
X119041807Y-129422617D01*
X119117595Y-129370306D01*
X119230320Y-129243066D01*
X119230322Y-129243060D01*
X119233723Y-129238136D01*
X119236209Y-129239852D01*
X119271327Y-129205518D01*
X119331863Y-129196629D01*
X119385279Y-129224225D01*
X119947733Y-129786678D01*
X119948426Y-129785868D01*
X119948440Y-129785850D01*
X120080014Y-129571140D01*
X120080020Y-129571128D01*
X120176395Y-129338457D01*
X120235188Y-129093567D01*
X120254947Y-128842499D01*
X120235188Y-128591432D01*
X120176395Y-128346542D01*
X120080020Y-128113871D01*
X120080014Y-128113859D01*
X119948432Y-127899136D01*
X119947733Y-127898320D01*
X119947732Y-127898319D01*
X119385277Y-128460774D01*
X119330761Y-128488551D01*
X119270329Y-128478980D01*
X119236091Y-128445220D01*
X119233719Y-128446858D01*
X119230318Y-128441930D01*
X119117600Y-128314699D01*
X119117597Y-128314697D01*
X119117595Y-128314694D01*
X119041807Y-128262382D01*
X119004658Y-128213766D01*
X119003180Y-128152599D01*
X119028042Y-128110903D01*
X119313943Y-127825001D01*
X123044722Y-127825001D01*
X123063762Y-127981816D01*
X123063763Y-127981817D01*
X123119780Y-128129523D01*
X123209515Y-128259528D01*
X123209516Y-128259529D01*
X123209517Y-128259530D01*
X123327760Y-128364283D01*
X123467635Y-128437696D01*
X123621015Y-128475500D01*
X123621018Y-128475500D01*
X123778982Y-128475500D01*
X123778985Y-128475500D01*
X123932365Y-128437696D01*
X124072240Y-128364283D01*
X124190483Y-128259530D01*
X124268524Y-128146466D01*
X124317141Y-128109317D01*
X124378308Y-128107839D01*
X124428663Y-128142595D01*
X124431467Y-128146454D01*
X124439332Y-128157849D01*
X124509515Y-128259528D01*
X124509516Y-128259529D01*
X124509517Y-128259530D01*
X124627760Y-128364283D01*
X124767635Y-128437696D01*
X124921015Y-128475500D01*
X124921018Y-128475500D01*
X125078982Y-128475500D01*
X125078985Y-128475500D01*
X125232365Y-128437696D01*
X125372240Y-128364283D01*
X125490483Y-128259530D01*
X125568524Y-128146466D01*
X125617141Y-128109317D01*
X125678308Y-128107839D01*
X125728663Y-128142595D01*
X125731467Y-128146454D01*
X125739332Y-128157849D01*
X125809515Y-128259528D01*
X125809516Y-128259529D01*
X125809517Y-128259530D01*
X125927760Y-128364283D01*
X126067635Y-128437696D01*
X126221015Y-128475500D01*
X126221018Y-128475500D01*
X126378982Y-128475500D01*
X126378985Y-128475500D01*
X126532365Y-128437696D01*
X126672240Y-128364283D01*
X126790483Y-128259530D01*
X126868524Y-128146466D01*
X126917141Y-128109317D01*
X126978308Y-128107839D01*
X127028663Y-128142595D01*
X127031467Y-128146454D01*
X127039332Y-128157849D01*
X127109515Y-128259528D01*
X127109516Y-128259529D01*
X127109517Y-128259530D01*
X127227760Y-128364283D01*
X127367635Y-128437696D01*
X127521015Y-128475500D01*
X127521018Y-128475500D01*
X127678982Y-128475500D01*
X127678985Y-128475500D01*
X127832365Y-128437696D01*
X127972240Y-128364283D01*
X128090483Y-128259530D01*
X128180220Y-128129523D01*
X128236237Y-127981818D01*
X128255278Y-127825000D01*
X128236237Y-127668182D01*
X128180220Y-127520477D01*
X128090483Y-127390470D01*
X128044802Y-127350001D01*
X151594722Y-127350001D01*
X151613762Y-127506816D01*
X151613763Y-127506818D01*
X151669779Y-127654522D01*
X151669780Y-127654523D01*
X151759515Y-127784528D01*
X151759516Y-127784529D01*
X151759517Y-127784530D01*
X151877760Y-127889283D01*
X152017635Y-127962696D01*
X152171015Y-128000500D01*
X152171018Y-128000500D01*
X152328982Y-128000500D01*
X152328985Y-128000500D01*
X152482365Y-127962696D01*
X152622240Y-127889283D01*
X152740483Y-127784530D01*
X152830220Y-127654523D01*
X152886237Y-127506818D01*
X152905278Y-127350000D01*
X152886237Y-127193182D01*
X152830220Y-127045477D01*
X152740483Y-126915470D01*
X152622240Y-126810717D01*
X152552302Y-126774010D01*
X152482364Y-126737303D01*
X152328987Y-126699500D01*
X152328985Y-126699500D01*
X152171015Y-126699500D01*
X152171012Y-126699500D01*
X152017635Y-126737303D01*
X151877758Y-126810718D01*
X151759515Y-126915471D01*
X151669780Y-127045476D01*
X151613763Y-127193182D01*
X151613762Y-127193183D01*
X151594722Y-127349998D01*
X151594722Y-127350001D01*
X128044802Y-127350001D01*
X127972240Y-127285717D01*
X127902302Y-127249010D01*
X127832364Y-127212303D01*
X127678987Y-127174500D01*
X127678985Y-127174500D01*
X127521015Y-127174500D01*
X127521012Y-127174500D01*
X127367635Y-127212303D01*
X127227758Y-127285718D01*
X127109515Y-127390471D01*
X127031476Y-127503532D01*
X126982859Y-127540682D01*
X126921692Y-127542160D01*
X126871337Y-127507403D01*
X126868524Y-127503532D01*
X126790484Y-127390471D01*
X126672241Y-127285718D01*
X126672240Y-127285717D01*
X126602302Y-127249010D01*
X126532364Y-127212303D01*
X126378987Y-127174500D01*
X126378985Y-127174500D01*
X126221015Y-127174500D01*
X126221012Y-127174500D01*
X126067635Y-127212303D01*
X125927758Y-127285718D01*
X125809515Y-127390471D01*
X125731476Y-127503532D01*
X125682859Y-127540682D01*
X125621692Y-127542160D01*
X125571337Y-127507403D01*
X125568524Y-127503532D01*
X125490484Y-127390471D01*
X125372241Y-127285718D01*
X125372240Y-127285717D01*
X125302302Y-127249010D01*
X125232364Y-127212303D01*
X125078987Y-127174500D01*
X125078985Y-127174500D01*
X124921015Y-127174500D01*
X124921012Y-127174500D01*
X124767635Y-127212303D01*
X124627758Y-127285718D01*
X124509515Y-127390471D01*
X124431476Y-127503532D01*
X124382859Y-127540682D01*
X124321692Y-127542160D01*
X124271337Y-127507403D01*
X124268524Y-127503532D01*
X124190484Y-127390471D01*
X124072241Y-127285718D01*
X124072240Y-127285717D01*
X124002302Y-127249010D01*
X123932364Y-127212303D01*
X123778987Y-127174500D01*
X123778985Y-127174500D01*
X123621015Y-127174500D01*
X123621012Y-127174500D01*
X123467635Y-127212303D01*
X123327758Y-127285718D01*
X123209515Y-127390471D01*
X123119780Y-127520476D01*
X123063763Y-127668182D01*
X123063762Y-127668183D01*
X123044722Y-127824998D01*
X123044722Y-127825001D01*
X119313943Y-127825001D01*
X119594178Y-127544765D01*
X119593367Y-127544072D01*
X119593353Y-127544061D01*
X119378640Y-127412485D01*
X119378628Y-127412479D01*
X119145957Y-127316104D01*
X119145958Y-127316104D01*
X118901067Y-127257311D01*
X118650000Y-127237552D01*
X118398932Y-127257311D01*
X118154042Y-127316104D01*
X117921371Y-127412479D01*
X117921359Y-127412485D01*
X117706642Y-127544064D01*
X117706638Y-127544067D01*
X117705820Y-127544765D01*
X118271957Y-128110903D01*
X118299734Y-128165420D01*
X118290163Y-128225852D01*
X118258192Y-128262382D01*
X118182407Y-128314692D01*
X118182399Y-128314699D01*
X118069681Y-128441930D01*
X118066281Y-128446858D01*
X118063879Y-128445200D01*
X118028200Y-128479714D01*
X117967617Y-128488282D01*
X117914721Y-128460775D01*
X117352265Y-127898320D01*
X117351567Y-127899138D01*
X117351564Y-127899142D01*
X117219985Y-128113859D01*
X117219979Y-128113871D01*
X117123604Y-128346542D01*
X117064811Y-128591432D01*
X117045052Y-128842499D01*
X113300500Y-128842499D01*
X113300500Y-123842503D01*
X117344532Y-123842503D01*
X117364363Y-124069184D01*
X117423262Y-124289000D01*
X117519426Y-124495223D01*
X117519434Y-124495237D01*
X117649946Y-124681630D01*
X117649947Y-124681632D01*
X117649950Y-124681635D01*
X117649953Y-124681639D01*
X117810861Y-124842547D01*
X117810864Y-124842549D01*
X117810867Y-124842552D01*
X117810869Y-124842553D01*
X117935131Y-124929561D01*
X117997266Y-124973068D01*
X117997272Y-124973071D01*
X117997276Y-124973073D01*
X118203500Y-125069237D01*
X118203504Y-125069239D01*
X118423308Y-125128135D01*
X118423312Y-125128135D01*
X118423315Y-125128136D01*
X118649997Y-125147968D01*
X118650000Y-125147968D01*
X118650003Y-125147968D01*
X118876684Y-125128136D01*
X118876685Y-125128135D01*
X118876692Y-125128135D01*
X119096496Y-125069239D01*
X119302734Y-124973068D01*
X119489139Y-124842547D01*
X119650047Y-124681639D01*
X119780568Y-124495234D01*
X119876739Y-124288996D01*
X119935635Y-124069192D01*
X119955468Y-123842500D01*
X119935635Y-123615808D01*
X119876739Y-123396004D01*
X119861947Y-123364283D01*
X119780573Y-123189776D01*
X119780571Y-123189772D01*
X119780568Y-123189766D01*
X119650053Y-123003369D01*
X119650052Y-123003367D01*
X119650049Y-123003364D01*
X119650047Y-123003361D01*
X119489139Y-122842453D01*
X119489135Y-122842450D01*
X119489132Y-122842447D01*
X119489130Y-122842446D01*
X119302737Y-122711934D01*
X119302736Y-122711933D01*
X119302734Y-122711932D01*
X119302731Y-122711930D01*
X119302723Y-122711926D01*
X119096499Y-122615762D01*
X119096500Y-122615762D01*
X119023227Y-122596128D01*
X118876692Y-122556865D01*
X118876691Y-122556864D01*
X118876684Y-122556863D01*
X118650003Y-122537032D01*
X118649997Y-122537032D01*
X118423315Y-122556863D01*
X118203499Y-122615762D01*
X117997276Y-122711926D01*
X117997262Y-122711934D01*
X117810869Y-122842446D01*
X117810867Y-122842447D01*
X117649947Y-123003367D01*
X117649946Y-123003369D01*
X117519434Y-123189762D01*
X117519426Y-123189776D01*
X117423262Y-123395999D01*
X117364363Y-123615815D01*
X117344532Y-123842496D01*
X117344532Y-123842503D01*
X113300500Y-123842503D01*
X113300500Y-122400002D01*
X134719610Y-122400002D01*
X134739067Y-122535337D01*
X134739069Y-122535345D01*
X134795868Y-122659715D01*
X134795869Y-122659716D01*
X134795870Y-122659718D01*
X134885411Y-122763055D01*
X135000439Y-122836978D01*
X135131633Y-122875500D01*
X135131634Y-122875500D01*
X135268366Y-122875500D01*
X135268367Y-122875500D01*
X135399561Y-122836978D01*
X135418198Y-122825001D01*
X151644722Y-122825001D01*
X151663762Y-122981816D01*
X151663763Y-122981818D01*
X151719779Y-123129522D01*
X151719780Y-123129523D01*
X151809515Y-123259528D01*
X151809516Y-123259529D01*
X151809517Y-123259530D01*
X151927760Y-123364283D01*
X152067635Y-123437696D01*
X152221015Y-123475500D01*
X152221018Y-123475500D01*
X152378982Y-123475500D01*
X152378985Y-123475500D01*
X152532365Y-123437696D01*
X152672240Y-123364283D01*
X152790483Y-123259530D01*
X152880220Y-123129523D01*
X152936237Y-122981818D01*
X152955278Y-122825000D01*
X152936237Y-122668182D01*
X152880220Y-122520477D01*
X152835351Y-122455473D01*
X152790484Y-122390471D01*
X152672241Y-122285718D01*
X152672240Y-122285717D01*
X152602302Y-122249010D01*
X152532364Y-122212303D01*
X152378987Y-122174500D01*
X152378985Y-122174500D01*
X152221015Y-122174500D01*
X152221012Y-122174500D01*
X152067635Y-122212303D01*
X151927758Y-122285718D01*
X151809515Y-122390471D01*
X151719780Y-122520476D01*
X151663763Y-122668182D01*
X151663762Y-122668183D01*
X151644722Y-122824998D01*
X151644722Y-122825001D01*
X135418198Y-122825001D01*
X135514589Y-122763055D01*
X135604130Y-122659718D01*
X135651103Y-122556863D01*
X135660930Y-122535345D01*
X135660932Y-122535337D01*
X135680390Y-122400002D01*
X135680390Y-122399997D01*
X135660932Y-122264662D01*
X135660930Y-122264654D01*
X135631404Y-122200002D01*
X137069610Y-122200002D01*
X137089067Y-122335337D01*
X137089069Y-122335345D01*
X137145868Y-122459715D01*
X137145869Y-122459716D01*
X137145870Y-122459718D01*
X137235411Y-122563055D01*
X137350439Y-122636978D01*
X137481633Y-122675500D01*
X137481634Y-122675500D01*
X137618366Y-122675500D01*
X137618367Y-122675500D01*
X137749561Y-122636978D01*
X137864589Y-122563055D01*
X137954130Y-122459718D01*
X138010931Y-122335342D01*
X138021094Y-122264658D01*
X138030390Y-122200002D01*
X138030390Y-122199997D01*
X138014115Y-122086800D01*
X138024548Y-122026511D01*
X138068426Y-121983868D01*
X138126194Y-121974718D01*
X138131632Y-121975499D01*
X138131633Y-121975500D01*
X138131634Y-121975500D01*
X138268366Y-121975500D01*
X138268367Y-121975500D01*
X138399561Y-121936978D01*
X138514589Y-121863055D01*
X138604130Y-121759718D01*
X138660931Y-121635342D01*
X138660932Y-121635337D01*
X138680390Y-121500002D01*
X138680390Y-121499997D01*
X138660932Y-121364662D01*
X138660930Y-121364654D01*
X138604131Y-121240284D01*
X138604130Y-121240283D01*
X138604130Y-121240282D01*
X138514589Y-121136945D01*
X138399561Y-121063022D01*
X138399558Y-121063021D01*
X138268368Y-121024500D01*
X138268367Y-121024500D01*
X138131633Y-121024500D01*
X138131631Y-121024500D01*
X138000441Y-121063021D01*
X138000439Y-121063021D01*
X138000439Y-121063022D01*
X137885411Y-121136945D01*
X137885410Y-121136945D01*
X137885410Y-121136946D01*
X137795868Y-121240284D01*
X137739069Y-121364654D01*
X137739067Y-121364662D01*
X137719610Y-121499997D01*
X137719610Y-121500004D01*
X137735884Y-121613200D01*
X137725450Y-121673489D01*
X137681572Y-121716131D01*
X137623812Y-121725282D01*
X137618369Y-121724500D01*
X137618367Y-121724500D01*
X137481633Y-121724500D01*
X137481631Y-121724500D01*
X137350441Y-121763021D01*
X137350439Y-121763021D01*
X137350439Y-121763022D01*
X137235411Y-121836945D01*
X137235410Y-121836945D01*
X137235410Y-121836946D01*
X137145868Y-121940284D01*
X137089069Y-122064654D01*
X137089067Y-122064662D01*
X137069610Y-122199997D01*
X137069610Y-122200002D01*
X135631404Y-122200002D01*
X135604131Y-122140284D01*
X135604130Y-122140283D01*
X135604130Y-122140282D01*
X135514589Y-122036945D01*
X135399561Y-121963022D01*
X135399558Y-121963021D01*
X135268368Y-121924500D01*
X135268367Y-121924500D01*
X135131633Y-121924500D01*
X135131631Y-121924500D01*
X135000441Y-121963021D01*
X135000439Y-121963021D01*
X135000439Y-121963022D01*
X134885411Y-122036945D01*
X134885410Y-122036945D01*
X134885410Y-122036946D01*
X134795868Y-122140284D01*
X134739069Y-122264654D01*
X134739067Y-122264662D01*
X134719610Y-122399997D01*
X134719610Y-122400002D01*
X113300500Y-122400002D01*
X113300500Y-120950002D01*
X131869610Y-120950002D01*
X131889067Y-121085337D01*
X131889069Y-121085345D01*
X131945868Y-121209715D01*
X131945869Y-121209716D01*
X131945870Y-121209718D01*
X132035411Y-121313055D01*
X132150439Y-121386978D01*
X132281633Y-121425500D01*
X132281634Y-121425500D01*
X132418366Y-121425500D01*
X132418367Y-121425500D01*
X132549561Y-121386978D01*
X132664589Y-121313055D01*
X132754130Y-121209718D01*
X132810931Y-121085342D01*
X132814140Y-121063022D01*
X132830390Y-120950002D01*
X133819610Y-120950002D01*
X133839067Y-121085337D01*
X133839069Y-121085345D01*
X133895868Y-121209715D01*
X133895869Y-121209716D01*
X133895870Y-121209718D01*
X133985411Y-121313055D01*
X134100439Y-121386978D01*
X134231633Y-121425500D01*
X134231634Y-121425500D01*
X134368366Y-121425500D01*
X134368367Y-121425500D01*
X134499561Y-121386978D01*
X134614589Y-121313055D01*
X134704130Y-121209718D01*
X134760931Y-121085342D01*
X134764140Y-121063022D01*
X134780390Y-120950002D01*
X134780390Y-120949997D01*
X134760932Y-120814662D01*
X134760930Y-120814654D01*
X134704131Y-120690284D01*
X134704130Y-120690283D01*
X134704130Y-120690282D01*
X134614589Y-120586945D01*
X134499561Y-120513022D01*
X134499558Y-120513021D01*
X134368368Y-120474500D01*
X134368367Y-120474500D01*
X134231633Y-120474500D01*
X134231631Y-120474500D01*
X134100441Y-120513021D01*
X134100439Y-120513021D01*
X134100439Y-120513022D01*
X133985411Y-120586945D01*
X133985410Y-120586945D01*
X133985410Y-120586946D01*
X133895868Y-120690284D01*
X133839069Y-120814654D01*
X133839067Y-120814662D01*
X133819610Y-120949997D01*
X133819610Y-120950002D01*
X132830390Y-120950002D01*
X132830390Y-120949997D01*
X132810932Y-120814662D01*
X132810930Y-120814654D01*
X132754131Y-120690284D01*
X132754130Y-120690283D01*
X132754130Y-120690282D01*
X132664589Y-120586945D01*
X132549561Y-120513022D01*
X132549558Y-120513021D01*
X132418368Y-120474500D01*
X132418367Y-120474500D01*
X132281633Y-120474500D01*
X132281631Y-120474500D01*
X132150441Y-120513021D01*
X132150439Y-120513021D01*
X132150439Y-120513022D01*
X132035411Y-120586945D01*
X132035410Y-120586945D01*
X132035410Y-120586946D01*
X131945868Y-120690284D01*
X131889069Y-120814654D01*
X131889067Y-120814662D01*
X131869610Y-120949997D01*
X131869610Y-120950002D01*
X113300500Y-120950002D01*
X113300500Y-120300002D01*
X130869610Y-120300002D01*
X130889067Y-120435337D01*
X130889069Y-120435345D01*
X130945868Y-120559715D01*
X130945869Y-120559716D01*
X130945870Y-120559718D01*
X131035411Y-120663055D01*
X131150439Y-120736978D01*
X131281633Y-120775500D01*
X131281634Y-120775500D01*
X131418366Y-120775500D01*
X131418367Y-120775500D01*
X131549561Y-120736978D01*
X131664589Y-120663055D01*
X131754130Y-120559718D01*
X131810931Y-120435342D01*
X131830390Y-120300000D01*
X131810931Y-120164658D01*
X131810930Y-120164654D01*
X131754131Y-120040284D01*
X131754130Y-120040283D01*
X131754130Y-120040282D01*
X131664589Y-119936945D01*
X131549561Y-119863022D01*
X131549558Y-119863021D01*
X131418368Y-119824500D01*
X131418367Y-119824500D01*
X131281633Y-119824500D01*
X131281631Y-119824500D01*
X131150441Y-119863021D01*
X131150439Y-119863021D01*
X131150439Y-119863022D01*
X131035411Y-119936945D01*
X131035410Y-119936945D01*
X131035410Y-119936946D01*
X130945868Y-120040284D01*
X130889069Y-120164654D01*
X130889067Y-120164662D01*
X130869610Y-120299997D01*
X130869610Y-120300002D01*
X113300500Y-120300002D01*
X113300500Y-114800000D01*
X144169965Y-114800000D01*
X144188026Y-114937183D01*
X144240976Y-115065018D01*
X144325209Y-115174791D01*
X144434982Y-115259024D01*
X144562817Y-115311974D01*
X144700000Y-115330035D01*
X144837183Y-115311974D01*
X144965018Y-115259024D01*
X145074791Y-115174791D01*
X145159024Y-115065018D01*
X145211974Y-114937183D01*
X145230035Y-114800000D01*
X145769965Y-114800000D01*
X145788026Y-114937183D01*
X145840976Y-115065018D01*
X145925209Y-115174791D01*
X146034982Y-115259024D01*
X146162817Y-115311974D01*
X146300000Y-115330035D01*
X146437183Y-115311974D01*
X146565018Y-115259024D01*
X146674791Y-115174791D01*
X146759024Y-115065018D01*
X146811974Y-114937183D01*
X146830035Y-114800000D01*
X147819965Y-114800000D01*
X147838026Y-114937183D01*
X147890976Y-115065018D01*
X147975209Y-115174791D01*
X148084982Y-115259024D01*
X148212817Y-115311974D01*
X148350000Y-115330035D01*
X148487183Y-115311974D01*
X148615018Y-115259024D01*
X148724791Y-115174791D01*
X148809024Y-115065018D01*
X148861974Y-114937183D01*
X148880035Y-114800000D01*
X148861974Y-114662817D01*
X148809024Y-114534983D01*
X148724791Y-114425209D01*
X148724789Y-114425208D01*
X148724789Y-114425207D01*
X148615018Y-114340976D01*
X148615014Y-114340974D01*
X148487183Y-114288026D01*
X148487175Y-114288025D01*
X148350000Y-114269965D01*
X148349999Y-114269965D01*
X148212816Y-114288025D01*
X148212816Y-114288026D01*
X148084986Y-114340974D01*
X148084982Y-114340976D01*
X147975211Y-114425207D01*
X147975207Y-114425211D01*
X147890976Y-114534982D01*
X147890974Y-114534986D01*
X147838026Y-114662816D01*
X147838025Y-114662816D01*
X147819965Y-114799999D01*
X147819965Y-114800000D01*
X146830035Y-114800000D01*
X146811974Y-114662817D01*
X146759024Y-114534983D01*
X146674791Y-114425209D01*
X146674789Y-114425208D01*
X146674789Y-114425207D01*
X146565018Y-114340976D01*
X146565014Y-114340974D01*
X146437183Y-114288026D01*
X146437182Y-114288025D01*
X146300000Y-114269965D01*
X146299999Y-114269965D01*
X146162816Y-114288025D01*
X146162816Y-114288026D01*
X146034986Y-114340974D01*
X146034982Y-114340976D01*
X145925211Y-114425207D01*
X145925207Y-114425211D01*
X145840976Y-114534982D01*
X145840974Y-114534986D01*
X145788026Y-114662816D01*
X145788025Y-114662816D01*
X145769965Y-114799999D01*
X145769965Y-114800000D01*
X145230035Y-114800000D01*
X145211974Y-114662817D01*
X145159024Y-114534983D01*
X145074791Y-114425209D01*
X145074789Y-114425208D01*
X145074789Y-114425207D01*
X144965018Y-114340976D01*
X144965014Y-114340974D01*
X144837183Y-114288026D01*
X144837182Y-114288025D01*
X144700000Y-114269965D01*
X144699999Y-114269965D01*
X144562816Y-114288025D01*
X144562816Y-114288026D01*
X144434986Y-114340974D01*
X144434982Y-114340976D01*
X144325211Y-114425207D01*
X144325207Y-114425211D01*
X144240976Y-114534982D01*
X144240974Y-114534986D01*
X144188026Y-114662816D01*
X144188025Y-114662816D01*
X144169965Y-114799999D01*
X144169965Y-114800000D01*
X113300500Y-114800000D01*
X113300500Y-112050002D01*
X131719610Y-112050002D01*
X131739067Y-112185337D01*
X131739069Y-112185345D01*
X131795868Y-112309715D01*
X131795869Y-112309716D01*
X131795870Y-112309718D01*
X131885411Y-112413055D01*
X132000439Y-112486978D01*
X132131633Y-112525500D01*
X132131634Y-112525500D01*
X132268366Y-112525500D01*
X132268367Y-112525500D01*
X132355205Y-112500002D01*
X137719610Y-112500002D01*
X137739067Y-112635337D01*
X137739069Y-112635345D01*
X137795868Y-112759715D01*
X137795869Y-112759716D01*
X137795870Y-112759718D01*
X137885411Y-112863055D01*
X138000439Y-112936978D01*
X138131633Y-112975500D01*
X138131634Y-112975500D01*
X138268366Y-112975500D01*
X138268367Y-112975500D01*
X138399561Y-112936978D01*
X138514589Y-112863055D01*
X138604130Y-112759718D01*
X138660931Y-112635342D01*
X138680390Y-112500000D01*
X138667889Y-112413055D01*
X138660932Y-112364662D01*
X138660930Y-112364654D01*
X138604131Y-112240284D01*
X138604130Y-112240283D01*
X138604130Y-112240282D01*
X138514589Y-112136945D01*
X138399561Y-112063022D01*
X138399558Y-112063021D01*
X138268368Y-112024500D01*
X138268367Y-112024500D01*
X138131633Y-112024500D01*
X138131631Y-112024500D01*
X138000441Y-112063021D01*
X138000439Y-112063021D01*
X138000439Y-112063022D01*
X137885411Y-112136945D01*
X137885410Y-112136945D01*
X137885410Y-112136946D01*
X137795868Y-112240284D01*
X137739069Y-112364654D01*
X137739067Y-112364662D01*
X137719610Y-112499997D01*
X137719610Y-112500002D01*
X132355205Y-112500002D01*
X132399561Y-112486978D01*
X132514589Y-112413055D01*
X132604130Y-112309718D01*
X132660931Y-112185342D01*
X132667889Y-112136946D01*
X132680390Y-112050002D01*
X132680390Y-112049997D01*
X132660932Y-111914662D01*
X132660930Y-111914654D01*
X132604131Y-111790284D01*
X132604130Y-111790283D01*
X132604130Y-111790282D01*
X132514589Y-111686945D01*
X132399561Y-111613022D01*
X132399558Y-111613021D01*
X132268368Y-111574500D01*
X132268367Y-111574500D01*
X132131633Y-111574500D01*
X132131631Y-111574500D01*
X132000441Y-111613021D01*
X132000439Y-111613021D01*
X132000439Y-111613022D01*
X131885411Y-111686945D01*
X131885410Y-111686945D01*
X131885410Y-111686946D01*
X131795868Y-111790284D01*
X131739069Y-111914654D01*
X131739067Y-111914662D01*
X131719610Y-112049997D01*
X131719610Y-112050002D01*
X113300500Y-112050002D01*
X113300500Y-111275002D01*
X135519610Y-111275002D01*
X135539067Y-111410337D01*
X135539069Y-111410345D01*
X135595868Y-111534715D01*
X135595869Y-111534716D01*
X135595870Y-111534718D01*
X135685411Y-111638055D01*
X135800439Y-111711978D01*
X135931633Y-111750500D01*
X135931634Y-111750500D01*
X136068366Y-111750500D01*
X136068367Y-111750500D01*
X136199561Y-111711978D01*
X136218196Y-111700002D01*
X165519610Y-111700002D01*
X165539067Y-111835337D01*
X165539069Y-111835345D01*
X165595868Y-111959715D01*
X165595869Y-111959716D01*
X165595870Y-111959718D01*
X165685411Y-112063055D01*
X165800439Y-112136978D01*
X165931633Y-112175500D01*
X165931634Y-112175500D01*
X166068366Y-112175500D01*
X166068367Y-112175500D01*
X166199561Y-112136978D01*
X166314589Y-112063055D01*
X166404130Y-111959718D01*
X166460931Y-111835342D01*
X166460932Y-111835337D01*
X166480390Y-111700002D01*
X166480390Y-111699997D01*
X166460932Y-111564662D01*
X166460930Y-111564654D01*
X166404131Y-111440284D01*
X166404130Y-111440283D01*
X166404130Y-111440282D01*
X166314589Y-111336945D01*
X166199561Y-111263022D01*
X166199558Y-111263021D01*
X166068368Y-111224500D01*
X166068367Y-111224500D01*
X165931633Y-111224500D01*
X165931631Y-111224500D01*
X165800441Y-111263021D01*
X165800439Y-111263021D01*
X165800439Y-111263022D01*
X165685411Y-111336945D01*
X165685410Y-111336945D01*
X165685410Y-111336946D01*
X165595868Y-111440284D01*
X165539069Y-111564654D01*
X165539067Y-111564662D01*
X165519610Y-111699997D01*
X165519610Y-111700002D01*
X136218196Y-111700002D01*
X136314589Y-111638055D01*
X136404130Y-111534718D01*
X136460931Y-111410342D01*
X136480390Y-111275000D01*
X136473129Y-111224500D01*
X136460932Y-111139662D01*
X136460930Y-111139654D01*
X136404131Y-111015284D01*
X136404130Y-111015283D01*
X136404130Y-111015282D01*
X136314589Y-110911945D01*
X136199561Y-110838022D01*
X136199558Y-110838021D01*
X136068368Y-110799500D01*
X136068367Y-110799500D01*
X135931633Y-110799500D01*
X135931631Y-110799500D01*
X135800441Y-110838021D01*
X135800439Y-110838021D01*
X135800439Y-110838022D01*
X135685411Y-110911945D01*
X135685410Y-110911945D01*
X135685410Y-110911946D01*
X135595868Y-111015284D01*
X135539069Y-111139654D01*
X135539067Y-111139662D01*
X135519610Y-111274997D01*
X135519610Y-111275002D01*
X113300500Y-111275002D01*
X113300500Y-110650002D01*
X151919610Y-110650002D01*
X151939067Y-110785337D01*
X151939069Y-110785345D01*
X151995868Y-110909715D01*
X151995869Y-110909716D01*
X151995870Y-110909718D01*
X152085411Y-111013055D01*
X152200439Y-111086978D01*
X152331633Y-111125500D01*
X152331634Y-111125500D01*
X152468366Y-111125500D01*
X152468367Y-111125500D01*
X152599561Y-111086978D01*
X152714589Y-111013055D01*
X152804130Y-110909718D01*
X152836873Y-110838021D01*
X152860930Y-110785345D01*
X152860932Y-110785337D01*
X152880390Y-110650002D01*
X152880390Y-110649997D01*
X152860932Y-110514662D01*
X152860930Y-110514654D01*
X152804131Y-110390284D01*
X152804130Y-110390283D01*
X152804130Y-110390282D01*
X152714589Y-110286945D01*
X152599561Y-110213022D01*
X152599558Y-110213021D01*
X152468368Y-110174500D01*
X152468367Y-110174500D01*
X152331633Y-110174500D01*
X152331631Y-110174500D01*
X152200441Y-110213021D01*
X152200439Y-110213021D01*
X152200439Y-110213022D01*
X152085411Y-110286945D01*
X152085410Y-110286945D01*
X152085410Y-110286946D01*
X151995868Y-110390284D01*
X151939069Y-110514654D01*
X151939067Y-110514662D01*
X151919610Y-110649997D01*
X151919610Y-110650002D01*
X113300500Y-110650002D01*
X113300500Y-110050002D01*
X139469610Y-110050002D01*
X139489067Y-110185337D01*
X139489069Y-110185345D01*
X139545868Y-110309715D01*
X139545869Y-110309716D01*
X139545870Y-110309718D01*
X139635411Y-110413055D01*
X139750439Y-110486978D01*
X139881633Y-110525500D01*
X139881634Y-110525500D01*
X140018366Y-110525500D01*
X140018367Y-110525500D01*
X140149561Y-110486978D01*
X140264589Y-110413055D01*
X140354130Y-110309718D01*
X140398290Y-110213022D01*
X140410930Y-110185345D01*
X140410932Y-110185337D01*
X140430390Y-110050002D01*
X140430390Y-110049997D01*
X140410932Y-109914662D01*
X140410930Y-109914654D01*
X140354131Y-109790284D01*
X140354130Y-109790283D01*
X140354130Y-109790282D01*
X140264589Y-109686945D01*
X140149561Y-109613022D01*
X140149558Y-109613021D01*
X140018368Y-109574500D01*
X140018367Y-109574500D01*
X139881633Y-109574500D01*
X139881631Y-109574500D01*
X139750441Y-109613021D01*
X139750439Y-109613021D01*
X139750439Y-109613022D01*
X139635411Y-109686945D01*
X139635410Y-109686945D01*
X139635410Y-109686946D01*
X139545868Y-109790284D01*
X139489069Y-109914654D01*
X139489067Y-109914662D01*
X139469610Y-110049997D01*
X139469610Y-110050002D01*
X113300500Y-110050002D01*
X113300500Y-109050002D01*
X133194610Y-109050002D01*
X133214067Y-109185337D01*
X133214069Y-109185345D01*
X133270868Y-109309715D01*
X133270869Y-109309716D01*
X133270870Y-109309718D01*
X133360411Y-109413055D01*
X133475439Y-109486978D01*
X133606633Y-109525500D01*
X133606634Y-109525500D01*
X133743366Y-109525500D01*
X133743367Y-109525500D01*
X133874561Y-109486978D01*
X133989589Y-109413055D01*
X134079130Y-109309718D01*
X134135931Y-109185342D01*
X134155390Y-109050000D01*
X134135931Y-108914658D01*
X134135930Y-108914654D01*
X134079131Y-108790284D01*
X134079130Y-108790283D01*
X134079130Y-108790282D01*
X133989589Y-108686945D01*
X133874561Y-108613022D01*
X133874558Y-108613021D01*
X133743368Y-108574500D01*
X133743367Y-108574500D01*
X133606633Y-108574500D01*
X133606631Y-108574500D01*
X133475441Y-108613021D01*
X133475439Y-108613021D01*
X133475439Y-108613022D01*
X133360411Y-108686945D01*
X133360410Y-108686945D01*
X133360410Y-108686946D01*
X133270868Y-108790284D01*
X133214069Y-108914654D01*
X133214067Y-108914662D01*
X133194610Y-109049997D01*
X133194610Y-109050002D01*
X113300500Y-109050002D01*
X113300500Y-104650001D01*
X118594722Y-104650001D01*
X118613762Y-104806816D01*
X118613763Y-104806818D01*
X118650000Y-104902367D01*
X118669780Y-104954523D01*
X118759515Y-105084528D01*
X118759516Y-105084529D01*
X118759517Y-105084530D01*
X118877760Y-105189283D01*
X119017635Y-105262696D01*
X119171015Y-105300500D01*
X119171018Y-105300500D01*
X119328982Y-105300500D01*
X119328985Y-105300500D01*
X119482365Y-105262696D01*
X119622240Y-105189283D01*
X119740483Y-105084530D01*
X119768524Y-105043904D01*
X119817140Y-105006755D01*
X119878308Y-105005276D01*
X119928663Y-105040033D01*
X119931476Y-105043905D01*
X119959515Y-105084528D01*
X119959516Y-105084529D01*
X119959517Y-105084530D01*
X120077760Y-105189283D01*
X120217635Y-105262696D01*
X120371015Y-105300500D01*
X120371018Y-105300500D01*
X120528982Y-105300500D01*
X120528985Y-105300500D01*
X120682365Y-105262696D01*
X120822240Y-105189283D01*
X120940483Y-105084530D01*
X120968524Y-105043904D01*
X121017140Y-105006755D01*
X121078308Y-105005276D01*
X121128663Y-105040033D01*
X121131476Y-105043905D01*
X121159515Y-105084528D01*
X121159516Y-105084529D01*
X121159517Y-105084530D01*
X121277760Y-105189283D01*
X121417635Y-105262696D01*
X121571015Y-105300500D01*
X121571018Y-105300500D01*
X121728982Y-105300500D01*
X121728985Y-105300500D01*
X121882365Y-105262696D01*
X122022240Y-105189283D01*
X122140483Y-105084530D01*
X122168524Y-105043904D01*
X122217140Y-105006755D01*
X122278308Y-105005276D01*
X122328663Y-105040033D01*
X122331476Y-105043905D01*
X122359515Y-105084528D01*
X122359516Y-105084529D01*
X122359517Y-105084530D01*
X122477760Y-105189283D01*
X122617635Y-105262696D01*
X122771015Y-105300500D01*
X122771018Y-105300500D01*
X122928982Y-105300500D01*
X122928985Y-105300500D01*
X123082365Y-105262696D01*
X123222240Y-105189283D01*
X123340483Y-105084530D01*
X123368524Y-105043904D01*
X123417140Y-105006755D01*
X123478308Y-105005276D01*
X123528663Y-105040033D01*
X123531476Y-105043905D01*
X123559515Y-105084528D01*
X123559516Y-105084529D01*
X123559517Y-105084530D01*
X123677760Y-105189283D01*
X123817635Y-105262696D01*
X123971015Y-105300500D01*
X123971018Y-105300500D01*
X124128982Y-105300500D01*
X124128985Y-105300500D01*
X124282365Y-105262696D01*
X124422240Y-105189283D01*
X124540483Y-105084530D01*
X124568524Y-105043904D01*
X124617140Y-105006755D01*
X124678308Y-105005276D01*
X124728663Y-105040033D01*
X124731476Y-105043905D01*
X124759515Y-105084528D01*
X124759516Y-105084529D01*
X124759517Y-105084530D01*
X124877760Y-105189283D01*
X125017635Y-105262696D01*
X125171015Y-105300500D01*
X125171018Y-105300500D01*
X125328982Y-105300500D01*
X125328985Y-105300500D01*
X125482365Y-105262696D01*
X125622240Y-105189283D01*
X125740483Y-105084530D01*
X125830220Y-104954523D01*
X125886237Y-104806818D01*
X125899207Y-104700001D01*
X137144722Y-104700001D01*
X137163762Y-104856816D01*
X137163763Y-104856818D01*
X137200000Y-104952367D01*
X137219780Y-105004523D01*
X137309515Y-105134528D01*
X137309516Y-105134529D01*
X137309517Y-105134530D01*
X137427760Y-105239283D01*
X137567635Y-105312696D01*
X137721015Y-105350500D01*
X137721018Y-105350500D01*
X137878982Y-105350500D01*
X137878985Y-105350500D01*
X138032365Y-105312696D01*
X138172240Y-105239283D01*
X138290483Y-105134530D01*
X138318524Y-105093904D01*
X138367140Y-105056755D01*
X138428308Y-105055276D01*
X138478663Y-105090033D01*
X138481476Y-105093905D01*
X138509515Y-105134528D01*
X138509516Y-105134529D01*
X138509517Y-105134530D01*
X138627760Y-105239283D01*
X138767635Y-105312696D01*
X138921015Y-105350500D01*
X138921018Y-105350500D01*
X139078982Y-105350500D01*
X139078985Y-105350500D01*
X139232365Y-105312696D01*
X139372240Y-105239283D01*
X139490483Y-105134530D01*
X139518524Y-105093904D01*
X139567140Y-105056755D01*
X139628308Y-105055276D01*
X139678663Y-105090033D01*
X139681476Y-105093905D01*
X139709515Y-105134528D01*
X139709516Y-105134529D01*
X139709517Y-105134530D01*
X139827760Y-105239283D01*
X139967635Y-105312696D01*
X140121015Y-105350500D01*
X140121018Y-105350500D01*
X140278982Y-105350500D01*
X140278985Y-105350500D01*
X140432365Y-105312696D01*
X140572240Y-105239283D01*
X140690483Y-105134530D01*
X140718524Y-105093904D01*
X140767140Y-105056755D01*
X140828308Y-105055276D01*
X140878663Y-105090033D01*
X140881476Y-105093905D01*
X140909515Y-105134528D01*
X140909516Y-105134529D01*
X140909517Y-105134530D01*
X141027760Y-105239283D01*
X141167635Y-105312696D01*
X141321015Y-105350500D01*
X141321018Y-105350500D01*
X141478982Y-105350500D01*
X141478985Y-105350500D01*
X141632365Y-105312696D01*
X141772240Y-105239283D01*
X141890483Y-105134530D01*
X141918524Y-105093904D01*
X141967140Y-105056755D01*
X142028308Y-105055276D01*
X142078663Y-105090033D01*
X142081476Y-105093905D01*
X142109515Y-105134528D01*
X142109516Y-105134529D01*
X142109517Y-105134530D01*
X142227760Y-105239283D01*
X142367635Y-105312696D01*
X142521015Y-105350500D01*
X142521018Y-105350500D01*
X142678982Y-105350500D01*
X142678985Y-105350500D01*
X142832365Y-105312696D01*
X142972240Y-105239283D01*
X143090483Y-105134530D01*
X143118524Y-105093904D01*
X143167140Y-105056755D01*
X143228308Y-105055276D01*
X143278663Y-105090033D01*
X143281476Y-105093905D01*
X143309515Y-105134528D01*
X143309516Y-105134529D01*
X143309517Y-105134530D01*
X143427760Y-105239283D01*
X143567635Y-105312696D01*
X143721015Y-105350500D01*
X143721018Y-105350500D01*
X143878982Y-105350500D01*
X143878985Y-105350500D01*
X144032365Y-105312696D01*
X144172240Y-105239283D01*
X144290483Y-105134530D01*
X144380220Y-105004523D01*
X144436237Y-104856818D01*
X144455278Y-104700001D01*
X155444722Y-104700001D01*
X155463762Y-104856816D01*
X155463763Y-104856818D01*
X155500000Y-104952367D01*
X155519780Y-105004523D01*
X155609515Y-105134528D01*
X155609516Y-105134529D01*
X155609517Y-105134530D01*
X155727760Y-105239283D01*
X155867635Y-105312696D01*
X156021015Y-105350500D01*
X156021018Y-105350500D01*
X156178982Y-105350500D01*
X156178985Y-105350500D01*
X156332365Y-105312696D01*
X156472240Y-105239283D01*
X156590483Y-105134530D01*
X156618524Y-105093904D01*
X156667140Y-105056755D01*
X156728308Y-105055276D01*
X156778663Y-105090033D01*
X156781476Y-105093905D01*
X156809515Y-105134528D01*
X156809516Y-105134529D01*
X156809517Y-105134530D01*
X156927760Y-105239283D01*
X157067635Y-105312696D01*
X157221015Y-105350500D01*
X157221018Y-105350500D01*
X157378982Y-105350500D01*
X157378985Y-105350500D01*
X157532365Y-105312696D01*
X157672240Y-105239283D01*
X157790483Y-105134530D01*
X157818524Y-105093904D01*
X157867140Y-105056755D01*
X157928308Y-105055276D01*
X157978663Y-105090033D01*
X157981476Y-105093905D01*
X158009515Y-105134528D01*
X158009516Y-105134529D01*
X158009517Y-105134530D01*
X158127760Y-105239283D01*
X158267635Y-105312696D01*
X158421015Y-105350500D01*
X158421018Y-105350500D01*
X158578982Y-105350500D01*
X158578985Y-105350500D01*
X158732365Y-105312696D01*
X158872240Y-105239283D01*
X158990483Y-105134530D01*
X159018524Y-105093904D01*
X159067140Y-105056755D01*
X159128308Y-105055276D01*
X159178663Y-105090033D01*
X159181476Y-105093905D01*
X159209515Y-105134528D01*
X159209516Y-105134529D01*
X159209517Y-105134530D01*
X159327760Y-105239283D01*
X159467635Y-105312696D01*
X159621015Y-105350500D01*
X159621018Y-105350500D01*
X159778982Y-105350500D01*
X159778985Y-105350500D01*
X159932365Y-105312696D01*
X160072240Y-105239283D01*
X160190483Y-105134530D01*
X160218524Y-105093904D01*
X160267140Y-105056755D01*
X160328308Y-105055276D01*
X160378663Y-105090033D01*
X160381476Y-105093905D01*
X160409515Y-105134528D01*
X160409516Y-105134529D01*
X160409517Y-105134530D01*
X160527760Y-105239283D01*
X160667635Y-105312696D01*
X160821015Y-105350500D01*
X160821018Y-105350500D01*
X160978982Y-105350500D01*
X160978985Y-105350500D01*
X161132365Y-105312696D01*
X161272240Y-105239283D01*
X161390483Y-105134530D01*
X161418524Y-105093904D01*
X161467140Y-105056755D01*
X161528308Y-105055276D01*
X161578663Y-105090033D01*
X161581476Y-105093905D01*
X161609515Y-105134528D01*
X161609516Y-105134529D01*
X161609517Y-105134530D01*
X161727760Y-105239283D01*
X161867635Y-105312696D01*
X162021015Y-105350500D01*
X162021018Y-105350500D01*
X162178982Y-105350500D01*
X162178985Y-105350500D01*
X162332365Y-105312696D01*
X162472240Y-105239283D01*
X162590483Y-105134530D01*
X162680220Y-105004523D01*
X162736237Y-104856818D01*
X162755278Y-104700000D01*
X162736237Y-104543182D01*
X162680220Y-104395477D01*
X162590486Y-104265474D01*
X162590484Y-104265471D01*
X162579900Y-104256094D01*
X162472240Y-104160717D01*
X162376976Y-104110718D01*
X162332364Y-104087303D01*
X162282456Y-104075002D01*
X165519610Y-104075002D01*
X165539067Y-104210337D01*
X165539069Y-104210345D01*
X165595868Y-104334715D01*
X165595869Y-104334716D01*
X165595870Y-104334718D01*
X165685411Y-104438055D01*
X165800439Y-104511978D01*
X165931633Y-104550500D01*
X165931634Y-104550500D01*
X166068366Y-104550500D01*
X166068367Y-104550500D01*
X166199561Y-104511978D01*
X166314589Y-104438055D01*
X166404130Y-104334718D01*
X166440037Y-104256094D01*
X166460930Y-104210345D01*
X166460932Y-104210337D01*
X166480390Y-104075002D01*
X166480390Y-104074997D01*
X166460932Y-103939662D01*
X166460930Y-103939654D01*
X166404131Y-103815284D01*
X166404130Y-103815283D01*
X166404130Y-103815282D01*
X166314589Y-103711945D01*
X166199561Y-103638022D01*
X166199558Y-103638021D01*
X166068368Y-103599500D01*
X166068367Y-103599500D01*
X165931633Y-103599500D01*
X165931631Y-103599500D01*
X165800441Y-103638021D01*
X165800439Y-103638021D01*
X165800439Y-103638022D01*
X165685411Y-103711945D01*
X165685410Y-103711945D01*
X165685410Y-103711946D01*
X165595868Y-103815284D01*
X165539069Y-103939654D01*
X165539067Y-103939662D01*
X165519610Y-104074997D01*
X165519610Y-104075002D01*
X162282456Y-104075002D01*
X162178987Y-104049500D01*
X162178985Y-104049500D01*
X162021015Y-104049500D01*
X162021012Y-104049500D01*
X161867635Y-104087303D01*
X161727758Y-104160718D01*
X161609514Y-104265472D01*
X161609512Y-104265474D01*
X161581475Y-104306094D01*
X161532859Y-104343244D01*
X161471691Y-104344722D01*
X161421337Y-104309965D01*
X161418525Y-104306094D01*
X161390487Y-104265474D01*
X161390485Y-104265472D01*
X161379899Y-104256094D01*
X161272240Y-104160717D01*
X161176976Y-104110718D01*
X161132364Y-104087303D01*
X160978987Y-104049500D01*
X160978985Y-104049500D01*
X160821015Y-104049500D01*
X160821012Y-104049500D01*
X160667635Y-104087303D01*
X160527758Y-104160718D01*
X160409514Y-104265472D01*
X160409512Y-104265474D01*
X160381475Y-104306094D01*
X160332859Y-104343244D01*
X160271691Y-104344722D01*
X160221337Y-104309965D01*
X160218525Y-104306094D01*
X160190487Y-104265474D01*
X160190485Y-104265472D01*
X160179899Y-104256094D01*
X160072240Y-104160717D01*
X159976976Y-104110718D01*
X159932364Y-104087303D01*
X159778987Y-104049500D01*
X159778985Y-104049500D01*
X159621015Y-104049500D01*
X159621012Y-104049500D01*
X159467635Y-104087303D01*
X159327758Y-104160718D01*
X159209514Y-104265472D01*
X159209512Y-104265474D01*
X159181475Y-104306094D01*
X159132859Y-104343244D01*
X159071691Y-104344722D01*
X159021337Y-104309965D01*
X159018525Y-104306094D01*
X158990487Y-104265474D01*
X158990485Y-104265472D01*
X158979899Y-104256094D01*
X158872240Y-104160717D01*
X158776976Y-104110718D01*
X158732364Y-104087303D01*
X158578987Y-104049500D01*
X158578985Y-104049500D01*
X158421015Y-104049500D01*
X158421012Y-104049500D01*
X158267635Y-104087303D01*
X158127758Y-104160718D01*
X158009514Y-104265472D01*
X158009512Y-104265474D01*
X157981475Y-104306094D01*
X157932859Y-104343244D01*
X157871691Y-104344722D01*
X157821337Y-104309965D01*
X157818525Y-104306094D01*
X157790487Y-104265474D01*
X157790485Y-104265472D01*
X157779899Y-104256094D01*
X157672240Y-104160717D01*
X157576976Y-104110718D01*
X157532364Y-104087303D01*
X157378987Y-104049500D01*
X157378985Y-104049500D01*
X157221015Y-104049500D01*
X157221012Y-104049500D01*
X157067635Y-104087303D01*
X156927758Y-104160718D01*
X156809514Y-104265472D01*
X156809512Y-104265474D01*
X156781475Y-104306094D01*
X156732859Y-104343244D01*
X156671691Y-104344722D01*
X156621337Y-104309965D01*
X156618525Y-104306094D01*
X156590487Y-104265474D01*
X156590485Y-104265472D01*
X156579899Y-104256094D01*
X156472240Y-104160717D01*
X156376976Y-104110718D01*
X156332364Y-104087303D01*
X156178987Y-104049500D01*
X156178985Y-104049500D01*
X156021015Y-104049500D01*
X156021012Y-104049500D01*
X155867635Y-104087303D01*
X155727758Y-104160718D01*
X155609515Y-104265471D01*
X155519780Y-104395476D01*
X155463763Y-104543182D01*
X155463762Y-104543183D01*
X155444722Y-104699998D01*
X155444722Y-104700001D01*
X144455278Y-104700001D01*
X144455278Y-104700000D01*
X144436237Y-104543182D01*
X144380220Y-104395477D01*
X144290486Y-104265474D01*
X144290484Y-104265471D01*
X144279900Y-104256094D01*
X144172240Y-104160717D01*
X144076976Y-104110718D01*
X144032364Y-104087303D01*
X143982456Y-104075002D01*
X147994610Y-104075002D01*
X148014067Y-104210337D01*
X148014069Y-104210345D01*
X148070868Y-104334715D01*
X148070869Y-104334716D01*
X148070870Y-104334718D01*
X148160411Y-104438055D01*
X148275439Y-104511978D01*
X148406633Y-104550500D01*
X148406634Y-104550500D01*
X148543366Y-104550500D01*
X148543367Y-104550500D01*
X148674561Y-104511978D01*
X148789589Y-104438055D01*
X148879130Y-104334718D01*
X148915037Y-104256094D01*
X148935930Y-104210345D01*
X148935932Y-104210337D01*
X148955390Y-104075002D01*
X148955390Y-104074997D01*
X148935932Y-103939662D01*
X148935930Y-103939654D01*
X148879131Y-103815284D01*
X148879130Y-103815283D01*
X148879130Y-103815282D01*
X148789589Y-103711945D01*
X148674561Y-103638022D01*
X148674558Y-103638021D01*
X148543368Y-103599500D01*
X148543367Y-103599500D01*
X148406633Y-103599500D01*
X148406631Y-103599500D01*
X148275441Y-103638021D01*
X148275439Y-103638021D01*
X148275439Y-103638022D01*
X148160411Y-103711945D01*
X148160410Y-103711945D01*
X148160410Y-103711946D01*
X148070868Y-103815284D01*
X148014069Y-103939654D01*
X148014067Y-103939662D01*
X147994610Y-104074997D01*
X147994610Y-104075002D01*
X143982456Y-104075002D01*
X143878987Y-104049500D01*
X143878985Y-104049500D01*
X143721015Y-104049500D01*
X143721012Y-104049500D01*
X143567635Y-104087303D01*
X143427758Y-104160718D01*
X143309514Y-104265472D01*
X143309512Y-104265474D01*
X143281475Y-104306094D01*
X143232859Y-104343244D01*
X143171691Y-104344722D01*
X143121337Y-104309965D01*
X143118525Y-104306094D01*
X143090487Y-104265474D01*
X143090485Y-104265472D01*
X143079899Y-104256094D01*
X142972240Y-104160717D01*
X142876976Y-104110718D01*
X142832364Y-104087303D01*
X142678987Y-104049500D01*
X142678985Y-104049500D01*
X142521015Y-104049500D01*
X142521012Y-104049500D01*
X142367635Y-104087303D01*
X142227758Y-104160718D01*
X142109514Y-104265472D01*
X142109512Y-104265474D01*
X142081475Y-104306094D01*
X142032859Y-104343244D01*
X141971691Y-104344722D01*
X141921337Y-104309965D01*
X141918525Y-104306094D01*
X141890487Y-104265474D01*
X141890485Y-104265472D01*
X141879899Y-104256094D01*
X141772240Y-104160717D01*
X141676976Y-104110718D01*
X141632364Y-104087303D01*
X141478987Y-104049500D01*
X141478985Y-104049500D01*
X141321015Y-104049500D01*
X141321012Y-104049500D01*
X141167635Y-104087303D01*
X141027758Y-104160718D01*
X140909514Y-104265472D01*
X140909512Y-104265474D01*
X140881475Y-104306094D01*
X140832859Y-104343244D01*
X140771691Y-104344722D01*
X140721337Y-104309965D01*
X140718525Y-104306094D01*
X140690487Y-104265474D01*
X140690485Y-104265472D01*
X140679899Y-104256094D01*
X140572240Y-104160717D01*
X140476976Y-104110718D01*
X140432364Y-104087303D01*
X140278987Y-104049500D01*
X140278985Y-104049500D01*
X140121015Y-104049500D01*
X140121012Y-104049500D01*
X139967635Y-104087303D01*
X139827758Y-104160718D01*
X139709514Y-104265472D01*
X139709512Y-104265474D01*
X139681475Y-104306094D01*
X139632859Y-104343244D01*
X139571691Y-104344722D01*
X139521337Y-104309965D01*
X139518525Y-104306094D01*
X139490487Y-104265474D01*
X139490485Y-104265472D01*
X139479899Y-104256094D01*
X139372240Y-104160717D01*
X139276976Y-104110718D01*
X139232364Y-104087303D01*
X139078987Y-104049500D01*
X139078985Y-104049500D01*
X138921015Y-104049500D01*
X138921012Y-104049500D01*
X138767635Y-104087303D01*
X138627758Y-104160718D01*
X138509514Y-104265472D01*
X138509512Y-104265474D01*
X138481475Y-104306094D01*
X138432859Y-104343244D01*
X138371691Y-104344722D01*
X138321337Y-104309965D01*
X138318525Y-104306094D01*
X138290487Y-104265474D01*
X138290485Y-104265472D01*
X138279899Y-104256094D01*
X138172240Y-104160717D01*
X138076976Y-104110718D01*
X138032364Y-104087303D01*
X137878987Y-104049500D01*
X137878985Y-104049500D01*
X137721015Y-104049500D01*
X137721012Y-104049500D01*
X137567635Y-104087303D01*
X137427758Y-104160718D01*
X137309515Y-104265471D01*
X137219780Y-104395476D01*
X137163763Y-104543182D01*
X137163762Y-104543183D01*
X137144722Y-104699998D01*
X137144722Y-104700001D01*
X125899207Y-104700001D01*
X125905278Y-104650000D01*
X125886237Y-104493182D01*
X125830220Y-104345477D01*
X125740486Y-104215474D01*
X125740484Y-104215471D01*
X125734695Y-104210342D01*
X125622240Y-104110717D01*
X125552302Y-104074010D01*
X125482364Y-104037303D01*
X125328987Y-103999500D01*
X125328985Y-103999500D01*
X125171015Y-103999500D01*
X125171012Y-103999500D01*
X125017635Y-104037303D01*
X124877758Y-104110718D01*
X124759514Y-104215472D01*
X124759512Y-104215474D01*
X124731475Y-104256094D01*
X124682859Y-104293244D01*
X124621691Y-104294722D01*
X124571337Y-104259965D01*
X124568525Y-104256094D01*
X124540487Y-104215474D01*
X124540485Y-104215472D01*
X124534694Y-104210342D01*
X124422240Y-104110717D01*
X124352302Y-104074010D01*
X124282364Y-104037303D01*
X124128987Y-103999500D01*
X124128985Y-103999500D01*
X123971015Y-103999500D01*
X123971012Y-103999500D01*
X123817635Y-104037303D01*
X123677758Y-104110718D01*
X123559514Y-104215472D01*
X123559512Y-104215474D01*
X123531475Y-104256094D01*
X123482859Y-104293244D01*
X123421691Y-104294722D01*
X123371337Y-104259965D01*
X123368525Y-104256094D01*
X123340487Y-104215474D01*
X123340485Y-104215472D01*
X123334694Y-104210342D01*
X123222240Y-104110717D01*
X123152302Y-104074010D01*
X123082364Y-104037303D01*
X122928987Y-103999500D01*
X122928985Y-103999500D01*
X122771015Y-103999500D01*
X122771012Y-103999500D01*
X122617635Y-104037303D01*
X122477758Y-104110718D01*
X122359514Y-104215472D01*
X122359512Y-104215474D01*
X122331475Y-104256094D01*
X122282859Y-104293244D01*
X122221691Y-104294722D01*
X122171337Y-104259965D01*
X122168525Y-104256094D01*
X122140487Y-104215474D01*
X122140485Y-104215472D01*
X122134694Y-104210342D01*
X122022240Y-104110717D01*
X121952302Y-104074010D01*
X121882364Y-104037303D01*
X121728987Y-103999500D01*
X121728985Y-103999500D01*
X121571015Y-103999500D01*
X121571012Y-103999500D01*
X121417635Y-104037303D01*
X121277758Y-104110718D01*
X121159514Y-104215472D01*
X121159512Y-104215474D01*
X121131475Y-104256094D01*
X121082859Y-104293244D01*
X121021691Y-104294722D01*
X120971337Y-104259965D01*
X120968525Y-104256094D01*
X120940487Y-104215474D01*
X120940485Y-104215472D01*
X120934694Y-104210342D01*
X120822240Y-104110717D01*
X120752302Y-104074010D01*
X120682364Y-104037303D01*
X120528987Y-103999500D01*
X120528985Y-103999500D01*
X120371015Y-103999500D01*
X120371012Y-103999500D01*
X120217635Y-104037303D01*
X120077758Y-104110718D01*
X119959514Y-104215472D01*
X119959512Y-104215474D01*
X119931475Y-104256094D01*
X119882859Y-104293244D01*
X119821691Y-104294722D01*
X119771337Y-104259965D01*
X119768525Y-104256094D01*
X119740487Y-104215474D01*
X119740485Y-104215472D01*
X119734694Y-104210342D01*
X119622240Y-104110717D01*
X119552302Y-104074010D01*
X119482364Y-104037303D01*
X119328987Y-103999500D01*
X119328985Y-103999500D01*
X119171015Y-103999500D01*
X119171012Y-103999500D01*
X119017635Y-104037303D01*
X118877758Y-104110718D01*
X118759515Y-104215471D01*
X118669780Y-104345476D01*
X118613763Y-104493182D01*
X118613762Y-104493183D01*
X118594722Y-104649998D01*
X118594722Y-104650001D01*
X113300500Y-104650001D01*
X113300500Y-102800001D01*
X118594722Y-102800001D01*
X118613762Y-102956816D01*
X118613763Y-102956818D01*
X118639620Y-103024997D01*
X118669780Y-103104523D01*
X118759515Y-103234528D01*
X118759516Y-103234529D01*
X118759517Y-103234530D01*
X118877760Y-103339283D01*
X119017635Y-103412696D01*
X119171015Y-103450500D01*
X119171018Y-103450500D01*
X119328982Y-103450500D01*
X119328985Y-103450500D01*
X119482365Y-103412696D01*
X119622240Y-103339283D01*
X119740483Y-103234530D01*
X119768524Y-103193904D01*
X119817140Y-103156755D01*
X119878308Y-103155276D01*
X119928663Y-103190033D01*
X119931476Y-103193905D01*
X119959515Y-103234528D01*
X119959516Y-103234529D01*
X119959517Y-103234530D01*
X120077760Y-103339283D01*
X120217635Y-103412696D01*
X120371015Y-103450500D01*
X120371018Y-103450500D01*
X120528982Y-103450500D01*
X120528985Y-103450500D01*
X120682365Y-103412696D01*
X120822240Y-103339283D01*
X120940483Y-103234530D01*
X120968524Y-103193904D01*
X121017140Y-103156755D01*
X121078308Y-103155276D01*
X121128663Y-103190033D01*
X121131476Y-103193905D01*
X121159515Y-103234528D01*
X121159516Y-103234529D01*
X121159517Y-103234530D01*
X121277760Y-103339283D01*
X121417635Y-103412696D01*
X121571015Y-103450500D01*
X121571018Y-103450500D01*
X121728982Y-103450500D01*
X121728985Y-103450500D01*
X121882365Y-103412696D01*
X122022240Y-103339283D01*
X122140483Y-103234530D01*
X122168524Y-103193904D01*
X122217140Y-103156755D01*
X122278308Y-103155276D01*
X122328663Y-103190033D01*
X122331476Y-103193905D01*
X122359515Y-103234528D01*
X122359516Y-103234529D01*
X122359517Y-103234530D01*
X122477760Y-103339283D01*
X122617635Y-103412696D01*
X122771015Y-103450500D01*
X122771018Y-103450500D01*
X122928982Y-103450500D01*
X122928985Y-103450500D01*
X123082365Y-103412696D01*
X123222240Y-103339283D01*
X123340483Y-103234530D01*
X123368524Y-103193904D01*
X123417140Y-103156755D01*
X123478308Y-103155276D01*
X123528663Y-103190033D01*
X123531476Y-103193905D01*
X123559515Y-103234528D01*
X123559516Y-103234529D01*
X123559517Y-103234530D01*
X123677760Y-103339283D01*
X123817635Y-103412696D01*
X123971015Y-103450500D01*
X123971018Y-103450500D01*
X124128982Y-103450500D01*
X124128985Y-103450500D01*
X124282365Y-103412696D01*
X124422240Y-103339283D01*
X124540483Y-103234530D01*
X124568524Y-103193904D01*
X124617140Y-103156755D01*
X124678308Y-103155276D01*
X124728663Y-103190033D01*
X124731476Y-103193905D01*
X124759515Y-103234528D01*
X124759516Y-103234529D01*
X124759517Y-103234530D01*
X124877760Y-103339283D01*
X125017635Y-103412696D01*
X125171015Y-103450500D01*
X125171018Y-103450500D01*
X125328982Y-103450500D01*
X125328985Y-103450500D01*
X125482365Y-103412696D01*
X125622240Y-103339283D01*
X125740483Y-103234530D01*
X125830220Y-103104523D01*
X125860378Y-103025002D01*
X130819610Y-103025002D01*
X130839067Y-103160337D01*
X130839069Y-103160345D01*
X130895868Y-103284715D01*
X130895869Y-103284716D01*
X130895870Y-103284718D01*
X130985411Y-103388055D01*
X131100439Y-103461978D01*
X131231633Y-103500500D01*
X131231634Y-103500500D01*
X131368366Y-103500500D01*
X131368367Y-103500500D01*
X131499561Y-103461978D01*
X131614589Y-103388055D01*
X131704130Y-103284718D01*
X131745603Y-103193905D01*
X131760930Y-103160345D01*
X131760932Y-103160337D01*
X131780390Y-103025002D01*
X131780390Y-103024997D01*
X131760932Y-102889662D01*
X131760930Y-102889654D01*
X131742821Y-102850001D01*
X137144722Y-102850001D01*
X137163762Y-103006816D01*
X137163763Y-103006818D01*
X137200000Y-103102367D01*
X137219780Y-103154523D01*
X137309515Y-103284528D01*
X137309516Y-103284529D01*
X137309517Y-103284530D01*
X137427760Y-103389283D01*
X137567635Y-103462696D01*
X137721015Y-103500500D01*
X137721018Y-103500500D01*
X137878982Y-103500500D01*
X137878985Y-103500500D01*
X138032365Y-103462696D01*
X138172240Y-103389283D01*
X138290483Y-103284530D01*
X138318524Y-103243904D01*
X138367140Y-103206755D01*
X138428308Y-103205276D01*
X138478663Y-103240033D01*
X138481476Y-103243905D01*
X138509515Y-103284528D01*
X138509516Y-103284529D01*
X138509517Y-103284530D01*
X138627760Y-103389283D01*
X138767635Y-103462696D01*
X138921015Y-103500500D01*
X138921018Y-103500500D01*
X139078982Y-103500500D01*
X139078985Y-103500500D01*
X139232365Y-103462696D01*
X139372240Y-103389283D01*
X139490483Y-103284530D01*
X139518524Y-103243904D01*
X139567140Y-103206755D01*
X139628308Y-103205276D01*
X139678663Y-103240033D01*
X139681476Y-103243905D01*
X139709515Y-103284528D01*
X139709516Y-103284529D01*
X139709517Y-103284530D01*
X139827760Y-103389283D01*
X139967635Y-103462696D01*
X140121015Y-103500500D01*
X140121018Y-103500500D01*
X140278982Y-103500500D01*
X140278985Y-103500500D01*
X140432365Y-103462696D01*
X140572240Y-103389283D01*
X140690483Y-103284530D01*
X140718524Y-103243904D01*
X140767140Y-103206755D01*
X140828308Y-103205276D01*
X140878663Y-103240033D01*
X140881476Y-103243905D01*
X140909515Y-103284528D01*
X140909516Y-103284529D01*
X140909517Y-103284530D01*
X141027760Y-103389283D01*
X141167635Y-103462696D01*
X141321015Y-103500500D01*
X141321018Y-103500500D01*
X141478982Y-103500500D01*
X141478985Y-103500500D01*
X141632365Y-103462696D01*
X141772240Y-103389283D01*
X141890483Y-103284530D01*
X141918524Y-103243904D01*
X141967140Y-103206755D01*
X142028308Y-103205276D01*
X142078663Y-103240033D01*
X142081476Y-103243905D01*
X142109515Y-103284528D01*
X142109516Y-103284529D01*
X142109517Y-103284530D01*
X142227760Y-103389283D01*
X142367635Y-103462696D01*
X142521015Y-103500500D01*
X142521018Y-103500500D01*
X142678982Y-103500500D01*
X142678985Y-103500500D01*
X142832365Y-103462696D01*
X142972240Y-103389283D01*
X143090483Y-103284530D01*
X143118524Y-103243904D01*
X143167140Y-103206755D01*
X143228308Y-103205276D01*
X143278663Y-103240033D01*
X143281476Y-103243905D01*
X143309515Y-103284528D01*
X143309516Y-103284529D01*
X143309517Y-103284530D01*
X143427760Y-103389283D01*
X143567635Y-103462696D01*
X143721015Y-103500500D01*
X143721018Y-103500500D01*
X143878982Y-103500500D01*
X143878985Y-103500500D01*
X144032365Y-103462696D01*
X144172240Y-103389283D01*
X144290483Y-103284530D01*
X144380220Y-103154523D01*
X144436237Y-103006818D01*
X144455278Y-102850001D01*
X155444722Y-102850001D01*
X155463762Y-103006816D01*
X155463763Y-103006818D01*
X155500000Y-103102367D01*
X155519780Y-103154523D01*
X155609515Y-103284528D01*
X155609516Y-103284529D01*
X155609517Y-103284530D01*
X155727760Y-103389283D01*
X155867635Y-103462696D01*
X156021015Y-103500500D01*
X156021018Y-103500500D01*
X156178982Y-103500500D01*
X156178985Y-103500500D01*
X156332365Y-103462696D01*
X156472240Y-103389283D01*
X156590483Y-103284530D01*
X156618524Y-103243904D01*
X156667140Y-103206755D01*
X156728308Y-103205276D01*
X156778663Y-103240033D01*
X156781476Y-103243905D01*
X156809515Y-103284528D01*
X156809516Y-103284529D01*
X156809517Y-103284530D01*
X156927760Y-103389283D01*
X157067635Y-103462696D01*
X157221015Y-103500500D01*
X157221018Y-103500500D01*
X157378982Y-103500500D01*
X157378985Y-103500500D01*
X157532365Y-103462696D01*
X157672240Y-103389283D01*
X157790483Y-103284530D01*
X157818524Y-103243904D01*
X157867140Y-103206755D01*
X157928308Y-103205276D01*
X157978663Y-103240033D01*
X157981476Y-103243905D01*
X158009515Y-103284528D01*
X158009516Y-103284529D01*
X158009517Y-103284530D01*
X158127760Y-103389283D01*
X158267635Y-103462696D01*
X158421015Y-103500500D01*
X158421018Y-103500500D01*
X158578982Y-103500500D01*
X158578985Y-103500500D01*
X158732365Y-103462696D01*
X158872240Y-103389283D01*
X158990483Y-103284530D01*
X159018524Y-103243904D01*
X159067140Y-103206755D01*
X159128308Y-103205276D01*
X159178663Y-103240033D01*
X159181476Y-103243905D01*
X159209515Y-103284528D01*
X159209516Y-103284529D01*
X159209517Y-103284530D01*
X159327760Y-103389283D01*
X159467635Y-103462696D01*
X159621015Y-103500500D01*
X159621018Y-103500500D01*
X159778982Y-103500500D01*
X159778985Y-103500500D01*
X159932365Y-103462696D01*
X160072240Y-103389283D01*
X160190483Y-103284530D01*
X160218524Y-103243904D01*
X160267140Y-103206755D01*
X160328308Y-103205276D01*
X160378663Y-103240033D01*
X160381476Y-103243905D01*
X160409515Y-103284528D01*
X160409516Y-103284529D01*
X160409517Y-103284530D01*
X160527760Y-103389283D01*
X160667635Y-103462696D01*
X160821015Y-103500500D01*
X160821018Y-103500500D01*
X160978982Y-103500500D01*
X160978985Y-103500500D01*
X161132365Y-103462696D01*
X161272240Y-103389283D01*
X161390483Y-103284530D01*
X161418524Y-103243904D01*
X161467140Y-103206755D01*
X161528308Y-103205276D01*
X161578663Y-103240033D01*
X161581476Y-103243905D01*
X161609515Y-103284528D01*
X161609516Y-103284529D01*
X161609517Y-103284530D01*
X161727760Y-103389283D01*
X161867635Y-103462696D01*
X162021015Y-103500500D01*
X162021018Y-103500500D01*
X162178982Y-103500500D01*
X162178985Y-103500500D01*
X162332365Y-103462696D01*
X162472240Y-103389283D01*
X162590483Y-103284530D01*
X162680220Y-103154523D01*
X162736237Y-103006818D01*
X162755278Y-102850000D01*
X162744991Y-102765282D01*
X162736237Y-102693183D01*
X162736237Y-102693182D01*
X162680220Y-102545477D01*
X162590486Y-102415474D01*
X162590484Y-102415471D01*
X162579900Y-102406094D01*
X162472240Y-102310717D01*
X162376976Y-102260718D01*
X162332364Y-102237303D01*
X162178987Y-102199500D01*
X162178985Y-102199500D01*
X162021015Y-102199500D01*
X162021012Y-102199500D01*
X161867635Y-102237303D01*
X161727758Y-102310718D01*
X161609514Y-102415472D01*
X161609512Y-102415474D01*
X161581475Y-102456094D01*
X161532859Y-102493244D01*
X161471691Y-102494722D01*
X161421337Y-102459965D01*
X161418525Y-102456094D01*
X161390487Y-102415474D01*
X161390485Y-102415472D01*
X161379899Y-102406094D01*
X161272240Y-102310717D01*
X161176976Y-102260718D01*
X161132364Y-102237303D01*
X160978987Y-102199500D01*
X160978985Y-102199500D01*
X160821015Y-102199500D01*
X160821012Y-102199500D01*
X160667635Y-102237303D01*
X160527758Y-102310718D01*
X160409514Y-102415472D01*
X160409512Y-102415474D01*
X160381475Y-102456094D01*
X160332859Y-102493244D01*
X160271691Y-102494722D01*
X160221337Y-102459965D01*
X160218525Y-102456094D01*
X160190487Y-102415474D01*
X160190485Y-102415472D01*
X160179899Y-102406094D01*
X160072240Y-102310717D01*
X159976976Y-102260718D01*
X159932364Y-102237303D01*
X159778987Y-102199500D01*
X159778985Y-102199500D01*
X159621015Y-102199500D01*
X159621012Y-102199500D01*
X159467635Y-102237303D01*
X159327758Y-102310718D01*
X159209514Y-102415472D01*
X159209512Y-102415474D01*
X159181475Y-102456094D01*
X159132859Y-102493244D01*
X159071691Y-102494722D01*
X159021337Y-102459965D01*
X159018525Y-102456094D01*
X158990487Y-102415474D01*
X158990485Y-102415472D01*
X158979899Y-102406094D01*
X158872240Y-102310717D01*
X158776976Y-102260718D01*
X158732364Y-102237303D01*
X158578987Y-102199500D01*
X158578985Y-102199500D01*
X158421015Y-102199500D01*
X158421012Y-102199500D01*
X158267635Y-102237303D01*
X158127758Y-102310718D01*
X158009514Y-102415472D01*
X158009512Y-102415474D01*
X157981475Y-102456094D01*
X157932859Y-102493244D01*
X157871691Y-102494722D01*
X157821337Y-102459965D01*
X157818525Y-102456094D01*
X157790487Y-102415474D01*
X157790485Y-102415472D01*
X157779899Y-102406094D01*
X157672240Y-102310717D01*
X157576976Y-102260718D01*
X157532364Y-102237303D01*
X157378987Y-102199500D01*
X157378985Y-102199500D01*
X157221015Y-102199500D01*
X157221012Y-102199500D01*
X157067635Y-102237303D01*
X156927758Y-102310718D01*
X156809514Y-102415472D01*
X156809512Y-102415474D01*
X156781475Y-102456094D01*
X156732859Y-102493244D01*
X156671691Y-102494722D01*
X156621337Y-102459965D01*
X156618525Y-102456094D01*
X156590487Y-102415474D01*
X156590485Y-102415472D01*
X156579899Y-102406094D01*
X156472240Y-102310717D01*
X156376976Y-102260718D01*
X156332364Y-102237303D01*
X156178987Y-102199500D01*
X156178985Y-102199500D01*
X156021015Y-102199500D01*
X156021012Y-102199500D01*
X155867635Y-102237303D01*
X155727758Y-102310718D01*
X155609515Y-102415471D01*
X155519780Y-102545476D01*
X155463763Y-102693182D01*
X155463762Y-102693183D01*
X155444722Y-102849998D01*
X155444722Y-102850001D01*
X144455278Y-102850001D01*
X144455278Y-102850000D01*
X144444991Y-102765282D01*
X144436237Y-102693183D01*
X144436237Y-102693182D01*
X144380220Y-102545477D01*
X144290486Y-102415474D01*
X144290484Y-102415471D01*
X144279900Y-102406094D01*
X144172240Y-102310717D01*
X144076976Y-102260718D01*
X144032364Y-102237303D01*
X143878987Y-102199500D01*
X143878985Y-102199500D01*
X143721015Y-102199500D01*
X143721012Y-102199500D01*
X143567635Y-102237303D01*
X143427758Y-102310718D01*
X143309514Y-102415472D01*
X143309512Y-102415474D01*
X143281475Y-102456094D01*
X143232859Y-102493244D01*
X143171691Y-102494722D01*
X143121337Y-102459965D01*
X143118525Y-102456094D01*
X143090487Y-102415474D01*
X143090485Y-102415472D01*
X143079899Y-102406094D01*
X142972240Y-102310717D01*
X142876976Y-102260718D01*
X142832364Y-102237303D01*
X142678987Y-102199500D01*
X142678985Y-102199500D01*
X142521015Y-102199500D01*
X142521012Y-102199500D01*
X142367635Y-102237303D01*
X142227758Y-102310718D01*
X142109514Y-102415472D01*
X142109512Y-102415474D01*
X142081475Y-102456094D01*
X142032859Y-102493244D01*
X141971691Y-102494722D01*
X141921337Y-102459965D01*
X141918525Y-102456094D01*
X141890487Y-102415474D01*
X141890485Y-102415472D01*
X141879899Y-102406094D01*
X141772240Y-102310717D01*
X141676976Y-102260718D01*
X141632364Y-102237303D01*
X141478987Y-102199500D01*
X141478985Y-102199500D01*
X141321015Y-102199500D01*
X141321012Y-102199500D01*
X141167635Y-102237303D01*
X141027758Y-102310718D01*
X140909514Y-102415472D01*
X140909512Y-102415474D01*
X140881475Y-102456094D01*
X140832859Y-102493244D01*
X140771691Y-102494722D01*
X140721337Y-102459965D01*
X140718525Y-102456094D01*
X140690487Y-102415474D01*
X140690485Y-102415472D01*
X140679899Y-102406094D01*
X140572240Y-102310717D01*
X140476976Y-102260718D01*
X140432364Y-102237303D01*
X140278987Y-102199500D01*
X140278985Y-102199500D01*
X140121015Y-102199500D01*
X140121012Y-102199500D01*
X139967635Y-102237303D01*
X139827758Y-102310718D01*
X139709514Y-102415472D01*
X139709512Y-102415474D01*
X139681475Y-102456094D01*
X139632859Y-102493244D01*
X139571691Y-102494722D01*
X139521337Y-102459965D01*
X139518525Y-102456094D01*
X139490487Y-102415474D01*
X139490485Y-102415472D01*
X139479899Y-102406094D01*
X139372240Y-102310717D01*
X139276976Y-102260718D01*
X139232364Y-102237303D01*
X139078987Y-102199500D01*
X139078985Y-102199500D01*
X138921015Y-102199500D01*
X138921012Y-102199500D01*
X138767635Y-102237303D01*
X138627758Y-102310718D01*
X138509514Y-102415472D01*
X138509512Y-102415474D01*
X138481475Y-102456094D01*
X138432859Y-102493244D01*
X138371691Y-102494722D01*
X138321337Y-102459965D01*
X138318525Y-102456094D01*
X138290487Y-102415474D01*
X138290485Y-102415472D01*
X138279899Y-102406094D01*
X138172240Y-102310717D01*
X138076976Y-102260718D01*
X138032364Y-102237303D01*
X137878987Y-102199500D01*
X137878985Y-102199500D01*
X137721015Y-102199500D01*
X137721012Y-102199500D01*
X137567635Y-102237303D01*
X137427758Y-102310718D01*
X137309515Y-102415471D01*
X137219780Y-102545476D01*
X137163763Y-102693182D01*
X137163762Y-102693183D01*
X137144722Y-102849998D01*
X137144722Y-102850001D01*
X131742821Y-102850001D01*
X131704131Y-102765284D01*
X131704130Y-102765283D01*
X131704130Y-102765282D01*
X131614589Y-102661945D01*
X131499561Y-102588022D01*
X131499558Y-102588021D01*
X131368368Y-102549500D01*
X131368367Y-102549500D01*
X131231633Y-102549500D01*
X131231631Y-102549500D01*
X131100441Y-102588021D01*
X131100439Y-102588021D01*
X131100439Y-102588022D01*
X130985411Y-102661945D01*
X130985410Y-102661945D01*
X130985410Y-102661946D01*
X130895868Y-102765284D01*
X130839069Y-102889654D01*
X130839067Y-102889662D01*
X130819610Y-103024997D01*
X130819610Y-103025002D01*
X125860378Y-103025002D01*
X125886237Y-102956818D01*
X125905278Y-102800000D01*
X125886237Y-102643182D01*
X125830220Y-102495477D01*
X125740486Y-102365474D01*
X125740484Y-102365471D01*
X125622241Y-102260718D01*
X125622240Y-102260717D01*
X125552302Y-102224010D01*
X125482364Y-102187303D01*
X125328987Y-102149500D01*
X125328985Y-102149500D01*
X125171015Y-102149500D01*
X125171012Y-102149500D01*
X125017635Y-102187303D01*
X124877758Y-102260718D01*
X124759514Y-102365472D01*
X124759512Y-102365474D01*
X124731475Y-102406094D01*
X124682859Y-102443244D01*
X124621691Y-102444722D01*
X124571337Y-102409965D01*
X124568525Y-102406094D01*
X124540487Y-102365474D01*
X124540485Y-102365472D01*
X124422241Y-102260718D01*
X124422240Y-102260717D01*
X124352302Y-102224010D01*
X124282364Y-102187303D01*
X124128987Y-102149500D01*
X124128985Y-102149500D01*
X123971015Y-102149500D01*
X123971012Y-102149500D01*
X123817635Y-102187303D01*
X123677758Y-102260718D01*
X123559514Y-102365472D01*
X123559512Y-102365474D01*
X123531475Y-102406094D01*
X123482859Y-102443244D01*
X123421691Y-102444722D01*
X123371337Y-102409965D01*
X123368525Y-102406094D01*
X123340487Y-102365474D01*
X123340485Y-102365472D01*
X123222241Y-102260718D01*
X123222240Y-102260717D01*
X123152302Y-102224010D01*
X123082364Y-102187303D01*
X122928987Y-102149500D01*
X122928985Y-102149500D01*
X122771015Y-102149500D01*
X122771012Y-102149500D01*
X122617635Y-102187303D01*
X122477758Y-102260718D01*
X122359514Y-102365472D01*
X122359512Y-102365474D01*
X122331475Y-102406094D01*
X122282859Y-102443244D01*
X122221691Y-102444722D01*
X122171337Y-102409965D01*
X122168525Y-102406094D01*
X122140487Y-102365474D01*
X122140485Y-102365472D01*
X122022241Y-102260718D01*
X122022240Y-102260717D01*
X121952302Y-102224010D01*
X121882364Y-102187303D01*
X121728987Y-102149500D01*
X121728985Y-102149500D01*
X121571015Y-102149500D01*
X121571012Y-102149500D01*
X121417635Y-102187303D01*
X121277758Y-102260718D01*
X121159514Y-102365472D01*
X121159512Y-102365474D01*
X121131475Y-102406094D01*
X121082859Y-102443244D01*
X121021691Y-102444722D01*
X120971337Y-102409965D01*
X120968525Y-102406094D01*
X120940487Y-102365474D01*
X120940485Y-102365472D01*
X120822241Y-102260718D01*
X120822240Y-102260717D01*
X120752302Y-102224010D01*
X120682364Y-102187303D01*
X120528987Y-102149500D01*
X120528985Y-102149500D01*
X120371015Y-102149500D01*
X120371012Y-102149500D01*
X120217635Y-102187303D01*
X120077758Y-102260718D01*
X119959514Y-102365472D01*
X119959512Y-102365474D01*
X119931475Y-102406094D01*
X119882859Y-102443244D01*
X119821691Y-102444722D01*
X119771337Y-102409965D01*
X119768525Y-102406094D01*
X119740487Y-102365474D01*
X119740485Y-102365472D01*
X119622241Y-102260718D01*
X119622240Y-102260717D01*
X119552302Y-102224010D01*
X119482364Y-102187303D01*
X119328987Y-102149500D01*
X119328985Y-102149500D01*
X119171015Y-102149500D01*
X119171012Y-102149500D01*
X119017635Y-102187303D01*
X118877758Y-102260718D01*
X118759515Y-102365471D01*
X118669780Y-102495476D01*
X118613763Y-102643182D01*
X118613762Y-102643183D01*
X118594722Y-102799998D01*
X118594722Y-102800001D01*
X113300500Y-102800001D01*
X113300500Y-101050001D01*
X118594722Y-101050001D01*
X118613762Y-101206816D01*
X118613763Y-101206818D01*
X118650000Y-101302367D01*
X118669780Y-101354523D01*
X118759515Y-101484528D01*
X118759516Y-101484529D01*
X118759517Y-101484530D01*
X118877760Y-101589283D01*
X119017635Y-101662696D01*
X119171015Y-101700500D01*
X119171018Y-101700500D01*
X119328982Y-101700500D01*
X119328985Y-101700500D01*
X119482365Y-101662696D01*
X119622240Y-101589283D01*
X119740483Y-101484530D01*
X119768524Y-101443904D01*
X119817140Y-101406755D01*
X119878308Y-101405276D01*
X119928663Y-101440033D01*
X119931476Y-101443905D01*
X119959515Y-101484528D01*
X119959516Y-101484529D01*
X119959517Y-101484530D01*
X120077760Y-101589283D01*
X120217635Y-101662696D01*
X120371015Y-101700500D01*
X120371018Y-101700500D01*
X120528982Y-101700500D01*
X120528985Y-101700500D01*
X120682365Y-101662696D01*
X120822240Y-101589283D01*
X120940483Y-101484530D01*
X120968524Y-101443904D01*
X121017140Y-101406755D01*
X121078308Y-101405276D01*
X121128663Y-101440033D01*
X121131476Y-101443905D01*
X121159515Y-101484528D01*
X121159516Y-101484529D01*
X121159517Y-101484530D01*
X121277760Y-101589283D01*
X121417635Y-101662696D01*
X121571015Y-101700500D01*
X121571018Y-101700500D01*
X121728982Y-101700500D01*
X121728985Y-101700500D01*
X121882365Y-101662696D01*
X122022240Y-101589283D01*
X122140483Y-101484530D01*
X122168524Y-101443904D01*
X122217140Y-101406755D01*
X122278308Y-101405276D01*
X122328663Y-101440033D01*
X122331476Y-101443905D01*
X122359515Y-101484528D01*
X122359516Y-101484529D01*
X122359517Y-101484530D01*
X122477760Y-101589283D01*
X122617635Y-101662696D01*
X122771015Y-101700500D01*
X122771018Y-101700500D01*
X122928982Y-101700500D01*
X122928985Y-101700500D01*
X123082365Y-101662696D01*
X123222240Y-101589283D01*
X123340483Y-101484530D01*
X123368524Y-101443904D01*
X123417140Y-101406755D01*
X123478308Y-101405276D01*
X123528663Y-101440033D01*
X123531476Y-101443905D01*
X123559515Y-101484528D01*
X123559516Y-101484529D01*
X123559517Y-101484530D01*
X123677760Y-101589283D01*
X123817635Y-101662696D01*
X123971015Y-101700500D01*
X123971018Y-101700500D01*
X124128982Y-101700500D01*
X124128985Y-101700500D01*
X124282365Y-101662696D01*
X124422240Y-101589283D01*
X124540483Y-101484530D01*
X124568524Y-101443904D01*
X124617140Y-101406755D01*
X124678308Y-101405276D01*
X124728663Y-101440033D01*
X124731476Y-101443905D01*
X124759515Y-101484528D01*
X124759516Y-101484529D01*
X124759517Y-101484530D01*
X124877760Y-101589283D01*
X125017635Y-101662696D01*
X125171015Y-101700500D01*
X125171018Y-101700500D01*
X125328982Y-101700500D01*
X125328985Y-101700500D01*
X125482365Y-101662696D01*
X125622240Y-101589283D01*
X125740483Y-101484530D01*
X125830220Y-101354523D01*
X125886237Y-101206818D01*
X125899207Y-101100001D01*
X137144722Y-101100001D01*
X137163762Y-101256816D01*
X137163763Y-101256818D01*
X137200000Y-101352367D01*
X137219780Y-101404523D01*
X137309515Y-101534528D01*
X137309516Y-101534529D01*
X137309517Y-101534530D01*
X137427760Y-101639283D01*
X137567635Y-101712696D01*
X137721015Y-101750500D01*
X137721018Y-101750500D01*
X137878982Y-101750500D01*
X137878985Y-101750500D01*
X138032365Y-101712696D01*
X138172240Y-101639283D01*
X138290483Y-101534530D01*
X138318524Y-101493904D01*
X138367140Y-101456755D01*
X138428308Y-101455276D01*
X138478663Y-101490033D01*
X138481476Y-101493905D01*
X138509515Y-101534528D01*
X138509516Y-101534529D01*
X138509517Y-101534530D01*
X138627760Y-101639283D01*
X138767635Y-101712696D01*
X138921015Y-101750500D01*
X138921018Y-101750500D01*
X139078982Y-101750500D01*
X139078985Y-101750500D01*
X139232365Y-101712696D01*
X139372240Y-101639283D01*
X139490483Y-101534530D01*
X139518524Y-101493904D01*
X139567140Y-101456755D01*
X139628308Y-101455276D01*
X139678663Y-101490033D01*
X139681476Y-101493905D01*
X139709515Y-101534528D01*
X139709516Y-101534529D01*
X139709517Y-101534530D01*
X139827760Y-101639283D01*
X139967635Y-101712696D01*
X140121015Y-101750500D01*
X140121018Y-101750500D01*
X140278982Y-101750500D01*
X140278985Y-101750500D01*
X140432365Y-101712696D01*
X140572240Y-101639283D01*
X140690483Y-101534530D01*
X140718524Y-101493904D01*
X140767140Y-101456755D01*
X140828308Y-101455276D01*
X140878663Y-101490033D01*
X140881476Y-101493905D01*
X140909515Y-101534528D01*
X140909516Y-101534529D01*
X140909517Y-101534530D01*
X141027760Y-101639283D01*
X141167635Y-101712696D01*
X141321015Y-101750500D01*
X141321018Y-101750500D01*
X141478982Y-101750500D01*
X141478985Y-101750500D01*
X141632365Y-101712696D01*
X141772240Y-101639283D01*
X141890483Y-101534530D01*
X141918524Y-101493904D01*
X141967140Y-101456755D01*
X142028308Y-101455276D01*
X142078663Y-101490033D01*
X142081476Y-101493905D01*
X142109515Y-101534528D01*
X142109516Y-101534529D01*
X142109517Y-101534530D01*
X142227760Y-101639283D01*
X142367635Y-101712696D01*
X142521015Y-101750500D01*
X142521018Y-101750500D01*
X142678982Y-101750500D01*
X142678985Y-101750500D01*
X142832365Y-101712696D01*
X142972240Y-101639283D01*
X143090483Y-101534530D01*
X143118524Y-101493904D01*
X143167140Y-101456755D01*
X143228308Y-101455276D01*
X143278663Y-101490033D01*
X143281476Y-101493905D01*
X143309515Y-101534528D01*
X143309516Y-101534529D01*
X143309517Y-101534530D01*
X143427760Y-101639283D01*
X143567635Y-101712696D01*
X143721015Y-101750500D01*
X143721018Y-101750500D01*
X143878982Y-101750500D01*
X143878985Y-101750500D01*
X144032365Y-101712696D01*
X144172240Y-101639283D01*
X144290483Y-101534530D01*
X144380220Y-101404523D01*
X144436237Y-101256818D01*
X144455278Y-101100001D01*
X155444722Y-101100001D01*
X155463762Y-101256816D01*
X155463763Y-101256818D01*
X155500000Y-101352367D01*
X155519780Y-101404523D01*
X155609515Y-101534528D01*
X155609516Y-101534529D01*
X155609517Y-101534530D01*
X155727760Y-101639283D01*
X155867635Y-101712696D01*
X156021015Y-101750500D01*
X156021018Y-101750500D01*
X156178982Y-101750500D01*
X156178985Y-101750500D01*
X156332365Y-101712696D01*
X156472240Y-101639283D01*
X156590483Y-101534530D01*
X156618524Y-101493904D01*
X156667140Y-101456755D01*
X156728308Y-101455276D01*
X156778663Y-101490033D01*
X156781476Y-101493905D01*
X156809515Y-101534528D01*
X156809516Y-101534529D01*
X156809517Y-101534530D01*
X156927760Y-101639283D01*
X157067635Y-101712696D01*
X157221015Y-101750500D01*
X157221018Y-101750500D01*
X157378982Y-101750500D01*
X157378985Y-101750500D01*
X157532365Y-101712696D01*
X157672240Y-101639283D01*
X157790483Y-101534530D01*
X157818524Y-101493904D01*
X157867140Y-101456755D01*
X157928308Y-101455276D01*
X157978663Y-101490033D01*
X157981476Y-101493905D01*
X158009515Y-101534528D01*
X158009516Y-101534529D01*
X158009517Y-101534530D01*
X158127760Y-101639283D01*
X158267635Y-101712696D01*
X158421015Y-101750500D01*
X158421018Y-101750500D01*
X158578982Y-101750500D01*
X158578985Y-101750500D01*
X158732365Y-101712696D01*
X158872240Y-101639283D01*
X158990483Y-101534530D01*
X159018524Y-101493904D01*
X159067140Y-101456755D01*
X159128308Y-101455276D01*
X159178663Y-101490033D01*
X159181476Y-101493905D01*
X159209515Y-101534528D01*
X159209516Y-101534529D01*
X159209517Y-101534530D01*
X159327760Y-101639283D01*
X159467635Y-101712696D01*
X159621015Y-101750500D01*
X159621018Y-101750500D01*
X159778982Y-101750500D01*
X159778985Y-101750500D01*
X159932365Y-101712696D01*
X160072240Y-101639283D01*
X160190483Y-101534530D01*
X160218524Y-101493904D01*
X160267140Y-101456755D01*
X160328308Y-101455276D01*
X160378663Y-101490033D01*
X160381476Y-101493905D01*
X160409515Y-101534528D01*
X160409516Y-101534529D01*
X160409517Y-101534530D01*
X160527760Y-101639283D01*
X160667635Y-101712696D01*
X160821015Y-101750500D01*
X160821018Y-101750500D01*
X160978982Y-101750500D01*
X160978985Y-101750500D01*
X161132365Y-101712696D01*
X161272240Y-101639283D01*
X161390483Y-101534530D01*
X161418524Y-101493904D01*
X161467140Y-101456755D01*
X161528308Y-101455276D01*
X161578663Y-101490033D01*
X161581476Y-101493905D01*
X161609515Y-101534528D01*
X161609516Y-101534529D01*
X161609517Y-101534530D01*
X161727760Y-101639283D01*
X161867635Y-101712696D01*
X162021015Y-101750500D01*
X162021018Y-101750500D01*
X162178982Y-101750500D01*
X162178985Y-101750500D01*
X162332365Y-101712696D01*
X162472240Y-101639283D01*
X162590483Y-101534530D01*
X162680220Y-101404523D01*
X162736237Y-101256818D01*
X162755278Y-101100000D01*
X162736237Y-100943182D01*
X162680220Y-100795477D01*
X162590486Y-100665474D01*
X162590484Y-100665471D01*
X162579900Y-100656094D01*
X162472240Y-100560717D01*
X162376976Y-100510718D01*
X162332364Y-100487303D01*
X162178987Y-100449500D01*
X162178985Y-100449500D01*
X162021015Y-100449500D01*
X162021012Y-100449500D01*
X161867635Y-100487303D01*
X161727758Y-100560718D01*
X161609514Y-100665472D01*
X161609512Y-100665474D01*
X161581475Y-100706094D01*
X161532859Y-100743244D01*
X161471691Y-100744722D01*
X161421337Y-100709965D01*
X161418525Y-100706094D01*
X161390487Y-100665474D01*
X161390485Y-100665472D01*
X161379899Y-100656094D01*
X161272240Y-100560717D01*
X161176976Y-100510718D01*
X161132364Y-100487303D01*
X160978987Y-100449500D01*
X160978985Y-100449500D01*
X160821015Y-100449500D01*
X160821012Y-100449500D01*
X160667635Y-100487303D01*
X160527758Y-100560718D01*
X160409514Y-100665472D01*
X160409512Y-100665474D01*
X160381475Y-100706094D01*
X160332859Y-100743244D01*
X160271691Y-100744722D01*
X160221337Y-100709965D01*
X160218525Y-100706094D01*
X160190487Y-100665474D01*
X160190485Y-100665472D01*
X160179899Y-100656094D01*
X160072240Y-100560717D01*
X159976976Y-100510718D01*
X159932364Y-100487303D01*
X159778987Y-100449500D01*
X159778985Y-100449500D01*
X159621015Y-100449500D01*
X159621012Y-100449500D01*
X159467635Y-100487303D01*
X159327758Y-100560718D01*
X159209514Y-100665472D01*
X159209512Y-100665474D01*
X159181475Y-100706094D01*
X159132859Y-100743244D01*
X159071691Y-100744722D01*
X159021337Y-100709965D01*
X159018525Y-100706094D01*
X158990487Y-100665474D01*
X158990485Y-100665472D01*
X158979899Y-100656094D01*
X158872240Y-100560717D01*
X158776976Y-100510718D01*
X158732364Y-100487303D01*
X158578987Y-100449500D01*
X158578985Y-100449500D01*
X158421015Y-100449500D01*
X158421012Y-100449500D01*
X158267635Y-100487303D01*
X158127758Y-100560718D01*
X158009514Y-100665472D01*
X158009512Y-100665474D01*
X157981475Y-100706094D01*
X157932859Y-100743244D01*
X157871691Y-100744722D01*
X157821337Y-100709965D01*
X157818525Y-100706094D01*
X157790487Y-100665474D01*
X157790485Y-100665472D01*
X157779899Y-100656094D01*
X157672240Y-100560717D01*
X157576976Y-100510718D01*
X157532364Y-100487303D01*
X157378987Y-100449500D01*
X157378985Y-100449500D01*
X157221015Y-100449500D01*
X157221012Y-100449500D01*
X157067635Y-100487303D01*
X156927758Y-100560718D01*
X156809514Y-100665472D01*
X156809512Y-100665474D01*
X156781475Y-100706094D01*
X156732859Y-100743244D01*
X156671691Y-100744722D01*
X156621337Y-100709965D01*
X156618525Y-100706094D01*
X156590487Y-100665474D01*
X156590485Y-100665472D01*
X156579899Y-100656094D01*
X156472240Y-100560717D01*
X156376976Y-100510718D01*
X156332364Y-100487303D01*
X156178987Y-100449500D01*
X156178985Y-100449500D01*
X156021015Y-100449500D01*
X156021012Y-100449500D01*
X155867635Y-100487303D01*
X155727758Y-100560718D01*
X155609515Y-100665471D01*
X155519780Y-100795476D01*
X155463763Y-100943182D01*
X155463762Y-100943183D01*
X155444722Y-101099998D01*
X155444722Y-101100001D01*
X144455278Y-101100001D01*
X144455278Y-101100000D01*
X144436237Y-100943182D01*
X144380220Y-100795477D01*
X144290486Y-100665474D01*
X144290484Y-100665471D01*
X144279900Y-100656094D01*
X144172240Y-100560717D01*
X144076976Y-100510718D01*
X144032364Y-100487303D01*
X143878987Y-100449500D01*
X143878985Y-100449500D01*
X143721015Y-100449500D01*
X143721012Y-100449500D01*
X143567635Y-100487303D01*
X143427758Y-100560718D01*
X143309514Y-100665472D01*
X143309512Y-100665474D01*
X143281475Y-100706094D01*
X143232859Y-100743244D01*
X143171691Y-100744722D01*
X143121337Y-100709965D01*
X143118525Y-100706094D01*
X143090487Y-100665474D01*
X143090485Y-100665472D01*
X143079899Y-100656094D01*
X142972240Y-100560717D01*
X142876976Y-100510718D01*
X142832364Y-100487303D01*
X142678987Y-100449500D01*
X142678985Y-100449500D01*
X142521015Y-100449500D01*
X142521012Y-100449500D01*
X142367635Y-100487303D01*
X142227758Y-100560718D01*
X142109514Y-100665472D01*
X142109512Y-100665474D01*
X142081475Y-100706094D01*
X142032859Y-100743244D01*
X141971691Y-100744722D01*
X141921337Y-100709965D01*
X141918525Y-100706094D01*
X141890487Y-100665474D01*
X141890485Y-100665472D01*
X141879899Y-100656094D01*
X141772240Y-100560717D01*
X141676976Y-100510718D01*
X141632364Y-100487303D01*
X141478987Y-100449500D01*
X141478985Y-100449500D01*
X141321015Y-100449500D01*
X141321012Y-100449500D01*
X141167635Y-100487303D01*
X141027758Y-100560718D01*
X140909514Y-100665472D01*
X140909512Y-100665474D01*
X140881475Y-100706094D01*
X140832859Y-100743244D01*
X140771691Y-100744722D01*
X140721337Y-100709965D01*
X140718525Y-100706094D01*
X140690487Y-100665474D01*
X140690485Y-100665472D01*
X140679899Y-100656094D01*
X140572240Y-100560717D01*
X140476976Y-100510718D01*
X140432364Y-100487303D01*
X140278987Y-100449500D01*
X140278985Y-100449500D01*
X140121015Y-100449500D01*
X140121012Y-100449500D01*
X139967635Y-100487303D01*
X139827758Y-100560718D01*
X139709514Y-100665472D01*
X139709512Y-100665474D01*
X139681475Y-100706094D01*
X139632859Y-100743244D01*
X139571691Y-100744722D01*
X139521337Y-100709965D01*
X139518525Y-100706094D01*
X139490487Y-100665474D01*
X139490485Y-100665472D01*
X139479899Y-100656094D01*
X139372240Y-100560717D01*
X139276976Y-100510718D01*
X139232364Y-100487303D01*
X139078987Y-100449500D01*
X139078985Y-100449500D01*
X138921015Y-100449500D01*
X138921012Y-100449500D01*
X138767635Y-100487303D01*
X138627758Y-100560718D01*
X138509514Y-100665472D01*
X138509512Y-100665474D01*
X138481475Y-100706094D01*
X138432859Y-100743244D01*
X138371691Y-100744722D01*
X138321337Y-100709965D01*
X138318525Y-100706094D01*
X138290487Y-100665474D01*
X138290485Y-100665472D01*
X138279899Y-100656094D01*
X138172240Y-100560717D01*
X138076976Y-100510718D01*
X138032364Y-100487303D01*
X137878987Y-100449500D01*
X137878985Y-100449500D01*
X137721015Y-100449500D01*
X137721012Y-100449500D01*
X137567635Y-100487303D01*
X137427758Y-100560718D01*
X137309515Y-100665471D01*
X137219780Y-100795476D01*
X137163763Y-100943182D01*
X137163762Y-100943183D01*
X137144722Y-101099998D01*
X137144722Y-101100001D01*
X125899207Y-101100001D01*
X125905278Y-101050000D01*
X125886237Y-100893182D01*
X125830220Y-100745477D01*
X125740486Y-100615474D01*
X125740484Y-100615471D01*
X125622241Y-100510718D01*
X125622240Y-100510717D01*
X125552302Y-100474010D01*
X125482364Y-100437303D01*
X125328987Y-100399500D01*
X125328985Y-100399500D01*
X125171015Y-100399500D01*
X125171012Y-100399500D01*
X125017635Y-100437303D01*
X124877758Y-100510718D01*
X124759514Y-100615472D01*
X124759512Y-100615474D01*
X124731475Y-100656094D01*
X124682859Y-100693244D01*
X124621691Y-100694722D01*
X124571337Y-100659965D01*
X124568525Y-100656094D01*
X124540487Y-100615474D01*
X124540485Y-100615472D01*
X124422241Y-100510718D01*
X124422240Y-100510717D01*
X124352302Y-100474010D01*
X124282364Y-100437303D01*
X124128987Y-100399500D01*
X124128985Y-100399500D01*
X123971015Y-100399500D01*
X123971012Y-100399500D01*
X123817635Y-100437303D01*
X123677758Y-100510718D01*
X123559514Y-100615472D01*
X123559512Y-100615474D01*
X123531475Y-100656094D01*
X123482859Y-100693244D01*
X123421691Y-100694722D01*
X123371337Y-100659965D01*
X123368525Y-100656094D01*
X123340487Y-100615474D01*
X123340485Y-100615472D01*
X123222241Y-100510718D01*
X123222240Y-100510717D01*
X123152302Y-100474010D01*
X123082364Y-100437303D01*
X122928987Y-100399500D01*
X122928985Y-100399500D01*
X122771015Y-100399500D01*
X122771012Y-100399500D01*
X122617635Y-100437303D01*
X122477758Y-100510718D01*
X122359514Y-100615472D01*
X122359512Y-100615474D01*
X122331475Y-100656094D01*
X122282859Y-100693244D01*
X122221691Y-100694722D01*
X122171337Y-100659965D01*
X122168525Y-100656094D01*
X122140487Y-100615474D01*
X122140485Y-100615472D01*
X122022241Y-100510718D01*
X122022240Y-100510717D01*
X121952302Y-100474010D01*
X121882364Y-100437303D01*
X121728987Y-100399500D01*
X121728985Y-100399500D01*
X121571015Y-100399500D01*
X121571012Y-100399500D01*
X121417635Y-100437303D01*
X121277758Y-100510718D01*
X121159514Y-100615472D01*
X121159512Y-100615474D01*
X121131475Y-100656094D01*
X121082859Y-100693244D01*
X121021691Y-100694722D01*
X120971337Y-100659965D01*
X120968525Y-100656094D01*
X120940487Y-100615474D01*
X120940485Y-100615472D01*
X120822241Y-100510718D01*
X120822240Y-100510717D01*
X120752302Y-100474010D01*
X120682364Y-100437303D01*
X120528987Y-100399500D01*
X120528985Y-100399500D01*
X120371015Y-100399500D01*
X120371012Y-100399500D01*
X120217635Y-100437303D01*
X120077758Y-100510718D01*
X119959514Y-100615472D01*
X119959512Y-100615474D01*
X119931475Y-100656094D01*
X119882859Y-100693244D01*
X119821691Y-100694722D01*
X119771337Y-100659965D01*
X119768525Y-100656094D01*
X119740487Y-100615474D01*
X119740485Y-100615472D01*
X119622241Y-100510718D01*
X119622240Y-100510717D01*
X119552302Y-100474010D01*
X119482364Y-100437303D01*
X119328987Y-100399500D01*
X119328985Y-100399500D01*
X119171015Y-100399500D01*
X119171012Y-100399500D01*
X119017635Y-100437303D01*
X118877758Y-100510718D01*
X118759515Y-100615471D01*
X118669780Y-100745476D01*
X118613763Y-100893182D01*
X118613762Y-100893183D01*
X118594722Y-101049998D01*
X118594722Y-101050001D01*
X113300500Y-101050001D01*
X113300500Y-99300001D01*
X118594722Y-99300001D01*
X118613762Y-99456816D01*
X118613763Y-99456818D01*
X118650000Y-99552367D01*
X118669780Y-99604523D01*
X118759515Y-99734528D01*
X118759516Y-99734529D01*
X118759517Y-99734530D01*
X118877760Y-99839283D01*
X119017635Y-99912696D01*
X119171015Y-99950500D01*
X119171018Y-99950500D01*
X119328982Y-99950500D01*
X119328985Y-99950500D01*
X119482365Y-99912696D01*
X119622240Y-99839283D01*
X119740483Y-99734530D01*
X119768524Y-99693904D01*
X119817140Y-99656755D01*
X119878308Y-99655276D01*
X119928663Y-99690033D01*
X119931476Y-99693905D01*
X119959515Y-99734528D01*
X119959516Y-99734529D01*
X119959517Y-99734530D01*
X120077760Y-99839283D01*
X120217635Y-99912696D01*
X120371015Y-99950500D01*
X120371018Y-99950500D01*
X120528982Y-99950500D01*
X120528985Y-99950500D01*
X120682365Y-99912696D01*
X120822240Y-99839283D01*
X120940483Y-99734530D01*
X120968524Y-99693904D01*
X121017140Y-99656755D01*
X121078308Y-99655276D01*
X121128663Y-99690033D01*
X121131476Y-99693905D01*
X121159515Y-99734528D01*
X121159516Y-99734529D01*
X121159517Y-99734530D01*
X121277760Y-99839283D01*
X121417635Y-99912696D01*
X121571015Y-99950500D01*
X121571018Y-99950500D01*
X121728982Y-99950500D01*
X121728985Y-99950500D01*
X121882365Y-99912696D01*
X122022240Y-99839283D01*
X122140483Y-99734530D01*
X122168524Y-99693904D01*
X122217140Y-99656755D01*
X122278308Y-99655276D01*
X122328663Y-99690033D01*
X122331476Y-99693905D01*
X122359515Y-99734528D01*
X122359516Y-99734529D01*
X122359517Y-99734530D01*
X122477760Y-99839283D01*
X122617635Y-99912696D01*
X122771015Y-99950500D01*
X122771018Y-99950500D01*
X122928982Y-99950500D01*
X122928985Y-99950500D01*
X123082365Y-99912696D01*
X123222240Y-99839283D01*
X123340483Y-99734530D01*
X123368524Y-99693904D01*
X123417140Y-99656755D01*
X123478308Y-99655276D01*
X123528663Y-99690033D01*
X123531476Y-99693905D01*
X123559515Y-99734528D01*
X123559516Y-99734529D01*
X123559517Y-99734530D01*
X123677760Y-99839283D01*
X123817635Y-99912696D01*
X123971015Y-99950500D01*
X123971018Y-99950500D01*
X124128982Y-99950500D01*
X124128985Y-99950500D01*
X124282365Y-99912696D01*
X124422240Y-99839283D01*
X124540483Y-99734530D01*
X124568524Y-99693904D01*
X124617140Y-99656755D01*
X124678308Y-99655276D01*
X124728663Y-99690033D01*
X124731476Y-99693905D01*
X124759515Y-99734528D01*
X124759516Y-99734529D01*
X124759517Y-99734530D01*
X124877760Y-99839283D01*
X125017635Y-99912696D01*
X125171015Y-99950500D01*
X125171018Y-99950500D01*
X125328982Y-99950500D01*
X125328985Y-99950500D01*
X125482365Y-99912696D01*
X125622240Y-99839283D01*
X125740483Y-99734530D01*
X125830220Y-99604523D01*
X125886237Y-99456818D01*
X125899207Y-99350001D01*
X137144722Y-99350001D01*
X137163762Y-99506816D01*
X137163763Y-99506818D01*
X137200000Y-99602367D01*
X137219780Y-99654523D01*
X137309515Y-99784528D01*
X137309516Y-99784529D01*
X137309517Y-99784530D01*
X137427760Y-99889283D01*
X137567635Y-99962696D01*
X137721015Y-100000500D01*
X137721018Y-100000500D01*
X137878982Y-100000500D01*
X137878985Y-100000500D01*
X138032365Y-99962696D01*
X138172240Y-99889283D01*
X138290483Y-99784530D01*
X138318524Y-99743904D01*
X138367140Y-99706755D01*
X138428308Y-99705276D01*
X138478663Y-99740033D01*
X138481476Y-99743905D01*
X138509515Y-99784528D01*
X138509516Y-99784529D01*
X138509517Y-99784530D01*
X138627760Y-99889283D01*
X138767635Y-99962696D01*
X138921015Y-100000500D01*
X138921018Y-100000500D01*
X139078982Y-100000500D01*
X139078985Y-100000500D01*
X139232365Y-99962696D01*
X139372240Y-99889283D01*
X139490483Y-99784530D01*
X139518524Y-99743904D01*
X139567140Y-99706755D01*
X139628308Y-99705276D01*
X139678663Y-99740033D01*
X139681476Y-99743905D01*
X139709515Y-99784528D01*
X139709516Y-99784529D01*
X139709517Y-99784530D01*
X139827760Y-99889283D01*
X139967635Y-99962696D01*
X140121015Y-100000500D01*
X140121018Y-100000500D01*
X140278982Y-100000500D01*
X140278985Y-100000500D01*
X140432365Y-99962696D01*
X140572240Y-99889283D01*
X140690483Y-99784530D01*
X140718524Y-99743904D01*
X140767140Y-99706755D01*
X140828308Y-99705276D01*
X140878663Y-99740033D01*
X140881476Y-99743905D01*
X140909515Y-99784528D01*
X140909516Y-99784529D01*
X140909517Y-99784530D01*
X141027760Y-99889283D01*
X141167635Y-99962696D01*
X141321015Y-100000500D01*
X141321018Y-100000500D01*
X141478982Y-100000500D01*
X141478985Y-100000500D01*
X141632365Y-99962696D01*
X141772240Y-99889283D01*
X141890483Y-99784530D01*
X141918524Y-99743904D01*
X141967140Y-99706755D01*
X142028308Y-99705276D01*
X142078663Y-99740033D01*
X142081476Y-99743905D01*
X142109515Y-99784528D01*
X142109516Y-99784529D01*
X142109517Y-99784530D01*
X142227760Y-99889283D01*
X142367635Y-99962696D01*
X142521015Y-100000500D01*
X142521018Y-100000500D01*
X142678982Y-100000500D01*
X142678985Y-100000500D01*
X142832365Y-99962696D01*
X142972240Y-99889283D01*
X143090483Y-99784530D01*
X143118524Y-99743904D01*
X143167140Y-99706755D01*
X143228308Y-99705276D01*
X143278663Y-99740033D01*
X143281476Y-99743905D01*
X143309515Y-99784528D01*
X143309516Y-99784529D01*
X143309517Y-99784530D01*
X143427760Y-99889283D01*
X143567635Y-99962696D01*
X143721015Y-100000500D01*
X143721018Y-100000500D01*
X143878982Y-100000500D01*
X143878985Y-100000500D01*
X144032365Y-99962696D01*
X144172240Y-99889283D01*
X144290483Y-99784530D01*
X144380220Y-99654523D01*
X144436237Y-99506818D01*
X144455278Y-99350001D01*
X155444722Y-99350001D01*
X155463762Y-99506816D01*
X155463763Y-99506818D01*
X155500000Y-99602367D01*
X155519780Y-99654523D01*
X155609515Y-99784528D01*
X155609516Y-99784529D01*
X155609517Y-99784530D01*
X155727760Y-99889283D01*
X155867635Y-99962696D01*
X156021015Y-100000500D01*
X156021018Y-100000500D01*
X156178982Y-100000500D01*
X156178985Y-100000500D01*
X156332365Y-99962696D01*
X156472240Y-99889283D01*
X156590483Y-99784530D01*
X156618524Y-99743904D01*
X156667140Y-99706755D01*
X156728308Y-99705276D01*
X156778663Y-99740033D01*
X156781476Y-99743905D01*
X156809515Y-99784528D01*
X156809516Y-99784529D01*
X156809517Y-99784530D01*
X156927760Y-99889283D01*
X157067635Y-99962696D01*
X157221015Y-100000500D01*
X157221018Y-100000500D01*
X157378982Y-100000500D01*
X157378985Y-100000500D01*
X157532365Y-99962696D01*
X157672240Y-99889283D01*
X157790483Y-99784530D01*
X157818524Y-99743904D01*
X157867140Y-99706755D01*
X157928308Y-99705276D01*
X157978663Y-99740033D01*
X157981476Y-99743905D01*
X158009515Y-99784528D01*
X158009516Y-99784529D01*
X158009517Y-99784530D01*
X158127760Y-99889283D01*
X158267635Y-99962696D01*
X158421015Y-100000500D01*
X158421018Y-100000500D01*
X158578982Y-100000500D01*
X158578985Y-100000500D01*
X158732365Y-99962696D01*
X158872240Y-99889283D01*
X158990483Y-99784530D01*
X159018524Y-99743904D01*
X159067140Y-99706755D01*
X159128308Y-99705276D01*
X159178663Y-99740033D01*
X159181476Y-99743905D01*
X159209515Y-99784528D01*
X159209516Y-99784529D01*
X159209517Y-99784530D01*
X159327760Y-99889283D01*
X159467635Y-99962696D01*
X159621015Y-100000500D01*
X159621018Y-100000500D01*
X159778982Y-100000500D01*
X159778985Y-100000500D01*
X159932365Y-99962696D01*
X160072240Y-99889283D01*
X160190483Y-99784530D01*
X160218524Y-99743904D01*
X160267140Y-99706755D01*
X160328308Y-99705276D01*
X160378663Y-99740033D01*
X160381476Y-99743905D01*
X160409515Y-99784528D01*
X160409516Y-99784529D01*
X160409517Y-99784530D01*
X160527760Y-99889283D01*
X160667635Y-99962696D01*
X160821015Y-100000500D01*
X160821018Y-100000500D01*
X160978982Y-100000500D01*
X160978985Y-100000500D01*
X161132365Y-99962696D01*
X161272240Y-99889283D01*
X161390483Y-99784530D01*
X161418524Y-99743904D01*
X161467140Y-99706755D01*
X161528308Y-99705276D01*
X161578663Y-99740033D01*
X161581476Y-99743905D01*
X161609515Y-99784528D01*
X161609516Y-99784529D01*
X161609517Y-99784530D01*
X161727760Y-99889283D01*
X161867635Y-99962696D01*
X162021015Y-100000500D01*
X162021018Y-100000500D01*
X162178982Y-100000500D01*
X162178985Y-100000500D01*
X162332365Y-99962696D01*
X162472240Y-99889283D01*
X162590483Y-99784530D01*
X162680220Y-99654523D01*
X162736237Y-99506818D01*
X162755278Y-99350000D01*
X162736237Y-99193182D01*
X162680220Y-99045477D01*
X162590486Y-98915474D01*
X162590484Y-98915471D01*
X162579900Y-98906094D01*
X162472240Y-98810717D01*
X162376976Y-98760718D01*
X162332364Y-98737303D01*
X162178987Y-98699500D01*
X162178985Y-98699500D01*
X162021015Y-98699500D01*
X162021012Y-98699500D01*
X161867635Y-98737303D01*
X161727758Y-98810718D01*
X161609514Y-98915472D01*
X161609512Y-98915474D01*
X161581475Y-98956094D01*
X161532859Y-98993244D01*
X161471691Y-98994722D01*
X161421337Y-98959965D01*
X161418525Y-98956094D01*
X161390487Y-98915474D01*
X161390485Y-98915472D01*
X161379899Y-98906094D01*
X161272240Y-98810717D01*
X161176976Y-98760718D01*
X161132364Y-98737303D01*
X160978987Y-98699500D01*
X160978985Y-98699500D01*
X160821015Y-98699500D01*
X160821012Y-98699500D01*
X160667635Y-98737303D01*
X160527758Y-98810718D01*
X160409514Y-98915472D01*
X160409512Y-98915474D01*
X160381475Y-98956094D01*
X160332859Y-98993244D01*
X160271691Y-98994722D01*
X160221337Y-98959965D01*
X160218525Y-98956094D01*
X160190487Y-98915474D01*
X160190485Y-98915472D01*
X160179899Y-98906094D01*
X160072240Y-98810717D01*
X159976976Y-98760718D01*
X159932364Y-98737303D01*
X159778987Y-98699500D01*
X159778985Y-98699500D01*
X159621015Y-98699500D01*
X159621012Y-98699500D01*
X159467635Y-98737303D01*
X159327758Y-98810718D01*
X159209514Y-98915472D01*
X159209512Y-98915474D01*
X159181475Y-98956094D01*
X159132859Y-98993244D01*
X159071691Y-98994722D01*
X159021337Y-98959965D01*
X159018525Y-98956094D01*
X158990487Y-98915474D01*
X158990485Y-98915472D01*
X158979899Y-98906094D01*
X158872240Y-98810717D01*
X158776976Y-98760718D01*
X158732364Y-98737303D01*
X158578987Y-98699500D01*
X158578985Y-98699500D01*
X158421015Y-98699500D01*
X158421012Y-98699500D01*
X158267635Y-98737303D01*
X158127758Y-98810718D01*
X158009514Y-98915472D01*
X158009512Y-98915474D01*
X157981475Y-98956094D01*
X157932859Y-98993244D01*
X157871691Y-98994722D01*
X157821337Y-98959965D01*
X157818525Y-98956094D01*
X157790487Y-98915474D01*
X157790485Y-98915472D01*
X157779899Y-98906094D01*
X157672240Y-98810717D01*
X157576976Y-98760718D01*
X157532364Y-98737303D01*
X157378987Y-98699500D01*
X157378985Y-98699500D01*
X157221015Y-98699500D01*
X157221012Y-98699500D01*
X157067635Y-98737303D01*
X156927758Y-98810718D01*
X156809514Y-98915472D01*
X156809512Y-98915474D01*
X156781475Y-98956094D01*
X156732859Y-98993244D01*
X156671691Y-98994722D01*
X156621337Y-98959965D01*
X156618525Y-98956094D01*
X156590487Y-98915474D01*
X156590485Y-98915472D01*
X156579899Y-98906094D01*
X156472240Y-98810717D01*
X156376976Y-98760718D01*
X156332364Y-98737303D01*
X156178987Y-98699500D01*
X156178985Y-98699500D01*
X156021015Y-98699500D01*
X156021012Y-98699500D01*
X155867635Y-98737303D01*
X155727758Y-98810718D01*
X155609515Y-98915471D01*
X155519780Y-99045476D01*
X155463763Y-99193182D01*
X155463762Y-99193183D01*
X155444722Y-99349998D01*
X155444722Y-99350001D01*
X144455278Y-99350001D01*
X144455278Y-99350000D01*
X144436237Y-99193182D01*
X144380220Y-99045477D01*
X144290486Y-98915474D01*
X144290484Y-98915471D01*
X144279900Y-98906094D01*
X144172240Y-98810717D01*
X144076976Y-98760718D01*
X144032364Y-98737303D01*
X143878987Y-98699500D01*
X143878985Y-98699500D01*
X143721015Y-98699500D01*
X143721012Y-98699500D01*
X143567635Y-98737303D01*
X143427758Y-98810718D01*
X143309514Y-98915472D01*
X143309512Y-98915474D01*
X143281475Y-98956094D01*
X143232859Y-98993244D01*
X143171691Y-98994722D01*
X143121337Y-98959965D01*
X143118525Y-98956094D01*
X143090487Y-98915474D01*
X143090485Y-98915472D01*
X143079899Y-98906094D01*
X142972240Y-98810717D01*
X142876976Y-98760718D01*
X142832364Y-98737303D01*
X142678987Y-98699500D01*
X142678985Y-98699500D01*
X142521015Y-98699500D01*
X142521012Y-98699500D01*
X142367635Y-98737303D01*
X142227758Y-98810718D01*
X142109514Y-98915472D01*
X142109512Y-98915474D01*
X142081475Y-98956094D01*
X142032859Y-98993244D01*
X141971691Y-98994722D01*
X141921337Y-98959965D01*
X141918525Y-98956094D01*
X141890487Y-98915474D01*
X141890485Y-98915472D01*
X141879899Y-98906094D01*
X141772240Y-98810717D01*
X141676976Y-98760718D01*
X141632364Y-98737303D01*
X141478987Y-98699500D01*
X141478985Y-98699500D01*
X141321015Y-98699500D01*
X141321012Y-98699500D01*
X141167635Y-98737303D01*
X141027758Y-98810718D01*
X140909514Y-98915472D01*
X140909512Y-98915474D01*
X140881475Y-98956094D01*
X140832859Y-98993244D01*
X140771691Y-98994722D01*
X140721337Y-98959965D01*
X140718525Y-98956094D01*
X140690487Y-98915474D01*
X140690485Y-98915472D01*
X140679899Y-98906094D01*
X140572240Y-98810717D01*
X140476976Y-98760718D01*
X140432364Y-98737303D01*
X140278987Y-98699500D01*
X140278985Y-98699500D01*
X140121015Y-98699500D01*
X140121012Y-98699500D01*
X139967635Y-98737303D01*
X139827758Y-98810718D01*
X139709514Y-98915472D01*
X139709512Y-98915474D01*
X139681475Y-98956094D01*
X139632859Y-98993244D01*
X139571691Y-98994722D01*
X139521337Y-98959965D01*
X139518525Y-98956094D01*
X139490487Y-98915474D01*
X139490485Y-98915472D01*
X139479899Y-98906094D01*
X139372240Y-98810717D01*
X139276976Y-98760718D01*
X139232364Y-98737303D01*
X139078987Y-98699500D01*
X139078985Y-98699500D01*
X138921015Y-98699500D01*
X138921012Y-98699500D01*
X138767635Y-98737303D01*
X138627758Y-98810718D01*
X138509514Y-98915472D01*
X138509512Y-98915474D01*
X138481475Y-98956094D01*
X138432859Y-98993244D01*
X138371691Y-98994722D01*
X138321337Y-98959965D01*
X138318525Y-98956094D01*
X138290487Y-98915474D01*
X138290485Y-98915472D01*
X138279899Y-98906094D01*
X138172240Y-98810717D01*
X138076976Y-98760718D01*
X138032364Y-98737303D01*
X137878987Y-98699500D01*
X137878985Y-98699500D01*
X137721015Y-98699500D01*
X137721012Y-98699500D01*
X137567635Y-98737303D01*
X137427758Y-98810718D01*
X137309515Y-98915471D01*
X137219780Y-99045476D01*
X137163763Y-99193182D01*
X137163762Y-99193183D01*
X137144722Y-99349998D01*
X137144722Y-99350001D01*
X125899207Y-99350001D01*
X125905278Y-99300000D01*
X125886237Y-99143182D01*
X125830220Y-98995477D01*
X125740486Y-98865474D01*
X125740484Y-98865471D01*
X125622241Y-98760718D01*
X125622240Y-98760717D01*
X125552302Y-98724010D01*
X125482364Y-98687303D01*
X125328987Y-98649500D01*
X125328985Y-98649500D01*
X125171015Y-98649500D01*
X125171012Y-98649500D01*
X125017635Y-98687303D01*
X124877758Y-98760718D01*
X124759514Y-98865472D01*
X124759512Y-98865474D01*
X124731475Y-98906094D01*
X124682859Y-98943244D01*
X124621691Y-98944722D01*
X124571337Y-98909965D01*
X124568525Y-98906094D01*
X124540487Y-98865474D01*
X124540485Y-98865472D01*
X124422241Y-98760718D01*
X124422240Y-98760717D01*
X124352302Y-98724010D01*
X124282364Y-98687303D01*
X124128987Y-98649500D01*
X124128985Y-98649500D01*
X123971015Y-98649500D01*
X123971012Y-98649500D01*
X123817635Y-98687303D01*
X123677758Y-98760718D01*
X123559514Y-98865472D01*
X123559512Y-98865474D01*
X123531475Y-98906094D01*
X123482859Y-98943244D01*
X123421691Y-98944722D01*
X123371337Y-98909965D01*
X123368525Y-98906094D01*
X123340487Y-98865474D01*
X123340485Y-98865472D01*
X123222241Y-98760718D01*
X123222240Y-98760717D01*
X123152302Y-98724010D01*
X123082364Y-98687303D01*
X122928987Y-98649500D01*
X122928985Y-98649500D01*
X122771015Y-98649500D01*
X122771012Y-98649500D01*
X122617635Y-98687303D01*
X122477758Y-98760718D01*
X122359514Y-98865472D01*
X122359512Y-98865474D01*
X122331475Y-98906094D01*
X122282859Y-98943244D01*
X122221691Y-98944722D01*
X122171337Y-98909965D01*
X122168525Y-98906094D01*
X122140487Y-98865474D01*
X122140485Y-98865472D01*
X122022241Y-98760718D01*
X122022240Y-98760717D01*
X121952302Y-98724010D01*
X121882364Y-98687303D01*
X121728987Y-98649500D01*
X121728985Y-98649500D01*
X121571015Y-98649500D01*
X121571012Y-98649500D01*
X121417635Y-98687303D01*
X121277758Y-98760718D01*
X121159514Y-98865472D01*
X121159512Y-98865474D01*
X121131475Y-98906094D01*
X121082859Y-98943244D01*
X121021691Y-98944722D01*
X120971337Y-98909965D01*
X120968525Y-98906094D01*
X120940487Y-98865474D01*
X120940485Y-98865472D01*
X120822241Y-98760718D01*
X120822240Y-98760717D01*
X120752302Y-98724010D01*
X120682364Y-98687303D01*
X120528987Y-98649500D01*
X120528985Y-98649500D01*
X120371015Y-98649500D01*
X120371012Y-98649500D01*
X120217635Y-98687303D01*
X120077758Y-98760718D01*
X119959514Y-98865472D01*
X119959512Y-98865474D01*
X119931475Y-98906094D01*
X119882859Y-98943244D01*
X119821691Y-98944722D01*
X119771337Y-98909965D01*
X119768525Y-98906094D01*
X119740487Y-98865474D01*
X119740485Y-98865472D01*
X119622241Y-98760718D01*
X119622240Y-98760717D01*
X119552302Y-98724010D01*
X119482364Y-98687303D01*
X119328987Y-98649500D01*
X119328985Y-98649500D01*
X119171015Y-98649500D01*
X119171012Y-98649500D01*
X119017635Y-98687303D01*
X118877758Y-98760718D01*
X118759515Y-98865471D01*
X118669780Y-98995476D01*
X118613763Y-99143182D01*
X118613762Y-99143183D01*
X118594722Y-99299998D01*
X118594722Y-99300001D01*
X113300500Y-99300001D01*
X113300500Y-97450001D01*
X118594722Y-97450001D01*
X118613762Y-97606816D01*
X118613763Y-97606818D01*
X118650000Y-97702367D01*
X118669780Y-97754523D01*
X118759515Y-97884528D01*
X118759516Y-97884529D01*
X118759517Y-97884530D01*
X118877760Y-97989283D01*
X119017635Y-98062696D01*
X119171015Y-98100500D01*
X119171018Y-98100500D01*
X119328982Y-98100500D01*
X119328985Y-98100500D01*
X119482365Y-98062696D01*
X119622240Y-97989283D01*
X119740483Y-97884530D01*
X119768524Y-97843904D01*
X119817140Y-97806755D01*
X119878308Y-97805276D01*
X119928663Y-97840033D01*
X119931476Y-97843905D01*
X119959515Y-97884528D01*
X119959516Y-97884529D01*
X119959517Y-97884530D01*
X120077760Y-97989283D01*
X120217635Y-98062696D01*
X120371015Y-98100500D01*
X120371018Y-98100500D01*
X120528982Y-98100500D01*
X120528985Y-98100500D01*
X120682365Y-98062696D01*
X120822240Y-97989283D01*
X120940483Y-97884530D01*
X120968524Y-97843904D01*
X121017140Y-97806755D01*
X121078308Y-97805276D01*
X121128663Y-97840033D01*
X121131476Y-97843905D01*
X121159515Y-97884528D01*
X121159516Y-97884529D01*
X121159517Y-97884530D01*
X121277760Y-97989283D01*
X121417635Y-98062696D01*
X121571015Y-98100500D01*
X121571018Y-98100500D01*
X121728982Y-98100500D01*
X121728985Y-98100500D01*
X121882365Y-98062696D01*
X122022240Y-97989283D01*
X122140483Y-97884530D01*
X122168524Y-97843904D01*
X122217140Y-97806755D01*
X122278308Y-97805276D01*
X122328663Y-97840033D01*
X122331476Y-97843905D01*
X122359515Y-97884528D01*
X122359516Y-97884529D01*
X122359517Y-97884530D01*
X122477760Y-97989283D01*
X122617635Y-98062696D01*
X122771015Y-98100500D01*
X122771018Y-98100500D01*
X122928982Y-98100500D01*
X122928985Y-98100500D01*
X123082365Y-98062696D01*
X123222240Y-97989283D01*
X123340483Y-97884530D01*
X123368524Y-97843904D01*
X123417140Y-97806755D01*
X123478308Y-97805276D01*
X123528663Y-97840033D01*
X123531476Y-97843905D01*
X123559515Y-97884528D01*
X123559516Y-97884529D01*
X123559517Y-97884530D01*
X123677760Y-97989283D01*
X123817635Y-98062696D01*
X123971015Y-98100500D01*
X123971018Y-98100500D01*
X124128982Y-98100500D01*
X124128985Y-98100500D01*
X124282365Y-98062696D01*
X124422240Y-97989283D01*
X124540483Y-97884530D01*
X124568524Y-97843904D01*
X124617140Y-97806755D01*
X124678308Y-97805276D01*
X124728663Y-97840033D01*
X124731476Y-97843905D01*
X124759515Y-97884528D01*
X124759516Y-97884529D01*
X124759517Y-97884530D01*
X124877760Y-97989283D01*
X125017635Y-98062696D01*
X125171015Y-98100500D01*
X125171018Y-98100500D01*
X125328982Y-98100500D01*
X125328985Y-98100500D01*
X125482365Y-98062696D01*
X125622240Y-97989283D01*
X125740483Y-97884530D01*
X125830220Y-97754523D01*
X125886237Y-97606818D01*
X125899207Y-97500001D01*
X137144722Y-97500001D01*
X137163762Y-97656816D01*
X137163763Y-97656818D01*
X137200000Y-97752367D01*
X137219780Y-97804523D01*
X137309515Y-97934528D01*
X137309516Y-97934529D01*
X137309517Y-97934530D01*
X137427760Y-98039283D01*
X137567635Y-98112696D01*
X137721015Y-98150500D01*
X137721018Y-98150500D01*
X137878982Y-98150500D01*
X137878985Y-98150500D01*
X138032365Y-98112696D01*
X138172240Y-98039283D01*
X138290483Y-97934530D01*
X138318524Y-97893904D01*
X138367140Y-97856755D01*
X138428308Y-97855276D01*
X138478663Y-97890033D01*
X138481476Y-97893905D01*
X138509515Y-97934528D01*
X138509516Y-97934529D01*
X138509517Y-97934530D01*
X138627760Y-98039283D01*
X138767635Y-98112696D01*
X138921015Y-98150500D01*
X138921018Y-98150500D01*
X139078982Y-98150500D01*
X139078985Y-98150500D01*
X139232365Y-98112696D01*
X139372240Y-98039283D01*
X139490483Y-97934530D01*
X139518524Y-97893904D01*
X139567140Y-97856755D01*
X139628308Y-97855276D01*
X139678663Y-97890033D01*
X139681476Y-97893905D01*
X139709515Y-97934528D01*
X139709516Y-97934529D01*
X139709517Y-97934530D01*
X139827760Y-98039283D01*
X139967635Y-98112696D01*
X140121015Y-98150500D01*
X140121018Y-98150500D01*
X140278982Y-98150500D01*
X140278985Y-98150500D01*
X140432365Y-98112696D01*
X140572240Y-98039283D01*
X140690483Y-97934530D01*
X140718524Y-97893904D01*
X140767140Y-97856755D01*
X140828308Y-97855276D01*
X140878663Y-97890033D01*
X140881476Y-97893905D01*
X140909515Y-97934528D01*
X140909516Y-97934529D01*
X140909517Y-97934530D01*
X141027760Y-98039283D01*
X141167635Y-98112696D01*
X141321015Y-98150500D01*
X141321018Y-98150500D01*
X141478982Y-98150500D01*
X141478985Y-98150500D01*
X141632365Y-98112696D01*
X141772240Y-98039283D01*
X141890483Y-97934530D01*
X141918524Y-97893904D01*
X141967140Y-97856755D01*
X142028308Y-97855276D01*
X142078663Y-97890033D01*
X142081476Y-97893905D01*
X142109515Y-97934528D01*
X142109516Y-97934529D01*
X142109517Y-97934530D01*
X142227760Y-98039283D01*
X142367635Y-98112696D01*
X142521015Y-98150500D01*
X142521018Y-98150500D01*
X142678982Y-98150500D01*
X142678985Y-98150500D01*
X142832365Y-98112696D01*
X142972240Y-98039283D01*
X143090483Y-97934530D01*
X143118524Y-97893904D01*
X143167140Y-97856755D01*
X143228308Y-97855276D01*
X143278663Y-97890033D01*
X143281476Y-97893905D01*
X143309515Y-97934528D01*
X143309516Y-97934529D01*
X143309517Y-97934530D01*
X143427760Y-98039283D01*
X143567635Y-98112696D01*
X143721015Y-98150500D01*
X143721018Y-98150500D01*
X143878982Y-98150500D01*
X143878985Y-98150500D01*
X144032365Y-98112696D01*
X144172240Y-98039283D01*
X144290483Y-97934530D01*
X144380220Y-97804523D01*
X144436237Y-97656818D01*
X144455278Y-97500001D01*
X155444722Y-97500001D01*
X155463762Y-97656816D01*
X155463763Y-97656818D01*
X155500000Y-97752367D01*
X155519780Y-97804523D01*
X155609515Y-97934528D01*
X155609516Y-97934529D01*
X155609517Y-97934530D01*
X155727760Y-98039283D01*
X155867635Y-98112696D01*
X156021015Y-98150500D01*
X156021018Y-98150500D01*
X156178982Y-98150500D01*
X156178985Y-98150500D01*
X156332365Y-98112696D01*
X156472240Y-98039283D01*
X156590483Y-97934530D01*
X156618524Y-97893904D01*
X156667140Y-97856755D01*
X156728308Y-97855276D01*
X156778663Y-97890033D01*
X156781476Y-97893905D01*
X156809515Y-97934528D01*
X156809516Y-97934529D01*
X156809517Y-97934530D01*
X156927760Y-98039283D01*
X157067635Y-98112696D01*
X157221015Y-98150500D01*
X157221018Y-98150500D01*
X157378982Y-98150500D01*
X157378985Y-98150500D01*
X157532365Y-98112696D01*
X157672240Y-98039283D01*
X157790483Y-97934530D01*
X157818524Y-97893904D01*
X157867140Y-97856755D01*
X157928308Y-97855276D01*
X157978663Y-97890033D01*
X157981476Y-97893905D01*
X158009515Y-97934528D01*
X158009516Y-97934529D01*
X158009517Y-97934530D01*
X158127760Y-98039283D01*
X158267635Y-98112696D01*
X158421015Y-98150500D01*
X158421018Y-98150500D01*
X158578982Y-98150500D01*
X158578985Y-98150500D01*
X158732365Y-98112696D01*
X158872240Y-98039283D01*
X158990483Y-97934530D01*
X159018524Y-97893904D01*
X159067140Y-97856755D01*
X159128308Y-97855276D01*
X159178663Y-97890033D01*
X159181476Y-97893905D01*
X159209515Y-97934528D01*
X159209516Y-97934529D01*
X159209517Y-97934530D01*
X159327760Y-98039283D01*
X159467635Y-98112696D01*
X159621015Y-98150500D01*
X159621018Y-98150500D01*
X159778982Y-98150500D01*
X159778985Y-98150500D01*
X159932365Y-98112696D01*
X160072240Y-98039283D01*
X160190483Y-97934530D01*
X160218524Y-97893904D01*
X160267140Y-97856755D01*
X160328308Y-97855276D01*
X160378663Y-97890033D01*
X160381476Y-97893905D01*
X160409515Y-97934528D01*
X160409516Y-97934529D01*
X160409517Y-97934530D01*
X160527760Y-98039283D01*
X160667635Y-98112696D01*
X160821015Y-98150500D01*
X160821018Y-98150500D01*
X160978982Y-98150500D01*
X160978985Y-98150500D01*
X161132365Y-98112696D01*
X161272240Y-98039283D01*
X161390483Y-97934530D01*
X161418524Y-97893904D01*
X161467140Y-97856755D01*
X161528308Y-97855276D01*
X161578663Y-97890033D01*
X161581476Y-97893905D01*
X161609515Y-97934528D01*
X161609516Y-97934529D01*
X161609517Y-97934530D01*
X161727760Y-98039283D01*
X161867635Y-98112696D01*
X162021015Y-98150500D01*
X162021018Y-98150500D01*
X162178982Y-98150500D01*
X162178985Y-98150500D01*
X162332365Y-98112696D01*
X162472240Y-98039283D01*
X162590483Y-97934530D01*
X162680220Y-97804523D01*
X162736237Y-97656818D01*
X162755278Y-97500000D01*
X162736237Y-97343182D01*
X162680220Y-97195477D01*
X162590486Y-97065474D01*
X162590484Y-97065471D01*
X162579900Y-97056094D01*
X162472240Y-96960717D01*
X162376976Y-96910718D01*
X162332364Y-96887303D01*
X162178987Y-96849500D01*
X162178985Y-96849500D01*
X162021015Y-96849500D01*
X162021012Y-96849500D01*
X161867635Y-96887303D01*
X161727758Y-96960718D01*
X161609514Y-97065472D01*
X161609512Y-97065474D01*
X161581475Y-97106094D01*
X161532859Y-97143244D01*
X161471691Y-97144722D01*
X161421337Y-97109965D01*
X161418525Y-97106094D01*
X161390487Y-97065474D01*
X161390485Y-97065472D01*
X161379899Y-97056094D01*
X161272240Y-96960717D01*
X161176976Y-96910718D01*
X161132364Y-96887303D01*
X160978987Y-96849500D01*
X160978985Y-96849500D01*
X160821015Y-96849500D01*
X160821012Y-96849500D01*
X160667635Y-96887303D01*
X160527758Y-96960718D01*
X160409514Y-97065472D01*
X160409512Y-97065474D01*
X160381475Y-97106094D01*
X160332859Y-97143244D01*
X160271691Y-97144722D01*
X160221337Y-97109965D01*
X160218525Y-97106094D01*
X160190487Y-97065474D01*
X160190485Y-97065472D01*
X160179899Y-97056094D01*
X160072240Y-96960717D01*
X159976976Y-96910718D01*
X159932364Y-96887303D01*
X159778987Y-96849500D01*
X159778985Y-96849500D01*
X159621015Y-96849500D01*
X159621012Y-96849500D01*
X159467635Y-96887303D01*
X159327758Y-96960718D01*
X159209514Y-97065472D01*
X159209512Y-97065474D01*
X159181475Y-97106094D01*
X159132859Y-97143244D01*
X159071691Y-97144722D01*
X159021337Y-97109965D01*
X159018525Y-97106094D01*
X158990487Y-97065474D01*
X158990485Y-97065472D01*
X158979899Y-97056094D01*
X158872240Y-96960717D01*
X158776976Y-96910718D01*
X158732364Y-96887303D01*
X158578987Y-96849500D01*
X158578985Y-96849500D01*
X158421015Y-96849500D01*
X158421012Y-96849500D01*
X158267635Y-96887303D01*
X158127758Y-96960718D01*
X158009514Y-97065472D01*
X158009512Y-97065474D01*
X157981475Y-97106094D01*
X157932859Y-97143244D01*
X157871691Y-97144722D01*
X157821337Y-97109965D01*
X157818525Y-97106094D01*
X157790487Y-97065474D01*
X157790485Y-97065472D01*
X157779899Y-97056094D01*
X157672240Y-96960717D01*
X157576976Y-96910718D01*
X157532364Y-96887303D01*
X157378987Y-96849500D01*
X157378985Y-96849500D01*
X157221015Y-96849500D01*
X157221012Y-96849500D01*
X157067635Y-96887303D01*
X156927758Y-96960718D01*
X156809514Y-97065472D01*
X156809512Y-97065474D01*
X156781475Y-97106094D01*
X156732859Y-97143244D01*
X156671691Y-97144722D01*
X156621337Y-97109965D01*
X156618525Y-97106094D01*
X156590487Y-97065474D01*
X156590485Y-97065472D01*
X156579899Y-97056094D01*
X156472240Y-96960717D01*
X156376976Y-96910718D01*
X156332364Y-96887303D01*
X156178987Y-96849500D01*
X156178985Y-96849500D01*
X156021015Y-96849500D01*
X156021012Y-96849500D01*
X155867635Y-96887303D01*
X155727758Y-96960718D01*
X155609515Y-97065471D01*
X155519780Y-97195476D01*
X155463763Y-97343182D01*
X155463762Y-97343183D01*
X155444722Y-97499998D01*
X155444722Y-97500001D01*
X144455278Y-97500001D01*
X144455278Y-97500000D01*
X144436237Y-97343182D01*
X144380220Y-97195477D01*
X144290486Y-97065474D01*
X144290484Y-97065471D01*
X144279900Y-97056094D01*
X144172240Y-96960717D01*
X144076976Y-96910718D01*
X144032364Y-96887303D01*
X143878987Y-96849500D01*
X143878985Y-96849500D01*
X143721015Y-96849500D01*
X143721012Y-96849500D01*
X143567635Y-96887303D01*
X143427758Y-96960718D01*
X143309514Y-97065472D01*
X143309512Y-97065474D01*
X143281475Y-97106094D01*
X143232859Y-97143244D01*
X143171691Y-97144722D01*
X143121337Y-97109965D01*
X143118525Y-97106094D01*
X143090487Y-97065474D01*
X143090485Y-97065472D01*
X143079899Y-97056094D01*
X142972240Y-96960717D01*
X142876976Y-96910718D01*
X142832364Y-96887303D01*
X142678987Y-96849500D01*
X142678985Y-96849500D01*
X142521015Y-96849500D01*
X142521012Y-96849500D01*
X142367635Y-96887303D01*
X142227758Y-96960718D01*
X142109514Y-97065472D01*
X142109512Y-97065474D01*
X142081475Y-97106094D01*
X142032859Y-97143244D01*
X141971691Y-97144722D01*
X141921337Y-97109965D01*
X141918525Y-97106094D01*
X141890487Y-97065474D01*
X141890485Y-97065472D01*
X141879899Y-97056094D01*
X141772240Y-96960717D01*
X141676976Y-96910718D01*
X141632364Y-96887303D01*
X141478987Y-96849500D01*
X141478985Y-96849500D01*
X141321015Y-96849500D01*
X141321012Y-96849500D01*
X141167635Y-96887303D01*
X141027758Y-96960718D01*
X140909514Y-97065472D01*
X140909512Y-97065474D01*
X140881475Y-97106094D01*
X140832859Y-97143244D01*
X140771691Y-97144722D01*
X140721337Y-97109965D01*
X140718525Y-97106094D01*
X140690487Y-97065474D01*
X140690485Y-97065472D01*
X140679899Y-97056094D01*
X140572240Y-96960717D01*
X140476976Y-96910718D01*
X140432364Y-96887303D01*
X140278987Y-96849500D01*
X140278985Y-96849500D01*
X140121015Y-96849500D01*
X140121012Y-96849500D01*
X139967635Y-96887303D01*
X139827758Y-96960718D01*
X139709514Y-97065472D01*
X139709512Y-97065474D01*
X139681475Y-97106094D01*
X139632859Y-97143244D01*
X139571691Y-97144722D01*
X139521337Y-97109965D01*
X139518525Y-97106094D01*
X139490487Y-97065474D01*
X139490485Y-97065472D01*
X139479899Y-97056094D01*
X139372240Y-96960717D01*
X139276976Y-96910718D01*
X139232364Y-96887303D01*
X139078987Y-96849500D01*
X139078985Y-96849500D01*
X138921015Y-96849500D01*
X138921012Y-96849500D01*
X138767635Y-96887303D01*
X138627758Y-96960718D01*
X138509514Y-97065472D01*
X138509512Y-97065474D01*
X138481475Y-97106094D01*
X138432859Y-97143244D01*
X138371691Y-97144722D01*
X138321337Y-97109965D01*
X138318525Y-97106094D01*
X138290487Y-97065474D01*
X138290485Y-97065472D01*
X138279899Y-97056094D01*
X138172240Y-96960717D01*
X138076976Y-96910718D01*
X138032364Y-96887303D01*
X137878987Y-96849500D01*
X137878985Y-96849500D01*
X137721015Y-96849500D01*
X137721012Y-96849500D01*
X137567635Y-96887303D01*
X137427758Y-96960718D01*
X137309515Y-97065471D01*
X137219780Y-97195476D01*
X137163763Y-97343182D01*
X137163762Y-97343183D01*
X137144722Y-97499998D01*
X137144722Y-97500001D01*
X125899207Y-97500001D01*
X125905278Y-97450000D01*
X125886237Y-97293182D01*
X125830220Y-97145477D01*
X125740486Y-97015474D01*
X125740484Y-97015471D01*
X125622241Y-96910718D01*
X125622240Y-96910717D01*
X125552302Y-96874010D01*
X125482364Y-96837303D01*
X125328987Y-96799500D01*
X125328985Y-96799500D01*
X125171015Y-96799500D01*
X125171012Y-96799500D01*
X125017635Y-96837303D01*
X124877758Y-96910718D01*
X124759514Y-97015472D01*
X124759512Y-97015474D01*
X124731475Y-97056094D01*
X124682859Y-97093244D01*
X124621691Y-97094722D01*
X124571337Y-97059965D01*
X124568525Y-97056094D01*
X124540487Y-97015474D01*
X124540485Y-97015472D01*
X124422241Y-96910718D01*
X124422240Y-96910717D01*
X124352302Y-96874010D01*
X124282364Y-96837303D01*
X124128987Y-96799500D01*
X124128985Y-96799500D01*
X123971015Y-96799500D01*
X123971012Y-96799500D01*
X123817635Y-96837303D01*
X123677758Y-96910718D01*
X123559514Y-97015472D01*
X123559512Y-97015474D01*
X123531475Y-97056094D01*
X123482859Y-97093244D01*
X123421691Y-97094722D01*
X123371337Y-97059965D01*
X123368525Y-97056094D01*
X123340487Y-97015474D01*
X123340485Y-97015472D01*
X123222241Y-96910718D01*
X123222240Y-96910717D01*
X123152302Y-96874010D01*
X123082364Y-96837303D01*
X122928987Y-96799500D01*
X122928985Y-96799500D01*
X122771015Y-96799500D01*
X122771012Y-96799500D01*
X122617635Y-96837303D01*
X122477758Y-96910718D01*
X122359514Y-97015472D01*
X122359512Y-97015474D01*
X122331475Y-97056094D01*
X122282859Y-97093244D01*
X122221691Y-97094722D01*
X122171337Y-97059965D01*
X122168525Y-97056094D01*
X122140487Y-97015474D01*
X122140485Y-97015472D01*
X122022241Y-96910718D01*
X122022240Y-96910717D01*
X121952302Y-96874010D01*
X121882364Y-96837303D01*
X121728987Y-96799500D01*
X121728985Y-96799500D01*
X121571015Y-96799500D01*
X121571012Y-96799500D01*
X121417635Y-96837303D01*
X121277758Y-96910718D01*
X121159514Y-97015472D01*
X121159512Y-97015474D01*
X121131475Y-97056094D01*
X121082859Y-97093244D01*
X121021691Y-97094722D01*
X120971337Y-97059965D01*
X120968525Y-97056094D01*
X120940487Y-97015474D01*
X120940485Y-97015472D01*
X120822241Y-96910718D01*
X120822240Y-96910717D01*
X120752302Y-96874010D01*
X120682364Y-96837303D01*
X120528987Y-96799500D01*
X120528985Y-96799500D01*
X120371015Y-96799500D01*
X120371012Y-96799500D01*
X120217635Y-96837303D01*
X120077758Y-96910718D01*
X119959514Y-97015472D01*
X119959512Y-97015474D01*
X119931475Y-97056094D01*
X119882859Y-97093244D01*
X119821691Y-97094722D01*
X119771337Y-97059965D01*
X119768525Y-97056094D01*
X119740487Y-97015474D01*
X119740485Y-97015472D01*
X119622241Y-96910718D01*
X119622240Y-96910717D01*
X119552302Y-96874010D01*
X119482364Y-96837303D01*
X119328987Y-96799500D01*
X119328985Y-96799500D01*
X119171015Y-96799500D01*
X119171012Y-96799500D01*
X119017635Y-96837303D01*
X118877758Y-96910718D01*
X118759515Y-97015471D01*
X118669780Y-97145476D01*
X118613763Y-97293182D01*
X118613762Y-97293183D01*
X118594722Y-97449998D01*
X118594722Y-97450001D01*
X113300500Y-97450001D01*
X113300500Y-79450001D01*
X152869722Y-79450001D01*
X152888762Y-79606816D01*
X152888763Y-79606817D01*
X152944780Y-79754523D01*
X153034515Y-79884528D01*
X153034516Y-79884529D01*
X153034517Y-79884530D01*
X153152760Y-79989283D01*
X153292635Y-80062696D01*
X153446015Y-80100500D01*
X153446018Y-80100500D01*
X153603982Y-80100500D01*
X153603985Y-80100500D01*
X153757365Y-80062696D01*
X153897240Y-79989283D01*
X154015483Y-79884530D01*
X154105220Y-79754523D01*
X154161237Y-79606818D01*
X154180278Y-79450000D01*
X154161237Y-79293182D01*
X154105220Y-79145477D01*
X154015483Y-79015470D01*
X153897240Y-78910717D01*
X153827302Y-78874010D01*
X153757364Y-78837303D01*
X153603987Y-78799500D01*
X153603985Y-78799500D01*
X153446015Y-78799500D01*
X153446012Y-78799500D01*
X153292635Y-78837303D01*
X153152758Y-78910718D01*
X153034515Y-79015471D01*
X152944780Y-79145476D01*
X152888763Y-79293182D01*
X152888762Y-79293183D01*
X152869722Y-79449998D01*
X152869722Y-79450001D01*
X113300500Y-79450001D01*
X113300500Y-74675002D01*
X128044610Y-74675002D01*
X128064067Y-74810337D01*
X128064069Y-74810345D01*
X128120868Y-74934715D01*
X128120869Y-74934716D01*
X128120870Y-74934718D01*
X128210411Y-75038055D01*
X128325439Y-75111978D01*
X128456633Y-75150500D01*
X128456634Y-75150500D01*
X128593366Y-75150500D01*
X128593367Y-75150500D01*
X128724561Y-75111978D01*
X128839589Y-75038055D01*
X128929130Y-74934718D01*
X128985931Y-74810342D01*
X128989525Y-74785345D01*
X129005390Y-74675002D01*
X129005390Y-74674997D01*
X128987419Y-74550002D01*
X146519610Y-74550002D01*
X146539067Y-74685337D01*
X146539069Y-74685345D01*
X146595868Y-74809715D01*
X146595869Y-74809716D01*
X146595870Y-74809718D01*
X146685411Y-74913055D01*
X146800439Y-74986978D01*
X146931633Y-75025500D01*
X146931634Y-75025500D01*
X147068366Y-75025500D01*
X147068367Y-75025500D01*
X147199561Y-74986978D01*
X147314589Y-74913055D01*
X147404130Y-74809718D01*
X147460931Y-74685342D01*
X147462418Y-74675000D01*
X147466012Y-74650002D01*
X164669610Y-74650002D01*
X164689067Y-74785337D01*
X164689069Y-74785345D01*
X164745868Y-74909715D01*
X164745869Y-74909716D01*
X164745870Y-74909718D01*
X164835411Y-75013055D01*
X164950439Y-75086978D01*
X165081633Y-75125500D01*
X165081634Y-75125500D01*
X165218366Y-75125500D01*
X165218367Y-75125500D01*
X165349561Y-75086978D01*
X165464589Y-75013055D01*
X165554130Y-74909718D01*
X165582530Y-74847529D01*
X165610930Y-74785345D01*
X165610932Y-74785337D01*
X165630390Y-74650002D01*
X165630390Y-74649997D01*
X165610932Y-74514662D01*
X165610930Y-74514654D01*
X165554131Y-74390284D01*
X165554130Y-74390283D01*
X165554130Y-74390282D01*
X165464589Y-74286945D01*
X165349561Y-74213022D01*
X165349558Y-74213021D01*
X165218368Y-74174500D01*
X165218367Y-74174500D01*
X165081633Y-74174500D01*
X165081631Y-74174500D01*
X164950441Y-74213021D01*
X164950439Y-74213021D01*
X164950439Y-74213022D01*
X164835411Y-74286945D01*
X164835410Y-74286945D01*
X164835410Y-74286946D01*
X164745868Y-74390284D01*
X164689069Y-74514654D01*
X164689067Y-74514662D01*
X164669610Y-74649997D01*
X164669610Y-74650002D01*
X147466012Y-74650002D01*
X147480390Y-74550002D01*
X147480390Y-74549997D01*
X147460932Y-74414662D01*
X147460930Y-74414654D01*
X147404131Y-74290284D01*
X147404130Y-74290283D01*
X147404130Y-74290282D01*
X147314589Y-74186945D01*
X147199561Y-74113022D01*
X147199558Y-74113021D01*
X147068368Y-74074500D01*
X147068367Y-74074500D01*
X146931633Y-74074500D01*
X146931631Y-74074500D01*
X146800441Y-74113021D01*
X146800439Y-74113021D01*
X146800439Y-74113022D01*
X146685411Y-74186945D01*
X146685410Y-74186945D01*
X146685410Y-74186946D01*
X146595868Y-74290284D01*
X146539069Y-74414654D01*
X146539067Y-74414662D01*
X146519610Y-74549997D01*
X146519610Y-74550002D01*
X128987419Y-74550002D01*
X128985932Y-74539662D01*
X128985930Y-74539654D01*
X128929131Y-74415284D01*
X128929130Y-74415283D01*
X128929130Y-74415282D01*
X128839589Y-74311945D01*
X128724561Y-74238022D01*
X128724558Y-74238021D01*
X128593368Y-74199500D01*
X128593367Y-74199500D01*
X128456633Y-74199500D01*
X128456631Y-74199500D01*
X128325441Y-74238021D01*
X128325439Y-74238021D01*
X128325439Y-74238022D01*
X128210411Y-74311945D01*
X128210410Y-74311945D01*
X128210410Y-74311946D01*
X128120868Y-74415284D01*
X128064069Y-74539654D01*
X128064067Y-74539662D01*
X128044610Y-74674997D01*
X128044610Y-74675002D01*
X113300500Y-74675002D01*
X113300500Y-72949999D01*
X134044965Y-72949999D01*
X134063026Y-73087183D01*
X134071158Y-73106817D01*
X134115976Y-73215018D01*
X134200209Y-73324791D01*
X134309982Y-73409024D01*
X134437817Y-73461974D01*
X134575000Y-73480035D01*
X134712183Y-73461974D01*
X134840018Y-73409024D01*
X134949791Y-73324791D01*
X135034024Y-73215018D01*
X135086974Y-73087183D01*
X135105035Y-72950001D01*
X151144722Y-72950001D01*
X151163762Y-73106816D01*
X151163763Y-73106817D01*
X151219780Y-73254523D01*
X151309515Y-73384528D01*
X151309516Y-73384529D01*
X151309517Y-73384530D01*
X151427760Y-73489283D01*
X151567635Y-73562696D01*
X151721015Y-73600500D01*
X151721018Y-73600500D01*
X151878982Y-73600500D01*
X151878985Y-73600500D01*
X152032365Y-73562696D01*
X152172240Y-73489283D01*
X152290483Y-73384530D01*
X152380220Y-73254523D01*
X152436237Y-73106818D01*
X152455278Y-72950001D01*
X152869722Y-72950001D01*
X152888762Y-73106816D01*
X152888763Y-73106817D01*
X152944780Y-73254523D01*
X153034515Y-73384528D01*
X153034516Y-73384529D01*
X153034517Y-73384530D01*
X153152760Y-73489283D01*
X153292635Y-73562696D01*
X153446015Y-73600500D01*
X153446018Y-73600500D01*
X153603982Y-73600500D01*
X153603985Y-73600500D01*
X153757365Y-73562696D01*
X153897240Y-73489283D01*
X154015483Y-73384530D01*
X154105220Y-73254523D01*
X154161237Y-73106818D01*
X154180278Y-72950001D01*
X169344722Y-72950001D01*
X169363762Y-73106816D01*
X169363763Y-73106817D01*
X169419780Y-73254523D01*
X169509515Y-73384528D01*
X169509516Y-73384529D01*
X169509517Y-73384530D01*
X169627760Y-73489283D01*
X169767635Y-73562696D01*
X169921015Y-73600500D01*
X169921018Y-73600500D01*
X170078982Y-73600500D01*
X170078985Y-73600500D01*
X170232365Y-73562696D01*
X170372240Y-73489283D01*
X170490483Y-73384530D01*
X170580220Y-73254523D01*
X170636237Y-73106818D01*
X170655278Y-72950000D01*
X170636237Y-72793182D01*
X170580220Y-72645477D01*
X170490483Y-72515470D01*
X170372240Y-72410717D01*
X170302302Y-72374010D01*
X170232364Y-72337303D01*
X170078987Y-72299500D01*
X170078985Y-72299500D01*
X169921015Y-72299500D01*
X169921012Y-72299500D01*
X169767635Y-72337303D01*
X169627758Y-72410718D01*
X169509515Y-72515471D01*
X169419780Y-72645476D01*
X169363763Y-72793182D01*
X169363762Y-72793183D01*
X169344722Y-72949998D01*
X169344722Y-72950001D01*
X154180278Y-72950001D01*
X154180278Y-72950000D01*
X154161237Y-72793182D01*
X154105220Y-72645477D01*
X154015483Y-72515470D01*
X153897240Y-72410717D01*
X153827302Y-72374010D01*
X153757364Y-72337303D01*
X153603987Y-72299500D01*
X153603985Y-72299500D01*
X153446015Y-72299500D01*
X153446012Y-72299500D01*
X153292635Y-72337303D01*
X153152758Y-72410718D01*
X153034515Y-72515471D01*
X152944780Y-72645476D01*
X152888763Y-72793182D01*
X152888762Y-72793183D01*
X152869722Y-72949998D01*
X152869722Y-72950001D01*
X152455278Y-72950001D01*
X152455278Y-72950000D01*
X152436237Y-72793182D01*
X152380220Y-72645477D01*
X152290483Y-72515470D01*
X152172240Y-72410717D01*
X152102302Y-72374010D01*
X152032364Y-72337303D01*
X151878987Y-72299500D01*
X151878985Y-72299500D01*
X151721015Y-72299500D01*
X151721012Y-72299500D01*
X151567635Y-72337303D01*
X151427758Y-72410718D01*
X151309515Y-72515471D01*
X151219780Y-72645476D01*
X151163763Y-72793182D01*
X151163762Y-72793183D01*
X151144722Y-72949998D01*
X151144722Y-72950001D01*
X135105035Y-72950001D01*
X135105035Y-72950000D01*
X135086974Y-72812817D01*
X135078841Y-72793183D01*
X135034025Y-72684986D01*
X135034024Y-72684983D01*
X134949791Y-72575209D01*
X134949789Y-72575208D01*
X134949789Y-72575207D01*
X134840018Y-72490976D01*
X134840014Y-72490974D01*
X134712183Y-72438026D01*
X134712182Y-72438025D01*
X134575000Y-72419965D01*
X134574999Y-72419965D01*
X134437816Y-72438025D01*
X134437816Y-72438026D01*
X134309986Y-72490974D01*
X134309982Y-72490976D01*
X134200211Y-72575207D01*
X134200207Y-72575211D01*
X134115976Y-72684982D01*
X134115974Y-72684986D01*
X134063026Y-72812816D01*
X134063025Y-72812816D01*
X134044965Y-72949999D01*
X113300500Y-72949999D01*
X113300500Y-66899999D01*
X114794506Y-66899999D01*
X114814468Y-67268197D01*
X114874126Y-67632087D01*
X114972768Y-67987365D01*
X114972772Y-67987376D01*
X115109255Y-68329927D01*
X115109257Y-68329930D01*
X115281978Y-68655716D01*
X115488910Y-68960917D01*
X115488914Y-68960922D01*
X115488915Y-68960923D01*
X115727622Y-69241951D01*
X115727632Y-69241961D01*
X115995326Y-69495535D01*
X115995330Y-69495538D01*
X116288881Y-69718690D01*
X116604838Y-69908795D01*
X116939497Y-70063625D01*
X117288934Y-70181364D01*
X117288939Y-70181365D01*
X117288942Y-70181366D01*
X117649047Y-70260631D01*
X117649048Y-70260631D01*
X117649052Y-70260632D01*
X118015630Y-70300500D01*
X118384370Y-70300500D01*
X118750948Y-70260632D01*
X119111057Y-70181366D01*
X119111058Y-70181366D01*
X119111060Y-70181365D01*
X119111066Y-70181364D01*
X119460503Y-70063625D01*
X119795162Y-69908795D01*
X120111119Y-69718690D01*
X120404670Y-69495538D01*
X120672373Y-69241956D01*
X120911090Y-68960917D01*
X121118022Y-68655716D01*
X121290743Y-68329930D01*
X121427227Y-67987379D01*
X121525875Y-67632081D01*
X121585531Y-67268199D01*
X121605494Y-66900000D01*
X121585531Y-66531801D01*
X121525875Y-66167919D01*
X121493136Y-66050003D01*
X136894532Y-66050003D01*
X136914363Y-66276684D01*
X136973262Y-66496500D01*
X137069426Y-66702723D01*
X137069434Y-66702737D01*
X137199946Y-66889130D01*
X137199947Y-66889132D01*
X137199950Y-66889135D01*
X137199953Y-66889139D01*
X137360861Y-67050047D01*
X137360864Y-67050049D01*
X137360867Y-67050052D01*
X137360869Y-67050053D01*
X137485130Y-67137060D01*
X137547266Y-67180568D01*
X137547272Y-67180571D01*
X137547276Y-67180573D01*
X137753500Y-67276737D01*
X137753504Y-67276739D01*
X137973308Y-67335635D01*
X137973312Y-67335635D01*
X137973315Y-67335636D01*
X138199997Y-67355468D01*
X138200000Y-67355468D01*
X138200003Y-67355468D01*
X138426684Y-67335636D01*
X138426685Y-67335635D01*
X138426692Y-67335635D01*
X138646496Y-67276739D01*
X138852734Y-67180568D01*
X139039139Y-67050047D01*
X139200047Y-66889139D01*
X139330568Y-66702734D01*
X139426739Y-66496496D01*
X139485635Y-66276692D01*
X139495152Y-66167919D01*
X139505468Y-66050003D01*
X141894532Y-66050003D01*
X141914363Y-66276684D01*
X141973262Y-66496500D01*
X142069426Y-66702723D01*
X142069434Y-66702737D01*
X142199946Y-66889130D01*
X142199947Y-66889132D01*
X142199950Y-66889135D01*
X142199953Y-66889139D01*
X142360861Y-67050047D01*
X142360864Y-67050049D01*
X142360867Y-67050052D01*
X142360869Y-67050053D01*
X142485131Y-67137060D01*
X142547266Y-67180568D01*
X142547272Y-67180571D01*
X142547276Y-67180573D01*
X142753500Y-67276737D01*
X142753504Y-67276739D01*
X142973308Y-67335635D01*
X142973312Y-67335635D01*
X142973315Y-67335636D01*
X143199997Y-67355468D01*
X143200000Y-67355468D01*
X143200003Y-67355468D01*
X143426684Y-67335636D01*
X143426685Y-67335635D01*
X143426692Y-67335635D01*
X143646496Y-67276739D01*
X143852734Y-67180568D01*
X144039139Y-67050047D01*
X144200047Y-66889139D01*
X144330568Y-66702734D01*
X144426739Y-66496496D01*
X144485635Y-66276692D01*
X144495152Y-66167919D01*
X144505468Y-66050003D01*
X146894532Y-66050003D01*
X146914363Y-66276684D01*
X146973262Y-66496500D01*
X147069426Y-66702723D01*
X147069434Y-66702737D01*
X147199946Y-66889130D01*
X147199947Y-66889132D01*
X147199950Y-66889135D01*
X147199953Y-66889139D01*
X147360861Y-67050047D01*
X147360864Y-67050049D01*
X147360867Y-67050052D01*
X147360869Y-67050053D01*
X147485130Y-67137060D01*
X147547266Y-67180568D01*
X147547272Y-67180571D01*
X147547276Y-67180573D01*
X147753500Y-67276737D01*
X147753504Y-67276739D01*
X147973308Y-67335635D01*
X147973312Y-67335635D01*
X147973315Y-67335636D01*
X148199997Y-67355468D01*
X148200000Y-67355468D01*
X148200003Y-67355468D01*
X148426684Y-67335636D01*
X148426685Y-67335635D01*
X148426692Y-67335635D01*
X148646496Y-67276739D01*
X148852734Y-67180568D01*
X149039139Y-67050047D01*
X149189187Y-66899999D01*
X164794506Y-66899999D01*
X164814468Y-67268197D01*
X164874126Y-67632087D01*
X164972768Y-67987365D01*
X164972772Y-67987376D01*
X165109255Y-68329927D01*
X165109257Y-68329930D01*
X165281978Y-68655716D01*
X165488910Y-68960917D01*
X165488914Y-68960922D01*
X165488915Y-68960923D01*
X165727622Y-69241951D01*
X165727632Y-69241961D01*
X165995326Y-69495535D01*
X165995330Y-69495538D01*
X166288881Y-69718690D01*
X166604838Y-69908795D01*
X166939497Y-70063625D01*
X167288934Y-70181364D01*
X167288939Y-70181365D01*
X167288942Y-70181366D01*
X167649047Y-70260631D01*
X167649048Y-70260631D01*
X167649052Y-70260632D01*
X168015630Y-70300500D01*
X168384370Y-70300500D01*
X168750948Y-70260632D01*
X169111057Y-70181366D01*
X169111058Y-70181366D01*
X169111060Y-70181365D01*
X169111066Y-70181364D01*
X169460503Y-70063625D01*
X169795162Y-69908795D01*
X170111119Y-69718690D01*
X170404670Y-69495538D01*
X170672373Y-69241956D01*
X170911090Y-68960917D01*
X171118022Y-68655716D01*
X171290743Y-68329930D01*
X171427227Y-67987379D01*
X171525875Y-67632081D01*
X171585531Y-67268199D01*
X171605494Y-66900000D01*
X171585531Y-66531801D01*
X171525875Y-66167919D01*
X171493134Y-66049996D01*
X171427231Y-65812634D01*
X171427229Y-65812629D01*
X171427227Y-65812621D01*
X171290743Y-65470070D01*
X171118022Y-65144284D01*
X170911090Y-64839083D01*
X170693554Y-64582980D01*
X170672377Y-64558048D01*
X170672367Y-64558038D01*
X170404673Y-64304464D01*
X170111123Y-64081313D01*
X170111122Y-64081312D01*
X170111119Y-64081310D01*
X169795162Y-63891205D01*
X169678024Y-63837011D01*
X169460508Y-63736377D01*
X169460505Y-63736376D01*
X169460503Y-63736375D01*
X169111066Y-63618636D01*
X169111065Y-63618635D01*
X169111057Y-63618633D01*
X168750952Y-63539368D01*
X168750953Y-63539368D01*
X168384370Y-63499500D01*
X168015630Y-63499500D01*
X167649046Y-63539368D01*
X167288943Y-63618633D01*
X167288941Y-63618633D01*
X166939491Y-63736377D01*
X166604846Y-63891201D01*
X166604840Y-63891204D01*
X166288881Y-64081310D01*
X166288876Y-64081313D01*
X165995326Y-64304464D01*
X165727632Y-64558038D01*
X165727622Y-64558048D01*
X165488915Y-64839076D01*
X165488908Y-64839086D01*
X165281981Y-65144278D01*
X165109255Y-65470072D01*
X164972772Y-65812623D01*
X164972768Y-65812634D01*
X164874126Y-66167912D01*
X164814468Y-66531802D01*
X164794506Y-66899999D01*
X149189187Y-66899999D01*
X149200047Y-66889139D01*
X149330568Y-66702734D01*
X149426739Y-66496496D01*
X149485635Y-66276692D01*
X149495152Y-66167919D01*
X149505468Y-66050003D01*
X149505468Y-66049996D01*
X149485636Y-65823315D01*
X149485635Y-65823312D01*
X149485635Y-65823308D01*
X149426739Y-65603504D01*
X149426737Y-65603499D01*
X149330573Y-65397276D01*
X149330571Y-65397272D01*
X149330568Y-65397266D01*
X149200053Y-65210869D01*
X149200052Y-65210867D01*
X149200049Y-65210864D01*
X149200047Y-65210861D01*
X149039139Y-65049953D01*
X149039135Y-65049950D01*
X149039132Y-65049947D01*
X149039130Y-65049946D01*
X148852737Y-64919434D01*
X148852736Y-64919433D01*
X148852734Y-64919432D01*
X148852731Y-64919430D01*
X148852723Y-64919426D01*
X148646499Y-64823262D01*
X148646500Y-64823262D01*
X148470167Y-64776014D01*
X148426692Y-64764365D01*
X148426691Y-64764364D01*
X148426684Y-64764363D01*
X148200003Y-64744532D01*
X148199997Y-64744532D01*
X147973315Y-64764363D01*
X147753499Y-64823262D01*
X147547276Y-64919426D01*
X147547262Y-64919434D01*
X147360869Y-65049946D01*
X147360867Y-65049947D01*
X147199947Y-65210867D01*
X147199946Y-65210869D01*
X147069434Y-65397262D01*
X147069426Y-65397276D01*
X146973262Y-65603499D01*
X146914363Y-65823315D01*
X146894532Y-66049996D01*
X146894532Y-66050003D01*
X144505468Y-66050003D01*
X144505468Y-66049996D01*
X144485636Y-65823315D01*
X144485635Y-65823312D01*
X144485635Y-65823308D01*
X144426739Y-65603504D01*
X144426737Y-65603499D01*
X144330573Y-65397276D01*
X144330571Y-65397272D01*
X144330568Y-65397266D01*
X144200053Y-65210869D01*
X144200052Y-65210867D01*
X144200049Y-65210864D01*
X144200047Y-65210861D01*
X144039139Y-65049953D01*
X144039135Y-65049950D01*
X144039132Y-65049947D01*
X144039130Y-65049946D01*
X143852737Y-64919434D01*
X143852736Y-64919433D01*
X143852734Y-64919432D01*
X143852731Y-64919430D01*
X143852723Y-64919426D01*
X143646499Y-64823262D01*
X143646500Y-64823262D01*
X143470167Y-64776014D01*
X143426692Y-64764365D01*
X143426691Y-64764364D01*
X143426684Y-64764363D01*
X143200003Y-64744532D01*
X143199997Y-64744532D01*
X142973315Y-64764363D01*
X142753499Y-64823262D01*
X142547276Y-64919426D01*
X142547262Y-64919434D01*
X142360869Y-65049946D01*
X142360867Y-65049947D01*
X142199947Y-65210867D01*
X142199946Y-65210869D01*
X142069434Y-65397262D01*
X142069426Y-65397276D01*
X141973262Y-65603499D01*
X141914363Y-65823315D01*
X141894532Y-66049996D01*
X141894532Y-66050003D01*
X139505468Y-66050003D01*
X139505468Y-66049996D01*
X139485636Y-65823315D01*
X139485635Y-65823312D01*
X139485635Y-65823308D01*
X139426739Y-65603504D01*
X139426737Y-65603499D01*
X139330573Y-65397276D01*
X139330571Y-65397272D01*
X139330568Y-65397266D01*
X139200053Y-65210869D01*
X139200052Y-65210867D01*
X139200049Y-65210864D01*
X139200047Y-65210861D01*
X139039139Y-65049953D01*
X139039135Y-65049950D01*
X139039132Y-65049947D01*
X139039130Y-65049946D01*
X138852737Y-64919434D01*
X138852736Y-64919433D01*
X138852734Y-64919432D01*
X138852731Y-64919430D01*
X138852723Y-64919426D01*
X138646499Y-64823262D01*
X138646500Y-64823262D01*
X138470167Y-64776014D01*
X138426692Y-64764365D01*
X138426691Y-64764364D01*
X138426684Y-64764363D01*
X138200003Y-64744532D01*
X138199997Y-64744532D01*
X137973315Y-64764363D01*
X137753499Y-64823262D01*
X137547276Y-64919426D01*
X137547262Y-64919434D01*
X137360869Y-65049946D01*
X137360867Y-65049947D01*
X137199947Y-65210867D01*
X137199946Y-65210869D01*
X137069434Y-65397262D01*
X137069426Y-65397276D01*
X136973262Y-65603499D01*
X136914363Y-65823315D01*
X136894532Y-66049996D01*
X136894532Y-66050003D01*
X121493136Y-66050003D01*
X121493134Y-66049996D01*
X121427231Y-65812634D01*
X121427229Y-65812629D01*
X121427227Y-65812621D01*
X121290743Y-65470070D01*
X121118022Y-65144284D01*
X120911090Y-64839083D01*
X120693554Y-64582980D01*
X120672377Y-64558048D01*
X120672367Y-64558038D01*
X120404673Y-64304464D01*
X120111123Y-64081313D01*
X120111122Y-64081312D01*
X120111119Y-64081310D01*
X119795162Y-63891205D01*
X119678024Y-63837011D01*
X119460508Y-63736377D01*
X119460505Y-63736376D01*
X119460503Y-63736375D01*
X119111066Y-63618636D01*
X119111065Y-63618635D01*
X119111057Y-63618633D01*
X118750952Y-63539368D01*
X118750953Y-63539368D01*
X118384370Y-63499500D01*
X118015630Y-63499500D01*
X117649046Y-63539368D01*
X117288943Y-63618633D01*
X117288941Y-63618633D01*
X116939491Y-63736377D01*
X116604846Y-63891201D01*
X116604840Y-63891204D01*
X116288881Y-64081310D01*
X116288876Y-64081313D01*
X115995326Y-64304464D01*
X115727632Y-64558038D01*
X115727622Y-64558048D01*
X115488915Y-64839076D01*
X115488908Y-64839086D01*
X115281981Y-65144278D01*
X115109255Y-65470072D01*
X114972772Y-65812623D01*
X114972768Y-65812634D01*
X114874126Y-66167912D01*
X114814468Y-66531802D01*
X114794506Y-66899999D01*
X113300500Y-66899999D01*
X113300500Y-65101289D01*
X113300568Y-65098698D01*
X113301334Y-65084083D01*
X113317344Y-64778587D01*
X113317882Y-64773468D01*
X113367829Y-64458118D01*
X113368898Y-64453090D01*
X113451532Y-64144693D01*
X113453132Y-64139773D01*
X113539191Y-63915584D01*
X113567536Y-63841741D01*
X113569642Y-63837011D01*
X113714586Y-63552540D01*
X113717160Y-63548084D01*
X113891050Y-63280317D01*
X113894069Y-63276162D01*
X114094992Y-63028044D01*
X114098453Y-63024200D01*
X114324200Y-62798453D01*
X114328044Y-62794992D01*
X114576162Y-62594069D01*
X114580317Y-62591050D01*
X114848084Y-62417160D01*
X114852540Y-62414586D01*
X115137018Y-62269638D01*
X115141741Y-62267536D01*
X115439779Y-62153129D01*
X115444693Y-62151532D01*
X115753090Y-62068898D01*
X115758118Y-62067829D01*
X116073468Y-62017882D01*
X116078587Y-62017344D01*
X116398705Y-62000567D01*
X116401290Y-62000500D01*
X116426929Y-62000500D01*
X169973071Y-62000500D01*
X169998710Y-62000500D01*
X170001294Y-62000567D01*
G37*
%TD.AperFunction*%
%TD*%
M02*
