%TF.GenerationSoftware,KiCad,Pcbnew,7.0.7*%
%TF.CreationDate,2024-02-22T20:28:59+08:00*%
%TF.ProjectId,hardware,68617264-7761-4726-952e-6b696361645f,rev?*%
%TF.SameCoordinates,Original*%
%TF.FileFunction,Copper,L4,Bot*%
%TF.FilePolarity,Positive*%
%FSLAX46Y46*%
G04 Gerber Fmt 4.6, Leading zero omitted, Abs format (unit mm)*
G04 Created by KiCad (PCBNEW 7.0.7) date 2024-02-22 20:28:59*
%MOMM*%
%LPD*%
G01*
G04 APERTURE LIST*
%TA.AperFunction,ComponentPad*%
%ADD10C,2.200000*%
%TD*%
%TA.AperFunction,ComponentPad*%
%ADD11C,0.800000*%
%TD*%
%TA.AperFunction,ComponentPad*%
%ADD12C,6.400000*%
%TD*%
%TA.AperFunction,ComponentPad*%
%ADD13R,1.700000X1.700000*%
%TD*%
%TA.AperFunction,ComponentPad*%
%ADD14O,1.700000X1.700000*%
%TD*%
%TA.AperFunction,ViaPad*%
%ADD15C,0.800000*%
%TD*%
%TA.AperFunction,ViaPad*%
%ADD16C,0.550000*%
%TD*%
G04 APERTURE END LIST*
D10*
%TO.P,U6,1,1*%
%TO.N,/Bridge/IA_N*%
X138200000Y-66050000D03*
%TO.P,U6,2,2*%
%TO.N,/Bridge/IB_N*%
X143200000Y-66050000D03*
%TO.P,U6,3,3*%
%TO.N,/Bridge/IC_N*%
X148200000Y-66050000D03*
%TD*%
D11*
%TO.P,H1,1,1*%
%TO.N,unconnected-(H1-Pad1)*%
X115800000Y-136900000D03*
X116502944Y-135202944D03*
X116502944Y-138597056D03*
X118200000Y-134500000D03*
D12*
X118200000Y-136900000D03*
D11*
X118200000Y-139300000D03*
X119897056Y-135202944D03*
X119897056Y-138597056D03*
X120600000Y-136900000D03*
%TD*%
%TO.P,H2,1,1*%
%TO.N,unconnected-(H2-Pad1)*%
X165800000Y-66900000D03*
X166502944Y-65202944D03*
X166502944Y-68597056D03*
X168200000Y-64500000D03*
D12*
X168200000Y-66900000D03*
D11*
X168200000Y-69300000D03*
X169897056Y-65202944D03*
X169897056Y-68597056D03*
X170600000Y-66900000D03*
%TD*%
%TO.P,H4,1,1*%
%TO.N,unconnected-(H4-Pad1)*%
X165800000Y-136900000D03*
X166502944Y-135202944D03*
X166502944Y-138597056D03*
X168200000Y-134500000D03*
D12*
X168200000Y-136900000D03*
D11*
X168200000Y-139300000D03*
X169897056Y-135202944D03*
X169897056Y-138597056D03*
X170600000Y-136900000D03*
%TD*%
D10*
%TO.P,U4,1,1*%
%TO.N,/power/VIN*%
X118650000Y-123842500D03*
%TO.P,U4,2,2*%
%TO.N,GND*%
X118650000Y-128842500D03*
%TD*%
D11*
%TO.P,H3,1,1*%
%TO.N,unconnected-(H3-Pad1)*%
X115800000Y-66900000D03*
X116502944Y-65202944D03*
X116502944Y-68597056D03*
X118200000Y-64500000D03*
D12*
X118200000Y-66900000D03*
D11*
X118200000Y-69300000D03*
X119897056Y-65202944D03*
X119897056Y-68597056D03*
X120600000Y-66900000D03*
%TD*%
D13*
%TO.P,J2,1,Pin_1*%
%TO.N,GND*%
X135600000Y-140100000D03*
D14*
%TO.P,J2,2,Pin_2*%
%TO.N,/Bridge/PWM1*%
X135600000Y-137560000D03*
%TO.P,J2,3,Pin_3*%
%TO.N,GND*%
X138140000Y-140100000D03*
%TO.P,J2,4,Pin_4*%
%TO.N,/Bridge/PWM2*%
X138140000Y-137560000D03*
%TO.P,J2,5,Pin_5*%
%TO.N,GND*%
X140680000Y-140100000D03*
%TO.P,J2,6,Pin_6*%
%TO.N,/Bridge/PWM3*%
X140680000Y-137560000D03*
%TO.P,J2,7,Pin_7*%
%TO.N,unconnected-(J2-Pin_7-Pad7)*%
X143220000Y-140100000D03*
%TO.P,J2,8,Pin_8*%
%TO.N,unconnected-(J2-Pin_8-Pad8)*%
X143220000Y-137560000D03*
%TO.P,J2,9,Pin_9*%
%TO.N,+5V*%
X145760000Y-140100000D03*
%TO.P,J2,10,Pin_10*%
%TO.N,/interface/IA_OUT*%
X145760000Y-137560000D03*
%TO.P,J2,11,Pin_11*%
%TO.N,+5V*%
X148300000Y-140100000D03*
%TO.P,J2,12,Pin_12*%
%TO.N,/interface/IB_OUT*%
X148300000Y-137560000D03*
%TO.P,J2,13,Pin_13*%
%TO.N,+5V*%
X150840000Y-140100000D03*
%TO.P,J2,14,Pin_14*%
%TO.N,/interface/IC_OUT*%
X150840000Y-137560000D03*
%TD*%
D15*
%TO.N,GND*%
X157075000Y-87400000D03*
D16*
X167100000Y-123500000D03*
D15*
X155700000Y-109500000D03*
D16*
X148275000Y-74575000D03*
X164350000Y-121650000D03*
D15*
X137525000Y-91125000D03*
D16*
X137250000Y-109350000D03*
D15*
X131550000Y-110450000D03*
X150050000Y-108375000D03*
D16*
X165300000Y-121725000D03*
X137475000Y-118275000D03*
D15*
X157075000Y-90000000D03*
X155775000Y-90000000D03*
X157075000Y-88700000D03*
X155775000Y-86100000D03*
X155775000Y-92600000D03*
X118500000Y-110625000D03*
X155700000Y-108300000D03*
X137525000Y-88525000D03*
X120275000Y-92375000D03*
X118975000Y-91075000D03*
X157075000Y-92600000D03*
D16*
X154850000Y-113250000D03*
D15*
X167525000Y-108525000D03*
X118975000Y-87175000D03*
D16*
X154825000Y-122900000D03*
D15*
X148950000Y-108400000D03*
X118975000Y-92375000D03*
X155775000Y-91300000D03*
X137525000Y-92425000D03*
X118525000Y-109275000D03*
X155775000Y-87400000D03*
D16*
X151875000Y-74425000D03*
D15*
X118550000Y-108000000D03*
X167525000Y-109775000D03*
X167525000Y-107375000D03*
X120275000Y-88475000D03*
X150050000Y-109500000D03*
X157075000Y-91300000D03*
X137525000Y-89825000D03*
X138825000Y-87225000D03*
X120275000Y-85875000D03*
X120275000Y-91075000D03*
D16*
X137500000Y-124275000D03*
X137250000Y-108650000D03*
D15*
X138825000Y-92425000D03*
D16*
X149550000Y-129900000D03*
D15*
X138825000Y-88525000D03*
X137525000Y-85925000D03*
D16*
X158200000Y-126500000D03*
D15*
X131500000Y-109375000D03*
D16*
X145550000Y-126400000D03*
D15*
X138825000Y-89825000D03*
D16*
X137250000Y-107950000D03*
D15*
X131500000Y-108425000D03*
D16*
X146275000Y-126350000D03*
D15*
X118975000Y-85875000D03*
X118975000Y-88475000D03*
X138825000Y-91125000D03*
D16*
X147025000Y-77575000D03*
D15*
X148950000Y-109525000D03*
X155775000Y-88700000D03*
X138825000Y-85925000D03*
X157075000Y-86100000D03*
X137525000Y-87225000D03*
X120275000Y-87175000D03*
X118975000Y-89775000D03*
X120275000Y-89775000D03*
D16*
X153625000Y-122850000D03*
D15*
%TO.N,+5V*%
X152300000Y-122825000D03*
X152250000Y-127350000D03*
%TO.N,VDC*%
X122850000Y-104650000D03*
X125000000Y-136925000D03*
X123700000Y-134700000D03*
X122850000Y-102800000D03*
X139000000Y-97500000D03*
X137800000Y-99350000D03*
X125000000Y-130200000D03*
X125000000Y-127825000D03*
X137800000Y-101100000D03*
X121650000Y-99300000D03*
X143800000Y-97500000D03*
X157300000Y-97500000D03*
X159700000Y-102850000D03*
X141400000Y-97500000D03*
X158500000Y-101100000D03*
X126300000Y-132400000D03*
X142600000Y-104700000D03*
X119250000Y-101050000D03*
X142600000Y-97500000D03*
X119250000Y-104650000D03*
X157300000Y-104700000D03*
X157300000Y-101100000D03*
X159700000Y-101100000D03*
X127600000Y-130200000D03*
X158500000Y-102850000D03*
X121650000Y-102800000D03*
X141400000Y-101100000D03*
X125000000Y-134700000D03*
X156100000Y-104700000D03*
X126300000Y-130200000D03*
X143800000Y-102850000D03*
X157300000Y-102850000D03*
X121650000Y-101050000D03*
X139000000Y-101100000D03*
X125000000Y-132400000D03*
X127600000Y-134700000D03*
X143800000Y-104700000D03*
X160900000Y-99350000D03*
X123700000Y-132400000D03*
X124050000Y-102800000D03*
X120450000Y-99300000D03*
X123700000Y-130200000D03*
X142600000Y-102850000D03*
X127600000Y-127825000D03*
X125250000Y-97450000D03*
X137800000Y-104700000D03*
X162100000Y-99350000D03*
X141400000Y-99350000D03*
X121650000Y-97450000D03*
X137800000Y-102850000D03*
X124050000Y-97450000D03*
X125250000Y-99300000D03*
X142600000Y-101100000D03*
X158500000Y-99350000D03*
X158500000Y-97500000D03*
X143800000Y-99350000D03*
X160900000Y-102850000D03*
X121650000Y-104650000D03*
X119250000Y-102800000D03*
X162100000Y-102850000D03*
X126300000Y-127825000D03*
X158500000Y-104700000D03*
X125250000Y-101050000D03*
X159700000Y-104700000D03*
X124050000Y-104650000D03*
X141400000Y-104700000D03*
X138900000Y-132450000D03*
X142600000Y-99350000D03*
X123700000Y-127825000D03*
X143800000Y-101100000D03*
X125250000Y-104650000D03*
X122850000Y-99300000D03*
X127600000Y-132400000D03*
X156100000Y-97500000D03*
X141400000Y-102850000D03*
X140200000Y-99350000D03*
X120450000Y-104650000D03*
X160900000Y-97500000D03*
X124050000Y-99300000D03*
X139000000Y-104700000D03*
X160900000Y-101100000D03*
X139000000Y-102850000D03*
X122850000Y-97450000D03*
X156100000Y-102850000D03*
X156100000Y-101100000D03*
X140200000Y-101100000D03*
X162100000Y-97500000D03*
X139000000Y-99350000D03*
X159700000Y-97500000D03*
X140200000Y-102850000D03*
X125250000Y-102800000D03*
X140200000Y-97500000D03*
X119250000Y-99300000D03*
X156100000Y-99350000D03*
X127600000Y-136925000D03*
X126300000Y-136925000D03*
X119250000Y-97450000D03*
X159700000Y-99350000D03*
X120450000Y-97450000D03*
X162100000Y-104700000D03*
X124050000Y-101050000D03*
X162100000Y-101100000D03*
X120450000Y-101050000D03*
X140200000Y-104700000D03*
X122850000Y-101050000D03*
X137800000Y-97500000D03*
X120450000Y-102800000D03*
X160900000Y-104700000D03*
X157300000Y-99350000D03*
X123700000Y-136925000D03*
X126300000Y-134700000D03*
%TO.N,+3.3V*%
X153525000Y-72950000D03*
D16*
X144700000Y-114800000D03*
D15*
X151800000Y-72950000D03*
D16*
X148350000Y-114800000D03*
D15*
X153525000Y-79450000D03*
D16*
X134575000Y-72950000D03*
D15*
X170000000Y-72950000D03*
D16*
X146300000Y-114800000D03*
%TO.N,/Bridge/UA*%
X131300000Y-103025000D03*
X133675000Y-109050000D03*
%TO.N,/Bridge/UB*%
X148475000Y-104075000D03*
X136000000Y-111275000D03*
%TO.N,/Bridge/UC*%
X166000000Y-104075000D03*
X166000000Y-111700000D03*
%TO.N,+12V*%
X135200000Y-122400000D03*
X131350000Y-120300000D03*
%TO.N,/interface/IA_OUT*%
X128525000Y-74675000D03*
%TO.N,/interface/IB_OUT*%
X147000000Y-74550000D03*
%TO.N,/interface/IC_OUT*%
X165150000Y-74650000D03*
%TO.N,/Bridge/LO1*%
X132200000Y-112050000D03*
X138200000Y-112500000D03*
%TO.N,/Bridge/LO2*%
X138200000Y-121500000D03*
X139950000Y-110050000D03*
%TO.N,/Bridge/LO3*%
X152400000Y-110650000D03*
X137550000Y-122200000D03*
%TO.N,/Bridge/PWM1*%
X134300000Y-120950000D03*
X132350000Y-120950000D03*
%TD*%
%TA.AperFunction,Conductor*%
%TO.N,VDC*%
G36*
X163365677Y-95669685D02*
G01*
X163386319Y-95686319D01*
X163988681Y-96288681D01*
X164022166Y-96350004D01*
X164025000Y-96376362D01*
X164025000Y-106373638D01*
X164005315Y-106440677D01*
X163988681Y-106461319D01*
X163086319Y-107363681D01*
X163024996Y-107397166D01*
X162998638Y-107400000D01*
X131299999Y-107400000D01*
X128800000Y-109899999D01*
X128800000Y-137948638D01*
X128780315Y-138015677D01*
X128763681Y-138036319D01*
X128336319Y-138463681D01*
X128274996Y-138497166D01*
X128248638Y-138500000D01*
X123176362Y-138500000D01*
X123109323Y-138480315D01*
X123088681Y-138463681D01*
X123088680Y-138463680D01*
X122761316Y-138136316D01*
X122727833Y-138074996D01*
X122725000Y-138048647D01*
X122725000Y-108450000D01*
X121150000Y-106875000D01*
X118351362Y-106875000D01*
X118284323Y-106855315D01*
X118263681Y-106838681D01*
X117611319Y-106186319D01*
X117577834Y-106124996D01*
X117575000Y-106098638D01*
X117575000Y-104075000D01*
X147944965Y-104075000D01*
X147963026Y-104212181D01*
X147963027Y-104212186D01*
X148015974Y-104340015D01*
X148015975Y-104340017D01*
X148015976Y-104340018D01*
X148100209Y-104449791D01*
X148209982Y-104534024D01*
X148337817Y-104586974D01*
X148460702Y-104603152D01*
X148474999Y-104605035D01*
X148475000Y-104605035D01*
X148475001Y-104605035D01*
X148487947Y-104603330D01*
X148612183Y-104586974D01*
X148740018Y-104534024D01*
X148849791Y-104449791D01*
X148934024Y-104340018D01*
X148986974Y-104212183D01*
X149005035Y-104075000D01*
X148986974Y-103937817D01*
X148934024Y-103809983D01*
X148849791Y-103700209D01*
X148849789Y-103700208D01*
X148849789Y-103700207D01*
X148740015Y-103615974D01*
X148612186Y-103563027D01*
X148612184Y-103563026D01*
X148612183Y-103563026D01*
X148520727Y-103550985D01*
X148475001Y-103544965D01*
X148474999Y-103544965D01*
X148406408Y-103553995D01*
X148337817Y-103563026D01*
X148337816Y-103563026D01*
X148337813Y-103563027D01*
X148209985Y-103615974D01*
X148100209Y-103700209D01*
X148015974Y-103809985D01*
X147963027Y-103937813D01*
X147963026Y-103937818D01*
X147944965Y-104074999D01*
X147944965Y-104075000D01*
X117575000Y-104075000D01*
X117575000Y-103025000D01*
X130769965Y-103025000D01*
X130788026Y-103162181D01*
X130788027Y-103162186D01*
X130840974Y-103290015D01*
X130840975Y-103290017D01*
X130840976Y-103290018D01*
X130925209Y-103399791D01*
X131034982Y-103484024D01*
X131162817Y-103536974D01*
X131285702Y-103553152D01*
X131299999Y-103555035D01*
X131300000Y-103555035D01*
X131300001Y-103555035D01*
X131312947Y-103553330D01*
X131437183Y-103536974D01*
X131565018Y-103484024D01*
X131674791Y-103399791D01*
X131759024Y-103290018D01*
X131811974Y-103162183D01*
X131830035Y-103025000D01*
X131811974Y-102887817D01*
X131759024Y-102759983D01*
X131674791Y-102650209D01*
X131674789Y-102650208D01*
X131674789Y-102650207D01*
X131565015Y-102565974D01*
X131437186Y-102513027D01*
X131437184Y-102513026D01*
X131437183Y-102513026D01*
X131345727Y-102500985D01*
X131300001Y-102494965D01*
X131299999Y-102494965D01*
X131231408Y-102503995D01*
X131162817Y-102513026D01*
X131162816Y-102513026D01*
X131162813Y-102513027D01*
X131034985Y-102565974D01*
X130925209Y-102650209D01*
X130840974Y-102759985D01*
X130788027Y-102887813D01*
X130788026Y-102887818D01*
X130769965Y-103024999D01*
X130769965Y-103025000D01*
X117575000Y-103025000D01*
X117575000Y-96251362D01*
X117594685Y-96184323D01*
X117611319Y-96163681D01*
X118088681Y-95686319D01*
X118150004Y-95652834D01*
X118176362Y-95650000D01*
X163298638Y-95650000D01*
X163365677Y-95669685D01*
G37*
%TD.AperFunction*%
%TD*%
%TA.AperFunction,Conductor*%
%TO.N,GND*%
G36*
X170003252Y-62000671D02*
G01*
X170168284Y-62009319D01*
X170317479Y-62017138D01*
X170330437Y-62018500D01*
X170637982Y-62067212D01*
X170650713Y-62069917D01*
X170951503Y-62150513D01*
X170963882Y-62154535D01*
X171254594Y-62266129D01*
X171266488Y-62271425D01*
X171543940Y-62412794D01*
X171555223Y-62419308D01*
X171816384Y-62588908D01*
X171826907Y-62596555D01*
X172068890Y-62792509D01*
X172078581Y-62801235D01*
X172298764Y-63021418D01*
X172307490Y-63031109D01*
X172503438Y-63273084D01*
X172511093Y-63283619D01*
X172651288Y-63499500D01*
X172680689Y-63544773D01*
X172687209Y-63556065D01*
X172719089Y-63618633D01*
X172828571Y-63833505D01*
X172833873Y-63845414D01*
X172851449Y-63891201D01*
X172945458Y-64136100D01*
X172949488Y-64148503D01*
X173030079Y-64449275D01*
X173032790Y-64462031D01*
X173081498Y-64769560D01*
X173082861Y-64782529D01*
X173099329Y-65096747D01*
X173099500Y-65103264D01*
X173099500Y-138696735D01*
X173099329Y-138703252D01*
X173082861Y-139017470D01*
X173081498Y-139030439D01*
X173032790Y-139337968D01*
X173030079Y-139350724D01*
X172949488Y-139651496D01*
X172945458Y-139663899D01*
X172833875Y-139954581D01*
X172828571Y-139966494D01*
X172687210Y-140243932D01*
X172680689Y-140255226D01*
X172578194Y-140413055D01*
X172519162Y-140503957D01*
X172511104Y-140516365D01*
X172503438Y-140526915D01*
X172307490Y-140768890D01*
X172298764Y-140778581D01*
X172078581Y-140998764D01*
X172068890Y-141007490D01*
X171826915Y-141203438D01*
X171816371Y-141211099D01*
X171727998Y-141268490D01*
X171555226Y-141380689D01*
X171543932Y-141387210D01*
X171266494Y-141528571D01*
X171254581Y-141533875D01*
X170963899Y-141645458D01*
X170951496Y-141649488D01*
X170650724Y-141730079D01*
X170637968Y-141732790D01*
X170330439Y-141781498D01*
X170317470Y-141782861D01*
X170003253Y-141799329D01*
X169996736Y-141799500D01*
X141352949Y-141799500D01*
X141257661Y-141780546D01*
X141176879Y-141726570D01*
X141122903Y-141645788D01*
X141103949Y-141550500D01*
X141122903Y-141455212D01*
X141176879Y-141374430D01*
X141247717Y-141324829D01*
X141357576Y-141273600D01*
X141551076Y-141138110D01*
X141718110Y-140971076D01*
X141853601Y-140777574D01*
X141893512Y-140691986D01*
X141950960Y-140613636D01*
X142034019Y-140563234D01*
X142130043Y-140548454D01*
X142224414Y-140571546D01*
X142302764Y-140628994D01*
X142338781Y-140679839D01*
X142342315Y-140686450D01*
X142473583Y-140846403D01*
X142473596Y-140846416D01*
X142633547Y-140977683D01*
X142633548Y-140977683D01*
X142633550Y-140977685D01*
X142816046Y-141075232D01*
X143014066Y-141135300D01*
X143220000Y-141155583D01*
X143425934Y-141135300D01*
X143623954Y-141075232D01*
X143806450Y-140977685D01*
X143937602Y-140870052D01*
X143966403Y-140846416D01*
X143966404Y-140846414D01*
X143966410Y-140846410D01*
X143967910Y-140844583D01*
X144030029Y-140768890D01*
X144097685Y-140686450D01*
X144195232Y-140503954D01*
X144225641Y-140403706D01*
X144271436Y-140318030D01*
X144346537Y-140256395D01*
X144439509Y-140228191D01*
X144536196Y-140237713D01*
X144621879Y-140283511D01*
X144683514Y-140358612D01*
X144703411Y-140407848D01*
X144729417Y-140499250D01*
X144729418Y-140499251D01*
X144820323Y-140681815D01*
X144820325Y-140681818D01*
X144820327Y-140681821D01*
X144931324Y-140828805D01*
X144943239Y-140844583D01*
X145093957Y-140981980D01*
X145148219Y-141015577D01*
X145267363Y-141089348D01*
X145457544Y-141163024D01*
X145591197Y-141188007D01*
X145658022Y-141200500D01*
X145658024Y-141200500D01*
X145861977Y-141200500D01*
X145895389Y-141194254D01*
X146062456Y-141163024D01*
X146252637Y-141089348D01*
X146426041Y-140981981D01*
X146481742Y-140931203D01*
X146576760Y-140844583D01*
X146576760Y-140844581D01*
X146576764Y-140844579D01*
X146699673Y-140681821D01*
X146790582Y-140499250D01*
X146790583Y-140499244D01*
X146794740Y-140488517D01*
X146795910Y-140488970D01*
X146834813Y-140413055D01*
X146908835Y-140350129D01*
X147001304Y-140320320D01*
X147098142Y-140328166D01*
X147184606Y-140372474D01*
X147247532Y-140446496D01*
X147264982Y-140488624D01*
X147265260Y-140488517D01*
X147269418Y-140499251D01*
X147360323Y-140681815D01*
X147360325Y-140681818D01*
X147360327Y-140681821D01*
X147471324Y-140828805D01*
X147483239Y-140844583D01*
X147633957Y-140981980D01*
X147688219Y-141015577D01*
X147807363Y-141089348D01*
X147997544Y-141163024D01*
X148131197Y-141188007D01*
X148198022Y-141200500D01*
X148198024Y-141200500D01*
X148401977Y-141200500D01*
X148435389Y-141194254D01*
X148602456Y-141163024D01*
X148792637Y-141089348D01*
X148966041Y-140981981D01*
X149021742Y-140931203D01*
X149116760Y-140844583D01*
X149116760Y-140844581D01*
X149116764Y-140844579D01*
X149239673Y-140681821D01*
X149330582Y-140499250D01*
X149330583Y-140499244D01*
X149334740Y-140488517D01*
X149335910Y-140488970D01*
X149374813Y-140413055D01*
X149448835Y-140350129D01*
X149541304Y-140320320D01*
X149638142Y-140328166D01*
X149724606Y-140372474D01*
X149787532Y-140446496D01*
X149804982Y-140488624D01*
X149805260Y-140488517D01*
X149809418Y-140499251D01*
X149900323Y-140681815D01*
X149900325Y-140681818D01*
X149900327Y-140681821D01*
X150011324Y-140828805D01*
X150023239Y-140844583D01*
X150173957Y-140981980D01*
X150228219Y-141015577D01*
X150347363Y-141089348D01*
X150537544Y-141163024D01*
X150671197Y-141188007D01*
X150738022Y-141200500D01*
X150738024Y-141200500D01*
X150941977Y-141200500D01*
X150975389Y-141194254D01*
X151142456Y-141163024D01*
X151332637Y-141089348D01*
X151506041Y-140981981D01*
X151561742Y-140931203D01*
X151656760Y-140844583D01*
X151656760Y-140844581D01*
X151656764Y-140844579D01*
X151779673Y-140681821D01*
X151870582Y-140499250D01*
X151926397Y-140303083D01*
X151945215Y-140100000D01*
X151926397Y-139896917D01*
X151924473Y-139890156D01*
X151895108Y-139786948D01*
X151870582Y-139700750D01*
X151857784Y-139675048D01*
X151779676Y-139518184D01*
X151779674Y-139518182D01*
X151779673Y-139518179D01*
X151656764Y-139355421D01*
X151656763Y-139355420D01*
X151656760Y-139355416D01*
X151506042Y-139218019D01*
X151332640Y-139110653D01*
X151133984Y-139033694D01*
X151051977Y-138981597D01*
X150996149Y-138902084D01*
X150974999Y-138807259D01*
X150991747Y-138711559D01*
X151043844Y-138629552D01*
X151123357Y-138573724D01*
X151151636Y-138563235D01*
X151243954Y-138535232D01*
X151426450Y-138437685D01*
X151573529Y-138316981D01*
X151586403Y-138306416D01*
X151586406Y-138306413D01*
X151586410Y-138306410D01*
X151717685Y-138146450D01*
X151815232Y-137963954D01*
X151875300Y-137765934D01*
X151895583Y-137560000D01*
X151875300Y-137354066D01*
X151815232Y-137156046D01*
X151717685Y-136973550D01*
X151717683Y-136973547D01*
X151657324Y-136899999D01*
X164794506Y-136899999D01*
X164814468Y-137268192D01*
X164814468Y-137268196D01*
X164814469Y-137268199D01*
X164873852Y-137630412D01*
X164874125Y-137632079D01*
X164874127Y-137632088D01*
X164972773Y-137987381D01*
X164972776Y-137987388D01*
X165109253Y-138329923D01*
X165109256Y-138329930D01*
X165281976Y-138655713D01*
X165281981Y-138655722D01*
X165488908Y-138960915D01*
X165727621Y-139241950D01*
X165727625Y-139241954D01*
X165727627Y-139241956D01*
X165995330Y-139495538D01*
X166288881Y-139718690D01*
X166604838Y-139908795D01*
X166604842Y-139908797D01*
X166604844Y-139908798D01*
X166604846Y-139908799D01*
X166716985Y-139960680D01*
X166939497Y-140063625D01*
X167288934Y-140181364D01*
X167501671Y-140228191D01*
X167649046Y-140260631D01*
X167649049Y-140260631D01*
X167649052Y-140260632D01*
X167747225Y-140271309D01*
X168015624Y-140300500D01*
X168015630Y-140300500D01*
X168384376Y-140300500D01*
X168600119Y-140277035D01*
X168750948Y-140260632D01*
X169111066Y-140181364D01*
X169460503Y-140063625D01*
X169795162Y-139908795D01*
X170111119Y-139718690D01*
X170404670Y-139495538D01*
X170672373Y-139241956D01*
X170911090Y-138960917D01*
X171118022Y-138655716D01*
X171290743Y-138329930D01*
X171295903Y-138316981D01*
X171363848Y-138146450D01*
X171427227Y-137987379D01*
X171525875Y-137632081D01*
X171585531Y-137268199D01*
X171605494Y-136900000D01*
X171585531Y-136531801D01*
X171525875Y-136167919D01*
X171427227Y-135812621D01*
X171423803Y-135804029D01*
X171290746Y-135470076D01*
X171290743Y-135470069D01*
X171118023Y-135144286D01*
X171118018Y-135144277D01*
X170911091Y-134839084D01*
X170672378Y-134558049D01*
X170672373Y-134558044D01*
X170404670Y-134304462D01*
X170111119Y-134081310D01*
X169795162Y-133891205D01*
X169795160Y-133891204D01*
X169795155Y-133891201D01*
X169795153Y-133891200D01*
X169460514Y-133736380D01*
X169460498Y-133736373D01*
X169347884Y-133698429D01*
X169111066Y-133618636D01*
X169111055Y-133618633D01*
X169111053Y-133618633D01*
X168750953Y-133539368D01*
X168750954Y-133539368D01*
X168384376Y-133499500D01*
X168384370Y-133499500D01*
X168015630Y-133499500D01*
X168015624Y-133499500D01*
X167649046Y-133539368D01*
X167288946Y-133618633D01*
X167288940Y-133618634D01*
X167288934Y-133618636D01*
X167172455Y-133657882D01*
X166939501Y-133736373D01*
X166939485Y-133736380D01*
X166604846Y-133891200D01*
X166604844Y-133891201D01*
X166288880Y-134081310D01*
X165995330Y-134304462D01*
X165727621Y-134558049D01*
X165488908Y-134839084D01*
X165281981Y-135144277D01*
X165281976Y-135144286D01*
X165109256Y-135470069D01*
X165109253Y-135470076D01*
X164972776Y-135812611D01*
X164972773Y-135812618D01*
X164874127Y-136167911D01*
X164874125Y-136167919D01*
X164818959Y-136504417D01*
X164814469Y-136531802D01*
X164814468Y-136531807D01*
X164794506Y-136899999D01*
X151657324Y-136899999D01*
X151586416Y-136813596D01*
X151586403Y-136813583D01*
X151426452Y-136682316D01*
X151243955Y-136584768D01*
X151045934Y-136524700D01*
X150840000Y-136504417D01*
X150839999Y-136504417D01*
X150634065Y-136524700D01*
X150436044Y-136584768D01*
X150253547Y-136682316D01*
X150093596Y-136813583D01*
X150093583Y-136813596D01*
X149962316Y-136973547D01*
X149864768Y-137156044D01*
X149808278Y-137342270D01*
X149762480Y-137427953D01*
X149687378Y-137489587D01*
X149594406Y-137517790D01*
X149497719Y-137508267D01*
X149412036Y-137462469D01*
X149350402Y-137387367D01*
X149331722Y-137342270D01*
X149275231Y-137156044D01*
X149177683Y-136973547D01*
X149046416Y-136813596D01*
X149046403Y-136813583D01*
X148886452Y-136682316D01*
X148703955Y-136584768D01*
X148505934Y-136524700D01*
X148300000Y-136504417D01*
X148094065Y-136524700D01*
X147896044Y-136584768D01*
X147713547Y-136682316D01*
X147553596Y-136813583D01*
X147553583Y-136813596D01*
X147422316Y-136973547D01*
X147324768Y-137156044D01*
X147268278Y-137342270D01*
X147222480Y-137427953D01*
X147147378Y-137489587D01*
X147054406Y-137517790D01*
X146957719Y-137508267D01*
X146872036Y-137462469D01*
X146810402Y-137387367D01*
X146791722Y-137342270D01*
X146735231Y-137156044D01*
X146637683Y-136973547D01*
X146506416Y-136813596D01*
X146506403Y-136813583D01*
X146346452Y-136682316D01*
X146163955Y-136584768D01*
X145965934Y-136524700D01*
X145965933Y-136524700D01*
X145760000Y-136504417D01*
X145759999Y-136504417D01*
X145554065Y-136524700D01*
X145356044Y-136584768D01*
X145173547Y-136682316D01*
X145013596Y-136813583D01*
X145013583Y-136813596D01*
X144882316Y-136973547D01*
X144784768Y-137156044D01*
X144728278Y-137342270D01*
X144682480Y-137427953D01*
X144607378Y-137489587D01*
X144514406Y-137517790D01*
X144417719Y-137508267D01*
X144332036Y-137462469D01*
X144270402Y-137387367D01*
X144251722Y-137342270D01*
X144195231Y-137156044D01*
X144097683Y-136973547D01*
X143966416Y-136813596D01*
X143966403Y-136813583D01*
X143806452Y-136682316D01*
X143623955Y-136584768D01*
X143425934Y-136524700D01*
X143220000Y-136504417D01*
X143014065Y-136524700D01*
X142816044Y-136584768D01*
X142633547Y-136682316D01*
X142473596Y-136813583D01*
X142473583Y-136813596D01*
X142342316Y-136973547D01*
X142244768Y-137156044D01*
X142188278Y-137342270D01*
X142142480Y-137427953D01*
X142067378Y-137489587D01*
X141974406Y-137517790D01*
X141877719Y-137508267D01*
X141792036Y-137462469D01*
X141730402Y-137387367D01*
X141711722Y-137342270D01*
X141655231Y-137156044D01*
X141557683Y-136973547D01*
X141426416Y-136813596D01*
X141426403Y-136813583D01*
X141266452Y-136682316D01*
X141083955Y-136584768D01*
X140885934Y-136524700D01*
X140680000Y-136504417D01*
X140474065Y-136524700D01*
X140276044Y-136584768D01*
X140093547Y-136682316D01*
X139933596Y-136813583D01*
X139933583Y-136813596D01*
X139802316Y-136973547D01*
X139704768Y-137156044D01*
X139648278Y-137342270D01*
X139602480Y-137427953D01*
X139527378Y-137489587D01*
X139434406Y-137517790D01*
X139337719Y-137508267D01*
X139252036Y-137462469D01*
X139190402Y-137387367D01*
X139171722Y-137342270D01*
X139115231Y-137156044D01*
X139017683Y-136973547D01*
X138886416Y-136813596D01*
X138886403Y-136813583D01*
X138726452Y-136682316D01*
X138543955Y-136584768D01*
X138345934Y-136524700D01*
X138140000Y-136504417D01*
X137934065Y-136524700D01*
X137736044Y-136584768D01*
X137553547Y-136682316D01*
X137393596Y-136813583D01*
X137393583Y-136813596D01*
X137262316Y-136973547D01*
X137164768Y-137156044D01*
X137108278Y-137342270D01*
X137062480Y-137427953D01*
X136987378Y-137489587D01*
X136894406Y-137517790D01*
X136797719Y-137508267D01*
X136712036Y-137462469D01*
X136650402Y-137387367D01*
X136631722Y-137342270D01*
X136575231Y-137156044D01*
X136477683Y-136973547D01*
X136346416Y-136813596D01*
X136346403Y-136813583D01*
X136186452Y-136682316D01*
X136003955Y-136584768D01*
X135805934Y-136524700D01*
X135600000Y-136504417D01*
X135394065Y-136524700D01*
X135196044Y-136584768D01*
X135013547Y-136682316D01*
X134853596Y-136813583D01*
X134853583Y-136813596D01*
X134722316Y-136973547D01*
X134624768Y-137156044D01*
X134564700Y-137354065D01*
X134544417Y-137560000D01*
X134564700Y-137765934D01*
X134624768Y-137963955D01*
X134722316Y-138146452D01*
X134853583Y-138306403D01*
X134853593Y-138306413D01*
X134856158Y-138308518D01*
X134858263Y-138311083D01*
X134862240Y-138315060D01*
X134861848Y-138315451D01*
X134917794Y-138383619D01*
X134945998Y-138476590D01*
X134936476Y-138573277D01*
X134890679Y-138658961D01*
X134815578Y-138720597D01*
X134722607Y-138748801D01*
X134708825Y-138749477D01*
X134708834Y-138749643D01*
X134702167Y-138750000D01*
X134642628Y-138756401D01*
X134642621Y-138756403D01*
X134507912Y-138806646D01*
X134392812Y-138892810D01*
X134392810Y-138892812D01*
X134306646Y-139007912D01*
X134256403Y-139142621D01*
X134256401Y-139142628D01*
X134250000Y-139202167D01*
X134250000Y-139849999D01*
X134250001Y-139850000D01*
X134851000Y-139850000D01*
X134946288Y-139868954D01*
X135027070Y-139922930D01*
X135081046Y-140003712D01*
X135100000Y-140099000D01*
X135100000Y-140101000D01*
X135081046Y-140196288D01*
X135027070Y-140277070D01*
X134946288Y-140331046D01*
X134851000Y-140350000D01*
X134250001Y-140350000D01*
X134250000Y-140350001D01*
X134250000Y-140997832D01*
X134256401Y-141057371D01*
X134256403Y-141057378D01*
X134306646Y-141192087D01*
X134392810Y-141307187D01*
X134392816Y-141307193D01*
X134451557Y-141351167D01*
X134516480Y-141423445D01*
X134548801Y-141515066D01*
X134543600Y-141612082D01*
X134501668Y-141699722D01*
X134429390Y-141764645D01*
X134337769Y-141796966D01*
X134302335Y-141799500D01*
X116403264Y-141799500D01*
X116396747Y-141799329D01*
X116082529Y-141782861D01*
X116069560Y-141781498D01*
X115762031Y-141732790D01*
X115749275Y-141730079D01*
X115448503Y-141649488D01*
X115436105Y-141645459D01*
X115145414Y-141533873D01*
X115133505Y-141528571D01*
X114856067Y-141387210D01*
X114844773Y-141380689D01*
X114731599Y-141307193D01*
X114583619Y-141211093D01*
X114573089Y-141203442D01*
X114331107Y-141007488D01*
X114321418Y-140998764D01*
X114101235Y-140778581D01*
X114092509Y-140768890D01*
X113896555Y-140526907D01*
X113888908Y-140516384D01*
X113719308Y-140255223D01*
X113712794Y-140243940D01*
X113571425Y-139966488D01*
X113566129Y-139954594D01*
X113454535Y-139663882D01*
X113450511Y-139651496D01*
X113450266Y-139650582D01*
X113369917Y-139350713D01*
X113367212Y-139337982D01*
X113318500Y-139030437D01*
X113317138Y-139017470D01*
X113311101Y-138902281D01*
X113300667Y-138703200D01*
X113300500Y-138696764D01*
X113300500Y-138673071D01*
X113300500Y-136899999D01*
X114794506Y-136899999D01*
X114814468Y-137268192D01*
X114814468Y-137268196D01*
X114814469Y-137268199D01*
X114873852Y-137630412D01*
X114874125Y-137632079D01*
X114874127Y-137632088D01*
X114972773Y-137987381D01*
X114972776Y-137987388D01*
X115109253Y-138329923D01*
X115109256Y-138329930D01*
X115281976Y-138655713D01*
X115281981Y-138655722D01*
X115488908Y-138960915D01*
X115727621Y-139241950D01*
X115727625Y-139241954D01*
X115727627Y-139241956D01*
X115995330Y-139495538D01*
X116288881Y-139718690D01*
X116604838Y-139908795D01*
X116604842Y-139908797D01*
X116604844Y-139908798D01*
X116604846Y-139908799D01*
X116716985Y-139960680D01*
X116939497Y-140063625D01*
X117288934Y-140181364D01*
X117501671Y-140228191D01*
X117649046Y-140260631D01*
X117649049Y-140260631D01*
X117649052Y-140260632D01*
X117747225Y-140271309D01*
X118015624Y-140300500D01*
X118015630Y-140300500D01*
X118384376Y-140300500D01*
X118600119Y-140277035D01*
X118750948Y-140260632D01*
X119111066Y-140181364D01*
X119460503Y-140063625D01*
X119795162Y-139908795D01*
X120111119Y-139718690D01*
X120404670Y-139495538D01*
X120672373Y-139241956D01*
X120911090Y-138960917D01*
X121118022Y-138655716D01*
X121290743Y-138329930D01*
X121295903Y-138316981D01*
X121363848Y-138146450D01*
X121427227Y-137987379D01*
X121525875Y-137632081D01*
X121585531Y-137268199D01*
X121605494Y-136900000D01*
X121585531Y-136531801D01*
X121525875Y-136167919D01*
X121427227Y-135812621D01*
X121423803Y-135804029D01*
X121290746Y-135470076D01*
X121290743Y-135470069D01*
X121118023Y-135144286D01*
X121118018Y-135144277D01*
X120911091Y-134839084D01*
X120672378Y-134558049D01*
X120672373Y-134558044D01*
X120404670Y-134304462D01*
X120111119Y-134081310D01*
X119795162Y-133891205D01*
X119795160Y-133891204D01*
X119795155Y-133891201D01*
X119795153Y-133891200D01*
X119460514Y-133736380D01*
X119460498Y-133736373D01*
X119347884Y-133698429D01*
X119111066Y-133618636D01*
X119111055Y-133618633D01*
X119111053Y-133618633D01*
X118750953Y-133539368D01*
X118750954Y-133539368D01*
X118384376Y-133499500D01*
X118384370Y-133499500D01*
X118015630Y-133499500D01*
X118015624Y-133499500D01*
X117649046Y-133539368D01*
X117288946Y-133618633D01*
X117288940Y-133618634D01*
X117288934Y-133618636D01*
X117172454Y-133657882D01*
X116939501Y-133736373D01*
X116939485Y-133736380D01*
X116604846Y-133891200D01*
X116604844Y-133891201D01*
X116288880Y-134081310D01*
X115995330Y-134304462D01*
X115727621Y-134558049D01*
X115488908Y-134839084D01*
X115281981Y-135144277D01*
X115281976Y-135144286D01*
X115109256Y-135470069D01*
X115109253Y-135470076D01*
X114972776Y-135812611D01*
X114972773Y-135812618D01*
X114874127Y-136167911D01*
X114874125Y-136167919D01*
X114818959Y-136504417D01*
X114814469Y-136531802D01*
X114814468Y-136531807D01*
X114794506Y-136899999D01*
X113300500Y-136899999D01*
X113300500Y-128842504D01*
X117045052Y-128842504D01*
X117064810Y-129093562D01*
X117064811Y-129093569D01*
X117123603Y-129338454D01*
X117123606Y-129338462D01*
X117219978Y-129571125D01*
X117351570Y-129785865D01*
X117351575Y-129785871D01*
X117352265Y-129786678D01*
X117800994Y-129337950D01*
X117881776Y-129283974D01*
X117977064Y-129265020D01*
X118072352Y-129283974D01*
X118153134Y-129337950D01*
X118163498Y-129348964D01*
X118164826Y-129350464D01*
X118213798Y-129434373D01*
X118226933Y-129530636D01*
X118202229Y-129624598D01*
X118154462Y-129691589D01*
X117705819Y-130140232D01*
X117706633Y-130140928D01*
X117706635Y-130140930D01*
X117921369Y-130272519D01*
X118154037Y-130368893D01*
X118154045Y-130368896D01*
X118398930Y-130427688D01*
X118398937Y-130427689D01*
X118649996Y-130447448D01*
X118650004Y-130447448D01*
X118901062Y-130427689D01*
X118901069Y-130427688D01*
X119145954Y-130368896D01*
X119145962Y-130368893D01*
X119378628Y-130272519D01*
X119593358Y-130140934D01*
X119593364Y-130140930D01*
X119594179Y-130140232D01*
X119145536Y-129691589D01*
X119091560Y-129610808D01*
X119072606Y-129515520D01*
X119091560Y-129420232D01*
X119135230Y-129350399D01*
X119136567Y-129348890D01*
X119213941Y-129290142D01*
X119307912Y-129265474D01*
X119404170Y-129278644D01*
X119488061Y-129327648D01*
X119499005Y-129337950D01*
X119947733Y-129786678D01*
X119948430Y-129785864D01*
X119948434Y-129785858D01*
X120080019Y-129571128D01*
X120176393Y-129338462D01*
X120176396Y-129338454D01*
X120235188Y-129093569D01*
X120235189Y-129093562D01*
X120254948Y-128842504D01*
X120254948Y-128842495D01*
X120235189Y-128591437D01*
X120235188Y-128591430D01*
X120176396Y-128346545D01*
X120176393Y-128346537D01*
X120080019Y-128113869D01*
X119948430Y-127899135D01*
X119948428Y-127899133D01*
X119947732Y-127898319D01*
X119499003Y-128347048D01*
X119418222Y-128401024D01*
X119322934Y-128419978D01*
X119227646Y-128401024D01*
X119146864Y-128347047D01*
X119136510Y-128336045D01*
X119135172Y-128334534D01*
X119086200Y-128250625D01*
X119073065Y-128154362D01*
X119097769Y-128060400D01*
X119145536Y-127993408D01*
X119594178Y-127544765D01*
X119594178Y-127544764D01*
X119593371Y-127544075D01*
X119593365Y-127544070D01*
X119378625Y-127412478D01*
X119145962Y-127316106D01*
X119145954Y-127316103D01*
X118901069Y-127257311D01*
X118901062Y-127257310D01*
X118650004Y-127237552D01*
X118649996Y-127237552D01*
X118398937Y-127257310D01*
X118398930Y-127257311D01*
X118154045Y-127316103D01*
X118154037Y-127316106D01*
X117921374Y-127412478D01*
X117706631Y-127544072D01*
X117705819Y-127544766D01*
X118154463Y-127993410D01*
X118208439Y-128074191D01*
X118227393Y-128169479D01*
X118208439Y-128264767D01*
X118164710Y-128334666D01*
X118163381Y-128336165D01*
X118085984Y-128394892D01*
X117992005Y-128419529D01*
X117895751Y-128406327D01*
X117811877Y-128357295D01*
X117800995Y-128347048D01*
X117352266Y-127898319D01*
X117351572Y-127899131D01*
X117219978Y-128113874D01*
X117123606Y-128346537D01*
X117123603Y-128346545D01*
X117064811Y-128591430D01*
X117064810Y-128591437D01*
X117045052Y-128842495D01*
X117045052Y-128842504D01*
X113300500Y-128842504D01*
X113300500Y-123842505D01*
X117344532Y-123842505D01*
X117364363Y-124069179D01*
X117364365Y-124069194D01*
X117423261Y-124288996D01*
X117423262Y-124288999D01*
X117519428Y-124495227D01*
X117519436Y-124495241D01*
X117649949Y-124681634D01*
X117649953Y-124681639D01*
X117810861Y-124842547D01*
X117810864Y-124842549D01*
X117810865Y-124842550D01*
X117997258Y-124973063D01*
X117997262Y-124973065D01*
X117997266Y-124973068D01*
X118203504Y-125069239D01*
X118423308Y-125128135D01*
X118442984Y-125129856D01*
X118649994Y-125147968D01*
X118650000Y-125147968D01*
X118650006Y-125147968D01*
X118829668Y-125132249D01*
X118876692Y-125128135D01*
X119096496Y-125069239D01*
X119302734Y-124973068D01*
X119489139Y-124842547D01*
X119650047Y-124681639D01*
X119780568Y-124495234D01*
X119876739Y-124288996D01*
X119935635Y-124069192D01*
X119955468Y-123842500D01*
X119955468Y-123842494D01*
X119935636Y-123615820D01*
X119935635Y-123615808D01*
X119876739Y-123396004D01*
X119780568Y-123189766D01*
X119780565Y-123189762D01*
X119780563Y-123189758D01*
X119650050Y-123003365D01*
X119650049Y-123003364D01*
X119650047Y-123003361D01*
X119489139Y-122842453D01*
X119489135Y-122842450D01*
X119489134Y-122842449D01*
X119302741Y-122711936D01*
X119302727Y-122711928D01*
X119096499Y-122615762D01*
X119096496Y-122615761D01*
X118876694Y-122556865D01*
X118876679Y-122556863D01*
X118650006Y-122537032D01*
X118649994Y-122537032D01*
X118423320Y-122556863D01*
X118423305Y-122556865D01*
X118203503Y-122615761D01*
X118203500Y-122615762D01*
X117997272Y-122711928D01*
X117997258Y-122711936D01*
X117810865Y-122842449D01*
X117649949Y-123003365D01*
X117519436Y-123189758D01*
X117519428Y-123189772D01*
X117423262Y-123396000D01*
X117423261Y-123396003D01*
X117364365Y-123615805D01*
X117364363Y-123615820D01*
X117344532Y-123842494D01*
X117344532Y-123842505D01*
X113300500Y-123842505D01*
X113300500Y-106105476D01*
X117319500Y-106105476D01*
X117320234Y-106119161D01*
X117320234Y-106119160D01*
X117323797Y-106152310D01*
X117323798Y-106152312D01*
X117353585Y-106247440D01*
X117353586Y-106247443D01*
X117353587Y-106247444D01*
X117387072Y-106308767D01*
X117430653Y-106366985D01*
X118087854Y-107024186D01*
X118098036Y-107033332D01*
X118124006Y-107054259D01*
X118124009Y-107054261D01*
X118212338Y-107100465D01*
X118279372Y-107120149D01*
X118279375Y-107120149D01*
X118279377Y-107120150D01*
X118351362Y-107130500D01*
X120941028Y-107130500D01*
X121036316Y-107149454D01*
X121117097Y-107203429D01*
X122396570Y-108482903D01*
X122450545Y-108563683D01*
X122469499Y-108658971D01*
X122469500Y-138055485D01*
X122470234Y-138069170D01*
X122470234Y-138069169D01*
X122473796Y-138102309D01*
X122503585Y-138197441D01*
X122537067Y-138258761D01*
X122574314Y-138308518D01*
X122580650Y-138316982D01*
X122912853Y-138649184D01*
X122923034Y-138658330D01*
X122923043Y-138658337D01*
X122923045Y-138658339D01*
X122923047Y-138658341D01*
X122937957Y-138670356D01*
X122949006Y-138679259D01*
X123002690Y-138707341D01*
X123037333Y-138725463D01*
X123037341Y-138725466D01*
X123104372Y-138745149D01*
X123104375Y-138745149D01*
X123104377Y-138745150D01*
X123176362Y-138755500D01*
X123176366Y-138755500D01*
X128255476Y-138755500D01*
X128255481Y-138755500D01*
X128269148Y-138754767D01*
X128269153Y-138754766D01*
X128269160Y-138754766D01*
X128302310Y-138751202D01*
X128397444Y-138721413D01*
X128458767Y-138687928D01*
X128516985Y-138644347D01*
X128949186Y-138212146D01*
X128958332Y-138201964D01*
X128979260Y-138175993D01*
X129025465Y-138087662D01*
X129045150Y-138020623D01*
X129055500Y-137948638D01*
X129055500Y-132450000D01*
X138244722Y-132450000D01*
X138263763Y-132606818D01*
X138319780Y-132754523D01*
X138409517Y-132884530D01*
X138527760Y-132989283D01*
X138667635Y-133062696D01*
X138821015Y-133100500D01*
X138821020Y-133100500D01*
X138978980Y-133100500D01*
X138978985Y-133100500D01*
X139132365Y-133062696D01*
X139272240Y-132989283D01*
X139390483Y-132884530D01*
X139480220Y-132754523D01*
X139536237Y-132606818D01*
X139555278Y-132450000D01*
X139536237Y-132293182D01*
X139480220Y-132145477D01*
X139390483Y-132015470D01*
X139272240Y-131910717D01*
X139272239Y-131910716D01*
X139132367Y-131837305D01*
X139132366Y-131837304D01*
X139132365Y-131837304D01*
X139029155Y-131811865D01*
X138978986Y-131799500D01*
X138978985Y-131799500D01*
X138821015Y-131799500D01*
X138821013Y-131799500D01*
X138720673Y-131824231D01*
X138667635Y-131837304D01*
X138667634Y-131837304D01*
X138667632Y-131837305D01*
X138527760Y-131910716D01*
X138409519Y-132015467D01*
X138409517Y-132015469D01*
X138319781Y-132145475D01*
X138319779Y-132145479D01*
X138263763Y-132293180D01*
X138263762Y-132293182D01*
X138263763Y-132293182D01*
X138244722Y-132450000D01*
X129055500Y-132450000D01*
X129055500Y-127350000D01*
X151594722Y-127350000D01*
X151613763Y-127506819D01*
X151628154Y-127544764D01*
X151669780Y-127654523D01*
X151759517Y-127784530D01*
X151877760Y-127889283D01*
X152017635Y-127962696D01*
X152171015Y-128000500D01*
X152171020Y-128000500D01*
X152328980Y-128000500D01*
X152328985Y-128000500D01*
X152482365Y-127962696D01*
X152622240Y-127889283D01*
X152740483Y-127784530D01*
X152830220Y-127654523D01*
X152886237Y-127506818D01*
X152905278Y-127350000D01*
X152886237Y-127193182D01*
X152830220Y-127045477D01*
X152740483Y-126915470D01*
X152622240Y-126810717D01*
X152622239Y-126810716D01*
X152482367Y-126737305D01*
X152482366Y-126737304D01*
X152482365Y-126737304D01*
X152379155Y-126711865D01*
X152328986Y-126699500D01*
X152328985Y-126699500D01*
X152171015Y-126699500D01*
X152171013Y-126699500D01*
X152070673Y-126724231D01*
X152017635Y-126737304D01*
X152017634Y-126737304D01*
X152017632Y-126737305D01*
X151877760Y-126810716D01*
X151759519Y-126915467D01*
X151759517Y-126915469D01*
X151669781Y-127045475D01*
X151669779Y-127045479D01*
X151613763Y-127193180D01*
X151594722Y-127350000D01*
X129055500Y-127350000D01*
X129055500Y-122400000D01*
X134719610Y-122400000D01*
X134739069Y-122535342D01*
X134795870Y-122659718D01*
X134885411Y-122763055D01*
X135000439Y-122836978D01*
X135131633Y-122875500D01*
X135131634Y-122875500D01*
X135268366Y-122875500D01*
X135268367Y-122875500D01*
X135399561Y-122836978D01*
X135418199Y-122825000D01*
X151644722Y-122825000D01*
X151663763Y-122981819D01*
X151704854Y-123090166D01*
X151719780Y-123129523D01*
X151809517Y-123259530D01*
X151927760Y-123364283D01*
X152067635Y-123437696D01*
X152221015Y-123475500D01*
X152221020Y-123475500D01*
X152378980Y-123475500D01*
X152378985Y-123475500D01*
X152532365Y-123437696D01*
X152672240Y-123364283D01*
X152790483Y-123259530D01*
X152880220Y-123129523D01*
X152936237Y-122981818D01*
X152955278Y-122825000D01*
X152936237Y-122668182D01*
X152880220Y-122520477D01*
X152790483Y-122390470D01*
X152672240Y-122285717D01*
X152672239Y-122285716D01*
X152532367Y-122212305D01*
X152532366Y-122212304D01*
X152532365Y-122212304D01*
X152429155Y-122186865D01*
X152378986Y-122174500D01*
X152378985Y-122174500D01*
X152221015Y-122174500D01*
X152221013Y-122174500D01*
X152120673Y-122199231D01*
X152067635Y-122212304D01*
X152067634Y-122212304D01*
X152067632Y-122212305D01*
X151927760Y-122285716D01*
X151809519Y-122390467D01*
X151809517Y-122390469D01*
X151719781Y-122520475D01*
X151719779Y-122520479D01*
X151663763Y-122668180D01*
X151644722Y-122825000D01*
X135418199Y-122825000D01*
X135514589Y-122763055D01*
X135604130Y-122659718D01*
X135660931Y-122535342D01*
X135680390Y-122400000D01*
X135660931Y-122264658D01*
X135631402Y-122200000D01*
X137069610Y-122200000D01*
X137089069Y-122335342D01*
X137145870Y-122459718D01*
X137198519Y-122520479D01*
X137230045Y-122556863D01*
X137235411Y-122563055D01*
X137350439Y-122636978D01*
X137481633Y-122675500D01*
X137481634Y-122675500D01*
X137618366Y-122675500D01*
X137618367Y-122675500D01*
X137749561Y-122636978D01*
X137864589Y-122563055D01*
X137954130Y-122459718D01*
X138010931Y-122335342D01*
X138030390Y-122200000D01*
X138030389Y-122199998D01*
X138031962Y-122189064D01*
X138064284Y-122097443D01*
X138129208Y-122025165D01*
X138216849Y-121983235D01*
X138250872Y-121978961D01*
X138250739Y-121978035D01*
X138268363Y-121975500D01*
X138268367Y-121975500D01*
X138399561Y-121936978D01*
X138514589Y-121863055D01*
X138604130Y-121759718D01*
X138660931Y-121635342D01*
X138680390Y-121500000D01*
X138660931Y-121364658D01*
X138604130Y-121240282D01*
X138514589Y-121136945D01*
X138399561Y-121063022D01*
X138268367Y-121024500D01*
X138131633Y-121024500D01*
X138077099Y-121040512D01*
X138000441Y-121063021D01*
X138000439Y-121063022D01*
X137885409Y-121136946D01*
X137795870Y-121240282D01*
X137739069Y-121364657D01*
X137718038Y-121510936D01*
X137685716Y-121602557D01*
X137620792Y-121674835D01*
X137533151Y-121716765D01*
X137499127Y-121721038D01*
X137499261Y-121721965D01*
X137481636Y-121724499D01*
X137350441Y-121763021D01*
X137350439Y-121763022D01*
X137235409Y-121836946D01*
X137145870Y-121940282D01*
X137101725Y-122036946D01*
X137089069Y-122064658D01*
X137069610Y-122200000D01*
X135631402Y-122200000D01*
X135604130Y-122140282D01*
X135514589Y-122036945D01*
X135399561Y-121963022D01*
X135268367Y-121924500D01*
X135131633Y-121924500D01*
X135089140Y-121936977D01*
X135000441Y-121963021D01*
X135000439Y-121963022D01*
X134885409Y-122036946D01*
X134795870Y-122140282D01*
X134768598Y-122200000D01*
X134739069Y-122264658D01*
X134719610Y-122400000D01*
X129055500Y-122400000D01*
X129055500Y-120300000D01*
X130869610Y-120300000D01*
X130889069Y-120435342D01*
X130945870Y-120559718D01*
X131035411Y-120663055D01*
X131150439Y-120736978D01*
X131281633Y-120775500D01*
X131281634Y-120775500D01*
X131418365Y-120775500D01*
X131418367Y-120775500D01*
X131549561Y-120736978D01*
X131549564Y-120736976D01*
X131551536Y-120736397D01*
X131648304Y-120727738D01*
X131741020Y-120756769D01*
X131815569Y-120819071D01*
X131860602Y-120905159D01*
X131868153Y-120939874D01*
X131889068Y-121085339D01*
X131889068Y-121085340D01*
X131889069Y-121085342D01*
X131945870Y-121209718D01*
X132035411Y-121313055D01*
X132150439Y-121386978D01*
X132281633Y-121425500D01*
X132281634Y-121425500D01*
X132418366Y-121425500D01*
X132418367Y-121425500D01*
X132549561Y-121386978D01*
X132664589Y-121313055D01*
X132754130Y-121209718D01*
X132810931Y-121085342D01*
X132830390Y-120950000D01*
X133819610Y-120950000D01*
X133839069Y-121085342D01*
X133895870Y-121209718D01*
X133985411Y-121313055D01*
X134100439Y-121386978D01*
X134231633Y-121425500D01*
X134231634Y-121425500D01*
X134368366Y-121425500D01*
X134368367Y-121425500D01*
X134499561Y-121386978D01*
X134614589Y-121313055D01*
X134704130Y-121209718D01*
X134760931Y-121085342D01*
X134780390Y-120950000D01*
X134760931Y-120814658D01*
X134704130Y-120690282D01*
X134614589Y-120586945D01*
X134499561Y-120513022D01*
X134368367Y-120474500D01*
X134231633Y-120474500D01*
X134177099Y-120490512D01*
X134100441Y-120513021D01*
X134100439Y-120513022D01*
X133985409Y-120586946D01*
X133895870Y-120690282D01*
X133839069Y-120814657D01*
X133826057Y-120905159D01*
X133819610Y-120950000D01*
X132830390Y-120950000D01*
X132810931Y-120814658D01*
X132754130Y-120690282D01*
X132664589Y-120586945D01*
X132549561Y-120513022D01*
X132418367Y-120474500D01*
X132281633Y-120474500D01*
X132281632Y-120474500D01*
X132148461Y-120513602D01*
X132051693Y-120522261D01*
X131958977Y-120493230D01*
X131884429Y-120430927D01*
X131839397Y-120344838D01*
X131831845Y-120310124D01*
X131830389Y-120300002D01*
X131830390Y-120300000D01*
X131810931Y-120164658D01*
X131754130Y-120040282D01*
X131664589Y-119936945D01*
X131549561Y-119863022D01*
X131418367Y-119824500D01*
X131281633Y-119824500D01*
X131227099Y-119840512D01*
X131150441Y-119863021D01*
X131150439Y-119863022D01*
X131035409Y-119936946D01*
X130945870Y-120040281D01*
X130945870Y-120040282D01*
X130889069Y-120164658D01*
X130869610Y-120300000D01*
X129055500Y-120300000D01*
X129055500Y-114800000D01*
X144169965Y-114800000D01*
X144188026Y-114937183D01*
X144240976Y-115065018D01*
X144240977Y-115065020D01*
X144240978Y-115065022D01*
X144325205Y-115174786D01*
X144325209Y-115174791D01*
X144325213Y-115174794D01*
X144434977Y-115259021D01*
X144434980Y-115259022D01*
X144434982Y-115259024D01*
X144562817Y-115311974D01*
X144700000Y-115330035D01*
X144837183Y-115311974D01*
X144965018Y-115259024D01*
X145074791Y-115174791D01*
X145159024Y-115065018D01*
X145211974Y-114937183D01*
X145230035Y-114800000D01*
X145769965Y-114800000D01*
X145788026Y-114937183D01*
X145840976Y-115065018D01*
X145840977Y-115065020D01*
X145840978Y-115065022D01*
X145925205Y-115174786D01*
X145925209Y-115174791D01*
X145925213Y-115174794D01*
X146034977Y-115259021D01*
X146034980Y-115259022D01*
X146034982Y-115259024D01*
X146162817Y-115311974D01*
X146300000Y-115330035D01*
X146437183Y-115311974D01*
X146565018Y-115259024D01*
X146674791Y-115174791D01*
X146759024Y-115065018D01*
X146811974Y-114937183D01*
X146830035Y-114800000D01*
X147819965Y-114800000D01*
X147838026Y-114937183D01*
X147890976Y-115065018D01*
X147890977Y-115065020D01*
X147890978Y-115065022D01*
X147975205Y-115174786D01*
X147975209Y-115174791D01*
X147975213Y-115174794D01*
X148084977Y-115259021D01*
X148084980Y-115259022D01*
X148084982Y-115259024D01*
X148212817Y-115311974D01*
X148350000Y-115330035D01*
X148487183Y-115311974D01*
X148615018Y-115259024D01*
X148724791Y-115174791D01*
X148809024Y-115065018D01*
X148861974Y-114937183D01*
X148880035Y-114800000D01*
X148861974Y-114662817D01*
X148861972Y-114662813D01*
X148861972Y-114662810D01*
X148809027Y-114534989D01*
X148809024Y-114534983D01*
X148724794Y-114425213D01*
X148724791Y-114425209D01*
X148724786Y-114425205D01*
X148615022Y-114340978D01*
X148615020Y-114340977D01*
X148615008Y-114340972D01*
X148487183Y-114288026D01*
X148350000Y-114269965D01*
X148212817Y-114288026D01*
X148212816Y-114288026D01*
X148212810Y-114288027D01*
X148084989Y-114340972D01*
X148084979Y-114340978D01*
X147975213Y-114425204D01*
X147975204Y-114425213D01*
X147890978Y-114534979D01*
X147890972Y-114534989D01*
X147838027Y-114662810D01*
X147838026Y-114662816D01*
X147838026Y-114662817D01*
X147819965Y-114800000D01*
X146830035Y-114800000D01*
X146811974Y-114662817D01*
X146811972Y-114662813D01*
X146811972Y-114662810D01*
X146759027Y-114534989D01*
X146759024Y-114534983D01*
X146674794Y-114425213D01*
X146674791Y-114425209D01*
X146674786Y-114425205D01*
X146565022Y-114340978D01*
X146565020Y-114340977D01*
X146565008Y-114340972D01*
X146437183Y-114288026D01*
X146300000Y-114269965D01*
X146162817Y-114288026D01*
X146162816Y-114288026D01*
X146162810Y-114288027D01*
X146034989Y-114340972D01*
X146034979Y-114340978D01*
X145925213Y-114425204D01*
X145925204Y-114425213D01*
X145840978Y-114534979D01*
X145840972Y-114534989D01*
X145788027Y-114662810D01*
X145788026Y-114662816D01*
X145788026Y-114662817D01*
X145769965Y-114800000D01*
X145230035Y-114800000D01*
X145211974Y-114662817D01*
X145211972Y-114662813D01*
X145211972Y-114662810D01*
X145159027Y-114534989D01*
X145159024Y-114534983D01*
X145074794Y-114425213D01*
X145074791Y-114425209D01*
X145074786Y-114425205D01*
X144965022Y-114340978D01*
X144965020Y-114340977D01*
X144965008Y-114340972D01*
X144837183Y-114288026D01*
X144700000Y-114269965D01*
X144562817Y-114288026D01*
X144562816Y-114288026D01*
X144562810Y-114288027D01*
X144434989Y-114340972D01*
X144434979Y-114340978D01*
X144325213Y-114425204D01*
X144325204Y-114425213D01*
X144240978Y-114534979D01*
X144240972Y-114534989D01*
X144188027Y-114662810D01*
X144188026Y-114662816D01*
X144188026Y-114662817D01*
X144169965Y-114800000D01*
X129055500Y-114800000D01*
X129055500Y-112050000D01*
X131719610Y-112050000D01*
X131739069Y-112185342D01*
X131795870Y-112309718D01*
X131885411Y-112413055D01*
X132000439Y-112486978D01*
X132131633Y-112525500D01*
X132131634Y-112525500D01*
X132268366Y-112525500D01*
X132268367Y-112525500D01*
X132355212Y-112500000D01*
X137719610Y-112500000D01*
X137739069Y-112635342D01*
X137795870Y-112759718D01*
X137885411Y-112863055D01*
X138000439Y-112936978D01*
X138131633Y-112975500D01*
X138131634Y-112975500D01*
X138268366Y-112975500D01*
X138268367Y-112975500D01*
X138399561Y-112936978D01*
X138514589Y-112863055D01*
X138604130Y-112759718D01*
X138660931Y-112635342D01*
X138680390Y-112500000D01*
X138660931Y-112364658D01*
X138604130Y-112240282D01*
X138514589Y-112136945D01*
X138399561Y-112063022D01*
X138268367Y-112024500D01*
X138131633Y-112024500D01*
X138077099Y-112040512D01*
X138000441Y-112063021D01*
X138000439Y-112063022D01*
X137885409Y-112136946D01*
X137852003Y-112175500D01*
X137795870Y-112240282D01*
X137739069Y-112364658D01*
X137719610Y-112500000D01*
X132355212Y-112500000D01*
X132399561Y-112486978D01*
X132514589Y-112413055D01*
X132604130Y-112309718D01*
X132660931Y-112185342D01*
X132680390Y-112050000D01*
X132660931Y-111914658D01*
X132604130Y-111790282D01*
X132514589Y-111686945D01*
X132399561Y-111613022D01*
X132268367Y-111574500D01*
X132131633Y-111574500D01*
X132077099Y-111590512D01*
X132000441Y-111613021D01*
X132000439Y-111613022D01*
X131885409Y-111686946D01*
X131795870Y-111790282D01*
X131739069Y-111914657D01*
X131732590Y-111959718D01*
X131719610Y-112050000D01*
X129055500Y-112050000D01*
X129055500Y-111275000D01*
X135519610Y-111275000D01*
X135539069Y-111410342D01*
X135595870Y-111534718D01*
X135685411Y-111638055D01*
X135800439Y-111711978D01*
X135931633Y-111750500D01*
X135931634Y-111750500D01*
X136068366Y-111750500D01*
X136068367Y-111750500D01*
X136199561Y-111711978D01*
X136218199Y-111700000D01*
X165519610Y-111700000D01*
X165539069Y-111835342D01*
X165595870Y-111959718D01*
X165652003Y-112024500D01*
X165685381Y-112063021D01*
X165685411Y-112063055D01*
X165800439Y-112136978D01*
X165931633Y-112175500D01*
X165931634Y-112175500D01*
X166068366Y-112175500D01*
X166068367Y-112175500D01*
X166199561Y-112136978D01*
X166314589Y-112063055D01*
X166404130Y-111959718D01*
X166460931Y-111835342D01*
X166480390Y-111700000D01*
X166460931Y-111564658D01*
X166404130Y-111440282D01*
X166314589Y-111336945D01*
X166199561Y-111263022D01*
X166068367Y-111224500D01*
X165931633Y-111224500D01*
X165877099Y-111240512D01*
X165800441Y-111263021D01*
X165800439Y-111263022D01*
X165685409Y-111336946D01*
X165595870Y-111440282D01*
X165539069Y-111564657D01*
X165528516Y-111638055D01*
X165519610Y-111700000D01*
X136218199Y-111700000D01*
X136314589Y-111638055D01*
X136404130Y-111534718D01*
X136460931Y-111410342D01*
X136480390Y-111275000D01*
X136460931Y-111139658D01*
X136404130Y-111015282D01*
X136314589Y-110911945D01*
X136199561Y-110838022D01*
X136068367Y-110799500D01*
X135931633Y-110799500D01*
X135877099Y-110815512D01*
X135800441Y-110838021D01*
X135800439Y-110838022D01*
X135685409Y-110911946D01*
X135595870Y-111015282D01*
X135545535Y-111125500D01*
X135539069Y-111139658D01*
X135519610Y-111275000D01*
X129055500Y-111275000D01*
X129055500Y-110650000D01*
X151919610Y-110650000D01*
X151939069Y-110785342D01*
X151995870Y-110909718D01*
X152085411Y-111013055D01*
X152200439Y-111086978D01*
X152331633Y-111125500D01*
X152331634Y-111125500D01*
X152468366Y-111125500D01*
X152468367Y-111125500D01*
X152599561Y-111086978D01*
X152714589Y-111013055D01*
X152804130Y-110909718D01*
X152860931Y-110785342D01*
X152880390Y-110650000D01*
X152860931Y-110514658D01*
X152804130Y-110390282D01*
X152714589Y-110286945D01*
X152599561Y-110213022D01*
X152468367Y-110174500D01*
X152331633Y-110174500D01*
X152294709Y-110185342D01*
X152200441Y-110213021D01*
X152200439Y-110213022D01*
X152085409Y-110286946D01*
X151995870Y-110390282D01*
X151951711Y-110486977D01*
X151939069Y-110514658D01*
X151919610Y-110650000D01*
X129055500Y-110650000D01*
X129055500Y-110108970D01*
X129067230Y-110050000D01*
X139469610Y-110050000D01*
X139489069Y-110185342D01*
X139545870Y-110309718D01*
X139635411Y-110413055D01*
X139750439Y-110486978D01*
X139881633Y-110525500D01*
X139881634Y-110525500D01*
X140018366Y-110525500D01*
X140018367Y-110525500D01*
X140149561Y-110486978D01*
X140264589Y-110413055D01*
X140354130Y-110309718D01*
X140410931Y-110185342D01*
X140430390Y-110050000D01*
X140410931Y-109914658D01*
X140354130Y-109790282D01*
X140264589Y-109686945D01*
X140149561Y-109613022D01*
X140018367Y-109574500D01*
X139881633Y-109574500D01*
X139827099Y-109590512D01*
X139750441Y-109613021D01*
X139750439Y-109613022D01*
X139635409Y-109686946D01*
X139545869Y-109790282D01*
X139545870Y-109790282D01*
X139489069Y-109914658D01*
X139469610Y-110050000D01*
X129067230Y-110050000D01*
X129074454Y-110013682D01*
X129128427Y-109932903D01*
X130011330Y-109050000D01*
X133194610Y-109050000D01*
X133214069Y-109185342D01*
X133270870Y-109309718D01*
X133360411Y-109413055D01*
X133475439Y-109486978D01*
X133606633Y-109525500D01*
X133606634Y-109525500D01*
X133743366Y-109525500D01*
X133743367Y-109525500D01*
X133874561Y-109486978D01*
X133989589Y-109413055D01*
X134079130Y-109309718D01*
X134135931Y-109185342D01*
X134155390Y-109050000D01*
X134135931Y-108914658D01*
X134079130Y-108790282D01*
X133989589Y-108686945D01*
X133874561Y-108613022D01*
X133743367Y-108574500D01*
X133606633Y-108574500D01*
X133552099Y-108590512D01*
X133475441Y-108613021D01*
X133475439Y-108613022D01*
X133360409Y-108686946D01*
X133270870Y-108790281D01*
X133270870Y-108790282D01*
X133214069Y-108914658D01*
X133194610Y-109050000D01*
X130011330Y-109050000D01*
X131332900Y-107728430D01*
X131413683Y-107674454D01*
X131508971Y-107655500D01*
X163005476Y-107655500D01*
X163005481Y-107655500D01*
X163019148Y-107654767D01*
X163019153Y-107654766D01*
X163019160Y-107654766D01*
X163052310Y-107651202D01*
X163147444Y-107621413D01*
X163208767Y-107587928D01*
X163266985Y-107544347D01*
X164174186Y-106637146D01*
X164183332Y-106626964D01*
X164204260Y-106600993D01*
X164250465Y-106512662D01*
X164270150Y-106445623D01*
X164280500Y-106373638D01*
X164280500Y-104075000D01*
X165519610Y-104075000D01*
X165539069Y-104210342D01*
X165595870Y-104334718D01*
X165685411Y-104438055D01*
X165800439Y-104511978D01*
X165931633Y-104550500D01*
X165931634Y-104550500D01*
X166068366Y-104550500D01*
X166068367Y-104550500D01*
X166199561Y-104511978D01*
X166314589Y-104438055D01*
X166404130Y-104334718D01*
X166460931Y-104210342D01*
X166480390Y-104075000D01*
X166460931Y-103939658D01*
X166404130Y-103815282D01*
X166314589Y-103711945D01*
X166199561Y-103638022D01*
X166068367Y-103599500D01*
X165931633Y-103599500D01*
X165877099Y-103615512D01*
X165800441Y-103638021D01*
X165800439Y-103638022D01*
X165685409Y-103711946D01*
X165595870Y-103815282D01*
X165539069Y-103939658D01*
X165519610Y-104075000D01*
X164280500Y-104075000D01*
X164280500Y-96369519D01*
X164279767Y-96355852D01*
X164276202Y-96322690D01*
X164246413Y-96227556D01*
X164212928Y-96166233D01*
X164169347Y-96108015D01*
X163562146Y-95500814D01*
X163551964Y-95491668D01*
X163525993Y-95470740D01*
X163525990Y-95470738D01*
X163437661Y-95424534D01*
X163370627Y-95404850D01*
X163334630Y-95399675D01*
X163298638Y-95394500D01*
X118169519Y-95394500D01*
X118155852Y-95395233D01*
X118155846Y-95395233D01*
X118155839Y-95395234D01*
X118155840Y-95395234D01*
X118122689Y-95398797D01*
X118122687Y-95398798D01*
X118027559Y-95428585D01*
X117966233Y-95462072D01*
X117908018Y-95505650D01*
X117908015Y-95505652D01*
X117908015Y-95505653D01*
X117425814Y-95987854D01*
X117416668Y-95998036D01*
X117407636Y-96009243D01*
X117395740Y-96024006D01*
X117395738Y-96024009D01*
X117349534Y-96112337D01*
X117349534Y-96112339D01*
X117329850Y-96179372D01*
X117329850Y-96179373D01*
X117319500Y-96251365D01*
X117319500Y-106105476D01*
X113300500Y-106105476D01*
X113300499Y-79450000D01*
X152869722Y-79450000D01*
X152888763Y-79606818D01*
X152944780Y-79754523D01*
X153034517Y-79884530D01*
X153152760Y-79989283D01*
X153292635Y-80062696D01*
X153446015Y-80100500D01*
X153446020Y-80100500D01*
X153603980Y-80100500D01*
X153603985Y-80100500D01*
X153757365Y-80062696D01*
X153897240Y-79989283D01*
X154015483Y-79884530D01*
X154105220Y-79754523D01*
X154161237Y-79606818D01*
X154180278Y-79450000D01*
X154161237Y-79293182D01*
X154105220Y-79145477D01*
X154015483Y-79015470D01*
X153897240Y-78910717D01*
X153897239Y-78910716D01*
X153757367Y-78837305D01*
X153757366Y-78837304D01*
X153757365Y-78837304D01*
X153654155Y-78811865D01*
X153603986Y-78799500D01*
X153603985Y-78799500D01*
X153446015Y-78799500D01*
X153446013Y-78799500D01*
X153345673Y-78824231D01*
X153292635Y-78837304D01*
X153292634Y-78837304D01*
X153292632Y-78837305D01*
X153152760Y-78910716D01*
X153034519Y-79015467D01*
X153034517Y-79015469D01*
X152944781Y-79145475D01*
X152944779Y-79145479D01*
X152888763Y-79293180D01*
X152888762Y-79293182D01*
X152888763Y-79293182D01*
X152869722Y-79450000D01*
X113300499Y-79450000D01*
X113300499Y-74675000D01*
X128044610Y-74675000D01*
X128064069Y-74810342D01*
X128120870Y-74934718D01*
X128210411Y-75038055D01*
X128325439Y-75111978D01*
X128456633Y-75150500D01*
X128456634Y-75150500D01*
X128593366Y-75150500D01*
X128593367Y-75150500D01*
X128724561Y-75111978D01*
X128839589Y-75038055D01*
X128929130Y-74934718D01*
X128985931Y-74810342D01*
X129005390Y-74675000D01*
X128987418Y-74550000D01*
X146519610Y-74550000D01*
X146539069Y-74685342D01*
X146595870Y-74809718D01*
X146664317Y-74888711D01*
X146682519Y-74909718D01*
X146685411Y-74913055D01*
X146800439Y-74986978D01*
X146931633Y-75025500D01*
X146931634Y-75025500D01*
X147068366Y-75025500D01*
X147068367Y-75025500D01*
X147199561Y-74986978D01*
X147314589Y-74913055D01*
X147404130Y-74809718D01*
X147460931Y-74685342D01*
X147466012Y-74650000D01*
X164669610Y-74650000D01*
X164689069Y-74785342D01*
X164745870Y-74909718D01*
X164835411Y-75013055D01*
X164950439Y-75086978D01*
X165081633Y-75125500D01*
X165081634Y-75125500D01*
X165218366Y-75125500D01*
X165218367Y-75125500D01*
X165349561Y-75086978D01*
X165464589Y-75013055D01*
X165554130Y-74909718D01*
X165610931Y-74785342D01*
X165630390Y-74650000D01*
X165610931Y-74514658D01*
X165554130Y-74390282D01*
X165475135Y-74299116D01*
X165464590Y-74286946D01*
X165464589Y-74286945D01*
X165349561Y-74213022D01*
X165218367Y-74174500D01*
X165081633Y-74174500D01*
X165039249Y-74186945D01*
X164950441Y-74213021D01*
X164950439Y-74213022D01*
X164835409Y-74286946D01*
X164745870Y-74390282D01*
X164689069Y-74514657D01*
X164685475Y-74539658D01*
X164669610Y-74650000D01*
X147466012Y-74650000D01*
X147480390Y-74550000D01*
X147460931Y-74414658D01*
X147404130Y-74290282D01*
X147314589Y-74186945D01*
X147199561Y-74113022D01*
X147068367Y-74074500D01*
X146931633Y-74074500D01*
X146877099Y-74090512D01*
X146800441Y-74113021D01*
X146800439Y-74113022D01*
X146685409Y-74186946D01*
X146598761Y-74286945D01*
X146595870Y-74290282D01*
X146539069Y-74414658D01*
X146519610Y-74550000D01*
X128987418Y-74550000D01*
X128985931Y-74539658D01*
X128929130Y-74415282D01*
X128839589Y-74311945D01*
X128724561Y-74238022D01*
X128593367Y-74199500D01*
X128456633Y-74199500D01*
X128410585Y-74213021D01*
X128325441Y-74238021D01*
X128325439Y-74238022D01*
X128210409Y-74311946D01*
X128120870Y-74415282D01*
X128064069Y-74539657D01*
X128048205Y-74649999D01*
X128044610Y-74675000D01*
X113300499Y-74675000D01*
X113300499Y-72950000D01*
X134044965Y-72950000D01*
X134063026Y-73087183D01*
X134072563Y-73110207D01*
X134115977Y-73215020D01*
X134115978Y-73215022D01*
X134146290Y-73254524D01*
X134200209Y-73324791D01*
X134200213Y-73324794D01*
X134309977Y-73409021D01*
X134309980Y-73409022D01*
X134309982Y-73409024D01*
X134437817Y-73461974D01*
X134575000Y-73480035D01*
X134712183Y-73461974D01*
X134840018Y-73409024D01*
X134949791Y-73324791D01*
X135034024Y-73215018D01*
X135086974Y-73087183D01*
X135105035Y-72950000D01*
X135105035Y-72949999D01*
X151144722Y-72949999D01*
X151163763Y-73106819D01*
X151204798Y-73215018D01*
X151219780Y-73254523D01*
X151309517Y-73384530D01*
X151427760Y-73489283D01*
X151567635Y-73562696D01*
X151721015Y-73600500D01*
X151721020Y-73600500D01*
X151878980Y-73600500D01*
X151878985Y-73600500D01*
X152032365Y-73562696D01*
X152172240Y-73489283D01*
X152290483Y-73384530D01*
X152380220Y-73254523D01*
X152429681Y-73124102D01*
X152481193Y-73041729D01*
X152560307Y-72985337D01*
X152654979Y-72963514D01*
X152750796Y-72979581D01*
X152833171Y-73031093D01*
X152889563Y-73110207D01*
X152895315Y-73124095D01*
X152944780Y-73254523D01*
X153034517Y-73384530D01*
X153152760Y-73489283D01*
X153292635Y-73562696D01*
X153446015Y-73600500D01*
X153446020Y-73600500D01*
X153603980Y-73600500D01*
X153603985Y-73600500D01*
X153757365Y-73562696D01*
X153897240Y-73489283D01*
X154015483Y-73384530D01*
X154105220Y-73254523D01*
X154161237Y-73106818D01*
X154180278Y-72950000D01*
X169344722Y-72950000D01*
X169363763Y-73106819D01*
X169404798Y-73215018D01*
X169419780Y-73254523D01*
X169509517Y-73384530D01*
X169627760Y-73489283D01*
X169767635Y-73562696D01*
X169921015Y-73600500D01*
X169921020Y-73600500D01*
X170078980Y-73600500D01*
X170078985Y-73600500D01*
X170232365Y-73562696D01*
X170372240Y-73489283D01*
X170490483Y-73384530D01*
X170580220Y-73254523D01*
X170636237Y-73106818D01*
X170655278Y-72950000D01*
X170636237Y-72793182D01*
X170580220Y-72645477D01*
X170490483Y-72515470D01*
X170372240Y-72410717D01*
X170372239Y-72410716D01*
X170232367Y-72337305D01*
X170232366Y-72337304D01*
X170232365Y-72337304D01*
X170129155Y-72311865D01*
X170078986Y-72299500D01*
X170078985Y-72299500D01*
X169921015Y-72299500D01*
X169921013Y-72299500D01*
X169820673Y-72324231D01*
X169767635Y-72337304D01*
X169767634Y-72337304D01*
X169767632Y-72337305D01*
X169627760Y-72410716D01*
X169509519Y-72515467D01*
X169509517Y-72515469D01*
X169419781Y-72645475D01*
X169419779Y-72645479D01*
X169363763Y-72793180D01*
X169344722Y-72950000D01*
X154180278Y-72950000D01*
X154161237Y-72793182D01*
X154105220Y-72645477D01*
X154015483Y-72515470D01*
X153897240Y-72410717D01*
X153897239Y-72410716D01*
X153757367Y-72337305D01*
X153757366Y-72337304D01*
X153757365Y-72337304D01*
X153654155Y-72311865D01*
X153603986Y-72299500D01*
X153603985Y-72299500D01*
X153446015Y-72299500D01*
X153446013Y-72299500D01*
X153345673Y-72324231D01*
X153292635Y-72337304D01*
X153292634Y-72337304D01*
X153292632Y-72337305D01*
X153152760Y-72410716D01*
X153034519Y-72515467D01*
X153034517Y-72515469D01*
X152944781Y-72645475D01*
X152944779Y-72645479D01*
X152895319Y-72775896D01*
X152843807Y-72858270D01*
X152764693Y-72914662D01*
X152670021Y-72936485D01*
X152574203Y-72920418D01*
X152491829Y-72868906D01*
X152435437Y-72789792D01*
X152429681Y-72775896D01*
X152380220Y-72645477D01*
X152290483Y-72515470D01*
X152172240Y-72410717D01*
X152172239Y-72410716D01*
X152032367Y-72337305D01*
X152032366Y-72337304D01*
X152032365Y-72337304D01*
X151929155Y-72311865D01*
X151878986Y-72299500D01*
X151878985Y-72299500D01*
X151721015Y-72299500D01*
X151721013Y-72299500D01*
X151620673Y-72324231D01*
X151567635Y-72337304D01*
X151567634Y-72337304D01*
X151567632Y-72337305D01*
X151427760Y-72410716D01*
X151309519Y-72515467D01*
X151309517Y-72515469D01*
X151219781Y-72645475D01*
X151219779Y-72645479D01*
X151163763Y-72793180D01*
X151144722Y-72949999D01*
X135105035Y-72949999D01*
X135086974Y-72812817D01*
X135086972Y-72812813D01*
X135086972Y-72812810D01*
X135034027Y-72684989D01*
X135034024Y-72684983D01*
X134949794Y-72575213D01*
X134949791Y-72575209D01*
X134949786Y-72575205D01*
X134840022Y-72490978D01*
X134840020Y-72490977D01*
X134840008Y-72490972D01*
X134712183Y-72438026D01*
X134575000Y-72419965D01*
X134437817Y-72438026D01*
X134437816Y-72438026D01*
X134437810Y-72438027D01*
X134309989Y-72490972D01*
X134309979Y-72490978D01*
X134200213Y-72575204D01*
X134200204Y-72575213D01*
X134115978Y-72684979D01*
X134115972Y-72684989D01*
X134063027Y-72812810D01*
X134063026Y-72812816D01*
X134063026Y-72812817D01*
X134044965Y-72950000D01*
X113300499Y-72950000D01*
X113300499Y-66900000D01*
X114794506Y-66900000D01*
X114814468Y-67268192D01*
X114814469Y-67268197D01*
X114874125Y-67632079D01*
X114874127Y-67632088D01*
X114972773Y-67987381D01*
X114972776Y-67987388D01*
X115109253Y-68329923D01*
X115109256Y-68329930D01*
X115281976Y-68655713D01*
X115281981Y-68655722D01*
X115488908Y-68960915D01*
X115727621Y-69241950D01*
X115727625Y-69241954D01*
X115727627Y-69241956D01*
X115995330Y-69495538D01*
X116288881Y-69718690D01*
X116604838Y-69908795D01*
X116604842Y-69908797D01*
X116604844Y-69908798D01*
X116604846Y-69908799D01*
X116738701Y-69970727D01*
X116939497Y-70063625D01*
X117288934Y-70181364D01*
X117529012Y-70234209D01*
X117649046Y-70260631D01*
X117649049Y-70260631D01*
X117649052Y-70260632D01*
X117747225Y-70271309D01*
X118015624Y-70300500D01*
X118015630Y-70300500D01*
X118384376Y-70300500D01*
X118600119Y-70277035D01*
X118750948Y-70260632D01*
X119111066Y-70181364D01*
X119460503Y-70063625D01*
X119795162Y-69908795D01*
X120111119Y-69718690D01*
X120404670Y-69495538D01*
X120672373Y-69241956D01*
X120911090Y-68960917D01*
X121118022Y-68655716D01*
X121290743Y-68329930D01*
X121427227Y-67987379D01*
X121525875Y-67632081D01*
X121585531Y-67268199D01*
X121605494Y-66900000D01*
X121585531Y-66531801D01*
X121525875Y-66167919D01*
X121493136Y-66050005D01*
X136894532Y-66050005D01*
X136914363Y-66276679D01*
X136914365Y-66276694D01*
X136973261Y-66496496D01*
X136973262Y-66496499D01*
X137069428Y-66702727D01*
X137069436Y-66702741D01*
X137199949Y-66889134D01*
X137199953Y-66889139D01*
X137360861Y-67050047D01*
X137360864Y-67050049D01*
X137360865Y-67050050D01*
X137547258Y-67180563D01*
X137547262Y-67180565D01*
X137547266Y-67180568D01*
X137753504Y-67276739D01*
X137973308Y-67335635D01*
X137992984Y-67337356D01*
X138199994Y-67355468D01*
X138200000Y-67355468D01*
X138200006Y-67355468D01*
X138379668Y-67339749D01*
X138426692Y-67335635D01*
X138646496Y-67276739D01*
X138852734Y-67180568D01*
X139039139Y-67050047D01*
X139200047Y-66889139D01*
X139330568Y-66702734D01*
X139426739Y-66496496D01*
X139485635Y-66276692D01*
X139495151Y-66167920D01*
X139505468Y-66050005D01*
X141894532Y-66050005D01*
X141914363Y-66276679D01*
X141914365Y-66276694D01*
X141973261Y-66496496D01*
X141973262Y-66496499D01*
X142069428Y-66702727D01*
X142069436Y-66702741D01*
X142199949Y-66889134D01*
X142199953Y-66889139D01*
X142360861Y-67050047D01*
X142360864Y-67050049D01*
X142360865Y-67050050D01*
X142547258Y-67180563D01*
X142547262Y-67180565D01*
X142547266Y-67180568D01*
X142753504Y-67276739D01*
X142973308Y-67335635D01*
X142992984Y-67337356D01*
X143199994Y-67355468D01*
X143200000Y-67355468D01*
X143200006Y-67355468D01*
X143379668Y-67339749D01*
X143426692Y-67335635D01*
X143646496Y-67276739D01*
X143852734Y-67180568D01*
X144039139Y-67050047D01*
X144200047Y-66889139D01*
X144330568Y-66702734D01*
X144426739Y-66496496D01*
X144485635Y-66276692D01*
X144495151Y-66167920D01*
X144505468Y-66050005D01*
X146894532Y-66050005D01*
X146914363Y-66276679D01*
X146914365Y-66276694D01*
X146973261Y-66496496D01*
X146973262Y-66496499D01*
X147069428Y-66702727D01*
X147069436Y-66702741D01*
X147199949Y-66889134D01*
X147199953Y-66889139D01*
X147360861Y-67050047D01*
X147360864Y-67050049D01*
X147360865Y-67050050D01*
X147547258Y-67180563D01*
X147547262Y-67180565D01*
X147547266Y-67180568D01*
X147753504Y-67276739D01*
X147973308Y-67335635D01*
X147992984Y-67337356D01*
X148199994Y-67355468D01*
X148200000Y-67355468D01*
X148200006Y-67355468D01*
X148379668Y-67339749D01*
X148426692Y-67335635D01*
X148646496Y-67276739D01*
X148852734Y-67180568D01*
X149039139Y-67050047D01*
X149189186Y-66900000D01*
X164794506Y-66900000D01*
X164814468Y-67268192D01*
X164814469Y-67268197D01*
X164874125Y-67632079D01*
X164874127Y-67632088D01*
X164972773Y-67987381D01*
X164972776Y-67987388D01*
X165109253Y-68329923D01*
X165109256Y-68329930D01*
X165281976Y-68655713D01*
X165281981Y-68655722D01*
X165488908Y-68960915D01*
X165727621Y-69241950D01*
X165727625Y-69241954D01*
X165727627Y-69241956D01*
X165995330Y-69495538D01*
X166288881Y-69718690D01*
X166604838Y-69908795D01*
X166604842Y-69908797D01*
X166604844Y-69908798D01*
X166604846Y-69908799D01*
X166738701Y-69970726D01*
X166939497Y-70063625D01*
X167288934Y-70181364D01*
X167529012Y-70234209D01*
X167649046Y-70260631D01*
X167649049Y-70260631D01*
X167649052Y-70260632D01*
X167747225Y-70271309D01*
X168015624Y-70300500D01*
X168015630Y-70300500D01*
X168384376Y-70300500D01*
X168600119Y-70277035D01*
X168750948Y-70260632D01*
X169111066Y-70181364D01*
X169460503Y-70063625D01*
X169795162Y-69908795D01*
X170111119Y-69718690D01*
X170404670Y-69495538D01*
X170672373Y-69241956D01*
X170911090Y-68960917D01*
X171118022Y-68655716D01*
X171290743Y-68329930D01*
X171427227Y-67987379D01*
X171525875Y-67632081D01*
X171585531Y-67268199D01*
X171605494Y-66900000D01*
X171585531Y-66531801D01*
X171525875Y-66167919D01*
X171427227Y-65812621D01*
X171343908Y-65603504D01*
X171290746Y-65470076D01*
X171290743Y-65470069D01*
X171118023Y-65144286D01*
X171118018Y-65144277D01*
X170911091Y-64839084D01*
X170672378Y-64558049D01*
X170571013Y-64462031D01*
X170404670Y-64304462D01*
X170111119Y-64081310D01*
X169795162Y-63891205D01*
X169795160Y-63891204D01*
X169795155Y-63891201D01*
X169795153Y-63891200D01*
X169460514Y-63736380D01*
X169460498Y-63736373D01*
X169347884Y-63698429D01*
X169111066Y-63618636D01*
X169111055Y-63618633D01*
X169111053Y-63618633D01*
X168750953Y-63539368D01*
X168750954Y-63539368D01*
X168384376Y-63499500D01*
X168384370Y-63499500D01*
X168015630Y-63499500D01*
X168015624Y-63499500D01*
X167649046Y-63539368D01*
X167288946Y-63618633D01*
X167288940Y-63618634D01*
X167288934Y-63618636D01*
X167172455Y-63657882D01*
X166939501Y-63736373D01*
X166939485Y-63736380D01*
X166604846Y-63891200D01*
X166604844Y-63891201D01*
X166288880Y-64081310D01*
X165995330Y-64304462D01*
X165727621Y-64558049D01*
X165488908Y-64839084D01*
X165281981Y-65144277D01*
X165281976Y-65144286D01*
X165109256Y-65470069D01*
X165109253Y-65470076D01*
X164972779Y-65812605D01*
X164972773Y-65812618D01*
X164874127Y-66167911D01*
X164874125Y-66167919D01*
X164856293Y-66276692D01*
X164814469Y-66531802D01*
X164814468Y-66531807D01*
X164794506Y-66900000D01*
X149189186Y-66900000D01*
X149200047Y-66889139D01*
X149330568Y-66702734D01*
X149426739Y-66496496D01*
X149485635Y-66276692D01*
X149495151Y-66167920D01*
X149505468Y-66050005D01*
X149505468Y-66049994D01*
X149485636Y-65823320D01*
X149485635Y-65823308D01*
X149426739Y-65603504D01*
X149330568Y-65397266D01*
X149330565Y-65397262D01*
X149330563Y-65397258D01*
X149200050Y-65210865D01*
X149200049Y-65210864D01*
X149200047Y-65210861D01*
X149039139Y-65049953D01*
X149039135Y-65049950D01*
X149039134Y-65049949D01*
X148852741Y-64919436D01*
X148852727Y-64919428D01*
X148646499Y-64823262D01*
X148646496Y-64823261D01*
X148426694Y-64764365D01*
X148426679Y-64764363D01*
X148200006Y-64744532D01*
X148199994Y-64744532D01*
X147973320Y-64764363D01*
X147973305Y-64764365D01*
X147753503Y-64823261D01*
X147753500Y-64823262D01*
X147547272Y-64919428D01*
X147547258Y-64919436D01*
X147360865Y-65049949D01*
X147199949Y-65210865D01*
X147069436Y-65397258D01*
X147069428Y-65397272D01*
X146973262Y-65603500D01*
X146973261Y-65603503D01*
X146914365Y-65823305D01*
X146914363Y-65823320D01*
X146894532Y-66049994D01*
X146894532Y-66050005D01*
X144505468Y-66050005D01*
X144505468Y-66049994D01*
X144485636Y-65823320D01*
X144485635Y-65823308D01*
X144426739Y-65603504D01*
X144330568Y-65397266D01*
X144330565Y-65397262D01*
X144330563Y-65397258D01*
X144200050Y-65210865D01*
X144200049Y-65210864D01*
X144200047Y-65210861D01*
X144039139Y-65049953D01*
X144039135Y-65049950D01*
X144039134Y-65049949D01*
X143852741Y-64919436D01*
X143852727Y-64919428D01*
X143646499Y-64823262D01*
X143646496Y-64823261D01*
X143426694Y-64764365D01*
X143426679Y-64764363D01*
X143200006Y-64744532D01*
X143199994Y-64744532D01*
X142973320Y-64764363D01*
X142973305Y-64764365D01*
X142753503Y-64823261D01*
X142753500Y-64823262D01*
X142547272Y-64919428D01*
X142547258Y-64919436D01*
X142360865Y-65049949D01*
X142199949Y-65210865D01*
X142069436Y-65397258D01*
X142069428Y-65397272D01*
X141973262Y-65603500D01*
X141973261Y-65603503D01*
X141914365Y-65823305D01*
X141914363Y-65823320D01*
X141894532Y-66049994D01*
X141894532Y-66050005D01*
X139505468Y-66050005D01*
X139505468Y-66049994D01*
X139485636Y-65823320D01*
X139485635Y-65823308D01*
X139426739Y-65603504D01*
X139330568Y-65397266D01*
X139330565Y-65397262D01*
X139330563Y-65397258D01*
X139200050Y-65210865D01*
X139200049Y-65210864D01*
X139200047Y-65210861D01*
X139039139Y-65049953D01*
X139039135Y-65049950D01*
X139039134Y-65049949D01*
X138852741Y-64919436D01*
X138852727Y-64919428D01*
X138646499Y-64823262D01*
X138646496Y-64823261D01*
X138426694Y-64764365D01*
X138426679Y-64764363D01*
X138200006Y-64744532D01*
X138199994Y-64744532D01*
X137973320Y-64764363D01*
X137973305Y-64764365D01*
X137753503Y-64823261D01*
X137753500Y-64823262D01*
X137547272Y-64919428D01*
X137547258Y-64919436D01*
X137360865Y-65049949D01*
X137199949Y-65210865D01*
X137069436Y-65397258D01*
X137069428Y-65397272D01*
X136973262Y-65603500D01*
X136973261Y-65603503D01*
X136914365Y-65823305D01*
X136914363Y-65823320D01*
X136894532Y-66049994D01*
X136894532Y-66050005D01*
X121493136Y-66050005D01*
X121427227Y-65812621D01*
X121343908Y-65603504D01*
X121290746Y-65470076D01*
X121290743Y-65470069D01*
X121118023Y-65144286D01*
X121118018Y-65144277D01*
X120911091Y-64839084D01*
X120672378Y-64558049D01*
X120571013Y-64462031D01*
X120404670Y-64304462D01*
X120111119Y-64081310D01*
X119795162Y-63891205D01*
X119795160Y-63891204D01*
X119795155Y-63891201D01*
X119795153Y-63891200D01*
X119460514Y-63736380D01*
X119460498Y-63736373D01*
X119347884Y-63698429D01*
X119111066Y-63618636D01*
X119111055Y-63618633D01*
X119111053Y-63618633D01*
X118750953Y-63539368D01*
X118750954Y-63539368D01*
X118384376Y-63499500D01*
X118384370Y-63499500D01*
X118015630Y-63499500D01*
X118015624Y-63499500D01*
X117649046Y-63539368D01*
X117288946Y-63618633D01*
X117288940Y-63618634D01*
X117288934Y-63618636D01*
X117172454Y-63657882D01*
X116939501Y-63736373D01*
X116939485Y-63736380D01*
X116604846Y-63891200D01*
X116604844Y-63891201D01*
X116288880Y-64081310D01*
X115995330Y-64304462D01*
X115727621Y-64558049D01*
X115488908Y-64839084D01*
X115281981Y-65144277D01*
X115281976Y-65144286D01*
X115109256Y-65470069D01*
X115109253Y-65470076D01*
X114972779Y-65812605D01*
X114972773Y-65812618D01*
X114874127Y-66167911D01*
X114874125Y-66167919D01*
X114856293Y-66276692D01*
X114814469Y-66531802D01*
X114814468Y-66531807D01*
X114794506Y-66900000D01*
X113300499Y-66900000D01*
X113300499Y-65103264D01*
X113300671Y-65096748D01*
X113309963Y-64919428D01*
X113317138Y-64782518D01*
X113318501Y-64769560D01*
X113322465Y-64744532D01*
X113367212Y-64462013D01*
X113369916Y-64449290D01*
X113450514Y-64148491D01*
X113454533Y-64136122D01*
X113566132Y-63845398D01*
X113571421Y-63833518D01*
X113712798Y-63556050D01*
X113719303Y-63544784D01*
X113888915Y-63283606D01*
X113896548Y-63273101D01*
X114092519Y-63031096D01*
X114101235Y-63021418D01*
X114321418Y-62801235D01*
X114331096Y-62792519D01*
X114573101Y-62596548D01*
X114583606Y-62588915D01*
X114844784Y-62419303D01*
X114856050Y-62412798D01*
X115133518Y-62271421D01*
X115145398Y-62266132D01*
X115436122Y-62154533D01*
X115448491Y-62150514D01*
X115749290Y-62069916D01*
X115762013Y-62067212D01*
X116069564Y-62018500D01*
X116082518Y-62017138D01*
X116239269Y-62008923D01*
X116396748Y-62000671D01*
X116403265Y-62000500D01*
X116426929Y-62000500D01*
X169973071Y-62000500D01*
X169996735Y-62000500D01*
X170003252Y-62000671D01*
G37*
%TD.AperFunction*%
%TA.AperFunction,Conductor*%
G36*
X137486288Y-139868954D02*
G01*
X137567070Y-139922930D01*
X137621046Y-140003712D01*
X137640000Y-140099000D01*
X137640000Y-140101000D01*
X137621046Y-140196288D01*
X137567070Y-140277070D01*
X137486288Y-140331046D01*
X137391000Y-140350000D01*
X136349000Y-140350000D01*
X136253712Y-140331046D01*
X136172930Y-140277070D01*
X136118954Y-140196288D01*
X136100000Y-140101000D01*
X136100000Y-140099000D01*
X136118954Y-140003712D01*
X136172930Y-139922930D01*
X136253712Y-139868954D01*
X136349000Y-139850000D01*
X137391000Y-139850000D01*
X137486288Y-139868954D01*
G37*
%TD.AperFunction*%
%TA.AperFunction,Conductor*%
G36*
X140026288Y-139868954D02*
G01*
X140107070Y-139922930D01*
X140161046Y-140003712D01*
X140180000Y-140099000D01*
X140180000Y-140101000D01*
X140161046Y-140196288D01*
X140107070Y-140277070D01*
X140026288Y-140331046D01*
X139931000Y-140350000D01*
X138889000Y-140350000D01*
X138793712Y-140331046D01*
X138712930Y-140277070D01*
X138658954Y-140196288D01*
X138640000Y-140101000D01*
X138640000Y-140099000D01*
X138658954Y-140003712D01*
X138712930Y-139922930D01*
X138793712Y-139868954D01*
X138889000Y-139850000D01*
X139931000Y-139850000D01*
X140026288Y-139868954D01*
G37*
%TD.AperFunction*%
%TD*%
M02*
